<svg viewBox="0 0 216 33" xmlns="http://www.w3.org/2000/svg"><g fill="none" fill-rule="evenodd"><path d="M14.78 12.981a6.268 6.268 0 0 1-4.63 2.123 5.162 5.162 0 0 1-3.756-1.716A5.486 5.486 0 0 1 5 9.406v-.051a5.465 5.465 0 0 1 1.39-3.937 5.143 5.143 0 0 1 3.71-1.71 6.405 6.405 0 0 1 4.5 2.061l2.46-2.926C15.258.941 12.757-.081 10.18.03 7.74-.038 5.378.926 3.645 2.696A9.357 9.357 0 0 0 1 9.406a9.3 9.3 0 0 0 2.564 6.661c1.698 1.769 4.022 2.75 6.436 2.715 2.761.12 5.423-1.072 7.22-3.235l-2.44-2.566zM31.35.34v7.18h-7.14V.34h-3.87v18.133h3.87v-7.274h7.14v7.274h3.87V.339zM43.29 14.928v-3.812h8.3V7.572h-8.3V3.894h9.43V.339H39.44v18.134h13.41v-3.545zM69.69 3.966V.34h-13.4v18.134h3.87v-7.017h8.4V7.83h-8.4V3.966z" fill="#212334" fill-rule="nonzero"/><path d="M79.67.216h1.86l8 18.267h-2.11l-2.06-4.79h-9.58l-2.09 4.78h-2L79.67.216zm4.9 11.601l-4-9.273-4 9.273h8zM92.12 10.89V.34h2v10.416c0 3.915 2 6.11 5.38 6.11s5.31-2.061 5.31-5.987V.34h2v10.386c0 5.285-2.94 8.026-7.34 8.026s-7.32-2.74-7.32-7.872M116.13 2.235h-5.91V.34h13.83v1.896h-5.91v16.238h-2.01zM125.79 9.458c-.009-3.313 1.698-6.38 4.478-8.044a8.771 8.771 0 0 1 9-.025c2.79 1.648 4.513 4.704 4.522 8.017 0 5.121-4.03 9.273-9 9.273s-9-4.152-9-9.273m15.89 0a7.337 7.337 0 0 0-1.931-5.258 6.904 6.904 0 0 0-5.009-2.232 6.814 6.814 0 0 0-4.986 2.204 7.244 7.244 0 0 0-1.904 5.235v.051a7.337 7.337 0 0 0 1.931 5.258 6.904 6.904 0 0 0 5.009 2.232 6.814 6.814 0 0 0 4.986-2.204 7.244 7.244 0 0 0 1.904-5.234M147.94.34h2.01l6.41 9.9 6.41-9.9h2.01v18.133h-1.98V3.79l-6.41 9.705h-.11l-6.41-9.684v14.66h-1.93zM176.27.216h1.86l8 18.267H184l-2-4.801h-9.58l-2.09 4.79h-2L176.27.217zm4.9 11.601l-4-9.273-4 9.273h8zM192.01 2.235h-5.91V.34h13.83v1.896h-5.9v16.238h-2.02zM203.66.34h12.72v1.864h-10.74v6.192h9.61v1.865h-9.61v6.347h10.86v1.865h-12.84z" fill="#FE6100" fill-rule="nonzero"/><path d="M157.32 28.86v-4.74h-1.848v4.812c0 1.332-.684 2.016-1.812 2.016-1.128 0-1.812-.708-1.812-2.076V24.12H150v4.8c0 2.472 1.38 3.732 3.636 3.732 2.256 0 3.684-1.248 3.684-3.792zm9.348 3.66v-8.4h-1.824v5.172l-3.936-5.172h-1.704v8.4h1.824v-5.34l4.068 5.34h1.572zm8.088-2.484v-.024c0-1.464-.96-2.076-2.664-2.52-1.452-.372-1.812-.552-1.812-1.104v-.024c0-.408.372-.732 1.08-.732.708 0 1.44.312 2.184.828l.96-1.392c-.852-.684-1.896-1.068-3.12-1.068-1.716 0-2.94 1.008-2.94 2.532v.024c0 1.668 1.092 2.136 2.784 2.568 1.404.36 1.692.6 1.692 1.068v.024c0 .492-.456.792-1.212.792-.96 0-1.752-.396-2.508-1.02l-1.092 1.308a5.345 5.345 0 0 0 3.564 1.344c1.812 0 3.084-.936 3.084-2.604zm7.968-4.212V24.12h-6.96v1.704h2.556v6.696h1.848v-6.696h2.556zm9.6 6.696h-1.932l-.768-1.884h-3.552l-.768 1.884h-1.884l3.6-8.46h1.704l3.6 8.46zm-3.36-3.516l-1.116-2.724-1.116 2.724h2.232zm11.796 1.212c0 1.536-1.248 2.304-3.144 2.304h-3.996v-8.4h3.9c1.716 0 2.772.852 2.772 2.172v.024c0 .948-.504 1.476-1.104 1.812.972.372 1.572.936 1.572 2.064v.024zm-2.304-3.588v-.024c0-.552-.432-.864-1.212-.864h-1.824v1.776h1.704c.816 0 1.332-.264 1.332-.888zm.468 3.36v-.024c0-.564-.42-.912-1.368-.912h-2.136V30.9h2.196c.816 0 1.308-.288 1.308-.912zm9.396 2.532v-1.68h-4.188v-6.72h-1.848v8.4h6.036zm7.788 0v-1.644h-4.56v-1.764h3.96v-1.644h-3.96v-1.704h4.5V24.12h-6.336v8.4h6.396z" fill="#212334"/></g></svg>