<svg viewBox="0 0 216 33" xmlns="http://www.w3.org/2000/svg"><g fill="none" fill-rule="evenodd"><path d="M13.78 12.981a6.268 6.268 0 0 1-4.63 2.123 5.162 5.162 0 0 1-3.756-1.716A5.486 5.486 0 0 1 4 9.406v-.051a5.465 5.465 0 0 1 1.39-3.937 5.143 5.143 0 0 1 3.71-1.71 6.405 6.405 0 0 1 4.5 2.061l2.46-2.926C14.258.941 11.757-.081 9.18.03 6.74-.038 4.378.926 2.645 2.696A9.357 9.357 0 0 0 0 9.406a9.3 9.3 0 0 0 2.564 6.661c1.698 1.769 4.022 2.75 6.436 2.715 2.761.12 5.423-1.072 7.22-3.235l-2.44-2.566zM30.35.34v7.18h-7.14V.34h-3.87v18.133h3.87v-7.274h7.14v7.274h3.87V.339zM42.29 14.928v-3.812h8.3V7.572h-8.3V3.894h9.43V.339H38.44v18.134h13.41v-3.545zM68.69 3.966V.34h-13.4v18.134h3.87v-7.017h8.4V7.83h-8.4V3.966z" fill="#212334" fill-rule="nonzero"/><path d="M78.67.216h1.86l8 18.267h-2.11l-2.06-4.79h-9.58l-2.09 4.78h-2L78.67.216zm4.9 11.601l-4-9.273-4 9.273h8zM91.12 10.89V.34h2v10.416c0 3.915 2 6.11 5.38 6.11s5.31-2.061 5.31-5.987V.34h2v10.386c0 5.285-2.94 8.026-7.34 8.026s-7.32-2.74-7.32-7.872M115.13 2.235h-5.91V.34h13.83v1.896h-5.91v16.238h-2.01zM124.79 9.458c-.009-3.313 1.698-6.38 4.478-8.044a8.771 8.771 0 0 1 9-.025c2.79 1.648 4.513 4.704 4.522 8.017 0 5.121-4.03 9.273-9 9.273s-9-4.152-9-9.273m15.89 0a7.337 7.337 0 0 0-1.931-5.258 6.904 6.904 0 0 0-5.009-2.232 6.814 6.814 0 0 0-4.986 2.204 7.244 7.244 0 0 0-1.904 5.235v.051a7.337 7.337 0 0 0 1.931 5.258 6.904 6.904 0 0 0 5.009 2.232 6.814 6.814 0 0 0 4.986-2.204 7.244 7.244 0 0 0 1.904-5.234M146.94.34h2.01l6.41 9.9 6.41-9.9h2.01v18.133h-1.98V3.79l-6.41 9.705h-.11l-6.41-9.684v14.66h-1.93zM175.27.216h1.86l8 18.267H183l-2-4.801h-9.58l-2.09 4.79h-2L175.27.217zm4.9 11.601l-4-9.273-4 9.273h8zM191.01 2.235h-5.91V.34h13.83v1.896h-5.9v16.238h-2.02zM202.66.34h12.72v1.864h-10.74v6.192h9.61v1.865h-9.61v6.347h10.86v1.865h-12.84z" fill="#FE6100" fill-rule="nonzero"/><path d="M138.904 32.544h-1.932l-.768-1.884h-3.552l-.768 1.884H130l3.6-8.46h1.704l3.6 8.46zm-3.36-3.516l-1.116-2.724-1.116 2.724h2.232zm12.036 2.16L146.404 30c-.66.6-1.248.984-2.208.984-1.44 0-2.436-1.2-2.436-2.64v-.024c0-1.44 1.02-2.616 2.436-2.616.84 0 1.5.36 2.148.948l1.176-1.356c-.78-.768-1.728-1.296-3.312-1.296-2.58 0-4.38 1.956-4.38 4.344v.024c0 2.412 1.836 4.32 4.308 4.32 1.62 0 2.58-.576 3.444-1.5zm8.856 0L155.26 30c-.66.6-1.248.984-2.208.984-1.44 0-2.436-1.2-2.436-2.64v-.024c0-1.44 1.02-2.616 2.436-2.616.84 0 1.5.36 2.148.948l1.176-1.356c-.78-.768-1.728-1.296-3.312-1.296-2.58 0-4.38 1.956-4.38 4.344v.024c0 2.412 1.836 4.32 4.308 4.32 1.62 0 2.58-.576 3.444-1.5zm7.872 1.356V30.9h-4.56v-1.764h3.96v-1.644h-3.96v-1.704h4.5v-1.644h-6.336v8.4h6.396zm8.292-5.472c0 1.944-1.512 2.952-3.396 2.952H167.8v2.52h-1.848v-8.4h3.432c2.004 0 3.216 1.188 3.216 2.904v.024zm-1.872.036v-.024c0-.828-.576-1.272-1.5-1.272H167.8v2.568h1.464c.924 0 1.464-.552 1.464-1.272zm9.6-1.26v-1.704h-6.96v1.704h2.556v6.696h1.848v-6.696h2.556zm9.6 6.696h-1.932l-.768-1.884h-3.552l-.768 1.884h-1.884l3.6-8.46h1.704l3.6 8.46zm-3.36-3.516l-1.116-2.724-1.116 2.724h2.232zm12.12 3.516v-8.4h-1.824v5.172l-3.936-5.172h-1.704v8.4h1.824v-5.34l4.068 5.34h1.572zm9.396-1.356L206.908 30c-.66.6-1.248.984-2.208.984-1.44 0-2.436-1.2-2.436-2.64v-.024c0-1.44 1.02-2.616 2.436-2.616.84 0 1.5.36 2.148.948l1.176-1.356c-.78-.768-1.728-1.296-3.312-1.296-2.58 0-4.38 1.956-4.38 4.344v.024c0 2.412 1.836 4.32 4.308 4.32 1.62 0 2.58-.576 3.444-1.5zm7.872 1.356V30.9h-4.56v-1.764h3.96v-1.644h-3.96v-1.704h4.5v-1.644h-6.336v8.4h6.396z" fill="#212334"/></g></svg>
