<svg viewBox="0 0 63 63" xmlns="http://www.w3.org/2000/svg"><g fill-rule="nonzero" fill="none"><path d="M31.63 45.44c-7.286.007-13.38-5.535-14.061-12.79C16.887 25.397 21.84 18.817 29 17.466c7.16-1.351 14.171 2.971 16.18 9.975h5.46c-2.009-9.753-11.072-16.404-20.979-15.395-9.906 1.01-17.442 9.352-17.442 19.31 0 9.958 7.536 18.3 17.442 19.31 9.907 1.01 18.97-5.642 20.979-15.395h-5.46a14.13 14.13 0 0 1-13.55 10.17" fill="#435363"/><path d="M22.11 40.84a13.42 13.42 0 0 0 9.51 3.95v-5.63a7.81 7.81 0 0 1-5.54-2.29l-3.97 3.97z" fill="#435363"/><path d="M18.17 31.33a13.37 13.37 0 0 0 1.14 5.42l5.15-2.26a7.83 7.83 0 0 1 7.17-11v-5.62c-7.431.006-13.454 6.029-13.46 13.46" fill="#F38B00"/><path d="M36.51 18.79l-2 5.25a7.86 7.86 0 0 1 3.94 3.38h6.05a13.52 13.52 0 0 0-8-8.63" fill="#435363"/><path d="M34.47 38.63l2 5.25a13.52 13.52 0 0 0 8-8.63h-6.06a7.86 7.86 0 0 1-3.94 3.38" fill="#F38B00"/><path d="M31.63 57.35a25.93 25.93 0 0 1-18.39-7.63l-3.76 3.76a31.33 31.33 0 0 0 53.23-18.23h-5.36c-1.953 12.7-12.87 22.082-25.72 22.1M31.63 5.31a25.87 25.87 0 0 1 15.55 5.18l3.18-4.27A31.33 31.33 0 0 0 2.42 20l5 1.93A26.06 26.06 0 0 1 31.63 5.31" fill="#F38B00"/><path d="M57.35 27.41h5.36a31.14 31.14 0 0 0-4.51-12.67l-4.52 2.82a25.85 25.85 0 0 1 3.66 9.85" fill="#435363"/><path d="M51.31 27.41h5.38A25.44 25.44 0 0 0 40.82 7.7l-1.92 4.94a20.13 20.13 0 0 1 12.41 14.77" fill="#F38B00"/><path d="M31.63 11.27V6A25.4 25.4 0 0 0 8 22.13l4.94 1.92a20.1 20.1 0 0 1 18.7-12.79" fill="#435363"/><path d="M11.56 31.33h-5.3a25.4 25.4 0 0 0 15.95 23.54l2-4.92a20.09 20.09 0 0 1-12.65-18.62" fill="#F38B00"/><path d="M31.63 51.39v5.3c12.488-.014 23.113-9.105 25.06-21.44h-5.38a20.1 20.1 0 0 1-19.68 16.14M2.94 43.94A31.28 31.28 0 0 1 .3 31.33h5.32a26.09 26.09 0 0 0 2.2 10.47l-4.88 2.14z" fill="#435363"/></g></svg>