<svg viewBox="0 0 62 62" xmlns="http://www.w3.org/2000/svg"><g fill-rule="nonzero" fill="none"><path d="M25.38 58.93L2.13 35.68a7.28 7.28 0 0 1 0-10.3L25.38 2.13a7.28 7.28 0 0 1 10.3 0l23.26 23.25a7.28 7.28 0 0 1 0 10.3L35.68 58.93a7.28 7.28 0 0 1-10.3 0" fill="#87B09A"/><path d="M48.33 30.06l-4.27-4.28a.67.67 0 0 0-1.14.47v1.5c0 .37-.3.67-.67.67h-2.34a.67.67 0 0 1-.67-.67v-3.04c0-.37.3-.67.67-.67h.79a.67.67 0 0 0 .47-1.14l-4.27-4.27a.67.67 0 0 0-.94 0l-4.29 4.27a.67.67 0 0 0 .47 1.1h.94c.37 0 .67.3.67.67v3c0 .37-.3.67-.67.67H28a.67.67 0 0 1-.67-.67v-3c0-.37.3-.67.67-.67h1a.67.67 0 0 0 .47-1.14l-4.28-4.27a.67.67 0 0 0-.94 0L19.9 22.9a.67.67 0 0 0 .47 1.1h.75c.37 0 .67.3.67.67v3.05a.67.67 0 0 1-.67.67h-2.3a.67.67 0 0 1-.67-.67v-1.5a.67.67 0 0 0-1.15-.43l-4.27 4.28a.67.67 0 0 0 0 .94L17 35.28a.67.67 0 0 0 1.14-.47v-1.5a.67.67 0 0 1 .67-.67h2.31c.37 0 .67.3.67.67v3.05a.67.67 0 0 1-.67.67h-.75a.67.67 0 0 0-.47 1.14l4.28 4.27a.67.67 0 0 0 .94 0l4.28-4.27a.67.67 0 0 0-.48-1.17H28a.67.67 0 0 1-.67-.67v-3c0-.37.3-.67.67-.67h5.13c.37 0 .67.3.67.67v3c0 .37-.3.67-.67.67h-.94a.67.67 0 0 0-.47 1.14L36 42.41a.67.67 0 0 0 .94 0l4.27-4.27a.67.67 0 0 0-.52-1.14h-.79a.67.67 0 0 1-.67-.67v-3.02c0-.37.3-.67.67-.67h2.34c.37 0 .67.3.67.67v1.5a.67.67 0 0 0 1.14.47L48.33 31a.67.67 0 0 0 0-.94" fill="#FFF"/></g></svg>