<?xml version="1.0" encoding="utf-8"?>
<!-- Generator: Adobe Illustrator 19.2.1, SVG Export Plug-In . SVG Version: 6.00 Build 0)  -->
<svg version="1.1" id="Layer_1" xmlns="http://www.w3.org/2000/svg" xmlns:xlink="http://www.w3.org/1999/xlink" x="0px" y="0px"
	 viewBox="0 0 335.5 145.1" style="enable-background:new 0 0 335.5 145.1;" xml:space="preserve">
<style type="text/css">
	.st0{fill:#F38B00;}
	.st1{fill:#435363;}
</style>
<g>
	<g>
		<path class="st0" d="M16.6,107.9h3.8L37,144.5h-4.4l-4.3-9.6H8.5l-4.3,9.6H0L16.6,107.9z M26.7,131.1l-8.3-18.5l-8.3,18.5H26.7z"
			/>
		<path class="st0" d="M47.5,129.3v-21.1h4.1V129c0,7.8,4.2,12.3,11.1,12.3c6.7,0,11-4.1,11-12v-21.1h4.1V129
			c0,10.6-6.1,16.1-15.2,16.1C53.6,145.1,47.5,139.5,47.5,129.3z"/>
		<path class="st0" d="M102.2,111.9H90v-3.8h28.6v3.8h-12.2v32.6h-4.2V111.9z"/>
		<path class="st0" d="M127.4,126.4v-0.1c0-10,7.5-18.8,18.6-18.8c11.1,0,18.5,8.7,18.5,18.7v0.1c0,10-7.5,18.8-18.6,18.8
			C134.8,145.1,127.4,136.4,127.4,126.4z M160.2,126.4v-0.1c0-8.3-6-15-14.3-15c-8.3,0-14.2,6.6-14.2,14.9v0.1c0,8.3,6,15,14.3,15
			C154.3,141.3,160.2,134.7,160.2,126.4z"/>
		<path class="st0" d="M178.3,108.1h4.2l13.2,19.8l13.2-19.8h4.2v36.4H209V115l-13.2,19.5h-0.2l-13.2-19.4v29.4h-4V108.1z"/>
		<path class="st0" d="M242,107.9h3.8l16.6,36.6H258l-4.3-9.6H234l-4.3,9.6h-4.2L242,107.9z M252.2,131.1l-8.3-18.5l-8.3,18.5H252.2
			z"/>
		<path class="st0" d="M279.7,111.9h-12.2v-3.8h28.6v3.8h-12.2v32.6h-4.2V111.9z"/>
		<path class="st0" d="M309,108.1h26.3v3.7h-22.2v12.4h19.8v3.7h-19.8v12.7h22.4v3.7H309V108.1z"/>
	</g>
	<g>
		<g>
			<path class="st1" d="M0,42.5v-0.2C0,19,17.5,0,42.6,0c15.4,0,24.7,5.1,32.2,12.6L63.4,25.8c-6.3-5.7-12.7-9.2-20.9-9.2
				c-13.8,0-23.7,11.5-23.7,25.5v0.2c0,14,9.7,25.7,23.7,25.7c9.3,0,15.1-3.7,21.5-9.6L75.5,70c-8.4,9-17.8,14.6-33.5,14.6
				C17.9,84.6,0,66,0,42.5"/>
			<polygon class="st1" points="96.3,1.4 114.3,1.4 114.3,33.8 147.5,33.8 147.5,1.4 165.5,1.4 165.5,83.2 147.5,83.2 147.5,50.4 
				114.3,50.4 114.3,83.2 96.3,83.2 96.3,1.4 			"/>
			<polygon class="st1" points="187.4,1.4 249.1,1.4 249.1,17.4 205.3,17.4 205.3,34 243.9,34 243.9,50 205.3,50 205.3,67.2 
				249.7,67.2 249.7,83.2 187.4,83.2 187.4,1.4 			"/>
			<polygon class="st1" points="273.2,1.4 335.5,1.4 335.5,17.8 291.2,17.8 291.2,35.2 330.3,35.2 330.3,51.5 291.2,51.5 
				291.2,83.2 273.2,83.2 273.2,1.4 			"/>
		</g>
	</g>
</g>
</svg>
