<svg xmlns="http://www.w3.org/2000/svg" viewBox="0 0 215.5 32.5"><defs><style>.cls-1{fill:#212334;}.cls-2{fill:#fe6100;}</style></defs><title>AutomateLogo-Preview</title><g id="Layer_2" data-name="Layer 2"><g id="Layer_1-2" data-name="Layer 1"><path class="cls-1" d="M155.68,25.36a2.78,2.78,0,0,0-.68-1,3.07,3.07,0,0,0-1.07-.63,4.3,4.3,0,0,0-1.43-.22h-3.65v8.91h2V29.79h1.44a4.86,4.86,0,0,0,1.41-.2,3.38,3.38,0,0,0,1.15-.59,2.82,2.82,0,0,0,.77-1,3.15,3.15,0,0,0,.28-1.37v0A3.26,3.26,0,0,0,155.68,25.36Zm-1.81,1.32a1.23,1.23,0,0,1-.39.92,1.55,1.55,0,0,1-1.11.37h-1.5V25.36h1.46a1.76,1.76,0,0,1,1.13.33,1.17,1.17,0,0,1,.41,1Z"/><path class="cls-1" d="M163.8,29.26a3.08,3.08,0,0,0,1.34-1,2.82,2.82,0,0,0,.53-1.77v0a2.78,2.78,0,0,0-.77-2,3.53,3.53,0,0,0-2.6-.91h-4.08v8.91h2V29.61h1.46l1.88,2.81v0H166Zm-.18-2.66a1.12,1.12,0,0,1-.37.88,1.59,1.59,0,0,1-1.08.33h-1.93V25.36h1.89a1.76,1.76,0,0,1,1.1.31,1.1,1.1,0,0,1,.39.92Z"/><polygon class="cls-1" points="170.29 30.63 170.29 28.85 174.46 28.85 174.46 27.05 170.29 27.05 170.29 25.33 175.02 25.33 175.02 23.52 168.29 23.52 168.29 32.44 175.09 32.44 175.09 30.63 170.29 30.63"/><polygon class="cls-1" points="183.71 23.52 181.43 29.67 179.16 23.55 179.15 23.52 176.92 23.52 180.51 32.48 180.52 32.5 182.29 32.5 185.87 23.58 185.89 23.52 183.71 23.52"/><rect class="cls-1" x="188.19" y="23.52" width="2.02" height="8.91"/><polygon class="cls-1" points="195.29 30.63 195.29 28.85 199.45 28.85 199.45 27.05 195.29 27.05 195.29 25.33 200.02 25.33 200.02 23.52 193.29 23.52 193.29 32.44 200.08 32.44 200.08 30.63 195.29 30.63"/><polygon class="cls-1" points="213.39 23.52 211.59 29.41 209.65 23.53 209.64 23.5 207.91 23.5 205.96 29.41 204.16 23.52 202 23.52 205.03 32.47 205.04 32.5 206.78 32.5 208.75 26.8 210.71 32.47 210.72 32.5 212.46 32.5 215.49 23.58 215.5 23.52 213.39 23.52"/><path class="cls-1" d="M13.78,12.57a6.35,6.35,0,0,1-4.63,2.06A5.23,5.23,0,0,1,4,9.1V9.05a5.21,5.21,0,0,1,5.1-5.48,6.49,6.49,0,0,1,4.5,2l2.46-2.84A9.08,9.08,0,0,0,9.18,0,8.94,8.94,0,0,0,0,9.1v0A8.88,8.88,0,0,0,9,18.2a9,9,0,0,0,7.22-3.14Z"/><polygon class="cls-1" points="30.35 0.3 30.35 7.27 23.21 7.27 23.21 0.3 19.34 0.3 19.34 17.9 23.21 17.9 23.21 10.84 30.35 10.84 30.35 17.9 34.22 17.9 34.22 0.3 30.35 0.3"/><polygon class="cls-1" points="42.29 14.46 42.29 10.76 50.59 10.76 50.59 7.32 42.29 7.32 42.29 3.75 51.72 3.75 51.72 0.3 38.44 0.3 38.44 17.9 51.85 17.9 51.85 14.46 42.29 14.46"/><polygon class="cls-1" points="68.69 3.82 68.69 0.3 55.29 0.3 55.29 17.9 59.16 17.9 59.16 11.09 67.56 11.09 67.56 7.57 59.16 7.57 59.16 3.82 68.69 3.82"/><path class="cls-2" d="M78.67.18h1.86l8,17.73H86.42l-2.06-4.65H74.78L72.69,17.9h-2Zm4.9,11.26-4-9-4,9Z"/><path class="cls-2" d="M91.12,10.54V.3h2V10.41c0,3.8,2,5.93,5.38,5.93s5.31-2,5.31-5.81V.3h2V10.38c0,5.13-2.94,7.79-7.34,7.79s-7.32-2.66-7.32-7.64"/><polygon class="cls-2" points="115.13 2.14 109.22 2.14 109.22 0.3 123.05 0.3 123.05 2.14 117.14 2.14 117.14 17.9 115.13 17.9 115.13 2.14"/><path class="cls-2" d="M124.79,9.15v0a9,9,0,1,1,18-.05V9.1a9,9,0,1,1-18,0m15.89,0v0a7,7,0,0,0-6.94-7.27,6.91,6.91,0,0,0-6.89,7.22V9.1a7,7,0,0,0,6.94,7.27,6.91,6.91,0,0,0,6.89-7.22"/><polygon class="cls-2" points="146.94 0.3 148.95 0.3 155.36 9.91 161.77 0.3 163.78 0.3 163.78 17.9 161.8 17.9 161.8 3.65 155.39 13.07 155.28 13.07 148.87 3.67 148.87 17.9 146.94 17.9 146.94 0.3"/><path class="cls-2" d="M175.27.18h1.86l8,17.73H183L181,13.25h-9.58l-2.09,4.65h-2Zm4.9,11.26-4-9-4,9Z"/><polygon class="cls-2" points="191.01 2.14 185.1 2.14 185.1 0.3 198.93 0.3 198.93 2.14 193.03 2.14 193.03 17.9 191.01 17.9 191.01 2.14"/><polygon class="cls-2" points="202.66 0.3 215.38 0.3 215.38 2.11 204.64 2.11 204.64 8.12 214.25 8.12 214.25 9.93 204.64 9.93 204.64 16.09 215.5 16.09 215.5 17.9 202.66 17.9 202.66 0.3"/></g></g></svg>