<svg xmlns="http://www.w3.org/2000/svg" viewBox="0 0 215.5 32.5"><defs><style>.cls-1{fill:#212334;}.cls-2{fill:#fe6100;}</style></defs><title>AutomateLogo-beta</title><g id="Layer_2" data-name="Layer 2"><g id="Layer_1-2" data-name="Layer 1"><path class="cls-1" d="M13.78,12.57a6.35,6.35,0,0,1-4.63,2.06A5.23,5.23,0,0,1,4,9.1V9.05a5.21,5.21,0,0,1,5.1-5.48,6.49,6.49,0,0,1,4.5,2l2.46-2.84A9.08,9.08,0,0,0,9.18,0,8.94,8.94,0,0,0,0,9.1v0A8.88,8.88,0,0,0,9,18.2a9,9,0,0,0,7.22-3.14Z"/><polygon class="cls-1" points="30.35 0.3 30.35 7.27 23.21 7.27 23.21 0.3 19.34 0.3 19.34 17.9 23.21 17.9 23.21 10.84 30.35 10.84 30.35 17.9 34.22 17.9 34.22 0.3 30.35 0.3"/><polygon class="cls-1" points="42.29 14.46 42.29 10.76 50.59 10.76 50.59 7.32 42.29 7.32 42.29 3.75 51.72 3.75 51.72 0.3 38.44 0.3 38.44 17.9 51.85 17.9 51.85 14.46 42.29 14.46"/><polygon class="cls-1" points="68.69 3.82 68.69 0.3 55.29 0.3 55.29 17.9 59.16 17.9 59.16 11.09 67.56 11.09 67.56 7.57 59.16 7.57 59.16 3.82 68.69 3.82"/><path class="cls-2" d="M78.67.18h1.86l8,17.73H86.42l-2.06-4.65H74.78L72.69,17.9h-2Zm4.9,11.26-4-9-4,9Z"/><path class="cls-2" d="M91.12,10.54V.3h2V10.41c0,3.8,2,5.93,5.38,5.93s5.31-2,5.31-5.81V.3h2V10.38c0,5.13-2.94,7.79-7.34,7.79s-7.32-2.66-7.32-7.64"/><polygon class="cls-2" points="115.13 2.14 109.22 2.14 109.22 0.3 123.05 0.3 123.05 2.14 117.14 2.14 117.14 17.9 115.13 17.9 115.13 2.14"/><path class="cls-2" d="M124.79,9.15v0a9,9,0,1,1,18-.05V9.1a9,9,0,1,1-18,0m15.89,0v0a7,7,0,0,0-6.94-7.27,6.91,6.91,0,0,0-6.89,7.22V9.1a7,7,0,0,0,6.94,7.27,6.91,6.91,0,0,0,6.89-7.22"/><polygon class="cls-2" points="146.94 0.3 148.95 0.3 155.36 9.91 161.77 0.3 163.78 0.3 163.78 17.9 161.8 17.9 161.8 3.65 155.39 13.07 155.28 13.07 148.87 3.67 148.87 17.9 146.94 17.9 146.94 0.3"/><path class="cls-2" d="M175.27.18h1.86l8,17.73H183L181,13.25h-9.58l-2.09,4.65h-2Zm4.9,11.26-4-9-4,9Z"/><polygon class="cls-2" points="191.01 2.14 185.1 2.14 185.1 0.3 198.93 0.3 198.93 2.14 193.03 2.14 193.03 17.9 191.01 17.9 191.01 2.14"/><polygon class="cls-2" points="202.66 0.3 215.38 0.3 215.38 2.11 204.64 2.11 204.64 8.12 214.25 8.12 214.25 9.93 204.64 9.93 204.64 16.09 215.5 16.09 215.5 17.9 202.66 17.9 202.66 0.3"/><path class="cls-1" d="M186,28.62a3,3,0,0,0-1.22-.8,2.47,2.47,0,0,0,.45-.31,2,2,0,0,0,.37-.41,2.12,2.12,0,0,0,.25-.53,2.21,2.21,0,0,0,.1-.68v0a2.07,2.07,0,0,0-.61-1.52,3.16,3.16,0,0,0-2.33-.79h-4.14V32.5h4.24a5.7,5.7,0,0,0,1.37-.15,3.16,3.16,0,0,0,1.06-.46,2.09,2.09,0,0,0,.68-.77,2.32,2.32,0,0,0,.24-1.07v0A2,2,0,0,0,186,28.62Zm-5.22-3.34h1.94a1.64,1.64,0,0,1,1,.24.79.79,0,0,1,.33.68v0a.77.77,0,0,1-.38.72,2,2,0,0,1-1,.22h-1.81Zm3.73,4.52a.81.81,0,0,1-.37.73,1.89,1.89,0,0,1-1,.24h-2.34v-2h2.27a1.86,1.86,0,0,1,1.11.26.84.84,0,0,1,.34.71Z"/><polygon class="cls-1" points="190.99 30.75 190.99 28.87 195.21 28.87 195.21 27.13 190.99 27.13 190.99 25.31 195.78 25.31 195.78 23.56 189.05 23.56 189.05 32.5 195.84 32.5 195.84 30.75 190.99 30.75"/><polygon class="cls-1" points="197.92 23.56 197.92 25.38 200.64 25.38 200.64 32.5 202.61 32.5 202.61 25.38 205.33 25.38 205.33 23.56 197.92 23.56"/><path class="cls-1" d="M211.67,23.5h-1.81l-3.83,9h2l.82-2h3.78l.82,2h2.06Zm-2.12,5.26,1.19-2.9,1.19,2.9Z"/></g></g></svg>