<svg width="419" height="184" viewBox="0 0 419 184" fill="none" xmlns="http://www.w3.org/2000/svg">
<mask id="mask0_3753_354" style="mask-type:alpha" maskUnits="userSpaceOnUse" x="0" y="0" width="419" height="184">
<rect width="419" height="184" fill="#C4C4C4"/>
</mask>
<g mask="url(#mask0_3753_354)">
<path d="M105.731 159.95L361.599 11.401C363.223 10.4597 365.064 9.96436 366.938 9.96484C368.812 9.96533 370.652 10.4616 372.275 11.4037C373.898 12.3459 375.246 13.7009 376.184 15.3326C377.121 16.9644 377.616 18.8154 377.617 20.7L377.4 83.6053C377.401 87.1412 376.476 90.6151 374.718 93.6774C372.961 96.7396 370.432 99.2822 367.386 101.049L111.523 249.577C109.899 250.52 108.057 251.016 106.182 251.016C104.307 251.016 102.465 250.52 100.841 249.577C99.2169 248.634 97.8684 247.277 96.9309 245.644C95.9934 244.011 95.4999 242.158 95.5 240.272L95.7176 177.367C95.7178 173.831 96.6433 170.358 98.4009 167.296C100.159 164.234 102.687 161.691 105.731 159.923V159.95Z" fill="#D5F6FF"/>
<path d="M122.5 184L230 124L193 109.5L64.5 184H122.5Z" fill="#FF5276"/>
<path d="M95.4054 184L418.5 0H0V184H95.4054Z" fill="#FBC457"/>
<path d="M0 110L194.5 0H73.8439H0V110Z" fill="#FFE6B3"/>
<path d="M199.641 222.118L356.774 130.883C357.772 130.304 358.904 130 360.056 130C361.207 130 362.339 130.305 363.337 130.885C364.334 131.464 365.162 132.297 365.739 133.3C366.315 134.303 366.618 135.441 366.619 136.599V162.243C366.62 164.414 366.051 166.547 364.972 168.428C363.892 170.308 362.338 171.869 360.467 172.953L203.339 264.187C202.341 264.767 201.209 265.072 200.056 265.071C198.903 265.071 197.771 264.765 196.774 264.184C195.776 263.603 194.948 262.769 194.374 261.764C193.799 260.759 193.498 259.62 193.5 258.46V232.828C193.499 230.658 194.066 228.525 195.143 226.645C196.221 224.765 197.772 223.204 199.641 222.118V222.118Z" stroke="#0357FF" stroke-miterlimit="10"/>
<g opacity="0.5">
<g opacity="0.5">
<path opacity="0.5" d="M404.199 111.754H407.647M82.2208 46V47.5885V46ZM80.5 46.7943H83.9481H80.5ZM96.2947 46V47.5885V46ZM94.5739 46.7943H98.0219H94.5739ZM110.369 46V47.5885V46ZM108.648 46.7943H112.096H108.648ZM124.442 46V47.5885V46ZM122.722 46.7943H126.17H122.722ZM138.516 46V47.5885V46ZM136.795 46.7943H140.244H136.795ZM152.59 46V47.5885V46ZM150.869 46.7943H154.317H150.869ZM166.664 46V47.5885V46ZM164.943 46.7943H168.391H164.943ZM180.738 46V47.5885V46ZM179.017 46.7943H182.465H179.017ZM194.812 46V47.5885V46ZM193.091 46.7943H196.539H193.091ZM208.886 46V47.5885V46ZM207.165 46.7943H210.613H207.165ZM222.959 46V47.5885V46ZM221.239 46.7943H224.687H221.239ZM237.033 46V47.5885V46ZM235.312 46.7943H238.76H235.312ZM251.107 46V47.5885V46ZM249.386 46.7943H252.834H249.386ZM265.181 46V47.5885V46ZM263.46 46.7943H266.908H263.46ZM279.255 46V47.5885V46ZM277.534 46.7943H280.982H277.534ZM293.329 46V47.5885V46ZM291.608 46.7943H295.056H291.608ZM307.402 46V47.5885V46ZM305.682 46.7943H309.13H305.682ZM321.476 46V47.5885V46ZM319.755 46.7943H323.204H319.755ZM335.55 46V47.5885V46ZM333.829 46.7943H337.277H333.829ZM349.624 46V47.5885V46ZM347.903 46.7943H351.351H347.903ZM363.698 46V47.5885V46ZM361.977 46.7943H365.425H361.977ZM377.772 46V47.5885V46ZM376.051 46.7943H379.499H376.051ZM391.846 46V47.5885V46ZM390.125 46.7943H393.573H390.125ZM405.919 46V47.5885V46ZM404.199 46.7943H407.647H404.199ZM82.2208 52.4959V54.0845V52.4959ZM80.5 53.2902H83.9481H80.5ZM96.2947 52.4959V54.0845V52.4959ZM94.5739 53.2902H98.0219H94.5739ZM110.369 52.4959V54.0845V52.4959ZM108.648 53.2902H112.096H108.648ZM124.442 52.4959V54.0845V52.4959ZM122.722 53.2902H126.17H122.722ZM138.516 52.4959V54.0845V52.4959ZM136.795 53.2902H140.244H136.795ZM152.59 52.4959V54.0845V52.4959ZM150.869 53.2902H154.317H150.869ZM166.664 52.4959V54.0845V52.4959ZM164.943 53.2902H168.391H164.943ZM180.738 52.4959V54.0845V52.4959ZM179.017 53.2902H182.465H179.017ZM194.812 52.4959V54.0845V52.4959ZM193.091 53.2902H196.539H193.091ZM208.886 52.4959V54.0845V52.4959ZM207.165 53.2902H210.613H207.165ZM222.959 52.4959V54.0845V52.4959ZM221.239 53.2902H224.687H221.239ZM237.033 52.4959V54.0845V52.4959ZM235.312 53.2902H238.76H235.312ZM251.107 52.4959V54.0845V52.4959ZM249.386 53.2902H252.834H249.386ZM265.181 52.4959V54.0845V52.4959ZM263.46 53.2902H266.908H263.46ZM279.255 52.4959V54.0845V52.4959ZM277.534 53.2902H280.982H277.534ZM293.329 52.4959V54.0845V52.4959ZM291.608 53.2902H295.056H291.608ZM307.402 52.4959V54.0845V52.4959ZM305.682 53.2902H309.13H305.682ZM321.476 52.4959V54.0845V52.4959ZM319.755 53.2902H323.204H319.755ZM335.55 52.4959V54.0845V52.4959ZM333.829 53.2902H337.277H333.829ZM349.624 52.4959V54.0845V52.4959ZM347.903 53.2902H351.351H347.903ZM363.698 52.4959V54.0845V52.4959ZM361.977 53.2902H365.425H361.977ZM377.772 52.4959V54.0845V52.4959ZM376.051 53.2902H379.499H376.051ZM391.846 52.4959V54.0845V52.4959ZM390.125 53.2902H393.573H390.125ZM405.919 52.4959V54.0845V52.4959ZM404.199 53.2902H407.647H404.199ZM82.2208 58.9918V60.5804V58.9918ZM80.5 59.7861H83.9481H80.5ZM96.2947 58.9918V60.5804V58.9918ZM94.5739 59.7861H98.0219H94.5739ZM110.369 58.9918V60.5804V58.9918ZM108.648 59.7861H112.096H108.648ZM124.442 58.9918V60.5804V58.9918ZM122.722 59.7861H126.17H122.722ZM138.516 58.9918V60.5804V58.9918ZM136.795 59.7861H140.244H136.795ZM152.59 58.9918V60.5804V58.9918ZM150.869 59.7861H154.317H150.869ZM166.664 58.9918V60.5804V58.9918ZM164.943 59.7861H168.391H164.943ZM180.738 58.9918V60.5804V58.9918ZM179.017 59.7861H182.465H179.017ZM194.812 58.9918V60.5804V58.9918ZM193.091 59.7861H196.539H193.091ZM208.886 58.9918V60.5804V58.9918ZM207.165 59.7861H210.613H207.165ZM222.959 58.9918V60.5804V58.9918ZM221.239 59.7861H224.687H221.239ZM237.033 58.9918V60.5804V58.9918ZM235.312 59.7861H238.76H235.312ZM251.107 58.9918V60.5804V58.9918ZM249.386 59.7861H252.834H249.386ZM265.181 58.9918V60.5804V58.9918ZM263.46 59.7861H266.908H263.46ZM279.255 58.9918V60.5804V58.9918ZM277.534 59.7861H280.982H277.534ZM293.329 58.9918V60.5804V58.9918ZM291.608 59.7861H295.056H291.608ZM307.402 58.9918V60.5804V58.9918ZM305.682 59.7861H309.13H305.682ZM321.476 58.9918V60.5804V58.9918ZM319.755 59.7861H323.204H319.755ZM335.55 58.9918V60.5804V58.9918ZM333.829 59.7861H337.277H333.829ZM349.624 58.9918V60.5804V58.9918ZM347.903 59.7861H351.351H347.903ZM363.698 58.9918V60.5804V58.9918ZM361.977 59.7861H365.425H361.977ZM377.772 58.9918V60.5804V58.9918ZM376.051 59.7861H379.499H376.051ZM391.846 58.9918V60.5804V58.9918ZM390.125 59.7861H393.573H390.125ZM405.919 58.9918V60.5804V58.9918ZM404.199 59.7861H407.647H404.199ZM82.2208 65.4878V67.0763V65.4878ZM80.5 66.282H83.9481H80.5ZM96.2947 65.4878V67.0763V65.4878ZM94.5739 66.282H98.0219H94.5739ZM110.369 65.4878V67.0763V65.4878ZM108.648 66.282H112.096H108.648ZM124.442 65.4878V67.0763V65.4878ZM122.722 66.282H126.17H122.722ZM138.516 65.4878V67.0763V65.4878ZM136.795 66.282H140.244H136.795ZM152.59 65.4878V67.0763V65.4878ZM150.869 66.282H154.317H150.869ZM166.664 65.4878V67.0763V65.4878ZM164.943 66.282H168.391H164.943ZM180.738 65.4878V67.0763V65.4878ZM179.017 66.282H182.465H179.017ZM194.812 65.4878V67.0763V65.4878ZM193.091 66.282H196.539H193.091ZM208.886 65.4878V67.0763V65.4878ZM207.165 66.282H210.613H207.165ZM222.959 65.4878V67.0763V65.4878ZM221.239 66.282H224.687H221.239ZM237.033 65.4878V67.0763V65.4878ZM235.312 66.282H238.76H235.312ZM251.107 65.4878V67.0763V65.4878ZM249.386 66.282H252.834H249.386ZM265.181 65.4878V67.0763V65.4878ZM263.46 66.282H266.908H263.46ZM279.255 65.4878V67.0763V65.4878ZM277.534 66.282H280.982H277.534ZM293.329 65.4878V67.0763V65.4878ZM291.608 66.282H295.056H291.608ZM307.402 65.4878V67.0763V65.4878ZM305.682 66.282H309.13H305.682ZM321.476 65.4878V67.0763V65.4878ZM319.755 66.282H323.204H319.755ZM335.55 65.4878V67.0763V65.4878ZM333.829 66.282H337.277H333.829ZM349.624 65.4878V67.0763V65.4878ZM347.903 66.282H351.351H347.903ZM363.698 65.4878V67.0763V65.4878ZM361.977 66.282H365.425H361.977ZM377.772 65.4878V67.0763V65.4878ZM376.051 66.282H379.499H376.051ZM391.846 65.4878V67.0763V65.4878ZM390.125 66.282H393.573H390.125ZM405.919 65.4878V67.0763V65.4878ZM404.199 66.282H407.647H404.199ZM82.2208 71.9837V73.5722V71.9837ZM80.5 72.778H83.9481H80.5ZM96.2947 71.9837V73.5722V71.9837ZM94.5739 72.778H98.0219H94.5739ZM110.369 71.9837V73.5722V71.9837ZM108.648 72.778H112.096H108.648ZM124.442 71.9837V73.5722V71.9837ZM122.722 72.778H126.17H122.722ZM138.516 71.9837V73.5722V71.9837ZM136.795 72.778H140.244H136.795ZM152.59 71.9837V73.5722V71.9837ZM150.869 72.778H154.317H150.869ZM166.664 71.9837V73.5722V71.9837ZM164.943 72.778H168.391H164.943ZM180.738 71.9837V73.5722V71.9837ZM179.017 72.778H182.465H179.017ZM194.812 71.9837V73.5722V71.9837ZM193.091 72.778H196.539H193.091ZM208.886 71.9837V73.5722V71.9837ZM207.165 72.778H210.613H207.165ZM222.959 71.9837V73.5722V71.9837ZM221.239 72.778H224.687H221.239ZM237.033 71.9837V73.5722V71.9837ZM235.312 72.778H238.76H235.312ZM251.107 71.9837V73.5722V71.9837ZM249.386 72.778H252.834H249.386ZM265.181 71.9837V73.5722V71.9837ZM263.46 72.778H266.908H263.46ZM279.255 71.9837V73.5722V71.9837ZM277.534 72.778H280.982H277.534ZM293.329 71.9837V73.5722V71.9837ZM291.608 72.778H295.056H291.608ZM307.402 71.9837V73.5722V71.9837ZM305.682 72.778H309.13H305.682ZM321.476 71.9837V73.5722V71.9837ZM319.755 72.778H323.204H319.755ZM335.55 71.9837V73.5722V71.9837ZM333.829 72.778H337.277H333.829ZM349.624 71.9837V73.5722V71.9837ZM347.903 72.778H351.351H347.903ZM363.698 71.9837V73.5722V71.9837ZM361.977 72.778H365.425H361.977ZM377.772 71.9837V73.5722V71.9837ZM376.051 72.778H379.499H376.051ZM391.846 71.9837V73.5722V71.9837ZM390.125 72.778H393.573H390.125ZM405.919 71.9837V73.5722V71.9837ZM404.199 72.778H407.647H404.199ZM82.2208 78.4796V80.0682V78.4796ZM80.5 79.2739H83.9481H80.5ZM96.2947 78.4796V80.0682V78.4796ZM94.5739 79.2739H98.0219H94.5739ZM110.369 78.4796V80.0682V78.4796ZM108.648 79.2739H112.096H108.648ZM124.442 78.4796V80.0682V78.4796ZM122.722 79.2739H126.17H122.722ZM138.516 78.4796V80.0682V78.4796ZM136.795 79.2739H140.244H136.795ZM152.59 78.4796V80.0682V78.4796ZM150.869 79.2739H154.317H150.869ZM166.664 78.4796V80.0682V78.4796ZM164.943 79.2739H168.391H164.943ZM180.738 78.4796V80.0682V78.4796ZM179.017 79.2739H182.465H179.017ZM194.812 78.4796V80.0682V78.4796ZM193.091 79.2739H196.539H193.091ZM208.886 78.4796V80.0682V78.4796ZM207.165 79.2739H210.613H207.165ZM222.959 78.4796V80.0682V78.4796ZM221.239 79.2739H224.687H221.239ZM237.033 78.4796V80.0682V78.4796ZM235.312 79.2739H238.76H235.312ZM251.107 78.4796V80.0682V78.4796ZM249.386 79.2739H252.834H249.386ZM265.181 78.4796V80.0682V78.4796ZM263.46 79.2739H266.908H263.46ZM279.255 78.4796V80.0682V78.4796ZM277.534 79.2739H280.982H277.534ZM293.329 78.4796V80.0682V78.4796ZM291.608 79.2739H295.056H291.608ZM307.402 78.4796V80.0682V78.4796ZM305.682 79.2739H309.13H305.682ZM321.476 78.4796V80.0682V78.4796ZM319.755 79.2739H323.204H319.755ZM335.55 78.4796V80.0682V78.4796ZM333.829 79.2739H337.277H333.829ZM349.624 78.4796V80.0682V78.4796ZM347.903 79.2739H351.351H347.903ZM363.698 78.4796V80.0682V78.4796ZM361.977 79.2739H365.425H361.977ZM377.772 78.4796V80.0682V78.4796ZM376.051 79.2739H379.499H376.051ZM391.846 78.4796V80.0682V78.4796ZM390.125 79.2739H393.573H390.125ZM405.919 78.4796V80.0682V78.4796ZM404.199 79.2739H407.647H404.199ZM82.2208 84.9755V86.5641V84.9755ZM80.5 85.7698H83.9481H80.5ZM96.2947 84.9755V86.5641V84.9755ZM94.5739 85.7698H98.0219H94.5739ZM110.369 84.9755V86.5641V84.9755ZM108.648 85.7698H112.096H108.648ZM124.442 84.9755V86.5641V84.9755ZM122.722 85.7698H126.17H122.722ZM138.516 84.9755V86.5641V84.9755ZM136.795 85.7698H140.244H136.795ZM152.59 84.9755V86.5641V84.9755ZM150.869 85.7698H154.317H150.869ZM166.664 84.9755V86.5641V84.9755ZM164.943 85.7698H168.391H164.943ZM180.738 84.9755V86.5641V84.9755ZM179.017 85.7698H182.465H179.017ZM194.812 84.9755V86.5641V84.9755ZM193.091 85.7698H196.539H193.091ZM208.886 84.9755V86.5641V84.9755ZM207.165 85.7698H210.613H207.165ZM222.959 84.9755V86.5641V84.9755ZM221.239 85.7698H224.687H221.239ZM237.033 84.9755V86.5641V84.9755ZM235.312 85.7698H238.76H235.312ZM251.107 84.9755V86.5641V84.9755ZM249.386 85.7698H252.834H249.386ZM265.181 84.9755V86.5641V84.9755ZM263.46 85.7698H266.908H263.46ZM279.255 84.9755V86.5641V84.9755ZM277.534 85.7698H280.982H277.534ZM293.329 84.9755V86.5641V84.9755ZM291.608 85.7698H295.056H291.608ZM307.402 84.9755V86.5641V84.9755ZM305.682 85.7698H309.13H305.682ZM321.476 84.9755V86.5641V84.9755ZM319.755 85.7698H323.204H319.755ZM335.55 84.9755V86.5641V84.9755ZM333.829 85.7698H337.277H333.829ZM349.624 84.9755V86.5641V84.9755ZM347.903 85.7698H351.351H347.903ZM363.698 84.9755V86.5641V84.9755ZM361.977 85.7698H365.425H361.977ZM377.772 84.9755V86.5641V84.9755ZM376.051 85.7698H379.499H376.051ZM391.846 84.9755V86.5641V84.9755ZM390.125 85.7698H393.573H390.125ZM405.919 84.9755V86.5641V84.9755ZM404.199 85.7698H407.647H404.199ZM82.2208 91.4715V93.06V91.4715ZM80.5 92.2657H83.9481H80.5ZM96.2947 91.4715V93.06V91.4715ZM94.5739 92.2657H98.0219H94.5739ZM110.369 91.4715V93.06V91.4715ZM108.648 92.2657H112.096H108.648ZM124.442 91.4715V93.06V91.4715ZM122.722 92.2657H126.17H122.722ZM138.516 91.4715V93.06V91.4715ZM136.795 92.2657H140.244H136.795ZM152.59 91.4715V93.06V91.4715ZM150.869 92.2657H154.317H150.869ZM166.664 91.4715V93.06V91.4715ZM164.943 92.2657H168.391H164.943ZM180.738 91.4715V93.06V91.4715ZM179.017 92.2657H182.465H179.017ZM194.812 91.4715V93.06V91.4715ZM193.091 92.2657H196.539H193.091ZM208.886 91.4715V93.06V91.4715ZM207.165 92.2657H210.613H207.165ZM222.959 91.4715V93.06V91.4715ZM221.239 92.2657H224.687H221.239ZM237.033 91.4715V93.06V91.4715ZM235.312 92.2657H238.76H235.312ZM251.107 91.4715V93.06V91.4715ZM249.386 92.2657H252.834H249.386ZM265.181 91.4715V93.06V91.4715ZM263.46 92.2657H266.908H263.46ZM279.255 91.4715V93.06V91.4715ZM277.534 92.2657H280.982H277.534ZM293.329 91.4715V93.06V91.4715ZM291.608 92.2657H295.056H291.608ZM307.402 91.4715V93.06V91.4715ZM305.682 92.2657H309.13H305.682ZM321.476 91.4715V93.06V91.4715ZM319.755 92.2657H323.204H319.755ZM335.55 91.4715V93.06V91.4715ZM333.829 92.2657H337.277H333.829ZM349.624 91.4715V93.06V91.4715ZM347.903 92.2657H351.351H347.903ZM363.698 91.4715V93.06V91.4715ZM361.977 92.2657H365.425H361.977ZM377.772 91.4715V93.06V91.4715ZM376.051 92.2657H379.499H376.051ZM391.846 91.4715V93.06V91.4715ZM390.125 92.2657H393.573H390.125ZM405.919 91.4715V93.06V91.4715ZM404.199 92.2657H407.647H404.199ZM82.2208 97.9674V99.5559V97.9674ZM80.5 98.7617H83.9481H80.5ZM96.2947 97.9674V99.5559V97.9674ZM94.5739 98.7617H98.0219H94.5739ZM110.369 97.9674V99.5559V97.9674ZM108.648 98.7617H112.096H108.648ZM124.442 97.9674V99.5559V97.9674ZM122.722 98.7617H126.17H122.722ZM138.516 97.9674V99.5559V97.9674ZM136.795 98.7617H140.244H136.795ZM152.59 97.9674V99.5559V97.9674ZM150.869 98.7617H154.317H150.869ZM166.664 97.9674V99.5559V97.9674ZM164.943 98.7617H168.391H164.943ZM180.738 97.9674V99.5559V97.9674ZM179.017 98.7617H182.465H179.017ZM194.812 97.9674V99.5559V97.9674ZM193.091 98.7617H196.539H193.091ZM208.886 97.9674V99.5559V97.9674ZM207.165 98.7617H210.613H207.165ZM222.959 97.9674V99.5559V97.9674ZM221.239 98.7617H224.687H221.239ZM237.033 97.9674V99.5559V97.9674ZM235.312 98.7617H238.76H235.312ZM251.107 97.9674V99.5559V97.9674ZM249.386 98.7617H252.834H249.386ZM265.181 97.9674V99.5559V97.9674ZM263.46 98.7617H266.908H263.46ZM279.255 97.9674V99.5559V97.9674ZM277.534 98.7617H280.982H277.534ZM293.329 97.9674V99.5559V97.9674ZM291.608 98.7617H295.056H291.608ZM307.402 97.9674V99.5559V97.9674ZM305.682 98.7617H309.13H305.682ZM321.476 97.9674V99.5559V97.9674ZM319.755 98.7617H323.204H319.755ZM335.55 97.9674V99.5559V97.9674ZM333.829 98.7617H337.277H333.829ZM349.624 97.9674V99.5559V97.9674ZM347.903 98.7617H351.351H347.903ZM363.698 97.9674V99.5559V97.9674ZM361.977 98.7617H365.425H361.977ZM377.772 97.9674V99.5559V97.9674ZM376.051 98.7617H379.499H376.051ZM391.846 97.9674V99.5559V97.9674ZM390.125 98.7617H393.573H390.125ZM405.919 97.9674V99.5559V97.9674ZM404.199 98.7617H407.647H404.199ZM82.2208 104.463V106.052V104.463ZM80.5 105.258H83.9481H80.5ZM96.2947 104.463V106.052V104.463ZM94.5739 105.258H98.0219H94.5739ZM110.369 104.463V106.052V104.463ZM108.648 105.258H112.096H108.648ZM124.442 104.463V106.052V104.463ZM122.722 105.258H126.17H122.722ZM138.516 104.463V106.052V104.463ZM136.795 105.258H140.244H136.795ZM152.59 104.463V106.052V104.463ZM150.869 105.258H154.317H150.869ZM166.664 104.463V106.052V104.463ZM164.943 105.258H168.391H164.943ZM180.738 104.463V106.052V104.463ZM179.017 105.258H182.465H179.017ZM194.812 104.463V106.052V104.463ZM193.091 105.258H196.539H193.091ZM208.886 104.463V106.052V104.463ZM207.165 105.258H210.613H207.165ZM222.959 104.463V106.052V104.463ZM221.239 105.258H224.687H221.239ZM237.033 104.463V106.052V104.463ZM235.312 105.258H238.76H235.312ZM251.107 104.463V106.052V104.463ZM249.386 105.258H252.834H249.386ZM265.181 104.463V106.052V104.463ZM263.46 105.258H266.908H263.46ZM279.255 104.463V106.052V104.463ZM277.534 105.258H280.982H277.534ZM293.329 104.463V106.052V104.463ZM291.608 105.258H295.056H291.608ZM307.402 104.463V106.052V104.463ZM305.682 105.258H309.13H305.682ZM321.476 104.463V106.052V104.463ZM319.755 105.258H323.204H319.755ZM335.55 104.463V106.052V104.463ZM333.829 105.258H337.277H333.829ZM349.624 104.463V106.052V104.463ZM347.903 105.258H351.351H347.903ZM363.698 104.463V106.052V104.463ZM361.977 105.258H365.425H361.977ZM377.772 104.463V106.052V104.463ZM376.051 105.258H379.499H376.051ZM391.846 104.463V106.052V104.463ZM390.125 105.258H393.573H390.125ZM405.919 104.463V106.052V104.463ZM404.199 105.258H407.647H404.199ZM82.2208 110.959V112.548V110.959ZM80.5 111.754H83.9481H80.5ZM96.2947 110.959V112.548V110.959ZM94.5739 111.754H98.0219H94.5739ZM110.369 110.959V112.548V110.959ZM108.648 111.754H112.096H108.648ZM124.442 110.959V112.548V110.959ZM122.722 111.754H126.17H122.722ZM138.516 110.959V112.548V110.959ZM136.795 111.754H140.244H136.795ZM152.59 110.959V112.548V110.959ZM150.869 111.754H154.317H150.869ZM166.664 110.959V112.548V110.959ZM164.943 111.754H168.391H164.943ZM180.738 110.959V112.548V110.959ZM179.017 111.754H182.465H179.017ZM194.812 110.959V112.548V110.959ZM193.091 111.754H196.539H193.091ZM208.886 110.959V112.548V110.959ZM207.165 111.754H210.613H207.165ZM222.959 110.959V112.548V110.959ZM221.239 111.754H224.687H221.239ZM237.033 110.959V112.548V110.959ZM235.312 111.754H238.76H235.312ZM251.107 110.959V112.548V110.959ZM249.386 111.754H252.834H249.386ZM265.181 110.959V112.548V110.959ZM263.46 111.754H266.908H263.46ZM279.255 110.959V112.548V110.959ZM277.534 111.754H280.982H277.534ZM293.329 110.959V112.548V110.959ZM291.608 111.754H295.056H291.608ZM307.402 110.959V112.548V110.959ZM305.682 111.754H309.13H305.682ZM321.476 110.959V112.548V110.959ZM319.755 111.754H323.204H319.755ZM335.55 110.959V112.548V110.959ZM333.829 111.754H337.277H333.829ZM349.624 110.959V112.548V110.959ZM347.903 111.754H351.351H347.903ZM363.698 110.959V112.548V110.959ZM361.977 111.754H365.425H361.977ZM377.772 110.959V112.548V110.959ZM376.051 111.754H379.499H376.051ZM391.846 110.959V112.548V110.959ZM390.125 111.754H393.573H390.125ZM405.919 110.959V112.548V110.959Z" stroke="#0357FF" stroke-width="2" stroke-linecap="round"/>
<path opacity="0.5" d="M80.5 118.251H83.9481M82.2208 117.457V119.046V117.457Z" stroke="#0357FF" stroke-width="2" stroke-linecap="round"/>
<path opacity="0.5" d="M94.5732 118.251H98.0213M96.2941 117.457V119.046V117.457Z" stroke="#0357FF" stroke-width="2" stroke-linecap="round"/>
<path opacity="0.5" d="M108.647 118.251H112.096M110.368 117.457V119.046V117.457Z" stroke="#0357FF" stroke-width="2" stroke-linecap="round"/>
<path opacity="0.5" d="M122.721 118.251H126.169M124.442 117.457V119.046V117.457Z" stroke="#0357FF" stroke-width="2" stroke-linecap="round"/>
<path opacity="0.5" d="M136.795 118.251H140.243M138.516 117.457V119.046V117.457Z" stroke="#0357FF" stroke-width="2" stroke-linecap="round"/>
<path opacity="0.5" d="M150.869 118.251H154.317M152.59 117.457V119.046V117.457Z" stroke="#0357FF" stroke-width="2" stroke-linecap="round"/>
<path opacity="0.5" d="M164.943 118.251H168.391M166.664 117.457V119.046V117.457Z" stroke="#0357FF" stroke-width="2" stroke-linecap="round"/>
<path opacity="0.5" d="M179.016 118.251H182.464M180.737 117.457V119.046V117.457Z" stroke="#0357FF" stroke-width="2" stroke-linecap="round"/>
<path opacity="0.5" d="M193.09 118.251H196.538M194.811 117.457V119.046V117.457Z" stroke="#0357FF" stroke-width="2" stroke-linecap="round"/>
<path opacity="0.5" d="M207.164 118.251H210.612M208.885 117.457V119.046V117.457Z" stroke="#0357FF" stroke-width="2" stroke-linecap="round"/>
<path opacity="0.5" d="M221.239 118.251H224.687M222.96 117.457V119.046V117.457Z" stroke="#0357FF" stroke-width="2" stroke-linecap="round"/>
<path opacity="0.5" d="M235.313 118.251H238.761M237.034 117.457V119.046V117.457Z" stroke="#0357FF" stroke-width="2" stroke-linecap="round"/>
<path opacity="0.5" d="M249.386 118.251H252.834M251.107 117.457V119.046V117.457Z" stroke="#0357FF" stroke-width="2" stroke-linecap="round"/>
<path opacity="0.5" d="M263.46 118.251H266.909M265.181 117.457V119.046V117.457Z" stroke="#0357FF" stroke-width="2" stroke-linecap="round"/>
<path opacity="0.5" d="M277.534 118.251H280.982M279.255 117.457V119.046V117.457Z" stroke="#0357FF" stroke-width="2" stroke-linecap="round"/>
<path opacity="0.5" d="M291.608 118.251H295.056M293.329 117.457V119.046V117.457Z" stroke="#0357FF" stroke-width="2" stroke-linecap="round"/>
<path opacity="0.5" d="M305.682 118.251H309.13M307.402 117.457V119.046V117.457Z" stroke="#0357FF" stroke-width="2" stroke-linecap="round"/>
<path opacity="0.5" d="M319.756 118.251H323.204M321.477 117.457V119.046V117.457Z" stroke="#0357FF" stroke-width="2" stroke-linecap="round"/>
<path opacity="0.5" d="M333.829 118.251H337.277M335.55 117.457V119.046V117.457Z" stroke="#0357FF" stroke-width="2" stroke-linecap="round"/>
<path opacity="0.5" d="M347.903 118.251H351.351M349.624 117.457V119.046V117.457Z" stroke="#0357FF" stroke-width="2" stroke-linecap="round"/>
<path opacity="0.5" d="M361.977 118.251H365.425M363.698 117.457V119.046V117.457Z" stroke="#0357FF" stroke-width="2" stroke-linecap="round"/>
<path opacity="0.5" d="M376.051 118.251H379.499M377.772 117.457V119.046V117.457Z" stroke="#0357FF" stroke-width="2" stroke-linecap="round"/>
<path opacity="0.5" d="M390.125 118.251H393.573M391.845 117.457V119.046V117.457Z" stroke="#0357FF" stroke-width="2" stroke-linecap="round"/>
<path opacity="0.5" d="M404.199 118.251H407.647M405.92 117.457V119.046V117.457Z" stroke="#0357FF" stroke-width="2" stroke-linecap="round"/>
<path opacity="0.5" d="M80.5 124.747H83.9481M82.2208 123.953V125.539V123.953Z" stroke="#0357FF" stroke-width="2" stroke-linecap="round"/>
<path opacity="0.5" d="M94.5732 124.747H98.0213M96.2941 123.953V125.539V123.953Z" stroke="#0357FF" stroke-width="2" stroke-linecap="round"/>
<path opacity="0.5" d="M108.647 124.747H112.096M110.368 123.953V125.539V123.953Z" stroke="#0357FF" stroke-width="2" stroke-linecap="round"/>
<path opacity="0.5" d="M122.721 124.747H126.169M124.442 123.953V125.539V123.953Z" stroke="#0357FF" stroke-width="2" stroke-linecap="round"/>
<path opacity="0.5" d="M136.795 124.747H140.243M138.516 123.953V125.539V123.953Z" stroke="#0357FF" stroke-width="2" stroke-linecap="round"/>
<path opacity="0.5" d="M150.869 124.747H154.317M152.59 123.953V125.539V123.953Z" stroke="#0357FF" stroke-width="2" stroke-linecap="round"/>
<path opacity="0.5" d="M164.943 124.747H168.391M166.664 123.953V125.539V123.953Z" stroke="#0357FF" stroke-width="2" stroke-linecap="round"/>
<path opacity="0.5" d="M179.016 124.747H182.464M180.737 123.953V125.539V123.953Z" stroke="#0357FF" stroke-width="2" stroke-linecap="round"/>
<path opacity="0.5" d="M193.09 124.747H196.538M194.811 123.953V125.539V123.953Z" stroke="#0357FF" stroke-width="2" stroke-linecap="round"/>
<path opacity="0.5" d="M207.164 124.747H210.612M208.885 123.953V125.539V123.953Z" stroke="#0357FF" stroke-width="2" stroke-linecap="round"/>
<path opacity="0.5" d="M221.239 124.747H224.687M222.96 123.953V125.539V123.953Z" stroke="#0357FF" stroke-width="2" stroke-linecap="round"/>
<path opacity="0.5" d="M235.313 124.747H238.761M237.034 123.953V125.539V123.953Z" stroke="#0357FF" stroke-width="2" stroke-linecap="round"/>
<path opacity="0.5" d="M249.386 124.747H252.834M251.107 123.953V125.539V123.953Z" stroke="#0357FF" stroke-width="2" stroke-linecap="round"/>
<path opacity="0.5" d="M263.46 124.747H266.909M265.181 123.953V125.539V123.953Z" stroke="#0357FF" stroke-width="2" stroke-linecap="round"/>
<path opacity="0.5" d="M277.534 124.747H280.982M279.255 123.953V125.539V123.953Z" stroke="#0357FF" stroke-width="2" stroke-linecap="round"/>
<path opacity="0.5" d="M291.608 124.747H295.056M293.329 123.953V125.539V123.953Z" stroke="#0357FF" stroke-width="2" stroke-linecap="round"/>
<path opacity="0.5" d="M305.682 124.747H309.13M307.402 123.953V125.539V123.953Z" stroke="#0357FF" stroke-width="2" stroke-linecap="round"/>
<path opacity="0.5" d="M319.756 124.747H323.204M321.477 123.953V125.539V123.953Z" stroke="#0357FF" stroke-width="2" stroke-linecap="round"/>
<path opacity="0.5" d="M333.829 124.747H337.277M335.55 123.953V125.539V123.953Z" stroke="#0357FF" stroke-width="2" stroke-linecap="round"/>
<path opacity="0.5" d="M347.903 124.747H351.351M349.624 123.953V125.539V123.953Z" stroke="#0357FF" stroke-width="2" stroke-linecap="round"/>
<path opacity="0.5" d="M361.977 124.747H365.425M363.698 123.953V125.539V123.953Z" stroke="#0357FF" stroke-width="2" stroke-linecap="round"/>
<path opacity="0.5" d="M376.051 124.747H379.499M377.772 123.953V125.539V123.953Z" stroke="#0357FF" stroke-width="2" stroke-linecap="round"/>
<path opacity="0.5" d="M390.125 124.747H393.573M391.845 123.953V125.539V123.953Z" stroke="#0357FF" stroke-width="2" stroke-linecap="round"/>
<path opacity="0.5" d="M404.199 124.747H407.647M405.92 123.953V125.539V123.953Z" stroke="#0357FF" stroke-width="2" stroke-linecap="round"/>
<path opacity="0.5" d="M80.5 131.24H83.9481M82.2208 130.445V132.031V130.445Z" stroke="#0357FF" stroke-width="2" stroke-linecap="round"/>
<path opacity="0.5" d="M94.5732 131.24H98.0213M96.2941 130.445V132.031V130.445Z" stroke="#0357FF" stroke-width="2" stroke-linecap="round"/>
<path opacity="0.5" d="M108.647 131.24H112.096M110.368 130.445V132.031V130.445Z" stroke="#0357FF" stroke-width="2" stroke-linecap="round"/>
<path opacity="0.5" d="M122.721 131.24H126.169M124.442 130.445V132.031V130.445Z" stroke="#0357FF" stroke-width="2" stroke-linecap="round"/>
<path opacity="0.5" d="M136.795 131.24H140.243M138.516 130.445V132.031V130.445Z" stroke="#0357FF" stroke-width="2" stroke-linecap="round"/>
<path opacity="0.5" d="M150.869 131.24H154.317M152.59 130.445V132.031V130.445Z" stroke="#0357FF" stroke-width="2" stroke-linecap="round"/>
<path opacity="0.5" d="M164.943 131.24H168.391M166.664 130.445V132.031V130.445Z" stroke="#0357FF" stroke-width="2" stroke-linecap="round"/>
<path opacity="0.5" d="M179.016 131.24H182.464M180.737 130.445V132.031V130.445Z" stroke="#0357FF" stroke-width="2" stroke-linecap="round"/>
<path opacity="0.5" d="M193.09 131.24H196.538M194.811 130.445V132.031V130.445Z" stroke="#0357FF" stroke-width="2" stroke-linecap="round"/>
<path opacity="0.5" d="M207.164 131.24H210.612M208.885 130.445V132.031V130.445Z" stroke="#0357FF" stroke-width="2" stroke-linecap="round"/>
<path opacity="0.5" d="M221.239 131.24H224.687M222.96 130.445V132.031V130.445Z" stroke="#0357FF" stroke-width="2" stroke-linecap="round"/>
<path opacity="0.5" d="M235.313 131.24H238.761M237.034 130.445V132.031V130.445Z" stroke="#0357FF" stroke-width="2" stroke-linecap="round"/>
<path opacity="0.5" d="M249.386 131.24H252.834M251.107 130.445V132.031V130.445Z" stroke="#0357FF" stroke-width="2" stroke-linecap="round"/>
<path opacity="0.5" d="M263.46 131.24H266.909M265.181 130.445V132.031V130.445Z" stroke="#0357FF" stroke-width="2" stroke-linecap="round"/>
<path opacity="0.5" d="M277.534 131.24H280.982M279.255 130.445V132.031V130.445Z" stroke="#0357FF" stroke-width="2" stroke-linecap="round"/>
<path opacity="0.5" d="M291.608 131.24H295.056M293.329 130.445V132.031V130.445Z" stroke="#0357FF" stroke-width="2" stroke-linecap="round"/>
<path opacity="0.5" d="M305.682 131.24H309.13M307.402 130.445V132.031V130.445Z" stroke="#0357FF" stroke-width="2" stroke-linecap="round"/>
<path opacity="0.5" d="M319.756 131.24H323.204M321.477 130.445V132.031V130.445Z" stroke="#0357FF" stroke-width="2" stroke-linecap="round"/>
<path opacity="0.5" d="M333.829 131.24H337.277M335.55 130.445V132.031V130.445Z" stroke="#0357FF" stroke-width="2" stroke-linecap="round"/>
<path opacity="0.5" d="M347.903 131.24H351.351M349.624 130.445V132.031V130.445Z" stroke="#0357FF" stroke-width="2" stroke-linecap="round"/>
<path opacity="0.5" d="M361.977 131.24H365.425M363.698 130.445V132.031V130.445Z" stroke="#0357FF" stroke-width="2" stroke-linecap="round"/>
<path opacity="0.5" d="M376.051 131.24H379.499M377.772 130.445V132.031V130.445Z" stroke="#0357FF" stroke-width="2" stroke-linecap="round"/>
<path opacity="0.5" d="M390.125 131.24H393.573M391.845 130.445V132.031V130.445Z" stroke="#0357FF" stroke-width="2" stroke-linecap="round"/>
<path opacity="0.5" d="M404.199 131.24H407.647M405.92 130.445V132.031V130.445Z" stroke="#0357FF" stroke-width="2" stroke-linecap="round"/>
<path opacity="0.5" d="M80.5 137.736H83.9481M82.2208 136.941V138.527V136.941Z" stroke="#0357FF" stroke-width="2" stroke-linecap="round"/>
<path opacity="0.5" d="M94.5732 137.736H98.0213M96.2941 136.941V138.527V136.941Z" stroke="#0357FF" stroke-width="2" stroke-linecap="round"/>
<path opacity="0.5" d="M108.647 137.736H112.096M110.368 136.941V138.527V136.941Z" stroke="#0357FF" stroke-width="2" stroke-linecap="round"/>
<path opacity="0.5" d="M122.721 137.736H126.169M124.442 136.941V138.527V136.941Z" stroke="#0357FF" stroke-width="2" stroke-linecap="round"/>
<path opacity="0.5" d="M136.795 137.736H140.243M138.516 136.941V138.527V136.941Z" stroke="#0357FF" stroke-width="2" stroke-linecap="round"/>
<path opacity="0.5" d="M150.869 137.736H154.317M152.59 136.941V138.527V136.941Z" stroke="#0357FF" stroke-width="2" stroke-linecap="round"/>
<path opacity="0.5" d="M164.943 137.736H168.391M166.664 136.941V138.527V136.941Z" stroke="#0357FF" stroke-width="2" stroke-linecap="round"/>
<path opacity="0.5" d="M179.016 137.736H182.464M180.737 136.941V138.527V136.941Z" stroke="#0357FF" stroke-width="2" stroke-linecap="round"/>
<path opacity="0.5" d="M193.09 137.736H196.538M194.811 136.941V138.527V136.941Z" stroke="#0357FF" stroke-width="2" stroke-linecap="round"/>
<path opacity="0.5" d="M207.164 137.736H210.612M208.885 136.941V138.527V136.941Z" stroke="#0357FF" stroke-width="2" stroke-linecap="round"/>
<path opacity="0.5" d="M221.239 137.736H224.687M222.96 136.941V138.527V136.941Z" stroke="#0357FF" stroke-width="2" stroke-linecap="round"/>
<path opacity="0.5" d="M235.313 137.736H238.761M237.034 136.941V138.527V136.941Z" stroke="#0357FF" stroke-width="2" stroke-linecap="round"/>
<path opacity="0.5" d="M249.386 137.736H252.834M251.107 136.941V138.527V136.941Z" stroke="#0357FF" stroke-width="2" stroke-linecap="round"/>
<path opacity="0.5" d="M263.46 137.736H266.909M265.181 136.941V138.527V136.941Z" stroke="#0357FF" stroke-width="2" stroke-linecap="round"/>
<path opacity="0.5" d="M277.534 137.736H280.982M279.255 136.941V138.527V136.941Z" stroke="#0357FF" stroke-width="2" stroke-linecap="round"/>
<path opacity="0.5" d="M291.608 137.736H295.056M293.329 136.941V138.527V136.941Z" stroke="#0357FF" stroke-width="2" stroke-linecap="round"/>
<path opacity="0.5" d="M305.682 137.736H309.13M307.402 136.941V138.527V136.941Z" stroke="#0357FF" stroke-width="2" stroke-linecap="round"/>
<path opacity="0.5" d="M319.756 137.736H323.204M321.477 136.941V138.527V136.941Z" stroke="#0357FF" stroke-width="2" stroke-linecap="round"/>
<path opacity="0.5" d="M333.829 137.736H337.277M335.55 136.941V138.527V136.941Z" stroke="#0357FF" stroke-width="2" stroke-linecap="round"/>
<path opacity="0.5" d="M347.903 137.736H351.351M349.624 136.941V138.527V136.941Z" stroke="#0357FF" stroke-width="2" stroke-linecap="round"/>
<path opacity="0.5" d="M361.977 137.736H365.425M363.698 136.941V138.527V136.941Z" stroke="#0357FF" stroke-width="2" stroke-linecap="round"/>
<path opacity="0.5" d="M376.051 137.736H379.499M377.772 136.941V138.527V136.941Z" stroke="#0357FF" stroke-width="2" stroke-linecap="round"/>
<path opacity="0.5" d="M390.125 137.736H393.573M391.845 136.941V138.527V136.941Z" stroke="#0357FF" stroke-width="2" stroke-linecap="round"/>
<path opacity="0.5" d="M404.199 137.736H407.647M405.92 136.941V138.527V136.941Z" stroke="#0357FF" stroke-width="2" stroke-linecap="round"/>
<path opacity="0.5" d="M80.5 144.232H83.9481M82.2208 143.438V145.023V143.438Z" stroke="#0357FF" stroke-width="2" stroke-linecap="round"/>
<path opacity="0.5" d="M94.5732 144.232H98.0213M96.2941 143.438V145.023V143.438Z" stroke="#0357FF" stroke-width="2" stroke-linecap="round"/>
<path opacity="0.5" d="M108.647 144.232H112.096M110.368 143.438V145.023V143.438Z" stroke="#0357FF" stroke-width="2" stroke-linecap="round"/>
<path opacity="0.5" d="M122.721 144.232H126.169M124.442 143.438V145.023V143.438Z" stroke="#0357FF" stroke-width="2" stroke-linecap="round"/>
<path opacity="0.5" d="M136.795 144.232H140.243M138.516 143.438V145.023V143.438Z" stroke="#0357FF" stroke-width="2" stroke-linecap="round"/>
<path opacity="0.5" d="M150.869 144.232H154.317M152.59 143.438V145.023V143.438Z" stroke="#0357FF" stroke-width="2" stroke-linecap="round"/>
<path opacity="0.5" d="M164.943 144.232H168.391M166.664 143.438V145.023V143.438Z" stroke="#0357FF" stroke-width="2" stroke-linecap="round"/>
<path opacity="0.5" d="M179.016 144.232H182.464M180.737 143.438V145.023V143.438Z" stroke="#0357FF" stroke-width="2" stroke-linecap="round"/>
<path opacity="0.5" d="M193.09 144.232H196.538M194.811 143.438V145.023V143.438Z" stroke="#0357FF" stroke-width="2" stroke-linecap="round"/>
<path opacity="0.5" d="M207.164 144.232H210.612M208.885 143.438V145.023V143.438Z" stroke="#0357FF" stroke-width="2" stroke-linecap="round"/>
<path opacity="0.5" d="M221.239 144.232H224.687M222.96 143.438V145.023V143.438Z" stroke="#0357FF" stroke-width="2" stroke-linecap="round"/>
<path opacity="0.5" d="M235.313 144.232H238.761M237.034 143.438V145.023V143.438Z" stroke="#0357FF" stroke-width="2" stroke-linecap="round"/>
<path opacity="0.5" d="M249.386 144.232H252.834M251.107 143.438V145.023V143.438Z" stroke="#0357FF" stroke-width="2" stroke-linecap="round"/>
<path opacity="0.5" d="M263.46 144.232H266.909M265.181 143.438V145.023V143.438Z" stroke="#0357FF" stroke-width="2" stroke-linecap="round"/>
<path opacity="0.5" d="M277.534 144.232H280.982M279.255 143.438V145.023V143.438Z" stroke="#0357FF" stroke-width="2" stroke-linecap="round"/>
<path opacity="0.5" d="M291.608 144.232H295.056M293.329 143.438V145.023V143.438Z" stroke="#0357FF" stroke-width="2" stroke-linecap="round"/>
<path opacity="0.5" d="M305.682 144.232H309.13M307.402 143.438V145.023V143.438Z" stroke="#0357FF" stroke-width="2" stroke-linecap="round"/>
<path opacity="0.5" d="M319.756 144.232H323.204M321.477 143.438V145.023V143.438Z" stroke="#0357FF" stroke-width="2" stroke-linecap="round"/>
<path opacity="0.5" d="M333.829 144.232H337.277M335.55 143.438V145.023V143.438Z" stroke="#0357FF" stroke-width="2" stroke-linecap="round"/>
<path opacity="0.5" d="M347.903 144.232H351.351M349.624 143.438V145.023V143.438Z" stroke="#0357FF" stroke-width="2" stroke-linecap="round"/>
<path opacity="0.5" d="M361.977 144.232H365.425M363.698 143.438V145.023V143.438Z" stroke="#0357FF" stroke-width="2" stroke-linecap="round"/>
<path opacity="0.5" d="M376.051 144.232H379.499M377.772 143.438V145.023V143.438Z" stroke="#0357FF" stroke-width="2" stroke-linecap="round"/>
<path opacity="0.5" d="M390.125 144.232H393.573M391.845 143.438V145.023V143.438Z" stroke="#0357FF" stroke-width="2" stroke-linecap="round"/>
<path opacity="0.5" d="M404.199 144.232H407.647M405.92 143.438V145.023V143.438Z" stroke="#0357FF" stroke-width="2" stroke-linecap="round"/>
<path opacity="0.5" d="M80.5 150.728H83.9481M82.2208 149.934V151.519V149.934Z" stroke="#0357FF" stroke-width="2" stroke-linecap="round"/>
<path opacity="0.5" d="M94.5732 150.728H98.0213M96.2941 149.934V151.519V149.934Z" stroke="#0357FF" stroke-width="2" stroke-linecap="round"/>
<path opacity="0.5" d="M108.647 150.728H112.096M110.368 149.934V151.519V149.934Z" stroke="#0357FF" stroke-width="2" stroke-linecap="round"/>
<path opacity="0.5" d="M122.721 150.728H126.169M124.442 149.934V151.519V149.934Z" stroke="#0357FF" stroke-width="2" stroke-linecap="round"/>
<path opacity="0.5" d="M136.795 150.728H140.243M138.516 149.934V151.519V149.934Z" stroke="#0357FF" stroke-width="2" stroke-linecap="round"/>
<path opacity="0.5" d="M150.869 150.728H154.317M152.59 149.934V151.519V149.934Z" stroke="#0357FF" stroke-width="2" stroke-linecap="round"/>
<path opacity="0.5" d="M164.943 150.728H168.391M166.664 149.934V151.519V149.934Z" stroke="#0357FF" stroke-width="2" stroke-linecap="round"/>
<path opacity="0.5" d="M179.016 150.728H182.464M180.737 149.934V151.519V149.934Z" stroke="#0357FF" stroke-width="2" stroke-linecap="round"/>
<path opacity="0.5" d="M193.09 150.728H196.538M194.811 149.934V151.519V149.934Z" stroke="#0357FF" stroke-width="2" stroke-linecap="round"/>
<path opacity="0.5" d="M207.164 150.728H210.612M208.885 149.934V151.519V149.934Z" stroke="#0357FF" stroke-width="2" stroke-linecap="round"/>
<path opacity="0.5" d="M221.239 150.728H224.687M222.96 149.934V151.519V149.934Z" stroke="#0357FF" stroke-width="2" stroke-linecap="round"/>
<path opacity="0.5" d="M235.313 150.728H238.761M237.034 149.934V151.519V149.934Z" stroke="#0357FF" stroke-width="2" stroke-linecap="round"/>
<path opacity="0.5" d="M249.386 150.728H252.834M251.107 149.934V151.519V149.934Z" stroke="#0357FF" stroke-width="2" stroke-linecap="round"/>
<path opacity="0.5" d="M263.46 150.728H266.909M265.181 149.934V151.519V149.934Z" stroke="#0357FF" stroke-width="2" stroke-linecap="round"/>
<path opacity="0.5" d="M277.534 150.728H280.982M279.255 149.934V151.519V149.934Z" stroke="#0357FF" stroke-width="2" stroke-linecap="round"/>
<path opacity="0.5" d="M291.608 150.728H295.056M293.329 149.934V151.519V149.934Z" stroke="#0357FF" stroke-width="2" stroke-linecap="round"/>
<path opacity="0.5" d="M305.682 150.728H309.13M307.402 149.934V151.519V149.934Z" stroke="#0357FF" stroke-width="2" stroke-linecap="round"/>
<path opacity="0.5" d="M319.756 150.728H323.204M321.477 149.934V151.519V149.934Z" stroke="#0357FF" stroke-width="2" stroke-linecap="round"/>
<path opacity="0.5" d="M333.829 150.728H337.277M335.55 149.934V151.519V149.934Z" stroke="#0357FF" stroke-width="2" stroke-linecap="round"/>
<path opacity="0.5" d="M347.903 150.728H351.351M349.624 149.934V151.519V149.934Z" stroke="#0357FF" stroke-width="2" stroke-linecap="round"/>
<path opacity="0.5" d="M361.977 150.728H365.425M363.698 149.934V151.519V149.934Z" stroke="#0357FF" stroke-width="2" stroke-linecap="round"/>
<path opacity="0.5" d="M376.051 150.728H379.499M377.772 149.934V151.519V149.934Z" stroke="#0357FF" stroke-width="2" stroke-linecap="round"/>
<path opacity="0.5" d="M390.125 150.728H393.573M391.845 149.934V151.519V149.934Z" stroke="#0357FF" stroke-width="2" stroke-linecap="round"/>
<path opacity="0.5" d="M404.199 150.728H407.647M405.92 149.934V151.519V149.934Z" stroke="#0357FF" stroke-width="2" stroke-linecap="round"/>
<path opacity="0.5" d="M80.5 157.224H83.9481M82.2208 156.43V158.015V156.43Z" stroke="#0357FF" stroke-width="2" stroke-linecap="round"/>
<path opacity="0.5" d="M94.5732 157.224H98.0213M96.2941 156.43V158.015V156.43Z" stroke="#0357FF" stroke-width="2" stroke-linecap="round"/>
<path opacity="0.5" d="M108.647 157.224H112.096M110.368 156.43V158.015V156.43Z" stroke="#0357FF" stroke-width="2" stroke-linecap="round"/>
<path opacity="0.5" d="M122.721 157.224H126.169M124.442 156.43V158.015V156.43Z" stroke="#0357FF" stroke-width="2" stroke-linecap="round"/>
<path opacity="0.5" d="M136.795 157.224H140.243M138.516 156.43V158.015V156.43Z" stroke="#0357FF" stroke-width="2" stroke-linecap="round"/>
<path opacity="0.5" d="M150.869 157.224H154.317M152.59 156.43V158.015V156.43Z" stroke="#0357FF" stroke-width="2" stroke-linecap="round"/>
<path opacity="0.5" d="M164.943 157.224H168.391M166.664 156.43V158.015V156.43Z" stroke="#0357FF" stroke-width="2" stroke-linecap="round"/>
<path opacity="0.5" d="M179.016 157.224H182.464M180.737 156.43V158.015V156.43Z" stroke="#0357FF" stroke-width="2" stroke-linecap="round"/>
<path opacity="0.5" d="M193.09 157.224H196.538M194.811 156.43V158.015V156.43Z" stroke="#0357FF" stroke-width="2" stroke-linecap="round"/>
<path opacity="0.5" d="M207.164 157.224H210.612M208.885 156.43V158.015V156.43Z" stroke="#0357FF" stroke-width="2" stroke-linecap="round"/>
<path opacity="0.5" d="M221.239 157.224H224.687M222.96 156.43V158.015V156.43Z" stroke="#0357FF" stroke-width="2" stroke-linecap="round"/>
<path opacity="0.5" d="M235.313 157.224H238.761M237.034 156.43V158.015V156.43Z" stroke="#0357FF" stroke-width="2" stroke-linecap="round"/>
<path opacity="0.5" d="M249.386 157.224H252.834M251.107 156.43V158.015V156.43Z" stroke="#0357FF" stroke-width="2" stroke-linecap="round"/>
<path opacity="0.5" d="M263.46 157.224H266.909M265.181 156.43V158.015V156.43Z" stroke="#0357FF" stroke-width="2" stroke-linecap="round"/>
<path opacity="0.5" d="M277.534 157.224H280.982M279.255 156.43V158.015V156.43Z" stroke="#0357FF" stroke-width="2" stroke-linecap="round"/>
<path opacity="0.5" d="M291.608 157.224H295.056M293.329 156.43V158.015V156.43Z" stroke="#0357FF" stroke-width="2" stroke-linecap="round"/>
<path opacity="0.5" d="M305.682 157.224H309.13M307.402 156.43V158.015V156.43Z" stroke="#0357FF" stroke-width="2" stroke-linecap="round"/>
<path opacity="0.5" d="M319.756 157.224H323.204M321.477 156.43V158.015V156.43Z" stroke="#0357FF" stroke-width="2" stroke-linecap="round"/>
<path opacity="0.5" d="M333.829 157.224H337.277M335.55 156.43V158.015V156.43Z" stroke="#0357FF" stroke-width="2" stroke-linecap="round"/>
<path opacity="0.5" d="M347.903 157.224H351.351M349.624 156.43V158.015V156.43Z" stroke="#0357FF" stroke-width="2" stroke-linecap="round"/>
<path opacity="0.5" d="M361.977 157.224H365.425M363.698 156.43V158.015V156.43Z" stroke="#0357FF" stroke-width="2" stroke-linecap="round"/>
<path opacity="0.5" d="M376.051 157.224H379.499M377.772 156.43V158.015V156.43Z" stroke="#0357FF" stroke-width="2" stroke-linecap="round"/>
<path opacity="0.5" d="M390.125 157.224H393.573M391.845 156.43V158.015V156.43Z" stroke="#0357FF" stroke-width="2" stroke-linecap="round"/>
<path opacity="0.5" d="M404.199 157.224H407.647M405.92 156.43V158.015V156.43Z" stroke="#0357FF" stroke-width="2" stroke-linecap="round"/>
<path opacity="0.5" d="M80.5 163.72H83.9481M82.2208 162.926V164.511V162.926Z" stroke="#0357FF" stroke-width="2" stroke-linecap="round"/>
<path opacity="0.5" d="M94.5732 163.72H98.0213M96.2941 162.926V164.511V162.926Z" stroke="#0357FF" stroke-width="2" stroke-linecap="round"/>
<path opacity="0.5" d="M108.647 163.72H112.096M110.368 162.926V164.511V162.926Z" stroke="#0357FF" stroke-width="2" stroke-linecap="round"/>
<path opacity="0.5" d="M122.721 163.72H126.169M124.442 162.926V164.511V162.926Z" stroke="#0357FF" stroke-width="2" stroke-linecap="round"/>
<path opacity="0.5" d="M136.795 163.72H140.243M138.516 162.926V164.511V162.926Z" stroke="#0357FF" stroke-width="2" stroke-linecap="round"/>
<path opacity="0.5" d="M150.869 163.72H154.317M152.59 162.926V164.511V162.926Z" stroke="#0357FF" stroke-width="2" stroke-linecap="round"/>
<path opacity="0.5" d="M164.943 163.72H168.391M166.664 162.926V164.511V162.926Z" stroke="#0357FF" stroke-width="2" stroke-linecap="round"/>
<path opacity="0.5" d="M179.016 163.72H182.464M180.737 162.926V164.511V162.926Z" stroke="#0357FF" stroke-width="2" stroke-linecap="round"/>
<path opacity="0.5" d="M193.09 163.72H196.538M194.811 162.926V164.511V162.926Z" stroke="#0357FF" stroke-width="2" stroke-linecap="round"/>
<path opacity="0.5" d="M207.164 163.72H210.612M208.885 162.926V164.511V162.926Z" stroke="#0357FF" stroke-width="2" stroke-linecap="round"/>
<path opacity="0.5" d="M221.239 163.72H224.687M222.96 162.926V164.511V162.926Z" stroke="#0357FF" stroke-width="2" stroke-linecap="round"/>
<path opacity="0.5" d="M235.313 163.72H238.761M237.034 162.926V164.511V162.926Z" stroke="#0357FF" stroke-width="2" stroke-linecap="round"/>
<path opacity="0.5" d="M249.386 163.72H252.834M251.107 162.926V164.511V162.926Z" stroke="#0357FF" stroke-width="2" stroke-linecap="round"/>
<path opacity="0.5" d="M263.46 163.72H266.909M265.181 162.926V164.511V162.926Z" stroke="#0357FF" stroke-width="2" stroke-linecap="round"/>
<path opacity="0.5" d="M277.534 163.72H280.982M279.255 162.926V164.511V162.926Z" stroke="#0357FF" stroke-width="2" stroke-linecap="round"/>
<path opacity="0.5" d="M291.608 163.72H295.056M293.329 162.926V164.511V162.926Z" stroke="#0357FF" stroke-width="2" stroke-linecap="round"/>
<path opacity="0.5" d="M305.682 163.72H309.13M307.402 162.926V164.511V162.926Z" stroke="#0357FF" stroke-width="2" stroke-linecap="round"/>
<path opacity="0.5" d="M319.756 163.72H323.204M321.477 162.926V164.511V162.926Z" stroke="#0357FF" stroke-width="2" stroke-linecap="round"/>
<path opacity="0.5" d="M333.829 163.72H337.277M335.55 162.926V164.511V162.926Z" stroke="#0357FF" stroke-width="2" stroke-linecap="round"/>
<path opacity="0.5" d="M347.903 163.72H351.351M349.624 162.926V164.511V162.926Z" stroke="#0357FF" stroke-width="2" stroke-linecap="round"/>
<path opacity="0.5" d="M361.977 163.72H365.425M363.698 162.926V164.511V162.926Z" stroke="#0357FF" stroke-width="2" stroke-linecap="round"/>
<path opacity="0.5" d="M376.051 163.72H379.499M377.772 162.926V164.511V162.926Z" stroke="#0357FF" stroke-width="2" stroke-linecap="round"/>
<path opacity="0.5" d="M390.125 163.72H393.573M391.845 162.926V164.511V162.926Z" stroke="#0357FF" stroke-width="2" stroke-linecap="round"/>
<path opacity="0.5" d="M404.199 163.72H407.647M405.92 162.926V164.511V162.926Z" stroke="#0357FF" stroke-width="2" stroke-linecap="round"/>
<path opacity="0.5" d="M80.5 170.216H83.9481M82.2208 169.422V171.007V169.422Z" stroke="#0357FF" stroke-width="2" stroke-linecap="round"/>
<path opacity="0.5" d="M94.5732 170.216H98.0213M96.2941 169.422V171.007V169.422Z" stroke="#0357FF" stroke-width="2" stroke-linecap="round"/>
<path opacity="0.5" d="M108.647 170.216H112.096M110.368 169.422V171.007V169.422Z" stroke="#0357FF" stroke-width="2" stroke-linecap="round"/>
<path opacity="0.5" d="M122.721 170.216H126.169M124.442 169.422V171.007V169.422Z" stroke="#0357FF" stroke-width="2" stroke-linecap="round"/>
<path opacity="0.5" d="M136.795 170.216H140.243M138.516 169.422V171.007V169.422Z" stroke="#0357FF" stroke-width="2" stroke-linecap="round"/>
<path opacity="0.5" d="M150.869 170.216H154.317M152.59 169.422V171.007V169.422Z" stroke="#0357FF" stroke-width="2" stroke-linecap="round"/>
<path opacity="0.5" d="M164.943 170.216H168.391M166.664 169.422V171.007V169.422Z" stroke="#0357FF" stroke-width="2" stroke-linecap="round"/>
<path opacity="0.5" d="M179.016 170.216H182.464M180.737 169.422V171.007V169.422Z" stroke="#0357FF" stroke-width="2" stroke-linecap="round"/>
<path opacity="0.5" d="M193.09 170.216H196.538M194.811 169.422V171.007V169.422Z" stroke="#0357FF" stroke-width="2" stroke-linecap="round"/>
<path opacity="0.5" d="M207.164 170.216H210.612M208.885 169.422V171.007V169.422Z" stroke="#0357FF" stroke-width="2" stroke-linecap="round"/>
<path opacity="0.5" d="M221.239 170.216H224.687M222.96 169.422V171.007V169.422Z" stroke="#0357FF" stroke-width="2" stroke-linecap="round"/>
<path opacity="0.5" d="M235.313 170.216H238.761M237.034 169.422V171.007V169.422Z" stroke="#0357FF" stroke-width="2" stroke-linecap="round"/>
<path opacity="0.5" d="M249.386 170.216H252.834M251.107 169.422V171.007V169.422Z" stroke="#0357FF" stroke-width="2" stroke-linecap="round"/>
<path opacity="0.5" d="M263.46 170.216H266.909M265.181 169.422V171.007V169.422Z" stroke="#0357FF" stroke-width="2" stroke-linecap="round"/>
<path opacity="0.5" d="M277.534 170.216H280.982M279.255 169.422V171.007V169.422Z" stroke="#0357FF" stroke-width="2" stroke-linecap="round"/>
<path opacity="0.5" d="M291.608 170.216H295.056M293.329 169.422V171.007V169.422Z" stroke="#0357FF" stroke-width="2" stroke-linecap="round"/>
<path opacity="0.5" d="M305.682 170.216H309.13M307.402 169.422V171.007V169.422Z" stroke="#0357FF" stroke-width="2" stroke-linecap="round"/>
<path opacity="0.5" d="M319.756 170.216H323.204M321.477 169.422V171.007V169.422Z" stroke="#0357FF" stroke-width="2" stroke-linecap="round"/>
<path opacity="0.5" d="M333.829 170.216H337.277M335.55 169.422V171.007V169.422Z" stroke="#0357FF" stroke-width="2" stroke-linecap="round"/>
<path opacity="0.5" d="M347.903 170.216H351.351M349.624 169.422V171.007V169.422Z" stroke="#0357FF" stroke-width="2" stroke-linecap="round"/>
<path opacity="0.5" d="M361.977 170.216H365.425M363.698 169.422V171.007V169.422Z" stroke="#0357FF" stroke-width="2" stroke-linecap="round"/>
<path opacity="0.5" d="M376.051 170.216H379.499M377.772 169.422V171.007V169.422Z" stroke="#0357FF" stroke-width="2" stroke-linecap="round"/>
<path opacity="0.5" d="M390.125 170.216H393.573M391.845 169.422V171.007V169.422Z" stroke="#0357FF" stroke-width="2" stroke-linecap="round"/>
<path opacity="0.5" d="M404.199 170.216H407.647M405.92 169.422V171.007V169.422Z" stroke="#0357FF" stroke-width="2" stroke-linecap="round"/>
<path opacity="0.5" d="M80.5 176.712H83.9481M82.2208 175.918V177.504V175.918Z" stroke="#0357FF" stroke-width="2" stroke-linecap="round"/>
<path opacity="0.5" d="M94.5732 176.712H98.0213M96.2941 175.918V177.504V175.918Z" stroke="#0357FF" stroke-width="2" stroke-linecap="round"/>
<path opacity="0.5" d="M108.647 176.712H112.096M110.368 175.918V177.504V175.918Z" stroke="#0357FF" stroke-width="2" stroke-linecap="round"/>
<path opacity="0.5" d="M122.721 176.712H126.169M124.442 175.918V177.504V175.918Z" stroke="#0357FF" stroke-width="2" stroke-linecap="round"/>
<path opacity="0.5" d="M136.795 176.712H140.243M138.516 175.918V177.504V175.918Z" stroke="#0357FF" stroke-width="2" stroke-linecap="round"/>
<path opacity="0.5" d="M150.869 176.712H154.317M152.59 175.918V177.504V175.918Z" stroke="#0357FF" stroke-width="2" stroke-linecap="round"/>
<path opacity="0.5" d="M164.943 176.712H168.391M166.664 175.918V177.504V175.918Z" stroke="#0357FF" stroke-width="2" stroke-linecap="round"/>
<path opacity="0.5" d="M179.016 176.712H182.464M180.737 175.918V177.504V175.918Z" stroke="#0357FF" stroke-width="2" stroke-linecap="round"/>
<path opacity="0.5" d="M193.09 176.712H196.538M194.811 175.918V177.504V175.918Z" stroke="#0357FF" stroke-width="2" stroke-linecap="round"/>
<path opacity="0.5" d="M207.164 176.712H210.612M208.885 175.918V177.504V175.918Z" stroke="#0357FF" stroke-width="2" stroke-linecap="round"/>
<path opacity="0.5" d="M221.239 176.712H224.687M222.96 175.918V177.504V175.918Z" stroke="#0357FF" stroke-width="2" stroke-linecap="round"/>
<path opacity="0.5" d="M235.313 176.712H238.761M237.034 175.918V177.504V175.918Z" stroke="#0357FF" stroke-width="2" stroke-linecap="round"/>
<path opacity="0.5" d="M249.386 176.712H252.834M251.107 175.918V177.504V175.918Z" stroke="#0357FF" stroke-width="2" stroke-linecap="round"/>
<path opacity="0.5" d="M263.46 176.712H266.909M265.181 175.918V177.504V175.918Z" stroke="#0357FF" stroke-width="2" stroke-linecap="round"/>
<path opacity="0.5" d="M277.534 176.712H280.982M279.255 175.918V177.504V175.918Z" stroke="#0357FF" stroke-width="2" stroke-linecap="round"/>
<path opacity="0.5" d="M291.608 176.712H295.056M293.329 175.918V177.504V175.918Z" stroke="#0357FF" stroke-width="2" stroke-linecap="round"/>
<path opacity="0.5" d="M305.682 176.712H309.13M307.402 175.918V177.504V175.918Z" stroke="#0357FF" stroke-width="2" stroke-linecap="round"/>
<path opacity="0.5" d="M319.756 176.712H323.204M321.477 175.918V177.504V175.918Z" stroke="#0357FF" stroke-width="2" stroke-linecap="round"/>
<path opacity="0.5" d="M333.829 176.712H337.277M335.55 175.918V177.504V175.918Z" stroke="#0357FF" stroke-width="2" stroke-linecap="round"/>
<path opacity="0.5" d="M347.903 176.712H351.351M349.624 175.918V177.504V175.918Z" stroke="#0357FF" stroke-width="2" stroke-linecap="round"/>
<path opacity="0.5" d="M361.977 176.712H365.425M363.698 175.918V177.504V175.918Z" stroke="#0357FF" stroke-width="2" stroke-linecap="round"/>
<path opacity="0.5" d="M376.051 176.712H379.499M377.772 175.918V177.504V175.918Z" stroke="#0357FF" stroke-width="2" stroke-linecap="round"/>
<path opacity="0.5" d="M390.125 176.712H393.573M391.845 175.918V177.504V175.918Z" stroke="#0357FF" stroke-width="2" stroke-linecap="round"/>
<path opacity="0.5" d="M404.199 176.712H407.647M405.92 175.918V177.504V175.918Z" stroke="#0357FF" stroke-width="2" stroke-linecap="round"/>
<path opacity="0.5" d="M80.5 183.208H83.9481M82.2208 182.414V184V182.414Z" stroke="#0357FF" stroke-width="2" stroke-linecap="round"/>
<path opacity="0.5" d="M94.5732 183.208H98.0213M96.2941 182.414V184V182.414Z" stroke="#0357FF" stroke-width="2" stroke-linecap="round"/>
<path opacity="0.5" d="M108.647 183.208H112.096M110.368 182.414V184V182.414Z" stroke="#0357FF" stroke-width="2" stroke-linecap="round"/>
<path opacity="0.5" d="M122.721 183.208H126.169M124.442 182.414V184V182.414Z" stroke="#0357FF" stroke-width="2" stroke-linecap="round"/>
<path opacity="0.5" d="M136.795 183.208H140.243M138.516 182.414V184V182.414Z" stroke="#0357FF" stroke-width="2" stroke-linecap="round"/>
<path opacity="0.5" d="M150.869 183.208H154.317M152.59 182.414V184V182.414Z" stroke="#0357FF" stroke-width="2" stroke-linecap="round"/>
<path opacity="0.5" d="M164.943 183.208H168.391M166.664 182.414V184V182.414Z" stroke="#0357FF" stroke-width="2" stroke-linecap="round"/>
<path opacity="0.5" d="M179.016 183.208H182.464M180.737 182.414V184V182.414Z" stroke="#0357FF" stroke-width="2" stroke-linecap="round"/>
<path opacity="0.5" d="M193.09 183.208H196.538M194.811 182.414V184V182.414Z" stroke="#0357FF" stroke-width="2" stroke-linecap="round"/>
<path opacity="0.5" d="M207.164 183.208H210.612M208.885 182.414V184V182.414Z" stroke="#0357FF" stroke-width="2" stroke-linecap="round"/>
<path opacity="0.5" d="M221.239 183.208H224.687M222.96 182.414V184V182.414Z" stroke="#0357FF" stroke-width="2" stroke-linecap="round"/>
<path opacity="0.5" d="M235.313 183.208H238.761M237.034 182.414V184V182.414Z" stroke="#0357FF" stroke-width="2" stroke-linecap="round"/>
<path opacity="0.5" d="M249.386 183.208H252.834M251.107 182.414V184V182.414Z" stroke="#0357FF" stroke-width="2" stroke-linecap="round"/>
<path opacity="0.5" d="M263.46 183.208H266.909M265.181 182.414V184V182.414Z" stroke="#0357FF" stroke-width="2" stroke-linecap="round"/>
<path opacity="0.5" d="M277.534 183.208H280.982M279.255 182.414V184V182.414Z" stroke="#0357FF" stroke-width="2" stroke-linecap="round"/>
<path opacity="0.5" d="M291.608 183.208H295.056M293.329 182.414V184V182.414Z" stroke="#0357FF" stroke-width="2" stroke-linecap="round"/>
<path opacity="0.5" d="M305.682 183.208H309.13M307.402 182.414V184V182.414Z" stroke="#0357FF" stroke-width="2" stroke-linecap="round"/>
<path opacity="0.5" d="M319.756 183.208H323.204M321.477 182.414V184V182.414Z" stroke="#0357FF" stroke-width="2" stroke-linecap="round"/>
<path opacity="0.5" d="M333.829 183.208H337.277M335.55 182.414V184V182.414Z" stroke="#0357FF" stroke-width="2" stroke-linecap="round"/>
<path opacity="0.5" d="M347.903 183.208H351.351M349.624 182.414V184V182.414Z" stroke="#0357FF" stroke-width="2" stroke-linecap="round"/>
<path opacity="0.5" d="M361.977 183.208H365.425M363.698 182.414V184V182.414Z" stroke="#0357FF" stroke-width="2" stroke-linecap="round"/>
<path opacity="0.5" d="M376.051 183.208H379.499M377.772 182.414V184V182.414Z" stroke="#0357FF" stroke-width="2" stroke-linecap="round"/>
<path opacity="0.5" d="M390.125 183.208H393.573M391.845 182.414V184V182.414Z" stroke="#0357FF" stroke-width="2" stroke-linecap="round"/>
<path opacity="0.5" d="M404.199 183.208H407.647M405.92 182.414V184V182.414Z" stroke="#0357FF" stroke-width="2" stroke-linecap="round"/>
</g>
</g>
<path d="M154.122 148.312C155.72 148.312 157.016 147.009 157.016 145.402C157.016 143.795 155.72 142.492 154.122 142.492C152.524 142.492 151.229 143.795 151.229 145.402C151.229 147.009 152.524 148.312 154.122 148.312Z" fill="#CEF2FF"/>
<path d="M349.171 111.993C347.994 112.295 346.79 112.479 345.576 112.54C345.481 112.544 345.388 112.515 345.312 112.459C345.236 112.402 345.181 112.32 345.157 112.228L344.815 110.844C344.793 110.758 344.744 110.681 344.675 110.625C344.607 110.569 344.522 110.536 344.434 110.532C343.098 110.501 341.772 110.3 340.485 109.936C340.399 109.913 340.308 109.918 340.226 109.952C340.143 109.985 340.074 110.045 340.028 110.122L339.294 111.342C339.247 111.422 339.173 111.483 339.086 111.515C338.999 111.547 338.903 111.548 338.816 111.517C336.512 110.699 334.398 109.421 332.599 107.759C332.531 107.694 332.487 107.608 332.474 107.514C332.461 107.421 332.48 107.326 332.528 107.245L333.257 106.02C333.302 105.943 333.322 105.853 333.312 105.764C333.302 105.675 333.264 105.592 333.202 105.527C332.278 104.55 331.48 103.46 330.826 102.283C330.781 102.207 330.713 102.147 330.632 102.111C330.551 102.076 330.46 102.067 330.374 102.087L328.998 102.437C328.906 102.459 328.808 102.449 328.723 102.407C328.638 102.365 328.57 102.294 328.53 102.207C327.477 99.9885 326.879 97.5792 326.774 95.1232C326.771 95.0283 326.801 94.9354 326.857 94.8591C326.913 94.7828 326.993 94.7276 327.084 94.702L328.454 94.3574C328.54 94.3353 328.616 94.2862 328.672 94.2173C328.728 94.1484 328.76 94.0633 328.764 93.9745C328.793 92.6312 328.991 91.297 329.352 90.0033C329.377 89.9167 329.373 89.8243 329.34 89.7402C329.308 89.6562 329.249 89.5852 329.172 89.5383L327.965 88.8053C327.884 88.7558 327.822 88.6801 327.79 88.5907C327.757 88.5013 327.755 88.4034 327.785 88.313C328.602 85.9984 329.873 83.8723 331.522 82.0608C331.586 81.9924 331.672 81.9481 331.765 81.9351C331.858 81.9222 331.953 81.9415 332.033 81.9897L333.251 82.7227C333.329 82.768 333.419 82.7872 333.508 82.7773C333.597 82.7675 333.681 82.7292 333.746 82.668C334.711 81.7377 335.789 80.9344 336.955 80.2776C337.032 80.2328 337.092 80.1644 337.126 80.0825C337.16 80.0006 337.167 79.9098 337.146 79.8236L336.803 78.4396C336.78 78.3474 336.79 78.2501 336.831 78.1643C336.871 78.0785 336.941 78.0095 337.026 77.9692C339.223 76.9125 341.61 76.3133 344.042 76.2079C344.138 76.2018 344.233 76.2289 344.311 76.2846C344.389 76.3404 344.446 76.4214 344.472 76.5142L344.815 77.9036C344.837 77.9897 344.886 78.0664 344.954 78.1225C345.023 78.1786 345.107 78.2112 345.196 78.2154C346.53 78.2465 347.855 78.4469 349.139 78.8116C349.225 78.8368 349.317 78.8327 349.4 78.8001C349.484 78.7675 349.555 78.7081 349.601 78.6311L350.33 77.4113C350.379 77.33 350.455 77.2679 350.543 77.2351C350.632 77.2023 350.73 77.2008 350.82 77.2308C353.119 78.0524 355.232 79.3303 357.031 80.9887C357.106 81.0561 357.155 81.1485 357.168 81.2489C357.181 81.3494 357.157 81.4512 357.102 81.5357L356.373 82.7555C356.327 82.8323 356.308 82.922 356.318 83.0108C356.328 83.0997 356.366 83.1829 356.427 83.2478C357.352 84.2199 358.151 85.3062 358.804 86.4806C358.849 86.5578 358.918 86.6182 359.001 86.6527C359.083 86.6872 359.174 86.694 359.261 86.672L360.632 86.3274C360.724 86.306 360.821 86.3171 360.906 86.3589C360.991 86.4008 361.059 86.4707 361.099 86.5572C362.15 88.7704 362.746 91.1741 362.851 93.6244C362.856 93.72 362.828 93.8144 362.771 93.8913C362.715 93.9682 362.633 94.0228 362.541 94.0456L361.17 94.3902C361.084 94.4116 361.007 94.4604 360.951 94.5295C360.895 94.5986 360.863 94.6841 360.86 94.7731C360.826 96.1164 360.627 97.4504 360.267 98.7444C360.242 98.8317 360.245 98.9251 360.278 99.0101C360.31 99.095 360.37 99.167 360.447 99.2148L361.659 99.9478C361.74 99.9974 361.802 100.073 361.835 100.162C361.867 100.252 361.869 100.35 361.839 100.44C361.018 102.754 359.744 104.878 358.091 106.687C358.027 106.756 357.942 106.801 357.848 106.814C357.755 106.827 357.661 106.807 357.58 106.758L356.367 106.025C356.289 105.979 356.197 105.96 356.107 105.971C356.017 105.982 355.933 106.022 355.867 106.085C354.902 107.013 353.823 107.815 352.658 108.47C352.581 108.516 352.521 108.585 352.487 108.668C352.452 108.751 352.446 108.843 352.468 108.93L352.81 110.308C352.833 110.4 352.823 110.498 352.782 110.583C352.742 110.669 352.673 110.738 352.587 110.778C351.491 111.304 350.345 111.718 349.166 112.015L349.171 111.993ZM343.885 90.6269C342.944 90.8642 342.125 91.4442 341.586 92.2545C341.047 93.0649 340.827 94.0477 340.967 95.0123C341.108 95.9769 341.6 96.8547 342.348 97.4751C343.095 98.0956 344.046 98.4147 345.014 98.3704C345.983 98.3262 346.9 97.9217 347.589 97.2356C348.278 96.5494 348.688 95.6304 348.741 94.6569C348.794 93.6834 348.486 92.7248 347.876 91.967C347.266 91.2092 346.398 90.7063 345.44 90.5557C344.922 90.4727 344.393 90.4969 343.885 90.6269Z" fill="#6D6DF7"/>
<path d="M159.839 154.468L170.325 148.38C170.388 148.342 170.459 148.321 170.533 148.32C170.606 148.32 170.678 148.339 170.742 148.376C170.805 148.412 170.858 148.466 170.893 148.53C170.929 148.595 170.947 148.668 170.945 148.741V152.849C170.946 152.923 170.928 152.995 170.891 153.059C170.855 153.122 170.802 153.175 170.738 153.21L160.252 159.298C160.16 159.347 160.052 159.36 159.951 159.332C159.85 159.305 159.763 159.24 159.708 159.151C159.674 159.089 159.655 159.019 159.654 158.948V154.835C159.651 154.763 159.666 154.692 159.699 154.627C159.731 154.563 159.779 154.508 159.839 154.468Z" fill="#FFCF00"/>
<path d="M250.051 71.0185C250.627 71.0185 251.095 70.5482 251.095 69.9682C251.095 69.3882 250.627 68.918 250.051 68.918C249.474 68.918 249.006 69.3882 249.006 69.9682C249.006 70.5482 249.474 71.0185 250.051 71.0185Z" fill="#161616"/>
<path d="M187.371 67.0898H312.725C313.909 67.0913 315.043 67.5649 315.881 68.4068C316.718 69.2487 317.189 70.3901 317.19 71.5807V154.293H182.906V71.6026C182.904 71.0112 183.018 70.4252 183.241 69.8782C183.464 69.3311 183.793 68.8337 184.208 68.4145C184.622 67.9953 185.115 67.6626 185.658 67.4352C186.201 67.2079 186.783 67.0906 187.371 67.0898Z" fill="#653DD3"/>
<path d="M168.34 154.293H331.767V158.122H168.34V154.293Z" fill="#DDE9F7"/>
<path d="M196.895 57.8125H303.076C304.26 57.8139 305.395 58.2876 306.232 59.1295C307.069 59.9713 307.54 61.1128 307.541 62.3034V154.342H192.43V62.3034C192.43 61.1133 192.899 59.9718 193.736 59.1298C194.572 58.2877 195.706 57.8139 196.89 57.8125H196.895Z" fill="#EBEBFF"/>
<path d="M197.787 63.6395C198.364 63.6395 198.831 63.1693 198.831 62.5893C198.831 62.0093 198.364 61.5391 197.787 61.5391C197.21 61.5391 196.743 62.0093 196.743 62.5893C196.743 63.1693 197.21 63.6395 197.787 63.6395Z" fill="#FF5276"/>
<path d="M204.042 61.5391C204.248 61.5391 204.45 61.6007 204.622 61.7161C204.794 61.8315 204.928 61.9955 205.007 62.1874C205.086 62.3793 205.106 62.5905 205.066 62.7942C205.026 62.9979 204.926 63.1851 204.78 63.3319C204.634 63.4788 204.448 63.5788 204.246 63.6194C204.043 63.6599 203.833 63.6391 203.642 63.5596C203.451 63.4801 203.288 63.3455 203.174 63.1728C203.059 63.0001 202.998 62.797 202.998 62.5893C202.998 62.3108 203.108 62.0436 203.303 61.8467C203.499 61.6497 203.765 61.5391 204.042 61.5391Z" fill="#FF8B00"/>
<path d="M210.297 63.6395C210.873 63.6395 211.341 63.1693 211.341 62.5893C211.341 62.0093 210.873 61.5391 210.297 61.5391C209.72 61.5391 209.252 62.0093 209.252 62.5893C209.252 63.1693 209.72 63.6395 210.297 63.6395Z" fill="#00D9C8"/>
<path d="M191.886 67.0273H306.997" stroke="#0357FF" stroke-miterlimit="10"/>
<path d="M267.488 80.0506H269.185M270.034 82.5887V80.9039V82.5887ZM270.034 79.1973V77.4961V79.1973ZM270.877 80.0506H272.574H270.877Z" stroke="#0357FF" stroke-miterlimit="10"/>
<path d="M280.156 9.81881H281.847M283.751 13.44V11.7333V13.44ZM283.751 7.9043V6.20312V7.9043ZM285.655 9.81881H287.346H285.655Z" stroke="#0357FF" stroke-miterlimit="10"/>
<path d="M209.057 139.743L207.811 139.661C206.42 139.648 205.09 139.083 204.11 138.09C203.13 137.096 202.58 135.754 202.579 134.355V117.069C202.58 116.015 202.334 114.975 201.861 114.033C201.459 113.242 200.93 112.523 200.294 111.906C199.816 111.436 199.291 111.016 198.728 110.653L198.304 110.39C198.418 110.336 198.559 110.248 198.728 110.144C199.294 109.795 199.819 109.384 200.294 108.919C200.94 108.297 201.473 107.566 201.866 106.758C202.344 105.762 202.59 104.67 202.584 103.564V86.3387C202.584 85.6415 202.719 84.9509 202.984 84.3066C203.249 83.6622 203.638 83.0766 204.128 82.5833C204.618 82.0901 205.199 81.6988 205.84 81.4318C206.48 81.1648 207.167 81.0273 207.86 81.0273H209.062M290.038 81.0273L291.284 81.1094C292.675 81.1224 294.004 81.6871 294.983 82.6808C295.962 83.6744 296.511 85.0166 296.511 86.4153V103.701C296.511 104.755 296.757 105.795 297.229 106.736C297.63 107.528 298.16 108.247 298.795 108.864C299.275 109.333 299.8 109.752 300.362 110.117C300.53 110.226 300.677 110.314 300.791 110.38C300.643 110.452 300.499 110.534 300.362 110.626C299.797 110.976 299.272 111.387 298.795 111.851C298.153 112.476 297.621 113.207 297.223 114.012C296.745 115.008 296.5 116.1 296.505 117.206V134.437C296.506 135.133 296.37 135.823 296.106 136.467C295.841 137.11 295.453 137.695 294.964 138.188C294.474 138.681 293.893 139.072 293.253 139.339C292.613 139.605 291.928 139.743 291.235 139.743H290.033" stroke="black" stroke-miterlimit="10"/>
<path d="M180.855 59.1039C180.232 59.2518 179.597 59.3397 178.957 59.3665C178.908 59.3686 178.859 59.3542 178.819 59.3255C178.778 59.2968 178.749 59.2554 178.734 59.2078L178.555 58.5186C178.541 58.4746 178.515 58.4358 178.479 58.4074C178.443 58.379 178.399 58.3625 178.353 58.36C177.648 58.3447 176.946 58.2437 176.265 58.0591C176.22 58.0471 176.173 58.0497 176.13 58.0664C176.087 58.0831 176.05 58.1131 176.025 58.1521L175.639 58.7648C175.613 58.8062 175.573 58.8374 175.527 58.8532C175.48 58.8691 175.43 58.8688 175.384 58.8523C174.184 58.4446 173.076 57.8055 172.12 56.9706C172.086 56.9385 172.063 56.8955 172.056 56.8488C172.049 56.802 172.059 56.7543 172.082 56.7135L172.468 56.1009C172.493 56.0626 172.503 56.0169 172.497 55.9718C172.491 55.9266 172.469 55.8852 172.436 55.8547C171.949 55.3638 171.527 54.8124 171.179 54.2137C171.155 54.1737 171.119 54.1426 171.076 54.1249C171.033 54.1071 170.985 54.1038 170.94 54.1153L170.217 54.2903C170.168 54.3011 170.118 54.2957 170.072 54.275C170.027 54.2542 169.99 54.2193 169.966 54.1754C169.417 53.0753 169.102 51.8716 169.042 50.6418C169.039 50.5926 169.054 50.5441 169.084 50.505C169.114 50.4659 169.157 50.4388 169.205 50.4285L169.907 50.2698C169.95 50.2595 169.99 50.2354 170.019 50.2009C170.049 50.1665 170.066 50.1236 170.07 50.0784C170.085 49.4039 170.19 48.7344 170.38 48.0873C170.39 48.0433 170.387 47.997 170.371 47.9549C170.354 47.9128 170.325 47.8768 170.287 47.8521L169.645 47.4856C169.603 47.4624 169.571 47.4248 169.554 47.3797C169.537 47.3346 169.537 47.2848 169.553 47.2394C169.991 46.07 170.663 45.0034 171.527 44.1051C171.563 44.07 171.609 44.0477 171.658 44.0418C171.707 44.0358 171.757 44.0466 171.799 44.0723L172.441 44.4388C172.48 44.4642 172.525 44.4778 172.572 44.4778C172.618 44.4778 172.663 44.4642 172.702 44.4388C173.216 43.9703 173.786 43.5679 174.399 43.2409C174.439 43.2199 174.471 43.1855 174.489 43.1436C174.507 43.1017 174.51 43.0549 174.497 43.0111L174.318 42.3164C174.306 42.2693 174.312 42.2196 174.334 42.1765C174.356 42.1333 174.393 42.0995 174.437 42.0812C175.612 41.5367 176.881 41.2282 178.174 41.1732C178.223 41.1676 178.273 41.18 178.314 41.2081C178.355 41.2362 178.384 41.2782 178.397 41.3264L178.582 42.021C178.594 42.0659 178.62 42.1057 178.656 42.1343C178.692 42.1629 178.737 42.1788 178.783 42.1797C179.487 42.1958 180.186 42.295 180.866 42.4751C180.911 42.488 180.959 42.4865 181.003 42.4708C181.046 42.4551 181.084 42.426 181.111 42.3875L181.497 41.7749C181.524 41.7342 181.564 41.7036 181.61 41.6878C181.656 41.672 181.707 41.6718 181.753 41.6874C182.952 42.095 184.061 42.7342 185.016 43.5691C185.053 43.6 185.076 43.6431 185.083 43.6904C185.09 43.7377 185.08 43.786 185.054 43.8262L184.668 44.4388C184.645 44.4774 184.635 44.5229 184.641 44.5677C184.647 44.6125 184.668 44.6539 184.701 44.6849C185.188 45.1756 185.61 45.7271 185.957 46.326C185.983 46.3643 186.019 46.3939 186.062 46.4105C186.105 46.4272 186.152 46.4301 186.196 46.4189L186.92 46.2494C186.968 46.2372 187.018 46.2413 187.064 46.2611C187.109 46.2809 187.146 46.3153 187.17 46.3588C187.725 47.4593 188.042 48.6654 188.1 49.8979C188.101 49.9469 188.086 49.9948 188.056 50.0337C188.026 50.0725 187.984 50.0999 187.937 50.1112L187.203 50.2698C187.158 50.2794 187.118 50.3032 187.089 50.3378C187.059 50.3724 187.042 50.4158 187.04 50.4613C187.022 51.1361 186.916 51.8056 186.724 52.4524C186.711 52.4969 186.714 52.5446 186.732 52.5874C186.749 52.6303 186.781 52.6656 186.822 52.6876L187.464 53.0595C187.505 53.0818 187.538 53.1183 187.555 53.1625C187.572 53.2067 187.572 53.2556 187.556 53.3002C187.116 54.4699 186.442 55.5366 185.576 56.4345C185.541 56.4697 185.495 56.4919 185.446 56.4979C185.397 56.5038 185.347 56.4931 185.304 56.4674L184.663 56.1009C184.625 56.0733 184.579 56.0584 184.532 56.0584C184.485 56.0584 184.44 56.0733 184.402 56.1009C183.888 56.5694 183.317 56.9718 182.705 57.2988C182.665 57.3205 182.634 57.355 182.616 57.3967C182.598 57.4383 182.595 57.4848 182.607 57.5285L182.786 58.2178C182.797 58.2656 182.791 58.3156 182.769 58.3595C182.747 58.4033 182.711 58.4383 182.667 58.4585C182.084 58.7222 181.477 58.9291 180.855 59.0766V59.1039ZM178.065 48.3991C177.813 48.4506 177.574 48.5517 177.36 48.6965C177.147 48.8414 176.965 49.0271 176.823 49.2432C176.682 49.4592 176.584 49.7012 176.536 49.9553C176.488 50.2094 176.49 50.4706 176.542 50.7238V50.7895C176.694 51.3083 177.041 51.7476 177.508 52.0148C177.976 52.2821 178.528 52.3566 179.05 52.2226C179.301 52.1699 179.539 52.0679 179.751 51.9225C179.963 51.7772 180.144 51.5912 180.285 51.3753C180.425 51.1594 180.522 50.9178 180.569 50.6643C180.617 50.4108 180.614 50.1504 180.562 49.8979C180.564 49.8761 180.564 49.854 180.562 49.8322C180.453 49.4487 180.236 49.1053 179.937 48.8439C179.637 48.5826 179.268 48.4147 178.876 48.3608C178.602 48.321 178.323 48.3339 178.054 48.3991H178.065Z" fill="#FF8B00"/>
<path d="M291.349 28.6331C309.322 36.6816 324.518 49.9094 335.016 66.6437C345.514 83.3779 350.842 102.867 350.326 122.647C349.81 142.426 343.474 161.608 332.118 177.765C320.763 193.923 304.898 206.332 286.53 213.422C268.162 220.512 248.117 221.965 228.928 217.597C209.739 213.23 192.269 203.237 178.727 188.884C165.184 174.531 156.178 156.462 152.847 136.961C149.516 117.461 152.01 97.4046 160.013 79.3293C182.362 28.8574 241.163 6.15676 291.349 28.6331Z" stroke="#0357FF"/>
<path d="M130.762 107.198L154.492 93.8453L177.793 107.947M239.325 0.160156L253.602 19.7593L243.758 41.9511M253.075 246.519L243.176 219.503L261.592 197.464L253.075 246.519Z" stroke="#0357FF" stroke-miterlimit="10"/>
<path d="M297.528 37.1424C300.535 37.1424 302.972 34.6909 302.972 31.6669C302.972 28.6429 300.535 26.1914 297.528 26.1914C294.521 26.1914 292.083 28.6429 292.083 31.6669C292.083 34.6909 294.521 37.1424 297.528 37.1424Z" fill="#FF5276"/>
<path d="M177.309 51.9727L178.359 52.3282C178.359 52.3282 174.394 57.924 174.127 58.2851C174.008 58.4492 172.691 57.4153 172.691 57.4153L177.309 51.9727Z" fill="#FF8B00"/>
<path d="M349.59 107.527C349.59 107.527 350.009 110.749 350.216 113.905C350.422 117.062 350.384 119.217 350.384 119.217" fill="black"/>
<path d="M349.59 107.527C349.59 107.527 350.009 110.749 350.216 113.905C350.422 117.062 350.384 119.217 350.384 119.217" stroke="#0357FF"/>
<path d="M287.417 99.9436C287.359 99.822 287.262 99.7241 287.141 99.6663C287.02 99.6085 286.883 99.5944 286.753 99.6263L284.811 100.113C284.689 100.142 284.561 100.132 284.446 100.082C284.33 100.033 284.233 99.9482 284.169 99.8396C283.245 98.1774 282.114 96.6406 280.803 95.2667C280.716 95.1734 280.661 95.0545 280.646 94.9274C280.631 94.8004 280.658 94.6719 280.721 94.5611L281.755 92.838C281.823 92.7223 281.85 92.5865 281.831 92.4532C281.812 92.3199 281.749 92.1971 281.651 92.105C279.106 89.7579 276.116 87.9497 272.862 86.7882C272.735 86.7438 272.598 86.7447 272.472 86.7905C272.346 86.8363 272.24 86.9244 272.171 87.0398L271.138 88.7628C271.072 88.8719 270.972 88.9561 270.855 89.0026C270.737 89.0491 270.607 89.0552 270.485 89.0199C268.665 88.505 266.789 88.222 264.899 88.1776C264.773 88.1722 264.652 88.1262 264.554 88.0464C264.456 87.9666 264.386 87.8573 264.355 87.7345L263.871 85.7707C263.836 85.6389 263.757 85.5233 263.647 85.4435C263.537 85.3638 263.403 85.3248 263.267 85.3331C259.823 85.4863 256.444 86.3326 253.33 87.822C253.209 87.8808 253.111 87.9797 253.054 88.1022C252.996 88.2247 252.983 88.3633 253.015 88.4948L253.499 90.4531C253.53 90.5758 253.52 90.7053 253.471 90.8218C253.422 90.9384 253.336 91.0356 253.227 91.0985C251.58 92.0293 250.056 93.165 248.691 94.479C248.598 94.5666 248.48 94.6218 248.353 94.6366C248.227 94.6514 248.099 94.6249 247.989 94.5611L246.265 93.5272C246.151 93.4572 246.018 93.4287 245.886 93.4467C245.754 93.4646 245.632 93.5279 245.541 93.6257C243.205 96.1883 241.407 99.1985 240.255 102.476C240.21 102.603 240.21 102.742 240.256 102.869C240.301 102.996 240.389 103.102 240.505 103.171L242.213 104.21C242.321 104.276 242.405 104.376 242.451 104.495C242.497 104.613 242.503 104.744 242.468 104.867C241.959 106.701 241.678 108.591 241.631 110.495C241.628 110.622 241.584 110.744 241.506 110.843C241.427 110.942 241.318 111.012 241.196 111.042L239.259 111.529C239.13 111.562 239.015 111.638 238.935 111.746C238.855 111.853 238.814 111.985 238.819 112.12C238.964 115.578 239.796 118.973 241.266 122.103C241.324 122.225 241.421 122.323 241.542 122.382C241.662 122.44 241.799 122.456 241.93 122.425L243.883 121.933C244.004 121.904 244.131 121.915 244.246 121.964C244.36 122.014 244.456 122.098 244.519 122.207C245.446 123.874 246.577 125.417 247.886 126.801C247.973 126.893 248.028 127.011 248.043 127.138C248.058 127.264 248.031 127.392 247.967 127.502L246.939 129.236C246.87 129.35 246.841 129.484 246.859 129.617C246.877 129.749 246.94 129.872 247.037 129.963C249.584 132.312 252.575 134.12 255.832 135.28C255.957 135.324 256.093 135.324 256.218 135.279C256.343 135.234 256.449 135.148 256.517 135.034L257.551 133.305C257.616 133.195 257.715 133.11 257.833 133.062C257.951 133.015 258.081 133.008 258.204 133.043C260.022 133.562 261.899 133.847 263.789 133.891C263.915 133.896 264.036 133.942 264.134 134.022C264.232 134.101 264.302 134.211 264.333 134.334L264.817 136.286C264.85 136.417 264.927 136.533 265.035 136.613C265.144 136.692 265.276 136.732 265.41 136.724C268.854 136.576 272.232 135.73 275.342 134.235C275.463 134.177 275.561 134.08 275.619 133.958C275.678 133.837 275.693 133.699 275.663 133.568L275.179 131.615C275.15 131.492 275.16 131.363 275.209 131.247C275.258 131.131 275.343 131.034 275.451 130.97C277.098 130.037 278.622 128.899 279.987 127.584C280.08 127.496 280.2 127.44 280.327 127.425C280.454 127.411 280.583 127.437 280.694 127.502L282.407 128.541C282.52 128.612 282.654 128.641 282.787 128.623C282.919 128.605 283.04 128.541 283.131 128.442C285.475 125.882 287.281 122.872 288.439 119.592C288.481 119.465 288.479 119.329 288.433 119.203C288.388 119.078 288.302 118.972 288.189 118.903L286.47 117.863C286.362 117.796 286.279 117.695 286.232 117.575C286.186 117.456 286.18 117.325 286.215 117.201C286.726 115.368 287.008 113.477 287.052 111.573C287.058 111.446 287.103 111.325 287.183 111.226C287.262 111.128 287.371 111.057 287.493 111.026L289.434 110.539C289.565 110.506 289.681 110.429 289.761 110.32C289.841 110.211 289.882 110.078 289.875 109.943C289.723 106.476 288.879 103.076 287.395 99.9436H287.417ZM271.991 110.599C271.991 115.429 268.875 119.603 264.35 121.588C262.787 120.906 261.365 119.935 260.156 118.728C259.077 117.668 258.217 116.405 257.627 115.01C257.036 113.615 256.725 112.116 256.713 110.599V103.444H271.991V110.599Z" fill="#FFBF2C"/>
<path d="M223.371 121.654C222.648 121.835 221.908 121.943 221.163 121.977C221.105 121.98 221.048 121.962 221.001 121.927C220.954 121.892 220.921 121.842 220.907 121.785L220.695 120.937C220.682 120.884 220.652 120.837 220.61 120.802C220.568 120.768 220.516 120.748 220.461 120.746C219.642 120.728 218.829 120.605 218.041 120.379C217.988 120.364 217.931 120.366 217.88 120.387C217.828 120.408 217.785 120.446 217.758 120.494L217.307 121.244C217.277 121.293 217.232 121.33 217.179 121.35C217.126 121.37 217.067 121.371 217.013 121.353C215.603 120.848 214.308 120.063 213.206 119.045C213.164 119.005 213.137 118.951 213.129 118.894C213.121 118.836 213.133 118.777 213.162 118.727L213.608 117.978C213.636 117.93 213.648 117.875 213.643 117.819C213.637 117.764 213.613 117.712 213.576 117.672C213.009 117.074 212.519 116.407 212.118 115.686C212.091 115.638 212.049 115.601 211.999 115.579C211.949 115.557 211.893 115.553 211.841 115.566L210.997 115.779C210.941 115.792 210.881 115.785 210.828 115.759C210.776 115.733 210.734 115.69 210.709 115.637C210.059 114.282 209.689 112.808 209.621 111.305C209.618 111.246 209.636 111.189 209.671 111.142C209.705 111.095 209.755 111.061 209.812 111.048L210.649 110.834C210.702 110.821 210.749 110.791 210.784 110.749C210.818 110.706 210.838 110.654 210.84 110.599C210.86 109.776 210.983 108.958 211.204 108.165C211.218 108.111 211.214 108.055 211.194 108.004C211.173 107.952 211.137 107.909 211.09 107.88L210.35 107.426C210.3 107.397 210.262 107.35 210.242 107.296C210.222 107.241 210.222 107.181 210.241 107.126C210.743 105.708 211.521 104.406 212.531 103.297C212.571 103.254 212.624 103.227 212.681 103.219C212.739 103.211 212.797 103.223 212.847 103.253L213.597 103.701C213.644 103.73 213.698 103.743 213.753 103.737C213.807 103.731 213.857 103.707 213.896 103.668C214.49 103.1 215.151 102.608 215.865 102.203C215.913 102.175 215.95 102.134 215.972 102.083C215.993 102.033 215.998 101.977 215.985 101.924L215.773 101.076C215.76 101.019 215.766 100.959 215.791 100.907C215.815 100.854 215.857 100.811 215.909 100.786C217.257 100.134 218.722 99.7623 220.217 99.6918C220.275 99.6886 220.334 99.7059 220.381 99.7408C220.429 99.7756 220.463 99.826 220.478 99.8832L220.69 100.731C220.702 100.785 220.732 100.833 220.774 100.867C220.816 100.902 220.869 100.921 220.924 100.923C221.742 100.946 222.555 101.069 223.344 101.289C223.397 101.305 223.453 101.303 223.504 101.284C223.556 101.264 223.599 101.227 223.627 101.18L224.073 100.43C224.104 100.381 224.15 100.344 224.204 100.324C224.258 100.305 224.317 100.303 224.372 100.321C225.782 100.826 227.077 101.611 228.179 102.629C228.221 102.669 228.248 102.723 228.256 102.78C228.264 102.838 228.252 102.896 228.223 102.946L227.777 103.696C227.748 103.742 227.736 103.797 227.742 103.852C227.748 103.906 227.772 103.957 227.81 103.997C228.376 104.594 228.866 105.262 229.267 105.982C229.296 106.028 229.338 106.064 229.387 106.085C229.437 106.106 229.492 106.11 229.545 106.097L230.388 105.889C230.444 105.876 230.503 105.882 230.556 105.907C230.608 105.932 230.65 105.974 230.676 106.026C231.323 107.382 231.693 108.856 231.764 110.358C231.767 110.417 231.75 110.476 231.715 110.524C231.68 110.572 231.63 110.606 231.573 110.621L230.73 110.829C230.678 110.843 230.632 110.873 230.599 110.916C230.566 110.958 230.547 111.01 230.545 111.064C230.523 111.889 230.399 112.709 230.176 113.504C230.161 113.558 230.165 113.615 230.185 113.667C230.206 113.72 230.242 113.764 230.29 113.793L231.035 114.242C231.085 114.272 231.123 114.318 231.143 114.373C231.163 114.428 231.163 114.488 231.144 114.543C230.639 115.961 229.856 117.263 228.843 118.372C228.803 118.414 228.75 118.441 228.693 118.449C228.636 118.457 228.577 118.445 228.527 118.416L227.788 117.962C227.74 117.934 227.684 117.923 227.629 117.93C227.574 117.937 227.523 117.961 227.483 118C226.89 118.568 226.228 119.061 225.514 119.466C225.467 119.493 225.429 119.535 225.408 119.585C225.386 119.636 225.382 119.692 225.395 119.745L225.607 120.593C225.619 120.65 225.611 120.71 225.586 120.762C225.56 120.815 225.518 120.857 225.465 120.883C224.794 121.204 224.093 121.457 223.371 121.638V121.654ZM220.108 108.526C219.531 108.672 219.029 109.028 218.699 109.525C218.369 110.022 218.234 110.625 218.32 111.216C218.407 111.808 218.708 112.346 219.167 112.726C219.626 113.107 220.208 113.302 220.802 113.275C221.396 113.248 221.959 113 222.381 112.579C222.803 112.159 223.055 111.595 223.088 110.998C223.121 110.401 222.932 109.813 222.558 109.348C222.185 108.884 221.652 108.575 221.065 108.482C220.75 108.44 220.43 108.463 220.124 108.548L220.108 108.526Z" fill="#6D6DF7"/>
<path d="M237.687 83.3422L248.337 79.8086C248.337 79.8086 241.81 98.8443 228.756 93.0242C215.703 87.2041 209.633 94.3643 209.633 94.3643" stroke="#6D6DF7" stroke-miterlimit="10"/>
<path d="M250.703 88.7255L248.358 79.793" stroke="#6D6DF7" stroke-miterlimit="10"/>
</g>
</svg>
