<svg id="Layer_1" xmlns="http://www.w3.org/2000/svg" viewBox="0 0 335.5 145.1"><style>.st0{fill:#f38b00}.st1{fill:#435363}</style><path class="st0" d="M16.6 107.9h3.8L37 144.5h-4.4l-4.3-9.6H8.5l-4.3 9.6H0l16.6-36.6zm10.1 23.2l-8.3-18.5-8.3 18.5h16.6zm20.8-1.8v-21.1h4.1V129c0 7.8 4.2 12.3 11.1 12.3 6.7 0 11-4.1 11-12v-21.1h4.1V129c0 10.6-6.1 16.1-15.2 16.1-9 0-15.1-5.6-15.1-15.8zm54.7-17.4H90v-3.8h28.6v3.8h-12.2v32.6h-4.2v-32.6zm25.2 14.5v-.1c0-10 7.5-18.8 18.6-18.8 11.1 0 18.5 8.7 18.5 18.7v.1c0 10-7.5 18.8-18.6 18.8-11.1 0-18.5-8.7-18.5-18.7zm32.8 0v-.1c0-8.3-6-15-14.3-15s-14.2 6.6-14.2 14.9v.1c0 8.3 6 15 14.3 15s14.2-6.6 14.2-14.9zm18.1-18.3h4.2l13.2 19.8 13.2-19.8h4.2v36.4H209V115l-13.2 19.5h-.2l-13.2-19.4v29.4h-4v-36.4zm63.7-.2h3.8l16.6 36.6H258l-4.3-9.6H234l-4.3 9.6h-4.2l16.5-36.6zm10.2 23.2l-8.3-18.5-8.3 18.5h16.6zm27.5-19.2h-12.2v-3.8h28.6v3.8h-12.2v32.6h-4.2v-32.6zm29.3-3.8h26.3v3.7h-22.2v12.4h19.8v3.7h-19.8v12.7h22.4v3.7H309v-36.2z"/><path class="st1" d="M0 42.5v-.2C0 19 17.5 0 42.6 0 58 0 67.3 5.1 74.8 12.6L63.4 25.8c-6.3-5.7-12.7-9.2-20.9-9.2-13.8 0-23.7 11.5-23.7 25.5v.2c0 14 9.7 25.7 23.7 25.7 9.3 0 15.1-3.7 21.5-9.6L75.5 70C67.1 79 57.7 84.6 42 84.6 17.9 84.6 0 66 0 42.5M96.3 1.4h18v32.4h33.2V1.4h18v81.8h-18V50.4h-33.2v32.8h-18V1.4zm91.1 0h61.7v16h-43.8V34h38.6v16h-38.6v17.2h44.4v16h-62.3V1.4zm85.8 0h62.3v16.4h-44.3v17.4h39.1v16.3h-39.1v31.7h-18V1.4z"/></svg>