<svg xmlns="http://www.w3.org/2000/svg" xmlns:xlink="http://www.w3.org/1999/xlink" version="1.1" id="Capa_1" x="0px" y="0px" viewBox="0 0 480 480" style="enable-background:new 0 0 480 480;" xml:space="preserve" width="128" height="128" class=""><g><path style="fill:#3864F2" d="M8,88v287.84C8,323.128,51.128,280,103.84,280H456c8.84,0,16,7.16,16,16V8L88,8.16C40,8,8,40,8,88z" data-original="#2BB0AF" class="" data-old_color="#386482"></path><path style="fill:#6F7878" d="M456,280H103.84C51.128,280,8,323.128,8,375.84C8,428.728,51.272,472,104.16,472H456  c8.84,0,16-7.16,16-16s-7.16-16-16-16h-0.08H104.16C68.872,440,40,411.128,40,375.84C40,340.728,68.728,312,103.84,312H456  c8.84,0,16-7.16,16-16S464.84,280,456,280z" data-original="#EFC95B" class="" data-old_color="#6f7878"></path><path style="fill:#E7E7E7" d="M40,375.84C40,411.128,68.872,440,104.16,440h351.76c-46.904-14.816-46.824-113.184,0.08-128H103.84  C68.728,312,40,340.728,40,375.84z M144,408l-24-32l-24,32v-64h48V408z" data-original="#E7E7E7" class="" data-old_color="#FFFFFF"></path><polygon style="fill:#FE6100" points="96,408 120,376 144,408 144,344 96,344 " data-original="#D6705A" class="" data-old_color="#fe6100"></polygon><g>
	<path style="fill:#222435" d="M88,344v64c0,3.448,2.2,6.496,5.472,7.584c3.28,1.12,6.864-0.032,8.928-2.792l17.6-23.464   l17.6,23.464c1.536,2.056,3.928,3.2,6.4,3.2c0.84,0,1.696-0.136,2.528-0.416C149.8,414.496,152,411.448,152,408v-64   c0-4.424-3.576-8-8-8H96C91.576,336,88,339.576,88,344z M104,352h32v32l-9.6-12.8c-1.512-2.016-3.888-3.2-6.4-3.2   s-4.888,1.184-6.4,3.2L104,384V352z" data-original="#383838" class="active-path" data-old_color="#383838"></path>
	<path style="fill:#222435" d="M472,0L88,0.16c-0.12,0-0.232,0-0.36,0c-25.52,0-47.392,8.344-63.24,24.152   C8.44,40.216,0,62.24,0,88v287.84C0,433.272,46.728,480,104.16,480H456c13.232,0,24-10.768,24-24c0-12.6-9.792-22.856-22.16-23.816   c-20.056-6.728-29.064-32.928-29.064-56.12c0-23.256,9.04-49.544,29.168-56.264C470.256,318.792,480,308.568,480,296V8   c0-2.128-0.84-4.16-2.344-5.656S474.128,0,472,0z M16,88c0-21.416,6.816-39.512,19.696-52.36   c12.792-12.752,30.752-19.488,51.952-19.488c0.112,0,0.216,0,0.328,0l0.024-8v8L464,16v257.472c-2.512-0.896-5.184-1.472-8-1.472   H104V56H88v217.336c-30.312,4.672-56.288,22.432-72,47.376V88z M412.784,376.072c0,22.872,6.576,42.64,17.832,55.928H104.16   C73.192,432,48,406.808,48,375.84C48,345.056,73.056,320,103.84,320h326.832C419.384,333.32,412.784,353.136,412.784,376.072z    M456,304H103.84C64.224,304,32,336.224,32,375.84C32,415.632,64.368,448,104.16,448h351.76H456c4.416,0,8,3.584,8,8s-3.584,8-8,8   H104.16C55.544,464,16,424.456,16,375.84C16,327.408,55.408,288,103.84,288H456c4.416,0,8,3.584,8,8S460.416,304,456,304z" data-original="#383838" class="active-path" data-old_color="#383838"></path>
	<rect x="232" y="208" style="fill:#222435" width="16" height="16" data-original="#383838" class="active-path" data-old_color="#383838"></rect>
	<rect x="264" y="208" style="fill:#222435" width="16" height="16" data-original="#383838" class="active-path" data-old_color="#383838"></rect>
	<rect x="296" y="208" style="fill:#222435" width="16" height="16" data-original="#383838" class="active-path" data-old_color="#383838"></rect>
	<path style="fill:#222435" d="M218.344,157.656l11.312-11.312L211.312,128l18.344-18.344l-11.312-11.312l-24,24   c-3.128,3.128-3.128,8.184,0,11.312L218.344,157.656z" data-original="#383838" class="active-path" data-old_color="#383838"></path>
	
		<rect x="240.626" y="107.956" transform="matrix(-0.4061 0.9138 -0.9138 -0.4061 499.6649 -92.8174)" style="fill:#222435" width="78.734" height="16" data-original="#383838" class="active-path" data-old_color="#383838"></rect>
	<path style="fill:#222435" d="M325.656,157.656l24-24c3.128-3.128,3.128-8.184,0-11.312l-24-24l-11.312,11.312L332.688,128   l-18.344,18.344L325.656,157.656z" data-original="#383838" class="active-path" data-old_color="#383838"></path>
</g></g> </svg>
