<?xml version="1.0" encoding="UTF-8"?>
<svg width="14px" height="14px" viewBox="0 0 14 14" version="1.1" xmlns="http://www.w3.org/2000/svg" xmlns:xlink="http://www.w3.org/1999/xlink">
    <!-- Generator: Sketch 58 (84663) - https://sketch.com -->
    <title>icon/disconnected service</title>
    <desc>Created with Sketch.</desc>
    <defs>
        <path d="M3.10265685,5.98873142 L5.02913004,6.18013375 C5.11158887,6.1881506 5.18216562,6.24326646 5.21008137,6.32143076 C5.23101818,6.37994662 5.2252203,6.4436967 5.19625099,6.49667637 L5.15968986,6.54547314 L2.40061149,9.30427225 C1.76785445,9.9370309 1.76785445,10.9666237 2.40061149,11.5996687 C2.70653949,11.9055975 3.11396631,12.0740945 3.54802046,12.0740945 C3.92781784,12.0740945 4.28733828,11.9453082 4.57632782,11.7079714 L4.69571575,11.5996687 L7.45522359,8.84044011 C7.51363194,8.78145899 7.60110129,8.76198949 7.67912224,8.78990531 C7.73785269,8.81094955 7.78329631,8.8558296 7.80585036,8.91174177 L7.82041889,8.97085711 L8.01153442,10.8974784 C8.01582915,10.940044 8.00714425,10.9826097 7.98738849,11.0197035 L7.94969029,11.0705565 L6.05814759,12.9619609 C5.38874218,13.631368 4.49729918,14 3.54802046,14 C2.59874175,14 1.70729874,13.631368 1.03803649,12.9619609 C0.36863108,12.2925537 -1.60760294e-13,11.4012516 -1.60760294e-13,10.4519705 C-1.60760294e-13,9.57571095 0.314099855,8.7487317 0.888928394,8.10029485 L1.03803649,7.94198008 L2.92957919,6.0505757 C2.97510334,6.00490828 3.03809273,5.9812872 3.10265685,5.98873142 Z M8.82982384,10.2037344 C8.9359037,10.1882733 9.03482567,10.2544123 9.06445931,10.3563409 L9.06445931,10.3563409 L9.7139658,12.5818762 C9.73128788,12.6417163 9.72169632,12.7064237 9.68762478,12.7589627 C9.65341009,12.8113586 9.59815122,12.8462891 9.53602078,12.8545923 L9.53602078,12.8545923 L8.84671645,12.9470724 L8.84671645,12.9470724 L8.81808491,12.9492198 C8.76583235,12.9492198 8.71472505,12.9300366 8.67521352,12.8948197 C8.62854411,12.8533039 8.60234625,12.7934638 8.60334836,12.7307606 L8.60334836,12.7307606 L8.64357567,10.4128883 C8.64557988,10.3068082 8.72474609,10.2180502 8.82982384,10.2037344 Z M10.4125754,8.64374092 L12.730728,8.60351351 C12.790568,8.6007935 12.8531279,8.62856617 12.8947868,8.67580833 C12.9225594,8.70692135 12.9403427,8.74496958 12.9466523,8.78532956 L12.9473256,8.84702538 L12.8548458,9.53633147 C12.8463995,9.59860523 12.8116121,9.65386425 12.7592164,9.68793587 C12.7239996,9.71084116 12.683486,9.72272328 12.6421134,9.72272328 L12.6119429,9.72052222 L12.6119429,9.72052222 L12.5819872,9.71413379 L10.3560281,9.06491196 C10.2540998,9.03499192 10.1892494,8.93521075 10.203422,8.82998957 C10.2147601,8.74558357 10.2738327,8.67831073 10.3513944,8.65375168 L10.4125754,8.64374092 L12.730728,8.60351351 Z M10.4519437,0 C11.4012225,0 12.2926655,0.368632022 12.9620709,1.03803914 C14.2965512,2.3726609 14.3442112,4.51449256 13.1050509,5.90677217 L12.9620709,6.05830624 L11.0705282,7.94999693 C11.0298714,7.99051067 10.9751851,8.01284332 10.9184947,8.01284332 L10.90808,8.0125749 L10.8974505,8.0115549 L8.97112049,7.82015257 C8.88866165,7.81213571 8.81808491,7.75701986 8.79016916,7.67899871 C8.76923234,7.62048285 8.77503023,7.55665225 8.80399953,7.50363232 L8.84056067,7.45481318 L11.5997822,4.69572775 C12.2325392,4.06282594 12.2325392,3.03323312 11.5997822,2.40047447 C11.2935679,2.09454568 10.8859979,1.92590547 10.4519437,1.92590547 C10.0721464,1.92590547 9.71262593,2.05491102 9.42363639,2.2922067 L9.30424846,2.40047447 L6.54531325,5.15984621 C6.48661859,5.21868417 6.39943555,5.23829683 6.32127144,5.21023785 C6.26264837,5.18930098 6.21699001,5.14444777 6.19438227,5.08848191 L6.17983164,5.02928605 L5.98842979,3.10266479 C5.98413506,3.06000368 5.99281996,3.01746983 6.01257572,2.9804078 L6.05027392,2.92958668 L7.94195978,1.03803914 C8.61122203,0.368632022 9.50266503,0 10.4519437,0 Z M1.35691762,4.27737747 L1.41797703,4.28600937 L3.64393612,4.93508804 C3.7458644,4.96486492 3.81071484,5.06464609 3.79668539,5.16986727 C3.78546182,5.25415874 3.72632051,5.32159192 3.64880005,5.34614639 L3.58767514,5.35611592 L1.26937933,5.39648649 C1.20438574,5.39648649 1.1459774,5.37028857 1.10532061,5.32447798 C1.07754802,5.29336496 1.05976465,5.25525311 1.0534551,5.21489314 L1.05278173,5.15326094 L1.14511845,4.46381169 C1.1534216,4.40168108 1.18835208,4.34642207 1.24074779,4.31235045 L1.29655809,4.2863381 L1.35691762,4.27737747 Z M5.15324776,1.05292758 C5.2153782,1.0443381 5.27779496,1.06366444 5.32460753,1.10518028 C5.35581591,1.1328575 5.3778622,1.16867883 5.3887952,1.20806321 L5.39661585,1.26923942 L5.35638854,3.58754116 C5.35452749,3.69362129 5.27536128,3.78252245 5.17014037,3.79655194 C5.16054881,3.79798352 5.15095724,3.79855615 5.14150883,3.79855615 C5.06615062,3.79855615 4.99674776,3.75879256 4.95822116,3.69553731 L4.9355049,3.64394544 L4.28628473,1.41855329 C4.26881949,1.35857006 4.27841105,1.29386261 4.31248258,1.24146676 C4.33519694,1.20653619 4.36732789,1.17930434 4.40459131,1.16257076 L4.46380027,1.14569401 L5.15324776,1.05292758 Z" id="path-1"></path>
    </defs>
    <g id="Symbols" stroke="none" stroke-width="1" fill="none" fill-rule="evenodd">
        <g id="badge/icon-with-number/disconnected" transform="translate(-5.000000, -6.000000)">
            <g id="Padding-Group-2">
                <g id="icon/disconnected-service" transform="translate(4.000000, 5.000000)">
                    <g id="color" transform="translate(1.000000, 1.000000)">
                        <mask id="mask-2" fill="white">
                            <use xlink:href="#path-1"></use>
                        </mask>
                        <use id="Mask" fill="#C22DD5" fill-rule="nonzero" xlink:href="#path-1"></use>
                        <g id="color/secondary-violet/shade-4" mask="url(#mask-2)" fill="#A424B4">
                            <g transform="translate(-1.000000, -1.000000)" id="#A424B4">
                                <rect x="0" y="0" width="16" height="16"></rect>
                            </g>
                        </g>
                    </g>
                </g>
            </g>
        </g>
    </g>
</svg>
