<?xml version="1.0" encoding="UTF-8" standalone="no"?>
<svg width="25px" height="30px" viewBox="0 0 25 30" version="1.1" xmlns="http://www.w3.org/2000/svg" xmlns:xlink="http://www.w3.org/1999/xlink">
    <!-- Generator: sketchtool 3.8.3 (29802) - http://www.bohemiancoding.com/sketch -->
    <title>E719BCA2-6FA9-4B7F-95EA-3E6A5F74E5C9</title>
    <desc>Created with sketchtool.</desc>
    <defs></defs>
    <g id="Change-Screens" stroke="none" stroke-width="1" fill="none" fill-rule="evenodd">
        <g id="Change-Details-Style-Helper" transform="translate(-327.000000, -518.000000)" fill="#ACACAC">
            <g id="Acceptance---Disabled" transform="translate(327.000000, 518.000000)">
                <g id="Page-1">
                    <path d="M0,29.9882202 L24.9970703,29.9882202 L24.9970703,0 L0,0 L0,29.9882202 Z M1.20099851,28.6830539 L23.7950898,28.6830539 L23.7950898,1.30516633 L1.20099851,1.30516633 L1.20099851,28.6830539 Z" id="Fill-1"></path>
                    <polygon id="Fill-2" points="11.0250288 21.3555619 19.8631208 21.3555619 19.8631208 19.8480059 11.0250288 19.8480059"></polygon>
                    <polygon id="Fill-3" points="8.19408973 18.5841073 5.81075091 21.0404264 4.69420528 19.9761531 3.90957911 20.764979 5.81075091 22.6190655 8.9787159 19.3729333"></polygon>
                    <polygon id="Fill-4" points="11.0250288 15.1851462 19.8631208 15.1851462 19.8631208 13.6775902 11.0250288 13.6775902"></polygon>
                    <polygon id="Fill-5" points="8.19408973 12.4136916 5.81075091 14.8700107 4.69420528 13.8057374 3.90957911 14.5945634 5.81075091 16.4486499 8.9787159 13.2025176"></polygon>
                    <polygon id="Fill-6" points="11.0250288 9.01473049 19.8631208 9.01473049 19.8631208 7.50717454 11.0250288 7.50717454"></polygon>
                    <polygon id="Fill-7" points="8.19408973 6.24327595 5.81075091 8.69959503 4.69420528 7.63532173 3.90957911 8.42414767 5.81075091 10.2782342 8.9787159 7.03210189"></polygon>
                </g>
            </g>
        </g>
    </g>
</svg>