<?xml version="1.0" encoding="UTF-8" standalone="no"?>
<svg width="20px" height="20px" viewBox="0 0 20 20" version="1.1" xmlns="http://www.w3.org/2000/svg" xmlns:xlink="http://www.w3.org/1999/xlink" xmlns:sketch="http://www.bohemiancoding.com/sketch/ns">
    <!-- Generator: Sketch 3.2.2 (9983) - http://www.bohemiancoding.com/sketch -->
    <title>Small Build</title>
    <desc>Created with Sketch.</desc>
    <defs></defs>
    <g id="Acceptance-Wires" stroke="none" stroke-width="1" fill="none" fill-rule="evenodd" sketch:type="MSPage">
        <g id="Pipelines-List" sketch:type="MSArtboardGroup" transform="translate(-336.000000, -212.000000)">
            <g id="delivery/delivery_api/master" sketch:type="MSLayerGroup" transform="translate(60.000000, 189.000000)">
                <g id="Small-Build" transform="translate(276.000000, 23.000000)" sketch:type="MSShapeGroup">
                    <path d="M6.14115702,0.788666667 C7.3614876,0.262833333 8.64760331,0 10,0 C11.3519008,0 12.6385124,0.262833333 13.8590083,0.788666667 C15.0790083,1.3145 16.1332231,2.025 17.0213223,2.9205 C17.9090909,3.81566667 18.6140496,4.8785 19.1353719,6.10933333 C19.6563636,7.33966667 19.9170248,8.63666667 19.9170248,10 C19.9170248,11.3636667 19.6563636,12.6603333 19.1353719,13.8906667 C18.6140496,15.1213333 17.9090909,16.1843333 17.0213223,17.0795 C16.1332231,17.9753333 15.0790083,18.6858333 13.8590083,19.2113333 C12.6385124,19.7373333 11.3519008,20 10,20 C8.64760331,20 7.3614876,19.7373333 6.14115702,19.2113333 C4.92099174,18.6858333 3.86677686,17.9753333 2.97884298,17.0795 C2.09107438,16.1843333 1.3861157,15.1213333 0.86446281,13.8906667 C0.343140496,12.6603333 0.0829752066,11.3636667 0.0829752066,10 C0.0829752066,8.63666667 0.343140496,7.33966667 0.86446281,6.10933333 C1.3861157,4.8785 2.09107438,3.81566667 2.97884298,2.9205 C3.86677686,2.025 4.92099174,1.3145 6.14115702,0.788666667 C6.14115702,0.788666667 4.92099174,1.3145 6.14115702,0.788666667 L6.14115702,0.788666667 L6.14115702,0.788666667 Z" id="Path-2" fill="#456A8D"></path>
                    <path d="M8.88539304,5.89936639 L16.5288337,13.9370856 L14.2425249,16.4242954 L6.99999999,7.99999996 L8.88539304,5.89936639 Z" id="Rectangle-1" fill="#FFFFFF"></path>
                    <path d="M6.76814494,3.94855481 L8.50000008,6.00000005 L6.79116804,7.97819149 L5.04318937,5.90306409 L6.76814494,3.94855481 Z" id="Rectangle-2" fill="#FFFFFF"></path>
                    <path d="M4.49007956,6.77367709 L4.80651988,7.06857932 C4.80651988,7.06857932 6.66417752,5.00485504 7.36586299,4.22478404 C8.08732086,3.42273188 10.4265735,3.80828204 11.4029536,5.35352836 C10.7886811,5.28552742 9.75169015,5.38523388 8.80135349,6.43594261 C7.96970023,7.3931804 6.54608152,8.99552972 6.54608152,8.99552972 L6.82062726,9.27463569 L5.43119555,10.7662113 L3.15006971,8.23656402 L4.49007956,6.77367709 Z" id="Rectangle-3" fill="#FFFFFF"></path>
                </g>
            </g>
        </g>
    </g>
</svg>