<?xml version="1.0" encoding="UTF-8" standalone="no"?>
<svg width="32px" height="30px" viewBox="0 0 32 30" version="1.1" xmlns="http://www.w3.org/2000/svg" xmlns:xlink="http://www.w3.org/1999/xlink">
    <!-- Generator: sketchtool 3.8.3 (29802) - http://www.bohemiancoding.com/sketch -->
    <title>ACCC9EEC-51E5-452E-8C4F-66667A2EDCC5</title>
    <desc>Created with sketchtool.</desc>
    <defs></defs>
    <g id="Change-Screens" stroke="none" stroke-width="1" fill="none" fill-rule="evenodd">
        <g id="Change-Details-Style-Helper" transform="translate(-324.000000, -472.000000)" fill="#ACACAC">
            <g id="Build---Disabled" transform="translate(324.000000, 472.000000)">
                <g id="Page-1">
                    <path d="M28.7964461,8.5694 C28.0188179,8.8024 26.9630456,8.7984 26.0698505,7.8874 C25.5135623,7.3184 25.2481501,6.6794 24.990573,6.0624 C24.6360373,5.2094 24.2707283,4.3284 22.9916572,3.3464 C21.9035654,2.5084 20.5226388,2.0844 18.8880525,2.0844 C18.1838779,2.0844 17.4934146,2.1624 16.8519203,2.2814 C18.276919,2.8514 19.2034131,3.6524 19.5501138,4.6424 C19.7694951,5.2714 19.9320723,6.5354 18.5540837,7.9414 L18.0408883,8.4654 L20.5814016,11.0594 L21.0681537,10.5624 C23.0474819,8.5414 24.3490788,9.4334 24.8182021,9.9114 C25.5194386,10.6274 25.577222,11.4544 25.3784078,12.1224 L25.6643869,12.4164 L29.1137654,8.8934 L28.7964461,8.5694 Z M23.4118115,13.0634 L22.7908842,12.3844 L23.3510899,11.6574 C23.3981002,11.5964 23.4382548,11.4974 23.415729,11.3884 C23.4127909,11.3884 23.1228942,11.4124 22.5107814,12.0364 L20.5814016,14.0064 L15.1546537,8.4654 L17.1104767,6.4684 C17.3611982,6.2124 17.7607855,5.7264 17.6275897,5.3424 C17.4454249,4.8214 16.2260961,3.8464 12.8139341,3.4984 L9.2627,3.1364 L12.4652746,1.5264 C12.5896559,1.4644 15.541509,0.0004 18.8880525,0.0004 C20.9751126,0.0004 22.7693378,0.5654 24.2188211,1.6814 C25.9346959,2.9994 26.475314,4.2984 26.8700044,5.2464 C27.0756743,5.7414 27.2372721,6.1324 27.5134575,6.4144 C27.869952,6.7784 28.2999001,6.5644 28.4556216,6.4664 L29.15392,5.9864 L32,8.8934 L25.6643869,15.3634 L23.4118115,13.0634 Z" id="Fill-1"></path>
                    <path d="M1.1456,23.4585 C0.5356,24.0685 0.1286,24.8315 0.0146,25.5795 C-0.2224,27.1275 2.5666,29.9395 4.1336,29.6995 C4.8556,29.5895 5.6196,29.2035 6.2556,28.5685 L18.6916,14.0175 L15.3126,10.6395 L1.1456,23.4585 Z" id="Fill-3"></path>
                </g>
            </g>
        </g>
    </g>
</svg>