<?xml version="1.0" encoding="UTF-8" standalone="no"?>
<svg width="20px" height="20px" viewBox="0 0 20 20" version="1.1" xmlns="http://www.w3.org/2000/svg" xmlns:xlink="http://www.w3.org/1999/xlink" xmlns:sketch="http://www.bohemiancoding.com/sketch/ns">
    <!-- Generator: Sketch 3.2.2 (9983) - http://www.bohemiancoding.com/sketch -->
    <title>Small Success</title>
    <desc>Created with Sketch.</desc>
    <defs></defs>
    <g id="Acceptance-Wires" stroke="none" stroke-width="1" fill="none" fill-rule="evenodd" sketch:type="MSPage">
        <g id="Pipelines-List" sketch:type="MSArtboardGroup" transform="translate(-337.000000, -538.000000)" fill="#F6A623">
            <g id="delivery/delivery_api/master-5" sketch:type="MSLayerGroup" transform="translate(60.000000, 514.000000)">
                <g id="Small-Success" transform="translate(277.000000, 24.000000)" sketch:type="MSShapeGroup">
                    <path d="M6.05818182,0.788666667 C7.2785124,0.262833333 8.5646281,0 9.91702479,0 C11.2689256,0 12.5555372,0.262833333 13.7760331,0.788666667 C14.9960331,1.3145 16.0502479,2.025 16.9383471,2.9205 C17.8261157,3.81566667 18.5310744,4.8785 19.0523967,6.10933333 C19.5733884,7.33966667 19.8340496,8.63666667 19.8340496,10 C19.8340496,11.3636667 19.5733884,12.6603333 19.0523967,13.8906667 C18.5310744,15.1213333 17.8261157,16.1843333 16.9383471,17.0795 C16.0502479,17.9753333 14.9960331,18.6858333 13.7760331,19.2113333 C12.5555372,19.7373333 11.2689256,20 9.91702479,20 C8.5646281,20 7.2785124,19.7373333 6.05818182,19.2113333 C4.83801653,18.6858333 3.78380165,17.9753333 2.89586777,17.0795 C2.00809917,16.1843333 1.3031405,15.1213333 0.781487603,13.8906667 C0.260165289,12.6603333 0,11.3636667 0,10 C0,8.63666667 0.260165289,7.33966667 0.781487603,6.10933333 C1.3031405,4.8785 2.00809917,3.81566667 2.89586777,2.9205 C3.78380165,2.025 4.83801653,1.3145 6.05818182,0.788666667 C6.05818182,0.788666667 4.83801653,1.3145 6.05818182,0.788666667 L6.05818182,0.788666667 L6.05818182,0.788666667 Z M11.3952066,10.8838333 L12.3923967,5.65 C12.437686,5.419 12.3923967,5.2195 12.2547107,5.052 C12.1168595,4.88483333 11.9279339,4.80066667 11.6872727,4.80066667 L8.12958678,4.80066667 C7.90016529,4.80066667 7.71702479,4.88483333 7.57933884,5.052 C7.44181818,5.2195 7.39603306,5.419 7.44181818,5.65 L8.43900826,10.8838333 C8.4846281,11.115 8.6077686,11.3145 8.80876033,11.4818333 C9.00909091,11.6493333 9.22396694,11.733 9.45322314,11.733 L10.3808264,11.733 C10.6102479,11.733 10.825124,11.6493333 11.0256198,11.4818333 C11.226281,11.3145 11.3494215,11.115 11.3952066,10.8838333 C11.3952066,10.8838333 11.3494215,11.115 11.3952066,10.8838333 L11.3952066,10.8838333 L11.3952066,10.8838333 Z M8.19818182,15.1993333 L11.6357025,15.1993333 L11.6357025,13.4661667 L8.19818182,13.4661667 L8.19818182,13.4661667 L8.19818182,15.1993333 L8.19818182,15.1993333 Z" id="Caution"></path>
                </g>
            </g>
        </g>
    </g>
</svg>