<?xml version="1.0" encoding="UTF-8" standalone="no"?>
<svg width="13px" height="14px" viewBox="0 0 13 14" version="1.1" xmlns="http://www.w3.org/2000/svg" xmlns:xlink="http://www.w3.org/1999/xlink">
    <!-- Generator: sketchtool 3.8.3 (29802) - http://www.bohemiancoding.com/sketch -->
    <title>957C38D4-4B4C-44F5-A1C5-780226B94BA2</title>
    <desc>Created with sketchtool.</desc>
    <defs></defs>
    <g id="Change-Screens" stroke="none" stroke-width="1" fill="none" fill-rule="evenodd">
        <g id="Change-Details-Style-Helper" transform="translate(-285.000000, -384.000000)" fill="#FFFFFF">
            <path d="M291.428571,384.214286 C292.594872,384.214286 293.670475,384.501671 294.655413,385.076451 C295.640351,385.651231 296.420198,386.431078 296.994978,387.416016 C297.569757,388.400954 297.857143,389.476557 297.857143,390.642857 C297.857143,391.809158 297.569757,392.884761 296.994978,393.869699 C296.420198,394.854637 295.640351,395.634484 294.655413,396.209263 C293.670475,396.784043 292.594872,397.071429 291.428571,397.071429 C290.262271,397.071429 289.186668,396.784043 288.20173,396.209263 C287.216792,395.634484 286.436945,394.854637 285.862165,393.869699 C285.287386,392.884761 285,391.809158 285,390.642857 C285,389.476557 285.287386,388.400954 285.862165,387.416016 C286.436945,386.431078 287.216792,385.651231 288.20173,385.076451 C289.186668,384.501671 290.262271,384.214286 291.428571,384.214286 L291.428571,384.214286 Z M292.5,394.652344 L292.5,393.061942 C292.5,392.983817 292.474889,392.918248 292.424665,392.865234 C292.374442,392.812221 292.313058,392.785714 292.240513,392.785714 L290.633371,392.785714 C290.560826,392.785714 290.496652,392.813616 290.440848,392.86942 C290.385044,392.925223 290.357143,392.989397 290.357143,393.061942 L290.357143,394.652344 C290.357143,394.724889 290.385044,394.789062 290.440848,394.844866 C290.496652,394.90067 290.560826,394.928571 290.633371,394.928571 L292.240513,394.928571 C292.313058,394.928571 292.374442,394.902065 292.424665,394.849051 C292.474889,394.796038 292.5,394.730469 292.5,394.652344 L292.5,394.652344 Z M292.483259,391.772879 L292.633929,386.574777 C292.633929,386.507812 292.606027,386.457589 292.550223,386.424107 C292.494419,386.379464 292.427456,386.357143 292.34933,386.357143 L290.507812,386.357143 C290.429687,386.357143 290.362723,386.379464 290.30692,386.424107 C290.251116,386.457589 290.223214,386.507812 290.223214,386.574777 L290.365513,391.772879 C290.365513,391.828683 290.393415,391.877511 290.449219,391.919364 C290.505023,391.961217 290.571986,391.982143 290.650112,391.982143 L292.198661,391.982143 C292.276786,391.982143 292.342355,391.961217 292.395368,391.919364 C292.448382,391.877511 292.477679,391.828683 292.483259,391.772879 L292.483259,391.772879 Z" id="ïª-copy"></path>
        </g>
    </g>
</svg>