<?xml version="1.0" encoding="UTF-8" standalone="no"?>
<svg width="18px" height="18px" viewBox="0 0 18 18" version="1.1" xmlns="http://www.w3.org/2000/svg" xmlns:xlink="http://www.w3.org/1999/xlink">
    <!-- Generator: sketchtool 3.8.3 (29802) - http://www.bohemiancoding.com/sketch -->
    <title>9E41E752-193A-49AE-80F2-A6BB9074CFE2</title>
    <desc>Created with sketchtool.</desc>
    <defs></defs>
    <g id="Change-Screens" stroke="none" stroke-width="1" fill="none" fill-rule="evenodd">
        <g id="Change-Details-Style-Helper" transform="translate(-280.000000, -215.000000)" fill="#FDB714">
            <path d="M288.571429,215.285714 C290.126496,215.285714 291.560633,215.668895 292.873884,216.435268 C294.187135,217.201641 295.226931,218.241437 295.993304,219.554688 C296.759676,220.867938 297.142857,222.302076 297.142857,223.857143 C297.142857,225.41221 296.759676,226.846348 295.993304,228.159598 C295.226931,229.472849 294.187135,230.512645 292.873884,231.279018 C291.560633,232.045391 290.126496,232.428571 288.571429,232.428571 C287.016361,232.428571 285.582224,232.045391 284.268973,231.279018 C282.955723,230.512645 281.915926,229.472849 281.149554,228.159598 C280.383181,226.846348 280,225.41221 280,223.857143 C280,222.302076 280.383181,220.867938 281.149554,219.554688 C281.915926,218.241437 282.955723,217.201641 284.268973,216.435268 C285.582224,215.668895 287.016361,215.285714 288.571429,215.285714 L288.571429,215.285714 Z M290,229.203125 L290,227.082589 C290,226.978422 289.966518,226.890997 289.899554,226.820312 C289.832589,226.749628 289.750745,226.714286 289.654018,226.714286 L287.511161,226.714286 C287.414434,226.714286 287.328869,226.751488 287.254464,226.825893 C287.180059,226.900298 287.142857,226.985863 287.142857,227.082589 L287.142857,229.203125 C287.142857,229.299852 287.180059,229.385416 287.254464,229.459821 C287.328869,229.534227 287.414434,229.571429 287.511161,229.571429 L289.654018,229.571429 C289.750745,229.571429 289.832589,229.536087 289.899554,229.465402 C289.966518,229.394717 290,229.307292 290,229.203125 L290,229.203125 Z M289.977679,225.363839 L290.178571,218.433036 C290.178571,218.34375 290.141369,218.276786 290.066964,218.232143 C289.992559,218.172619 289.903274,218.142857 289.799107,218.142857 L287.34375,218.142857 C287.239583,218.142857 287.150298,218.172619 287.075893,218.232143 C287.001488,218.276786 286.964286,218.34375 286.964286,218.433036 L287.154018,225.363839 C287.154018,225.438244 287.19122,225.503348 287.265625,225.559152 C287.34003,225.614956 287.429315,225.642857 287.533482,225.642857 L289.598214,225.642857 C289.702381,225.642857 289.789806,225.614956 289.860491,225.559152 C289.931176,225.503348 289.970238,225.438244 289.977679,225.363839 L289.977679,225.363839 Z" id="ïª"></path>
        </g>
    </g>
</svg>