<?xml version="1.0" encoding="UTF-8" standalone="no"?>
<svg width="13px" height="14px" viewBox="0 0 13 14" version="1.1" xmlns="http://www.w3.org/2000/svg" xmlns:xlink="http://www.w3.org/1999/xlink">
    <!-- Generator: sketchtool 3.8.3 (29802) - http://www.bohemiancoding.com/sketch -->
    <title>A1611566-F943-491F-8697-F80007478EC7</title>
    <desc>Created with sketchtool.</desc>
    <defs></defs>
    <g id="Change-Screens" stroke="none" stroke-width="1" fill="none" fill-rule="evenodd">
        <g id="Change-Details-Style-Helper" transform="translate(-324.000000, -219.000000)" fill="#FDB714">
            <path d="M330.428571,219.214286 C331.594872,219.214286 332.670475,219.501671 333.655413,220.076451 C334.640351,220.651231 335.420198,221.431078 335.994978,222.416016 C336.569757,223.400954 336.857143,224.476557 336.857143,225.642857 C336.857143,226.809158 336.569757,227.884761 335.994978,228.869699 C335.420198,229.854637 334.640351,230.634484 333.655413,231.209263 C332.670475,231.784043 331.594872,232.071429 330.428571,232.071429 C329.262271,232.071429 328.186668,231.784043 327.20173,231.209263 C326.216792,230.634484 325.436945,229.854637 324.862165,228.869699 C324.287386,227.884761 324,226.809158 324,225.642857 C324,224.476557 324.287386,223.400954 324.862165,222.416016 C325.436945,221.431078 326.216792,220.651231 327.20173,220.076451 C328.186668,219.501671 329.262271,219.214286 330.428571,219.214286 L330.428571,219.214286 Z M331.5,229.652344 L331.5,228.061942 C331.5,227.983817 331.474889,227.918248 331.424665,227.865234 C331.374442,227.812221 331.313058,227.785714 331.240513,227.785714 L329.633371,227.785714 C329.560826,227.785714 329.496652,227.813616 329.440848,227.86942 C329.385044,227.925223 329.357143,227.989397 329.357143,228.061942 L329.357143,229.652344 C329.357143,229.724889 329.385044,229.789062 329.440848,229.844866 C329.496652,229.90067 329.560826,229.928571 329.633371,229.928571 L331.240513,229.928571 C331.313058,229.928571 331.374442,229.902065 331.424665,229.849051 C331.474889,229.796038 331.5,229.730469 331.5,229.652344 L331.5,229.652344 Z M331.483259,226.772879 L331.633929,221.574777 C331.633929,221.507812 331.606027,221.457589 331.550223,221.424107 C331.494419,221.379464 331.427456,221.357143 331.34933,221.357143 L329.507812,221.357143 C329.429687,221.357143 329.362723,221.379464 329.30692,221.424107 C329.251116,221.457589 329.223214,221.507812 329.223214,221.574777 L329.365513,226.772879 C329.365513,226.828683 329.393415,226.877511 329.449219,226.919364 C329.505023,226.961217 329.571986,226.982143 329.650112,226.982143 L331.198661,226.982143 C331.276786,226.982143 331.342355,226.961217 331.395368,226.919364 C331.448382,226.877511 331.477679,226.828683 331.483259,226.772879 L331.483259,226.772879 Z" id="ïª"></path>
        </g>
    </g>
</svg>