<?xml version="1.0" encoding="UTF-8"?>
<svg width="12px" height="12px" viewBox="0 0 12 12" version="1.1" xmlns="http://www.w3.org/2000/svg" xmlns:xlink="http://www.w3.org/1999/xlink">
    <!-- Generator: Sketch 42 (36781) - http://www.bohemiancoding.com/sketch -->
    <title>check-complete</title>
    <desc>Created with Sketch.</desc>
    <defs></defs>
    <g id="exports" stroke="none" stroke-width="1" fill="none" fill-rule="evenodd">
        <g id="check-complete" fill="#1FB899">
            <path d="M10.031262,4.73436753 C10.031262,4.60155487 9.9843869,4.46874221 9.89063679,4.3749921 L9.17969844,3.67186626 C9.08594833,3.57811615 8.96094818,3.52342859 8.82813552,3.52342859 C8.69532287,3.52342859 8.57032272,3.57811615 8.4765726,3.67186626 L5.28906881,6.85155755 L3.5234417,5.08593045 C3.42969159,4.99218034 3.30469144,4.93749277 3.17187878,4.93749277 C3.03906612,4.93749277 2.91406597,4.99218034 2.82031586,5.08593045 L2.10937751,5.78905629 C2.0156274,5.8828064 1.96875235,6.01561906 1.96875235,6.14843172 C1.96875235,6.28124437 2.0156274,6.40624452 2.10937751,6.49999464 L4.93750589,9.32812301 C5.031256,9.42187312 5.16406866,9.47656068 5.28906881,9.47656068 C5.42188146,9.47656068 5.55469412,9.42187312 5.64844423,9.32812301 L9.89063679,5.08593045 C9.9843869,4.99218034 10.031262,4.86718019 10.031262,4.73436753 Z M12.0000143,5.99999404 C12.0000143,9.31249799 9.3125111,12.0000012 6.00000715,12.0000012 C2.6875032,12.0000012 0,9.31249799 0,5.99999404 C0,2.68749009 2.6875032,-1.31130219e-05 6.00000715,-1.31130219e-05 C9.3125111,-1.31130219e-05 12.0000143,2.68749009 12.0000143,5.99999404 Z"></path>
        </g>
    </g>
</svg>