<?xml version="1.0" encoding="UTF-8" standalone="no"?>
<svg width="25px" height="15px" viewBox="0 0 25 15" version="1.1" xmlns="http://www.w3.org/2000/svg" xmlns:xlink="http://www.w3.org/1999/xlink" xmlns:sketch="http://www.bohemiancoding.com/sketch/ns">
    <!-- Generator: Sketch 3.3.1 (12002) - http://www.bohemiancoding.com/sketch -->
    <title>Imported Layers</title>
    <desc>Created with Sketch.</desc>
    <defs></defs>
    <g id="Pipeline-Viz" stroke="none" stroke-width="1" fill="none" fill-rule="evenodd" sketch:type="MSPage">
        <g id="Pipeline-Viz-Changes-No-Triple-2" sketch:type="MSArtboardGroup" transform="translate(-600.000000, -361.000000)">
            <g id="Imported-Layers" sketch:type="MSLayerGroup" transform="translate(600.000000, 361.000000)">
                <path d="M17.7622727,4.24116029 L17.7054545,7.20154306 L23.0460985,8.22423445 L21.5689015,4.06639952 L17.7622727,4.24116029" id="Fill-1" fill="#FFFFFF" sketch:type="MSShapeGroup"></path>
                <path d="M19.2565152,10.7851794 C18.1444697,10.7851794 17.2432197,11.6075598 17.2432197,12.622177 C17.2432197,13.636256 18.1444697,14.4589234 19.2565152,14.4589234 C20.3685227,14.4589234 21.2697727,13.636256 21.2697727,12.622177 C21.2697727,11.6075598 20.3685227,10.7851794 19.2565152,10.7851794" id="Fill-2" fill="#9B9B9B" sketch:type="MSShapeGroup"></path>
                <path d="M5.81568182,10.7851794 C4.70416667,10.7851794 3.80291667,11.6075598 3.80291667,12.622177 C3.80291667,13.636256 4.70416667,14.4589234 5.81568182,14.4589234 C6.92772727,14.4589234 7.82897727,13.636256 7.82897727,12.622177 C7.82897727,11.6075598 6.92772727,10.7851794 5.81568182,10.7851794" id="Fill-3" fill="#9B9B9B" sketch:type="MSShapeGroup"></path>
                <path d="M16.1980303,0.567057416 L4.05784091,0.567057416 C3.48291667,0.567057416 2.9182197,1.00367225 2.80314394,1.53717703 L0.616363636,11.6520574 C0.50125,12.1855981 0.877121212,12.622177 1.45200758,12.622177 L3.01901515,12.622177 C3.01901515,11.1997608 4.27367424,10.0425718 5.81568182,10.0425718 C7.35818182,10.0425718 8.61284091,11.1997608 8.61284091,12.622177 L14.64125,12.622177 L15.1441667,10.3019498 L17.0334848,1.53717703 C17.1487879,1.00367225 16.7729167,0.567057416 16.1980303,0.567057416 Z" id="Fill-4" fill="#9B9B9B" sketch:type="MSShapeGroup"></path>
                <path d="M24.2769697,9.00139952 L22.0792045,3.98770335 C21.9689394,3.73629187 21.6435985,3.5305622 21.3562879,3.5305622 L17.8431061,3.5305622 C17.5557955,3.5305622 17.2748485,3.74910287 17.2189773,4.01623206 L15.5228409,12.1365072 C15.5182576,12.1585048 15.5177652,12.1797847 15.5164773,12.2010646 L15.4251136,12.622177 L16.4593182,12.622177 C16.4593182,11.1997608 17.7142424,10.0425718 19.2565152,10.0425718 C20.79875,10.0425718 22.0536364,11.1997608 22.0536364,12.622177 L23.2555303,12.622177 C23.5428409,12.622177 23.8263258,12.4041029 23.8852652,12.1377273 L24.3701136,9.94320574 C24.429053,9.67654306 24.387197,9.25277512 24.2769697,9.00139952 L24.2769697,9.00139952 Z M22.6058333,7.78374402 L18.0520833,6.60620813 C17.9135227,6.57021531 17.8206818,6.43119617 17.8459091,6.29727273 L18.135303,4.76440191 C18.1605303,4.63047847 18.2988258,4.52074163 18.4425,4.52074163 L21.15625,4.52074163 C21.2998864,4.52074163 21.462197,4.62369617 21.516553,4.74965311 L22.7589773,7.62007177 C22.8133333,7.74602871 22.7444318,7.81977273 22.6058333,7.78374402 L22.6058333,7.78374402 Z" id="Fill-5" fill="#9B9B9B" sketch:type="MSShapeGroup"></path>
                <path d="M8.90791667,7.19210526 C7.85420455,7.19210526 6.9969697,6.37998804 6.9969697,5.38177033 C6.9969697,4.38348086 7.85420455,3.57139952 8.90791667,3.57139952 C9.77761364,3.57139952 10.5128409,4.12482057 10.7433712,4.87934211 L11.4827652,4.87934211 C11.2367045,3.74619617 10.1757197,2.89141148 8.90791667,2.89141148 C7.45844697,2.89141148 6.27920455,4.00851675 6.27920455,5.38177033 C6.27920455,6.75491627 7.45844697,7.87205742 8.90791667,7.87205742 C10.1757197,7.87205742 11.2367045,7.0173445 11.4827652,5.88416268 L10.7433712,5.88416268 C10.5128409,6.63864833 9.77761364,7.19210526 8.90791667,7.19210526" id="Fill-6" fill="#FFFFFF" sketch:type="MSShapeGroup"></path>
                <path d="M7.61973485,6.60204545 C7.94973485,6.91464115 8.40530303,7.1083134 8.90791667,7.1083134 L8.90791667,6.38659091 C8.61492424,6.38659091 8.34981061,6.27409091 8.15780303,6.09222488 L7.61973485,6.60204545" id="Fill-7" fill="#FFFFFF" sketch:type="MSShapeGroup"></path>
                <path d="M7.08534091,5.38173445 C7.08534091,5.6288756 7.14079545,5.86381579 7.24,6.07661483 L7.93693182,5.78623206 C7.87935606,5.66242823 7.84719697,5.52566986 7.84719697,5.38173445 C7.84719697,4.82680622 8.32208333,4.37691388 8.90791667,4.37691388 L8.90791667,3.65519139 C7.90284091,3.65519139 7.08534091,4.42970096 7.08534091,5.38173445" id="Fill-8" fill="#FFFFFF" sketch:type="MSShapeGroup"></path>
                <path d="M9.56871212,3.7727512 L9.29234848,4.44563397 C9.51799242,4.52892344 9.70625,4.6829067 9.82621212,4.87934211 L10.6514394,4.87934211 C10.488447,4.37260766 10.0855682,3.96398325 9.56871212,3.7727512" id="Fill-9" fill="#FFFFFF" sketch:type="MSShapeGroup"></path>
                <path d="M9.29238636,6.31787081 L9.56871212,6.99075359 C10.0855682,6.79952153 10.488447,6.39086124 10.6515152,5.88416268 L9.82625,5.88416268 C9.70625,6.08059809 9.51799242,6.23458134 9.29238636,6.31787081" id="Fill-10" fill="#FFFFFF" sketch:type="MSShapeGroup"></path>
                <path d="M5.53606061,6.34758373 C5.52393939,6.30979665 5.51253788,6.2716866 5.5017803,6.23343301 C5.50113636,6.23106459 5.50056818,6.22873206 5.49992424,6.22639952 C5.49011364,6.19094498 5.48090909,6.15534689 5.47223485,6.11956938 C5.47049242,6.1122488 5.46890152,6.10492823 5.46719697,6.09760766 C5.46,6.06685407 5.45325758,6.03592105 5.44693182,6.00488038 C5.44420455,5.99110048 5.44170455,5.97721292 5.43920455,5.96343301 C5.4344697,5.93867225 5.42996212,5.91383971 5.42590909,5.88893541 C5.42242424,5.86769139 5.4194697,5.84633971 5.41647727,5.82498804 C5.39579545,5.67947368 5.38462121,5.53151914 5.38473485,5.38169856 L4.66511364,5.38169856 C4.66488636,5.54508373 4.67575758,5.70645933 4.69606061,5.86564593 L4.69598485,5.86564593 C4.69636364,5.86912679 4.69704545,5.87257177 4.69746212,5.87605263 C4.70318182,5.9194378 4.70939394,5.96260766 4.71647727,6.00559809 C4.71844697,6.01744019 4.72075758,6.02921053 4.72280303,6.04105263 C4.72901515,6.07636364 4.73545455,6.11163876 4.74261364,6.14662679 C4.74640152,6.16532297 4.75060606,6.18380383 4.75473485,6.20235646 C4.76087121,6.23023923 4.7669697,6.25822967 4.77378788,6.28589713 C4.77973485,6.31029904 4.78617424,6.33452153 4.79261364,6.3587799 C4.79833333,6.38049043 4.80401515,6.40220096 4.81011364,6.42380383 C4.81829545,6.45247608 4.8269697,6.48093301 4.8357197,6.50938995 C4.83943182,6.52126794 4.84265152,6.53332536 4.84643939,6.54516746 L4.84681818,6.54502392 C4.89651515,6.70080144 4.95537879,6.85277512 5.02378788,6.99997608 L5.68329545,6.72516746 C5.62643939,6.60301435 5.57746212,6.47680622 5.53606061,6.34758373" id="Fill-11" fill="#FFFFFF" sketch:type="MSShapeGroup"></path>
                <path d="M6.4182197,7.74032297 L5.90837121,8.22326555 C6.67606061,8.95072967 7.73628788,9.40105263 8.90791667,9.40105263 C11.0713258,9.40105263 12.8565152,7.86685407 13.1174621,5.88412679 L12.3910606,5.88412679 C12.1345455,7.48708134 10.6702273,8.71944976 8.90791667,8.71944976 C7.93647727,8.71944976 7.05606061,8.34480861 6.4182197,7.74032297 Z" id="Fill-12" fill="#FFFFFF" sketch:type="MSShapeGroup"></path>
                <path d="M8.90791667,2.04405502 C9.69689394,2.04405502 10.4259848,2.29119617 11.0138636,2.70800239 L11.4451894,2.16050239 C10.7374242,1.65936603 9.85931818,1.36245215 8.90791667,1.36245215 C7.10753788,1.36245215 5.56939394,2.42483254 4.95333333,3.92397129 L5.62465909,4.17143541 C6.13723485,2.92754785 7.41556818,2.04405502 8.90791667,2.04405502" id="Fill-13" fill="#FFFFFF" sketch:type="MSShapeGroup"></path>
                <path d="M12.3910985,4.87934211 L13.1175379,4.87934211 C13.0396591,4.287811 12.8260606,3.73632775 12.5073106,3.25345694 L11.8956439,3.61510766 C12.1453788,3.99276316 12.3176515,4.42087321 12.3910985,4.87934211" id="Fill-14" fill="#FFFFFF" sketch:type="MSShapeGroup"></path>
                <path d="M11.5728409,4.87934211 L12.3016288,4.87934211 C12.1114773,3.72165072 11.2745455,2.76441388 10.1531818,2.34965311 L9.89280303,2.98370813 C10.7456439,3.29913876 11.3906818,4.01084928 11.5728409,4.87934211" id="Fill-15" fill="#FFFFFF" sketch:type="MSShapeGroup"></path>
                <path d="M8.90791667,2.80769139 L8.90795455,2.80769139 L8.90795455,2.12777512 L8.90791667,2.12777512 C7.4530303,2.12777512 6.2067803,2.98916268 5.70708333,4.20179426 L6.37587121,4.44836124 C6.77117424,3.48911483 7.75700758,2.80769139 8.90791667,2.80769139" id="Fill-16" fill="#FFFFFF" sketch:type="MSShapeGroup"></path>
                <path d="M6.19079545,5.38173445 L6.19079545,5.38169856 L5.47310606,5.38169856 L5.47310606,5.38173445 C5.47310606,6.74910287 6.36829545,7.92157895 7.63238636,8.40236842 L7.89882576,7.7712201 C6.89890152,7.39087321 6.19079545,6.46342105 6.19079545,5.38173445" id="Fill-17" fill="#FFFFFF" sketch:type="MSShapeGroup"></path>
                <path d="M8.90791667,7.95577751 L8.90791667,8.63572967 C10.6214394,8.63572967 12.0458712,7.4407177 12.3016288,5.88412679 L11.5727652,5.88412679 C11.3254167,7.06381579 10.2246591,7.95577751 8.90791667,7.95577751" id="Fill-18" fill="#FFFFFF" sketch:type="MSShapeGroup"></path>
                <path d="M16.1980303,0.567057416 C16.7729167,0.567057416 17.1487879,1.00367225 17.0334848,1.53717703 L15.1390909,10.3019498 L15.1442045,10.3019498 L14.64125,12.622177 L8.61284091,12.622177 C8.61284091,11.1997608 7.35818182,10.0425718 5.81568182,10.0425718 C4.27367424,10.0425718 3.01901515,11.1997608 3.01901515,12.622177 L1.45200758,12.622177 C0.877121212,12.622177 0.50125,12.1855981 0.616363636,11.6520574 L2.80314394,1.53717703 C2.9182197,1.00367225 3.48291667,0.567057416 4.05784091,0.567057416 L16.1980303,0.567057416 M16.1980303,0.0287799043 L4.05784091,0.0287799043 C3.21151515,0.0287799043 2.41587121,0.6440311 2.24647727,1.42941388 L0.0597348485,11.5440431 C-0.0295075758,11.9577273 0.0709848485,12.3708373 0.335378788,12.6776914 C0.599734848,12.9845096 1.00674242,13.1604545 1.45200758,13.1604545 L3.58719697,13.1604545 L3.58719697,12.622177 C3.58719697,11.496567 4.58689394,10.5808493 5.81568182,10.5808493 C7.04473485,10.5808493 8.04465909,11.496567 8.04465909,12.622177 L8.04465909,13.1604545 L15.1046212,13.1604545 L15.8409091,9.76367225 L15.8354167,9.76367225 L17.5901136,1.6451555 C17.6794697,1.23175837 17.5791288,0.81861244 17.3147727,0.511686603 C17.0504545,0.204796651 16.6434091,0.0287799043 16.1980303,0.0287799043" id="Fill-19" fill="#FFFFFF" sketch:type="MSShapeGroup"></path>
                <path d="M5.81568182,10.7851794 C6.92772727,10.7851794 7.82897727,11.6075598 7.82897727,12.622177 C7.82897727,13.636256 6.92772727,14.4589234 5.81568182,14.4589234 C4.70416667,14.4589234 3.80291667,13.636256 3.80291667,12.622177 C3.80291667,11.6075598 4.70416667,10.7851794 5.81568182,10.7851794 M5.81568182,10.2469019 C4.39253788,10.2469019 3.23473485,11.3124402 3.23473485,12.622177 C3.23473485,13.9317703 4.39253788,14.9971651 5.81568182,14.9971651 C7.23909091,14.9971651 8.39715909,13.9317703 8.39715909,12.622177 C8.39715909,11.3124402 7.23909091,10.2469019 5.81568182,10.2469019" id="Fill-20" fill="#FFFFFF" sketch:type="MSShapeGroup"></path>
                <path d="M19.2565152,10.7851794 C20.3685227,10.7851794 21.2697727,11.6075598 21.2697727,12.622177 C21.2697727,13.636256 20.3685227,14.4589234 19.2565152,14.4589234 C18.1444697,14.4589234 17.2432197,13.636256 17.2432197,12.622177 C17.2432197,11.6075598 18.1444697,10.7851794 19.2565152,10.7851794 M19.2565152,10.2469019 C17.8330682,10.2469019 16.6750379,11.3124402 16.6750379,12.622177 C16.6750379,13.9317703 17.8330682,14.9971651 19.2565152,14.9971651 C20.6799242,14.9971651 21.8379545,13.9317703 21.8379545,12.622177 C21.8379545,11.3124402 20.6799242,10.2469019 19.2565152,10.2469019" id="Fill-21" fill="#FFFFFF" sketch:type="MSShapeGroup"></path>
                <path d="M21.3562879,3.5305622 C21.6435985,3.5305622 21.9689394,3.73629187 22.0792045,3.98770335 L24.2769697,9.00139952 C24.387197,9.25277512 24.429053,9.67654306 24.3701136,9.94320574 L23.8852652,12.1376914 C23.8263258,12.4041029 23.5428409,12.622177 23.2555303,12.622177 L22.0536742,12.622177 C22.0536742,11.1997608 20.79875,10.0425718 19.2565152,10.0425718 C17.7142424,10.0425718 16.4593182,11.1997608 16.4593182,12.622177 L15.4251136,12.622177 L15.5164773,12.2010646 C15.5177652,12.1797488 15.5182576,12.1585048 15.5228409,12.1365072 L17.2189773,4.01623206 C17.2748485,3.74910287 17.5557955,3.5305622 17.8431061,3.5305622 L21.3562879,3.5305622 L21.3562879,3.5305622 Z M22.6708333,7.79289474 C22.7644318,7.79289474 22.8039773,7.72438995 22.7589773,7.62007177 L21.516553,4.74965311 C21.462197,4.62369617 21.2999242,4.52074163 21.15625,4.52074163 L18.4425,4.52074163 C18.2988258,4.52074163 18.1605303,4.63047847 18.135303,4.76440191 L17.8459091,6.29727273 C17.8206818,6.43119617 17.9135227,6.57021531 18.0520833,6.60620813 L22.6058333,7.78374402 C22.6296591,7.78995215 22.6514015,7.79289474 22.6708333,7.79289474 L22.6708333,7.79289474 Z M21.3562879,2.99228469 L17.8431061,2.99228469 C17.288447,2.99228469 16.7694697,3.39606459 16.6616288,3.91155502 L14.9654924,12.0320096 C14.9574621,12.0704067 14.9537121,12.1042823 14.9516667,12.1307656 L14.7283333,13.1604545 L17.0275,13.1604545 L17.0275,12.622177 C17.0275,11.496567 18.0274242,10.5808493 19.2565152,10.5808493 C20.4855682,10.5808493 21.4854924,11.496567 21.4854924,12.622177 L21.4854924,13.1604545 L23.2555303,13.1604545 C23.5245076,13.1604545 23.7939394,13.0671531 24.0142045,12.8977033 C24.2344697,12.7282536 24.3861742,12.4975837 24.4413636,12.2481459 L24.92625,10.0534809 C25.0092045,9.67812201 24.9568561,9.1487799 24.8016667,8.79488038 L22.6039015,3.78125598 C22.4067045,3.33143541 21.8703409,2.99228469 21.3562879,2.99228469 L21.3562879,2.99228469 Z M18.6568939,5.05901914 L21.0363258,5.05901914 L21.8946212,7.04185407 L18.4506818,6.15132775 L18.6568939,5.05901914 L18.6568939,5.05901914 Z" id="Fill-22" fill="#FFFFFF" sketch:type="MSShapeGroup"></path>
            </g>
        </g>
    </g>
</svg>