<?xml version="1.0" encoding="UTF-8" standalone="no"?>
<svg width="33px" height="25px" viewBox="0 0 33 25" version="1.1" xmlns="http://www.w3.org/2000/svg" xmlns:xlink="http://www.w3.org/1999/xlink">
    <!-- Generator: sketchtool 3.8.3 (29802) - http://www.bohemiancoding.com/sketch -->
    <title>BD30525F-249A-49FD-A68A-9CF754BE4FB7</title>
    <desc>Created with sketchtool.</desc>
    <defs></defs>
    <g id="Change-Screens" stroke="none" stroke-width="1" fill="none" fill-rule="evenodd">
        <g id="Change-Details-Style-Helper" transform="translate(-324.000000, -648.000000)" fill="#ACACAC">
            <g id="Delivered---Disabled" transform="translate(324.000000, 648.000000)">
                <g id="Page-1">
                    <path d="M13.9133624,20.298122 L17.4603955,20.298122 C18.00494,20.298122 18.4565623,19.878473 18.4565623,19.3599068 L18.4565623,0.938315244 C18.4565623,0.423745648 18.010935,0.0001 17.4603955,0.0001 L0.996166772,0.0001 C0.451622247,0.0001 0,0.419748991 0,0.938315244 L0,19.3599068 C0,19.8744764 0.445627262,20.298122 0.996166772,20.298122 L3.84478409,20.298122 C4.15652334,17.9420927 6.29173737,16.1186179 8.87857365,16.1186179 C11.4664091,16.1186179 13.6016231,17.9420927 13.9133624,20.298122" id="Fill-1"></path>
                    <path d="M29.4474691,12.6931831 L23.1917017,12.6931831 C22.6421613,12.6931831 22.1975332,12.2455575 22.1975332,11.7000138 L22.1975332,7.98312272 C22.1975332,7.43458154 22.6451588,6.98995344 23.1917017,6.98995344 L26.910591,6.98995344 C27.4601314,6.98995344 28.0876066,7.39961079 28.3124185,7.90618707 L30.0339785,11.7769494 C30.2597897,12.2825266 29.9990078,12.6931831 29.4474691,12.6931831 M32.5568683,13.0478864 L29.5953454,6.63525013 C29.3575443,6.11968137 28.7260725,5.72201399 28.1735347,5.72201399 L20.6608186,5.72201399 C20.1062824,5.72201399 19.6606551,6.17063875 19.6606551,6.72417575 L19.6606551,19.2966597 C19.6606551,19.8462 20.1082807,20.2978223 20.6618177,20.2978223 L21.6020313,20.2978223 C21.9147697,17.7969141 24.0489846,15.8615329 26.63682,15.8615329 C29.2236563,15.8615329 31.3588704,17.7969141 31.6716088,20.2978223 L31.977353,20.2978223 C32.5358859,20.2978223 32.9785156,19.8551925 32.9785156,19.3076505 L32.9785156,14.9512943 C32.9785156,14.4167414 32.7896736,13.5514652 32.5568683,13.0478864" id="Fill-3"></path>
                    <path d="M8.8788734,17.1294724 C10.9801159,17.1294724 12.6836909,18.8320483 12.6836909,20.9322916 C12.6836909,23.0315357 10.9801159,24.7341116 8.8788734,24.7341116 C6.77763095,24.7341116 5.07405588,23.0315357 5.07405588,20.9322916 C5.07405588,18.8320483 6.77763095,17.1294724 8.8788734,17.1294724" id="Fill-5"></path>
                    <path d="M26.6367201,17.1294724 C28.7379626,17.1294724 30.4415376,18.8320483 30.4415376,20.9322916 C30.4415376,23.0315357 28.7379626,24.7341116 26.6367201,24.7341116 C24.5354777,24.7341116 22.8319026,23.0315357 22.8319026,20.9322916 C22.8319026,18.8320483 24.5354777,17.1294724 26.6367201,17.1294724" id="Fill-7"></path>
                </g>
            </g>
        </g>
    </g>
</svg>