<?xml version="1.0" encoding="UTF-8" standalone="no"?>
<svg width="16px" height="12px" viewBox="0 0 16 12" version="1.1" xmlns="http://www.w3.org/2000/svg" xmlns:xlink="http://www.w3.org/1999/xlink">
    <!-- Generator: sketchtool 3.8.3 (29802) - http://www.bohemiancoding.com/sketch -->
    <title>1A5B9D61-922E-48FF-AC37-C2205DF80F0F</title>
    <desc>Created with sketchtool.</desc>
    <defs></defs>
    <g id="Change-Screens" stroke="none" stroke-width="1" fill="none" fill-rule="evenodd">
        <g id="Change-Details-Style-Helper" transform="translate(-283.000000, -357.000000)" fill="#FFFFFF">
            <g id="Delivered---Disabled-Copy-4" transform="translate(283.000000, 357.000000)">
                <g id="Page-1">
                    <path d="M6.74587267,9.74309857 L8.46564631,9.74309857 C8.7296679,9.74309857 8.94863626,9.54166706 8.94863626,9.29275526 L8.94863626,0.450391317 C8.94863626,0.203397911 8.73257456,4.80000008e-05 8.46564631,4.80000008e-05 L0.48298995,4.80000008e-05 C0.218968362,4.80000008e-05 0,0.201479516 0,0.450391317 L0,9.29275526 C0,9.53974866 0.216061703,9.74309857 0.48298995,9.74309857 L1.86413774,9.74309857 C2.01528404,8.61220449 3.05053933,7.7369366 4.30476298,7.7369366 C5.55947108,7.7369366 6.59472637,8.61220449 6.74587267,9.74309857" id="Fill-1"></path>
                    <path d="M14.2775608,6.09272787 L11.2444614,6.09272787 C10.9780176,6.09272787 10.7624403,5.87786759 10.7624403,5.61600662 L10.7624403,3.83189891 C10.7624403,3.56859914 10.9794709,3.35517765 11.2444614,3.35517765 L13.0475593,3.35517765 C13.3140031,3.35517765 13.6182335,3.55181318 13.7272332,3.7949698 L14.561929,5.65293573 C14.6714132,5.89561275 14.5449735,6.09272787 14.2775608,6.09272787 M15.7851483,6.26298546 L14.3492584,3.18492006 C14.2339609,2.93744706 13.9277927,2.74656672 13.6598956,2.74656672 L10.0173666,2.74656672 C9.74850056,2.74656672 9.53243886,2.9619066 9.53243886,3.22760436 L9.53243886,9.26239665 C9.53243886,9.52617602 9.74946945,9.74295469 10.017851,9.74295469 L10.4737122,9.74295469 C10.6253429,8.54251878 11.6601137,7.61353581 12.9148218,7.61353581 C14.1690455,7.61353581 15.2043008,8.54251878 15.3559315,9.74295469 L15.5041712,9.74295469 C15.774975,9.74295469 15.9895833,9.53049241 15.9895833,9.26767224 L15.9895833,7.17662127 C15.9895833,6.92003588 15.8980236,6.50470328 15.7851483,6.26298546" id="Fill-3"></path>
                    <path d="M4.30490832,8.22214675 C5.32369253,8.22214675 6.14966833,9.03938319 6.14966833,10.0475 C6.14966833,11.0551371 5.32369253,11.8723736 4.30490832,11.8723736 C3.2861241,11.8723736 2.46014831,11.0551371 2.46014831,10.0475 C2.46014831,9.03938319 3.2861241,8.22214675 4.30490832,8.22214675" id="Fill-5"></path>
                    <path d="M12.9147734,8.22214675 C13.9335576,8.22214675 14.7595334,9.03938319 14.7595334,10.0475 C14.7595334,11.0551371 13.9335576,11.8723736 12.9147734,11.8723736 C11.8959892,11.8723736 11.0700134,11.0551371 11.0700134,10.0475 C11.0700134,9.03938319 11.8959892,8.22214675 12.9147734,8.22214675" id="Fill-7"></path>
                </g>
            </g>
        </g>
    </g>
</svg>