<?xml version="1.0" encoding="UTF-8" standalone="no"?>
<svg width="14px" height="13px" viewBox="0 0 14 13" version="1.1" xmlns="http://www.w3.org/2000/svg" xmlns:xlink="http://www.w3.org/1999/xlink">
    <!-- Generator: sketchtool 3.8.3 (29802) - http://www.bohemiancoding.com/sketch -->
    <title>CFB103A2-5815-4093-81E5-BF6116440502</title>
    <desc>Created with sketchtool.</desc>
    <defs></defs>
    <g id="Dashboard" stroke="none" stroke-width="1" fill="none" fill-rule="evenodd">
        <g id="dashboard-style-helper" transform="translate(-284.000000, -101.000000)" fill="#C4C4C4">
            <path d="M292.007922,111.742188 L292.007922,110.257812 C292.007922,110.184895 291.983182,110.123698 291.933703,110.074219 C291.884224,110.024739 291.82563,110 291.757922,110 L290.257922,110 C290.190213,110 290.13162,110.024739 290.08214,110.074219 C290.032661,110.123698 290.007922,110.184895 290.007922,110.257812 L290.007922,111.742188 C290.007922,111.815105 290.032661,111.876302 290.08214,111.925781 C290.13162,111.975261 290.190213,112 290.257922,112 L291.757922,112 C291.82563,112 291.884224,111.975261 291.933703,111.925781 C291.983182,111.876302 292.007922,111.815105 292.007922,111.742188 L292.007922,111.742188 Z M291.992297,108.820312 L292.132922,105.234375 C292.132922,105.171875 292.10688,105.122396 292.054797,105.085938 C291.987088,105.028646 291.924589,105 291.867297,105 L290.148547,105 C290.091255,105 290.028755,105.028646 289.961047,105.085938 C289.908963,105.122396 289.882922,105.177083 289.882922,105.25 L290.015734,108.820312 C290.015734,108.872396 290.041776,108.915364 290.093859,108.949219 C290.145943,108.983073 290.208442,109 290.281359,109 L291.726672,109 C291.799589,109 291.860786,108.983073 291.910265,108.949219 C291.959745,108.915364 291.987088,108.872396 291.992297,108.820312 L291.992297,108.820312 Z M291.882922,101.523438 L297.882922,112.523438 C298.065214,112.851564 298.060006,113.179686 297.867297,113.507812 C297.778755,113.658855 297.657662,113.778645 297.504015,113.867188 C297.350369,113.95573 297.185006,114 297.007922,114 L285.007922,114 C284.830837,114 284.665475,113.95573 284.511828,113.867188 C284.358181,113.778645 284.237089,113.658855 284.148547,113.507812 C283.955837,113.179686 283.950629,112.851564 284.132922,112.523438 L290.132922,101.523438 C290.221464,101.361978 290.343858,101.234375 290.500109,101.140625 C290.65636,101.046875 290.825629,101 291.007922,101 C291.190214,101 291.359483,101.046875 291.515734,101.140625 C291.671985,101.234375 291.79438,101.361978 291.882922,101.523438 L291.882922,101.523438 Z" id="ï±-copy-2"></path>
        </g>
    </g>
</svg>