<?xml version="1.0" encoding="UTF-8" standalone="no"?>
<svg width="15px" height="15px" viewBox="0 0 15 15" version="1.1" xmlns="http://www.w3.org/2000/svg" xmlns:xlink="http://www.w3.org/1999/xlink">
    <!-- Generator: sketchtool 3.8.3 (29802) - http://www.bohemiancoding.com/sketch -->
    <title>E4F19D6F-E0E0-40E9-AF24-FE5DA44E8A9D</title>
    <desc>Created with sketchtool.</desc>
    <defs></defs>
    <g id="Change-Screens" stroke="none" stroke-width="1" fill="none" fill-rule="evenodd">
        <g id="Change-Details-Style-Helper" transform="translate(-324.000000, -246.000000)" fill="#E27C79">
            <path d="M332.571429,257.652344 L332.571429,256.061942 C332.571429,255.983817 332.544922,255.918248 332.491908,255.865234 C332.438895,255.812221 332.376116,255.785714 332.303571,255.785714 L330.696429,255.785714 C330.623884,255.785714 330.561105,255.812221 330.508092,255.865234 C330.455078,255.918248 330.428571,255.983817 330.428571,256.061942 L330.428571,257.652344 C330.428571,257.730469 330.455078,257.796038 330.508092,257.849051 C330.561105,257.902065 330.623884,257.928571 330.696429,257.928571 L332.303571,257.928571 C332.376116,257.928571 332.438895,257.902065 332.491908,257.849051 C332.544922,257.796038 332.571429,257.730469 332.571429,257.652344 L332.571429,257.652344 Z M332.554688,254.521763 L332.705357,250.679688 C332.705357,250.612723 332.677456,250.55971 332.621652,250.520647 C332.549107,250.459263 332.482143,250.428571 332.420759,250.428571 L330.579241,250.428571 C330.517857,250.428571 330.450893,250.459263 330.378348,250.520647 C330.322544,250.55971 330.294643,250.618303 330.294643,250.696429 L330.436942,254.521763 C330.436942,254.577567 330.464843,254.623605 330.520647,254.659877 C330.576451,254.69615 330.643415,254.714286 330.72154,254.714286 L332.270089,254.714286 C332.348215,254.714286 332.413783,254.69615 332.466797,254.659877 C332.519811,254.623605 332.549107,254.577567 332.554688,254.521763 L332.554688,254.521763 Z M332.4375,246.703683 L338.866071,258.489397 C339.061385,258.840962 339.055805,259.192521 338.84933,259.544085 C338.754464,259.705916 338.624722,259.834263 338.4601,259.929129 C338.295479,260.023996 338.118305,260.071429 337.928571,260.071429 L325.071429,260.071429 C324.881695,260.071429 324.704521,260.023996 324.5399,259.929129 C324.375278,259.834263 324.245536,259.705916 324.15067,259.544085 C323.944195,259.192521 323.938615,258.840962 324.133929,258.489397 L330.5625,246.703683 C330.657367,246.530691 330.788504,246.393974 330.955915,246.293527 C331.123327,246.19308 331.304687,246.142857 331.5,246.142857 C331.695313,246.142857 331.876673,246.19308 332.044085,246.293527 C332.211496,246.393974 332.342633,246.530691 332.4375,246.703683 L332.4375,246.703683 Z" id="ï±-copy-7"></path>
        </g>
    </g>
</svg>