<?xml version="1.0" encoding="UTF-8" standalone="no"?>
<svg width="20px" height="20px" viewBox="0 0 20 20" version="1.1" xmlns="http://www.w3.org/2000/svg" xmlns:xlink="http://www.w3.org/1999/xlink">
    <!-- Generator: sketchtool 3.8.3 (29802) - http://www.bohemiancoding.com/sketch -->
    <title>7AC33121-FFBA-4348-9F54-E7247ACC30FA</title>
    <desc>Created with sketchtool.</desc>
    <defs></defs>
    <g id="Change-Screens" stroke="none" stroke-width="1" fill="none" fill-rule="evenodd">
        <g id="Change-Details-Style-Helper" transform="translate(-280.000000, -241.000000)" fill="#E27C79">
            <path d="M291.428571,257.203125 L291.428571,255.082589 C291.428571,254.978422 291.39323,254.890997 291.322545,254.820312 C291.25186,254.749628 291.168155,254.714286 291.071429,254.714286 L288.928571,254.714286 C288.831845,254.714286 288.74814,254.749628 288.677455,254.820312 C288.60677,254.890997 288.571429,254.978422 288.571429,255.082589 L288.571429,257.203125 C288.571429,257.307292 288.60677,257.394717 288.677455,257.465402 C288.74814,257.536087 288.831845,257.571429 288.928571,257.571429 L291.071429,257.571429 C291.168155,257.571429 291.25186,257.536087 291.322545,257.465402 C291.39323,257.394717 291.428571,257.307292 291.428571,257.203125 L291.428571,257.203125 Z M291.40625,253.029018 L291.607143,247.90625 C291.607143,247.816964 291.569941,247.74628 291.495536,247.694196 C291.398809,247.612351 291.309524,247.571429 291.227679,247.571429 L288.772321,247.571429 C288.690476,247.571429 288.601191,247.612351 288.504464,247.694196 C288.430059,247.74628 288.392857,247.824404 288.392857,247.928571 L288.582589,253.029018 C288.582589,253.103423 288.619791,253.164806 288.694196,253.21317 C288.768602,253.261533 288.857886,253.285714 288.962054,253.285714 L291.026786,253.285714 C291.130953,253.285714 291.218378,253.261533 291.289062,253.21317 C291.359747,253.164806 291.398809,253.103423 291.40625,253.029018 L291.40625,253.029018 Z M291.25,242.604911 L299.821429,258.319196 C300.081847,258.787949 300.074406,259.256694 299.799107,259.725446 C299.672618,259.941221 299.499629,260.112351 299.280134,260.238839 C299.060639,260.365328 298.824406,260.428571 298.571429,260.428571 L281.428571,260.428571 C281.175594,260.428571 280.939361,260.365328 280.719866,260.238839 C280.500371,260.112351 280.327382,259.941221 280.200893,259.725446 C279.925594,259.256694 279.918153,258.787949 280.178571,258.319196 L288.75,242.604911 C288.876489,242.374255 289.051338,242.191965 289.274554,242.058036 C289.497769,241.924106 289.739582,241.857143 290,241.857143 C290.260418,241.857143 290.502231,241.924106 290.725446,242.058036 C290.948662,242.191965 291.123511,242.374255 291.25,242.604911 L291.25,242.604911 Z" id="ï±"></path>
        </g>
    </g>
</svg>