<?xml version="1.0" encoding="UTF-8" standalone="no"?>
<svg width="12px" height="12px" viewBox="0 0 12 12" version="1.1" xmlns="http://www.w3.org/2000/svg" xmlns:xlink="http://www.w3.org/1999/xlink">
    <!-- Generator: sketchtool 3.8.3 (29802) - http://www.bohemiancoding.com/sketch -->
    <title>89499D10-43BE-490C-BF2B-C6375ACF2B5E</title>
    <desc>Created with sketchtool.</desc>
    <defs></defs>
    <g id="Change-Screens" stroke="none" stroke-width="1" fill="none" fill-rule="evenodd">
        <g id="Change-Details-Style-Helper" transform="translate(-285.000000, -414.000000)" fill="#FFFFFF">
            <path d="M295.03125,418.734375 C295.03125,418.588541 294.984375,418.46875 294.890625,418.375 L294.179688,417.671875 C294.080729,417.572916 293.963542,417.523438 293.828125,417.523438 C293.692708,417.523438 293.575521,417.572916 293.476562,417.671875 L290.289062,420.851562 L288.523438,419.085938 C288.424479,418.986979 288.307292,418.9375 288.171875,418.9375 C288.036458,418.9375 287.919271,418.986979 287.820312,419.085938 L287.109375,419.789062 C287.015625,419.882813 286.96875,420.002603 286.96875,420.148438 C286.96875,420.289063 287.015625,420.40625 287.109375,420.5 L289.9375,423.328125 C290.036459,423.427084 290.153645,423.476562 290.289062,423.476562 C290.429688,423.476562 290.549479,423.427084 290.648438,423.328125 L294.890625,419.085938 C294.984375,418.992187 295.03125,418.875001 295.03125,418.734375 L295.03125,418.734375 Z M297,420 C297,421.088547 296.731774,422.092443 296.195312,423.011719 C295.658851,423.930994 294.930994,424.658851 294.011719,425.195312 C293.092443,425.731774 292.088547,426 291,426 C289.911453,426 288.907557,425.731774 287.988281,425.195312 C287.069006,424.658851 286.341149,423.930994 285.804688,423.011719 C285.268226,422.092443 285,421.088547 285,420 C285,418.911453 285.268226,417.907557 285.804688,416.988281 C286.341149,416.069006 287.069006,415.341149 287.988281,414.804688 C288.907557,414.268226 289.911453,414 291,414 C292.088547,414 293.092443,414.268226 294.011719,414.804688 C294.930994,415.341149 295.658851,416.069006 296.195312,416.988281 C296.731774,417.907557 297,418.911453 297,420 L297,420 Z" id="ï˜-copy"></path>
        </g>
    </g>
</svg>