<?xml version="1.0" encoding="UTF-8"?>
<svg width="14px" height="14px" viewBox="0 0 14 14" version="1.1" xmlns="http://www.w3.org/2000/svg" xmlns:xlink="http://www.w3.org/1999/xlink">
    <!-- Generator: Sketch 42 (36781) - http://www.bohemiancoding.com/sketch -->
    <title>good-small</title>
    <desc>Created with Sketch.</desc>
    <defs></defs>
    <g id="Page-1" stroke="none" stroke-width="1" fill="none" fill-rule="evenodd">
        <g fill-rule="nonzero" fill="#1FB899">
            <path d="M11.703125,5.52343674 C11.703125,5.35329785 11.6484388,5.21354223 11.5390632,5.10416661 L10.7096359,4.28385435 C10.5941843,4.16840164 10.4574666,4.11067638 10.2994798,4.11067638 C10.1414929,4.11067638 10.0047752,4.16840164 9.88932362,4.28385435 L6.1705732,7.99348969 L4.11067747,5.93359287 C3.99522584,5.81814125 3.85850822,5.76041598 3.70052134,5.76041598 C3.54253445,5.76041598 3.40581683,5.81814125 3.29036521,5.93359287 L2.46093786,6.75390621 C2.35156224,6.86328183 2.29687497,7.00303746 2.29687497,7.17317634 C2.29687497,7.33724032 2.35156224,7.47395685 2.46093786,7.58333247 L5.76041707,10.8828117 C5.87586869,10.9982644 6.01258631,11.0559897 6.1705732,11.0559897 C6.33463717,11.0559897 6.47439279,10.9982644 6.58984442,10.8828117 L11.5390632,5.93359287 C11.6484388,5.82421834 11.703125,5.68750071 11.703125,5.52343674 L11.703125,5.52343674 Z M14,6.99999946 C14,8.26997164 13.6870697,9.44118378 13.0611981,10.5136718 C12.4353277,11.5861598 11.5861598,12.4353266 10.5136718,13.061197 C9.44118378,13.6870686 8.26997164,14 7.00000054,14 C5.73002836,14 4.55881622,13.6870686 3.48632818,13.061197 C2.41384015,12.4353266 1.56467343,11.5861598 0.938802967,10.5136718 C0.312931419,9.44118378 0,8.26997164 0,6.99999946 C0,5.73002836 0.312931419,4.55881622 0.938802967,3.48632818 C1.56467343,2.41384015 2.41384015,1.56467343 3.48632818,0.938801878 C4.55881622,0.31293033 5.73002836,0 7.00000054,0 C8.26997164,0 9.44118378,0.31293033 10.5136718,0.938801878 C11.5861598,1.56467343 12.4353277,2.41384015 13.0611981,3.48632818 C13.6870697,4.55881622 14,5.73002836 14,6.99999946 L14,6.99999946 Z" id="ï˜"></path>
        </g>
    </g>
</svg>
