<?xml version="1.0" encoding="UTF-8"?>
<svg width="18px" height="18px" viewBox="0 0 18 18" version="1.1" xmlns="http://www.w3.org/2000/svg" xmlns:xlink="http://www.w3.org/1999/xlink">
    <!-- Generator: Sketch 42 (36781) - http://www.bohemiancoding.com/sketch -->
    <title>good-large</title>
    <desc>Created with Sketch.</desc>
    <defs></defs>
    <g id="Page-1" stroke="none" stroke-width="1" fill="none" fill-rule="evenodd">
        <g fill-rule="nonzero" fill="#1FB899">
            <path d="M15.046875,7.10156271 C15.046875,6.88281201 14.9765638,6.70312656 14.8359384,6.56250005 L13.7695321,5.50781285 C13.6210936,5.35937434 13.4453142,5.28515614 13.2421875,5.28515614 C13.0390618,5.28515614 12.8632824,5.35937434 12.7148439,5.50781285 L7.93359427,10.2773444 L5.28515614,7.62890631 C5.13671869,7.48046886 4.96093924,7.40625066 4.75781254,7.40625066 C4.55468689,7.40625066 4.37890744,7.48046886 4.23046894,7.62890631 L3.16406268,8.68359457 C3.02343723,8.82422002 2.95312502,9.00390548 2.95312502,9.22265618 C2.95312502,9.43359488 3.02343723,9.60937433 3.16406268,9.75000083 L7.40625066,13.9921878 C7.55468916,14.1406263 7.73046861,14.2148445 7.93359427,14.2148445 C8.14453297,14.2148445 8.32421842,14.1406263 8.47265692,13.9921878 L14.8359384,7.62890631 C14.9765638,7.48828086 15.046875,7.31250141 15.046875,7.10156271 L15.046875,7.10156271 Z M18,9.00000053 C18,10.6328209 17.597661,12.1386658 16.7929693,13.5175783 C15.9882777,14.8964919 14.8964919,15.9882777 13.5175783,16.7929693 C12.1386658,17.597661 10.6328209,18 9.00000052,18 C7.36718016,18 5.86133525,17.597661 4.48242274,16.7929693 C3.10350918,15.9882777 2.01172337,14.8964919 1.20703171,13.5175783 C0.402340053,12.1386658 0,10.6328209 0,9.00000053 C0,7.36718016 0.402340053,5.86133525 1.20703171,4.48242274 C2.01172337,3.10350918 3.10350918,2.01172337 4.48242274,1.20703171 C5.86133525,0.402340053 7.36718016,0 9.00000052,0 C10.6328209,0 12.1386658,0.402340053 13.5175783,1.20703171 C14.8964919,2.01172337 15.9882777,3.10350918 16.7929693,4.48242274 C17.597661,5.86133525 18,7.36718016 18,9.00000053 L18,9.00000053 Z" id="ï˜"></path>
        </g>
    </g>
</svg>
