<?xml version="1.0" encoding="UTF-8" standalone="no"?>
<svg width="11px" height="12px" viewBox="0 0 11 12" version="1.1" xmlns="http://www.w3.org/2000/svg" xmlns:xlink="http://www.w3.org/1999/xlink">
    <!-- Generator: sketchtool 3.8.3 (29802) - http://www.bohemiancoding.com/sketch -->
    <title>100D51A7-F96F-4E71-B548-CAD8ADBF8E2F</title>
    <desc>Created with sketchtool.</desc>
    <defs></defs>
    <g id="Dashboard" stroke="none" stroke-width="1" fill="none" fill-rule="evenodd" font-size="14" font-family="FontAwesome" font-weight="normal">
        <g id="dashboard-style-helper" transform="translate(-286.000000, -163.000000)" fill="#7DC67D">
            <path d="M296,172.976562 C296,173.601566 295.809898,174.09505 295.429688,174.457031 C295.049477,174.819012 294.544274,175 293.914062,175 L287.085938,175 C286.455726,175 285.950523,174.819012 285.570312,174.457031 C285.190102,174.09505 285,173.601566 285,172.976562 C285,172.700519 285.009114,172.430991 285.027344,172.167969 C285.045573,171.904947 285.082031,171.621095 285.136719,171.316406 C285.191407,171.011717 285.260416,170.729168 285.34375,170.46875 C285.427084,170.208332 285.539062,169.954428 285.679688,169.707031 C285.820313,169.459634 285.98177,169.248699 286.164062,169.074219 C286.346355,168.899739 286.569009,168.760417 286.832031,168.65625 C287.095053,168.552083 287.385415,168.5 287.703125,168.5 C287.75,168.5 287.859374,168.555989 288.03125,168.667969 C288.203126,168.779948 288.397134,168.904947 288.613281,169.042969 C288.829428,169.18099 289.110675,169.305989 289.457031,169.417969 C289.803387,169.529948 290.15104,169.585938 290.5,169.585938 C290.84896,169.585938 291.196613,169.529948 291.542969,169.417969 C291.889325,169.305989 292.170572,169.18099 292.386719,169.042969 C292.602866,168.904947 292.796874,168.779948 292.96875,168.667969 C293.140626,168.555989 293.25,168.5 293.296875,168.5 C293.614585,168.5 293.904947,168.552083 294.167969,168.65625 C294.430991,168.760417 294.653645,168.899739 294.835938,169.074219 C295.01823,169.248699 295.179687,169.459634 295.320312,169.707031 C295.460938,169.954428 295.572916,170.208332 295.65625,170.46875 C295.739584,170.729168 295.808593,171.011717 295.863281,171.316406 C295.917969,171.621095 295.954427,171.904947 295.972656,172.167969 C295.990886,172.430991 296,172.700519 296,172.976562 L296,172.976562 Z M293.5,166 C293.5,166.828129 293.207034,167.535153 292.621094,168.121094 C292.035153,168.707034 291.328129,169 290.5,169 C289.671871,169 288.964847,168.707034 288.378906,168.121094 C287.792966,167.535153 287.5,166.828129 287.5,166 C287.5,165.171871 287.792966,164.464847 288.378906,163.878906 C288.964847,163.292966 289.671871,163 290.5,163 C291.328129,163 292.035153,163.292966 292.621094,163.878906 C293.207034,164.464847 293.5,165.171871 293.5,166 L293.5,166 Z" id=""></path>
        </g>
    </g>
</svg>
