<svg xmlns="http://www.w3.org/2000/svg" xmlns:xlink="http://www.w3.org/1999/xlink">
  <symbol viewBox="0 0 32 32" id="icon-chevrons">
    <polygon opacity="0.3" points="10.5,16 5.6,32 0,32 5.1,16 0,0 5.6,0 "/>
    <polygon opacity="0.6" points="21.2,16 16.4,32 10.8,32 15.9,16 10.8,0 16.4,0 "/>
    <polygon points="32,16 27.1,32 21.5,32 26.6,16 21.5,0 27.1,0 "/>
  </symbol>
  <symbol viewBox="0 0 32 32" id="icon-pencil">
    <path d="M1.9,22.6L0,32l9.5-1.8l16.1-16.2L18,6.4L1.9,22.6z M19.7,12L5.5,26.2l-1.6-1.7L18,10.4L19.7,12z M32,7.6l-4.1,4.1l-7.6-7.6L24.4,0L32,7.6z"/>
  </symbol>
  <symbol viewBox="0 0 32 32" id="icon-x">
    <polygon points="32,26.4 21.6,16 32,5.6 26.4,0 16,10.4 5.6,0 0,5.6 10.4,16 0,26.4 5.6,32 16,21.6 26.4,32 "/>
  </symbol>
  <symbol viewBox="0 0 32 32" id="icon-plus">
    <polygon points="32,11.5 20.5,11.5 20.5,0 11.5,0 11.5,11.5 0,11.5 0,20.5 11.5,20.5 11.5,32 20.5,32 20.5,20.5  32,20.5"/>
  </symbol>
  <symbol viewBox="0 0 32 32" id="icon-magnifier">
    <path d="M32,27.8l-8.5-8.5c1.2-2,2-4.3,2-6.7c0-7-5.7-12.6-12.7-12.6C5.7,0,0,5.7,0,12.6s5.7,12.6,12.7,12.6 c2.4,0,4.6-0.6,6.5-1.8l8.6,8.5L32,27.8z M4.7,12.6c0-4.4,3.6-7.9,8-7.9s8,3.6,8,7.9s-3.6,7.9-8,7.9C8.3,20.5,4.7,17,4.7,12.6z"/>
  </symbol>
  <symbol viewBox="0 0 32 32" id="icon-bubble">
    <path d="M16,0C7.2,0,0,6.3,0,14.2c0,4.6,2.4,8.6,6.2,11.2c1.2,3.2-1.4,5.8-4.2,6.5 c3,0.3,8.4-0.2,12.5-3.6C24,29.1,32,22.5,32,14.2C32,6.3,24.8,0,16,0z"/>
  </symbol>
  <symbol viewBox="0 0 32 32" id="icon-reload">
    <path d="M10.4,4c-4.1,2.5-6.4,6.8-6.7,11.3H0l5.9,6l6-6H8.3c0.2-3,1.8-5.8,4.5-7.5C17.3,5,23.2,6.4,26,10.9 c2.8,4.5,1.4,10.4-3.1,13.2c-4.1,2.6-9.4,1.6-12.5-2l-3.2,3.2c4.5,5.1,12.1,6.3,18,2.6c6.6-4.1,8.7-12.8,4.6-19.5 C25.8,1.9,17-0.1,10.4,4z"/>
  </symbol>
  <symbol viewBox="0 0 32 32" id="icon-checkmark">
    <path d="M29.5,13.8c1.3,9-5.6,17-14.6,17C6.6,30.8,0,24.2,0,16C0,7.8,6.6,1.2,14.8,1.2 c3.6,0,6.9,1.3,9.5,3.4L21.9,7c-1.9-1.5-4.4-2.4-7.1-2.4C8.5,4.5,3.4,9.7,3.4,16c0,6.3,5.1,11.5,11.5,11.5c6,0,10.9-4.6,11.4-10.4 L29.5,13.8z M28,4L15.6,16.4L10.3,11l-4,4l9.3,9.3L32,8L28,4z"/>
  </symbol>
  <symbol viewBox="0 0 32 32" id="icon-gear">
    <path d="M32,18.2v-4.3l-3.8-1.4c-0.3-0.9-0.6-1.8-1.1-2.6l1.7-3.7l-3-3l-3.7,1.7c-0.8-0.5-1.7-0.8-2.6-1.1L18.2,0 h-4.3l-1.4,3.8c-0.9,0.3-1.8,0.6-2.6,1.1L6.2,3.2l-3,3l1.7,3.7c-0.5,0.8-0.8,1.7-1.1,2.6L0,13.8v4.3l3.8,1.4 c0.3,0.9,0.6,1.8,1.1,2.6l-1.7,3.7l3,3l3.7-1.7c0.8,0.5,1.7,0.8,2.6,1.1l1.4,3.8h4.3l1.4-3.8c0.9-0.3,1.8-0.6,2.6-1.1l3.7,1.7l3-3 l-1.7-3.7c0.5-0.8,0.8-1.7,1.1-2.6L32,18.2z M16,21.9c-3.2,0-5.9-2.6-5.9-5.9s2.6-5.9,5.9-5.9c3.2,0,5.9,2.6,5.9,5.9 S19.2,21.9,16,21.9z"/>
  </symbol>
  <symbol viewBox="0 0 32 32" id="icon-gears">
    <path d="M32,10.8V8.2l-2.3-0.8c-0.2-0.5-0.4-1.1-0.6-1.5l1-2.2l-1.8-1.8l-2.2,1c-0.5-0.3-1-0.5-1.5-0.6L23.8,0 h-2.6l-0.8,2.3c-0.5,0.2-1.1,0.4-1.5,0.6l-2.2-1l-1.8,1.8l1,2.2c-0.3,0.5-0.5,1-0.6,1.5L13,8.2v2.6l2.3,0.8c0.2,0.5,0.4,1.1,0.6,1.5 l-1,2.2l1.8,1.8l2.2-1c0.5,0.3,1,0.5,1.5,0.6l0.8,2.3h2.6l0.8-2.3c0.5-0.2,1.1-0.4,1.5-0.6l2.2,1l1.8-1.8l-1-2.2 c0.3-0.5,0.5-1,0.6-1.5L32,10.8z M22.5,13c-1.9,0-3.5-1.6-3.5-3.5S20.6,6,22.5,6C24.4,6,26,7.6,26,9.5S24.4,13,22.5,13z"/>
    <path d="M17.6,27.3l1-2.4l-1.8-1.6c0.1-0.6,0.1-1.1,0-1.7l1.8-1.6l-1-2.4l-2.4,0.1c-0.3-0.4-0.7-0.8-1.2-1.2 l0.1-2.4l-2.4-1L10.1,15c-0.6-0.1-1.1-0.1-1.7,0l-1.6-1.8l-2.4,1l0.1,2.4c-0.4,0.3-0.8,0.7-1.2,1.2L1,17.7l-1,2.4l1.8,1.6 c-0.1,0.6-0.1,1.1,0,1.7L0,25l1,2.4l2.4-0.1c0.3,0.4,0.7,0.8,1.2,1.2l-0.1,2.4l2.4,1L8.5,30C9,30,9.6,30,10.1,30l1.6,1.8l2.4-1 L14,28.4c0.4-0.3,0.8-0.7,1.2-1.2L17.6,27.3z M7.9,25.7c-1.8-0.7-2.6-2.8-1.9-4.6c0.7-1.8,2.8-2.6,4.6-1.9c1.8,0.7,2.6,2.8,1.9,4.6 C11.8,25.6,9.7,26.5,7.9,25.7z"/>
  </symbol>
  <symbol viewBox="0 0 32 32" id="icon-caret-right">
    <polygon points="5.9,4.3 10.2,0 26.1,16 10.2,32 5.9,27.7 17.6,16 "/>
  </symbol>
  <symbol viewBox="0 0 32 32" id="icon-caret-down">
    <polygon transform="translate(32) rotate(90)" points="5.9,4.3 10.2,0 26.1,16 10.2,32 5.9,27.7 17.6,16 "/>
  </symbol>
  <symbol viewBox="0 0 32 32" id="icon-caret-left">
    <polygon transform="translate(0, 16) rotate(180)" points="5.9,4.3 10.2,0 26.1,16 10.2,32 5.9,27.7 17.6,16 "/>
  </symbol>
  <symbol viewBox="0 0 32 32" id="icon-caret-up">
    <polygon transform="translate(0, 16) rotate(270)" points="5.9,4.3 10.2,0 26.1,16 10.2,32 5.9,27.7 17.6,16 "/>
  </symbol>
  <symbol viewBox="0 0 32 32" id="icon-trash">
    <path d="M12.5,11.4c0-0.6-0.5-1.2-1.2-1.2s-1.2,0.5-1.2,1.2v14.1c0,0.6,0.5,1.2,1.2,1.2s1.2-0.5,1.2-1.2V11.4 z M17.2,11.4c0-0.6-0.5-1.2-1.2-1.2s-1.2,0.5-1.2,1.2v14.1c0,0.6,0.5,1.2,1.2,1.2s1.2-0.5,1.2-1.2V11.4z M21.9,11.4 c0-0.6-0.5-1.2-1.2-1.2c-0.6,0-1.2,0.5-1.2,1.2v14.1c0,0.6,0.5,1.2,1.2,1.2c0.6,0,1.2-0.5,1.2-1.2V11.4z M25,29.3H7V7.6H4.3V32h23.4 V7.6H25L25,29.3L25,29.3z M21.7,2.2c-1.2,0-2.2-1-2.2-2.2h-7.1c0,1.2-1,2.2-2.2,2.2H2.9v3.1h26.2V2.2H21.7z"/>
  </symbol>
  <symbol viewBox="0 0 32 32" id="icon-checkmark-solo">
    <polyline points="12.9,13.5 12.9,13.5 8.1,9 0,16.7 12.9,28.9 32,10.8 23.8,3.1 12.9,13.5 "/>
  </symbol>
  <symbol viewBox="0 0 32 32" id="icon-exclamation">
    <path d="M20.5,18.4L20.5,18.4l3-15.9c0.1-0.7,0-1.3-0.4-1.8c-0.4-0.5-1-0.8-1.7-0.8H10.6C9.9,0,9.3,0.3,8.9,0.8 C8.5,1.3,8.4,1.9,8.5,2.6l3,15.9c0.1,0.7,0.5,1.3,1.1,1.8c0.6,0.5,1.3,0.8,2,0.8h2.8c0.7,0,1.3-0.3,2-0.8 C20,19.7,20.3,19.1,20.5,18.4"/>
    <polyline points="10.5,32 10.5,32 21.5,32 21.5,26.5 10.5,26.5 10.5,26.5"/>
  </symbol>
  <symbol viewBox="0 0 32 32" id="icon-minus">
    <polygon points="5,13 5,19 27,19 27,13 "/>
  </symbol>
  <symbol viewBox="0 0 32 32" id="icon-clapboard">
    <rect id="line_7_" x="4.1" y="16.8" width="15.7" height="1.9"/>
    <rect id="line_6_" x="4.1" y="20.6" width="20.3" height="1.9"/>
    <rect id="line_5_" x="4.1" y="24.4" width="6.5" height="1.9"/>
    <rect id="line_4_" x="12.4" y="24.4" width="6.5" height="1.9"/>
    <path d="M31,12V9H7.5l22.6-4.4L29.2,0l-29,5.6L1,9h0v3H0v20h32V12H31z M25.6,2.4L27.1,4l-0.7,0.1l-1.5-1.6L25.6,2.4z M20.1,3.5 l1.5,1.6L21,5.2l-1.5-1.6L20.1,3.5z M14.7,4.5l1.5,1.6l-0.7,0.1L14,4.7L14.7,4.5z M9.3,5.6l1.5,1.6l-0.7,0.1L8.6,5.7L9.3,5.6z M3.8,6.6l1.5,1.6L4.7,8.4L3.2,6.8L3.8,6.6z M27.4,11h0.7l-1.2,1.9h-0.7L27.4,11z M21.9,11h0.7l-1.2,1.9h-0.7L21.9,11z M16.3,11H17 l-1.2,1.9h-0.7L16.3,11z M10.8,11h0.7l-1.2,1.9H9.6L10.8,11z M5.9,11l-1.2,1.9H4.1L5.3,11H5.9z M30,30H2V14h28V30z"/>
  </symbol>
  <symbol viewBox="0 0 32 32" id="icon-clipboard">
    <path d="M27,5.4C27,5,27,5,26.6,5H24V4.9c0-0.1,0-0.1,0-0.2c-0.1-0.7-0.7-1.3-1.4-1.3H21V1.5C21,0.7,20.3,0,19.5,0h-7 C11.7,0,11,0.7,11,1.5v1.9H9.4C8.7,3.4,8.1,4,8,4.7c0,0.1,0,0.1,0,0.2V5H5.4C5,5,5,5,5,5.4v25.8C5,31.7,5,32,5.4,32h21.3 c0.4,0,0.4-0.3,0.4-0.7V5.4z M12.5,4.9l0-3.4l7,0v3.4l3.1,0v5.6l-13.2,0l0-5.6H12.5z M24,27H8V10.8c0.2,0.6,0.7,1.1,1.4,1.1h13.2 c0.7,0,1.3-0.5,1.4-1.1V27z"/>
    <path d="M15.8,4.3h0.5c0.4,0,0.7-0.3,0.7-0.7V3.3c0-0.4-0.3-0.7-0.7-0.7h-0.5c-0.4,0-0.7,0.3-0.7,0.7v0.2C15,3.9,15.4,4.3,15.8,4.3 z"/>
    <rect x="9.8" y="13.9" display="inline" width="11.7" height="0.7"/>
    <rect x="9.8" y="16.1" display="inline" width="6.6" height="0.7"/>
    <rect x="9.8" y="18.3" display="inline" width="9.5" height="0.7"/>
    <rect x="9.8" y="20.5" display="inline" width="8" height="0.7"/>
  </symbol>
  <symbol viewBox="0 0 32 32" id="icon-checklist">
    <path id="frame" d="M28.7,32H3.3V0h25.5V32z M4.7,30.5h22.5V1.5H4.7V30.5z"/>
    <rect x="14.5" y="6.2" width="9" height="1.5"/>
    <rect x="14.5" y="15.2" width="5" height="1.5"/>
    <rect x="14.5" y="24.2" width="7" height="1.5"/>
    <path d="M10.7,13l-0.9,1H7v1.2l-0.7,0.7L7,16.5V18h1.4l0.6,0.6L9.5,18H11v-1.6l1.5-1.6L10.7,13z M8.9,17.5l-1.6-1.6L8.1,15l0.8,0.8 l1.8-1.8l0.8,0.8L8.9,17.5z"/>
    <path d="M10.7,4L9.8,5H7v1.2L6.3,6.9L7,7.5V9h1.4l0.6,0.6L9.5,9H11V7.4l1.5-1.6L10.7,4z M8.9,8.5L7.4,6.9L8.1,6l0.8,0.8L10.7,5 l0.8,0.8L8.9,8.5z"/>
    <path d="M10.7,22.1L9.8,23H7v1.3L6.3,25L7,25.7V27h1.4l0.6,0.6L9.5,27H11v-1.5l1.5-1.6L10.7,22.1z M8.9,26.6L7.3,25l0.8-0.8 L8.9,25l1.8-1.8l0.8,0.8L8.9,26.6z"/>
  </symbol>
  <symbol viewBox="0 0 32 32" id="icon-truck">
    <path d="M13.5,24.3h4c0.5,0,1-0.4,1-1v-19c0-0.5-0.4-1-1-1H1c-0.5,0-1,0.4-1,1v19c0,0.5,0.4,1,1,1h2.8 C4,21.9,6.1,20,8.6,20S13.2,21.9,13.5,24.3z"/>
    <path d="M31.6,17.3L28.7,11c-0.2-0.5-0.8-0.9-1.4-0.9H20c-0.5,0-1,0.4-1,1v12.2c0,0.5,0.4,1,1,1H21c0.3-2.4,2.4-4.3,4.9-4.3 c2.5,0,4.6,1.9,4.9,4.3H31c0.5,0,1-0.4,1-1v-4.2C32,18.6,31.8,17.8,31.6,17.3z M28.6,16.9h-6.1c-0.5,0-1-0.4-1-1v-3.6 c0-0.5,0.4-1,1-1h3.6c0.5,0,1.1,0.4,1.4,0.9l1.7,3.8C29.4,16.5,29.1,16.9,28.6,16.9z"/>
    <ellipse cx="8.6" cy="24.9" rx="3.7" ry="3.7"/>
    <ellipse cx="25.8" cy="24.9" rx="3.7" ry="3.7"/>
  </symbol>
  <symbol viewBox="0 0 32 32" id="icon-thumbsup">
    <path d="M29.9,17.9c0.6-0.9,0.9-2,0.9-3.1c0-1.3-0.5-2.4-1.5-3.4S27.3,10,25.9,10h-3.4c0.6-1,0.9-2.6,0.9-3.8 c0-1.5-0.2-2.7-0.7-3.6c-0.5-0.9-1.1-1.6-2-2S18.9,0,17.9,0c-0.7,0-1.2,0.2-1.7,0.7c-0.6,0.5-1,1.2-1.2,2.1 c-0.2,0.8-0.4,1.7-0.6,2.4c-0.1,0.8-0.4,1.3-0.7,1.6c-0.6,0.7-1.3,1.3-2.1,2.3C10.3,10.9,9.4,12,8.9,12H3.6c-0.7,0-1.3,0.4-1.8,0.9 C1.3,13.4,1,14.1,1,14.8v12.3c0,0.7,0.3,1.5,0.8,2s1.1,1,1.8,1h5.6c0.3,0,1.2,0,2.7,0.5c1.6,0.6,3,0.9,4.2,1.1s2.4,0.3,3.7,0.3h1.8 h0.7c1.8,0,3.3-0.5,4.4-1.5s1.7-2.4,1.6-4.2c0.8-1,1.2-2.1,1.2-3.4c0-0.3,0-0.6-0.1-0.8c0.5-0.9,0.7-1.8,0.7-2.8 C30.1,18.8,30,18.3,29.9,17.9z M4.8,27.2c-0.7,0-1.2-0.6-1.2-1.2s0.6-1.2,1.2-1.2s1.2,0.6,1.2,1.2S5.5,27.2,4.8,27.2z M28,16.3 c-0.3,0.6-0.6,0.9-1,0.9c0.2,0.2,0.4,0.5,0.5,0.9c0.1,0.4,0.2,0.7,0.2,1.1c0,0.9-0.3,1.6-1,2.3c0.2,0.4,0.3,0.9,0.3,1.3 s-0.1,0.9-0.3,1.4s-0.5,0.8-0.9,1c0.1,0.4,0.1,1,0.1,1.3c0,2.1-1.2,3.4-3.7,3.4h-2.3c-1.7,0-3.9-0.7-6.6-1.6 c-0.1,0-0.3-0.2-0.6-0.3s-0.5-0.2-0.7-0.3c-0.1-0.1-0.4-0.2-0.7-0.2c-0.3-0.1-0.5-0.2-0.7-0.2c-0.2,0-0.4-0.1-0.6-0.2 c-0.2,0-0.4-0.1-0.6-0.1H9V15h0.2c0.2,0,0.4-0.2,0.7-0.3c0.3-0.1,0.5-0.3,0.8-0.6s0.5-0.5,0.7-0.7c0.2-0.2,0.5-0.5,0.8-0.9 c0.3-0.3,0.5-0.6,0.7-0.8s0.4-0.5,0.6-0.8c0.2-0.3,0.4-0.5,0.4-0.6c0.7-0.9,1.2-1.5,1.5-1.8c0.5-0.6,0.9-1.3,1.2-2.1 c0.2-0.9,0.4-1.7,0.6-2.4c0.2-0.8,0.4-1.3,0.7-1.6c1.2,0,2.1,0.3,2.5,0.9C20.7,4,21,4.9,21,6.2c0,0.8-0.3,1.6-0.9,2.9 c-0.6,1.3-0.9,2.9-0.9,2.9h6.8c0.6,0,1.2,0.4,1.7,0.9c0.5,0.5,0.8,1.1,0.8,1.8C28.4,15.1,28.2,15.7,28,16.3z"/>
  </symbol>
  <symbol viewBox="0 0 32 32" id="icon-hammer">
    <path d="M31.7,25.3L15.7,8.3l0.6-0.7C17.8,6.3,19.3,6,20.3,6c0.2,0,0.4,0,0.6,0l2,0.2l-1-1.7c-1.8-2.9-5.2-4.2-7.7-4.2 c-1.5,0-2.8,0.5-3.5,1.3L10,2.4L9.6,2C9.3,1.6,8.7,1.6,8.4,2L5.5,5.4c-0.3,0.4-0.3,1,0,1.4l0.3,0.4L5.2,7.9L4.4,7.2l-4.4,5l6.7,7.7 l4.7-5.1L10.7,14l0.4-0.5l15.1,17.8c0.3,0.4,0.9,0.4,1.2,0l4.2-4.7C32.1,26.3,32.1,25.6,31.7,25.3z M8.1,14.1l0.6,0.7l-2,2.2 l-4.2-4.8l2-2.2l0.8,0.7l6.8-7.8c1-1.1,4.6-0.9,7,1.3c-1.2,0.2-2.7,0.8-4.2,2.1L8.1,14.1z"/>
  </symbol>
  <symbol viewBox="0 0 32 32" id="icon-filter">
    <polygon points="0,2.5 32,2.5 19,19.5 19,29.5 13,26.1 13,19.5"/>
  </symbol>
  <symbol viewBox="0 0 32 32" id="icon-caution">
    <path d="M16,4c6.6,0,12,5.4,12,12s-5.4,12-12,12S4,22.6,4,16S9.4,4,16,4 M16,0C7.2,0,0,7.2,0,16s7.2,16,16,16s16-7.2,16-16 S24.8,0,16,0L16,0z"/>
    <path d="M17.9,17.4L17.9,17.4l1.3-8.9c0.1-0.4,0-0.7-0.2-1C18.9,7.1,18.6,7,18.3,7h-4.6c-0.3,0-0.5,0.1-0.7,0.4 c-0.2,0.3-0.2,0.6-0.2,1l1.3,8.9c0.1,0.4,0.2,0.7,0.5,1c0.3,0.3,0.5,0.4,0.8,0.4h1.2c0.3,0,0.6-0.1,0.8-0.4 C17.7,18.1,17.9,17.8,17.9,17.4"/>
    <polyline points="13.6,25 13.6,25 18.4,25 18.4,21.9 13.6,21.9 13.6,21.9"/>
  </symbol>
  <symbol viewBox="0 0 32 32" id="icon-human">
    <path d="M25.4,9.3c0,5.1-4.2,9.3-9.3,9.3s-9.3-4.2-9.3-9.3c0-5.1,4.2-9.3,9.3-9.3S25.4,4.2,25.4,9.3z M23.8,19.1 c-2.2,1.7-4.9,2.7-7.7,2.7c-2.9,0-5.6-1-7.8-2.7C2.6,21.1,0,28.5,0,31.9h32C32,28.5,29.4,21.2,23.8,19.1z"/>
  </symbol>
  <symbol viewBox="0 0 32 32" id="icon-eyeball">
    <path d="M16,9.3c6.3,0,10.8,4,12.7,6.2c-1.9,2.4-6.3,7.2-12.7,7.2c-5.9,0-10.6-4.7-12.6-7.2C5.4,13.3,9.8,9.3,16,9.3z M16,6.7
		c-10.1,0-16,8.7-16,8.7s6.4,9.9,16,9.9c10.3,0,16-9.9,16-9.9S26.3,6.7,16,6.7z M16,10.7c-2.9,0-5.3,2.4-5.3,5.3
		c0,2.9,2.4,5.3,5.3,5.3s5.3-2.4,5.3-5.3C21.3,13.1,18.9,10.7,16,10.7z"/>
  </symbol>
  <symbol viewBox="0 0 32 32" id="icon-eyeball-off">
  	<path d="M26.1,3.7l-4.5,4.2C20,7.3,18.1,7,16,7C5.9,7,0,15.7,0,15.7s2.6,3.9,6.9,6.9L3,26.4l1.9,1.9L28,5.6
  		C28,5.6,26.1,3.7,26.1,3.7z M18.1,11.4c-4.4-1.9-8.9,2.5-7,6.9l-2.3,2.3c-2.4-1.5-4.3-3.5-5.4-4.9c2-2.2,6.4-6.1,12.6-6.1
  		c1.2,0,2.4,0.2,3.5,0.4C19.5,10,18.1,11.4,18.1,11.4z M14.3,21.3l6.8-6.7C22.4,18.8,18.4,22.7,14.3,21.3z M32,15.7
  		c0,0-5.7,9.9-16,9.9c-1.8,0-3.5-0.4-5.1-1l2.2-2.1c1,0.3,1.9,0.4,3,0.4c6.4,0,10.8-4.7,12.7-7.2c-1-1.1-2.6-2.7-4.8-3.9l2-1.9
  		C29.9,12.4,32,15.7,32,15.7z"/>
  </symbol>
  <symbol viewBox="0 0 35 26" id="icon-delivered">
    <path d="M14.394849,20.8005547 L18.064631,20.8005547 C18.6280201,20.8005547 19.0952712,20.3705183 19.0952712,19.8391161 L19.0952712,0.96154105 C19.0952712,0.434234484 18.6342225,0.000102475266 18.064631,0.000102475266 L1.03064018,0.000102475266 C0.467251114,0.000102475266 0,0.430138899 0,0.96154105 L0,19.8391161 C0,20.3664227 0.461048665,20.8005547 1.03064018,20.8005547 L3.97783692,20.8005547 C4.30036423,18.3862074 6.50946961,16.5175967 9.1858261,16.5175967 C11.8632163,16.5175967 14.0723217,18.3862074 14.394849,20.8005547"></path>
    <path d="M30.46653,13.0073732 L23.9942751,13.0073732 C23.4257173,13.0073732 22.9657024,12.5486677 22.9657024,11.9896203 L22.9657024,8.18072631 C22.9657024,7.61860727 23.4288185,7.16297344 23.9942751,7.16297344 L27.8418606,7.16297344 C28.4104183,7.16297344 29.0596079,7.5827709 29.2921997,8.1018863 L31.0733362,12.0684604 C31.3069617,12.5865519 31.0371552,13.0073732 30.46653,13.0073732 M33.6835332,13.3708564 L30.6195237,6.79949028 C30.3734933,6.27115981 29.7201687,5.86364911 29.1485097,5.86364911 L21.3758081,5.86364911 C20.8020816,5.86364911 20.3410329,6.32337852 20.3410329,6.89061704 L20.3410329,19.7743035 C20.3410329,20.3374464 20.8041491,20.8002475 21.3768418,20.8002475 L22.3495925,20.8002475 C22.6731535,18.2374352 24.8812252,16.2541482 27.5586154,16.2541482 C30.2349719,16.2541482 32.4440773,18.2374352 32.7676383,20.8002475 L33.0839632,20.8002475 C33.6618247,20.8002475 34.1197721,20.3466615 34.1197721,19.7855664 L34.1197721,15.3213787 C34.1197721,14.7735942 33.924395,13.8869001 33.6835332,13.3708564"></path>
    <path d="M9.18613622,17.5534725 C11.3600944,17.5534725 13.1226235,19.2981917 13.1226235,21.4504217 C13.1226235,23.6016277 11.3600944,25.3463469 9.18613622,25.3463469 C7.01217805,25.3463469 5.24964896,23.6016277 5.24964896,21.4504217 C5.24964896,19.2981917 7.01217805,17.5534725 9.18613622,17.5534725" id="Fill-5"></path>
    <path d="M27.558512,17.5534725 C29.7324702,17.5534725 31.4949993,19.2981917 31.4949993,21.4504217 C31.4949993,23.6016277 29.7324702,25.3463469 27.558512,25.3463469 C25.3845539,25.3463469 23.6220248,23.6016277 23.6220248,21.4504217 C23.6220248,19.2981917 25.3845539,17.5534725 27.558512,17.5534725"></path>
  </symbol>
  <symbol viewBox="0 0 29 29" id="icon-rehearsal">
    <path d="M25.9313442,14.1445428 L25.9313442,24.4582291 C25.9313442,25.2719261 25.2719584,25.931319 24.4582702,25.931319 L3.8311186,25.931319 C3.01743034,25.931319 2.35701586,25.2719261 2.35701586,24.4582291 L2.35701586,14.1445428 L25.9313442,14.1445428 Z M16.2802403,9.43003812 L19.8785734,9.43003812 L17.47557,11.7867761 L13.8762081,11.7867761 L16.2802403,9.43003812 Z M23.3668375,9.43003812 L26.9661993,9.43003812 L24.5642245,11.7867761 L20.963834,11.7867761 L23.3668375,9.43003812 Z M12.7847755,9.43003812 L10.381772,11.7867761 L6.78138145,11.7867761 L9.18541363,9.43003812 L12.7847755,9.43003812 Z M9.7923366,4.82868975 L12.6253296,6.72457284 L9.09694689,7.42614216 L6.26189654,5.52820169 L9.7923366,4.82868975 Z M16.7524058,3.44921106 L19.5812841,5.34200807 L16.0529014,6.04357739 L13.2209371,4.148723 L16.7524058,3.44921106 Z M23.7042455,2.07178977 L26.5290091,3.96150069 L22.9995977,4.66307001 L20.1727768,2.7713017 L23.7042455,2.07178977 Z M28.2890857,5.15684315 L28.2798275,5.10643714 L27.0916987,0 L2.13893506,4.94596087 C0.897314676,5.19284744 0.000303097346,6.28223441 0.000303097346,7.54752806 L0.000303097346,24.7534643 C0.000303097346,26.7059256 1.58344624,28.2890857 3.53588658,28.2890857 L24.7524735,28.2890857 C26.7049139,28.2890857 28.2890857,26.7059256 28.2890857,24.7534643 L28.2890857,8.25115477 L13.2785433,8.25115477 L28.2890857,5.15684315 Z"></path>
  </symbol>
  <symbol viewBox="0 0 33 27" id="icon-union">
    <path d="M30.0329873,7.71474638 L23.9839978,7.71474638 C22.7970751,7.71474638 21.8259565,8.72936126 21.8259565,9.96944611 L21.8259565,11.9626007 L19.7153922,11.9626007 C19.4175825,11.9626007 19.129484,11.8532477 18.8510967,11.6322872 C18.5716304,11.4124539 18.2964801,11.0663575 18.0234879,10.5939979 C17.7515747,10.120511 17.5282174,9.70000949 17.3544951,9.33136609 C17.1807728,8.96272268 16.9520204,8.43512294 16.667159,7.74856688 C16.4319325,7.21758509 16.2582102,6.82639469 16.145992,6.57386832 C16.0348529,6.32134195 15.8578935,5.94818915 15.6161929,5.45666461 C15.3744923,4.96401271 15.1673203,4.59536931 14.993598,4.34960704 C14.8198757,4.10384477 14.5911233,3.8062244 14.3062619,3.45674595 C14.0214004,3.10726749 13.7419341,2.84459497 13.4689419,2.66985574 C13.1970287,2.49511651 12.8808757,2.34292428 12.5215618,2.21327905 C12.1622479,2.08363381 11.7845907,2.01937487 11.3875111,2.01937487 L7.0412161,2.01937487 L7.02718884,2.02388427 L7.02071471,0.569602946 C7.02071471,0.411773966 6.97215879,0.283256081 6.87612595,0.181794593 C6.7790141,0.0803331056 6.65492673,0.0296023618 6.50494286,0.0296023618 L1.34182923,0.0296023618 C1.19076635,0.0296023618 1.067758,0.0803331056 0.970646141,0.181794593 C0.873534286,0.283256081 0.824978359,0.411773966 0.824978359,0.569602946 L0.824978359,5.96397204 C0.824978359,6.12067367 0.873534286,6.25031891 0.970646141,6.3517804 C1.067758,6.45324188 1.19076635,6.50284528 1.34182923,6.50284528 L6.50494286,6.50284528 C6.65492673,6.50284528 6.7790141,6.45324188 6.87612595,6.3517804 C6.97215879,6.25031891 7.02071471,6.12067367 7.02071471,5.96397204 L7.02718884,4.50969072 L7.0412161,4.50518132 L11.3875111,4.50518132 C11.5979201,4.50518132 11.8029341,4.55703941 12.0003948,4.6607556 C12.1989346,4.76447179 12.3942374,4.93244692 12.586303,5.16580834 C12.7783687,5.39804241 12.9456169,5.61900299 13.0880476,5.82530801 C13.2304783,6.03274039 13.3977265,6.33712485 13.5897922,6.7384614 C13.7829369,7.13979795 13.9307627,7.45771061 14.0365067,7.68994468 C14.1411717,7.92330611 14.2933136,8.27954866 14.4918534,8.75867236 C15.0615763,10.1441853 15.5762691,11.2117857 16.0348529,11.9626007 L7.02718884,11.9626007 L7.02071471,10.5083193 C7.02071471,10.3516177 6.97215879,10.2219725 6.87612595,10.1216383 C6.7790141,10.0201769 6.65492673,9.96944611 6.50494286,9.96944611 L1.34182923,9.96944611 C1.19076635,9.96944611 1.067758,10.0201769 0.970646141,10.1216383 C0.873534286,10.2219725 0.824978359,10.3516177 0.824978359,10.5083193 L0.824978359,15.9026884 C0.824978359,16.0605174 0.873534286,16.1901627 0.970646141,16.2904968 C1.067758,16.3919583 1.19076635,16.442689 1.34182923,16.442689 L6.50494286,16.442689 C6.65492673,16.442689 6.7790141,16.3919583 6.87612595,16.2904968 C6.97215879,16.1901627 7.02071471,16.0605174 7.02071471,15.9026884 L7.02718884,14.4495345 L16.2916598,14.4495345 C15.8330761,15.1992221 15.3194622,16.2679498 14.7486603,17.6534628 C14.5511996,18.1325865 14.3990577,18.488829 14.2933136,18.7221904 C14.1886486,18.9544245 14.0397438,19.2723372 13.8476781,19.6736737 C13.6556125,20.0750103 13.4883643,20.3793947 13.3459335,20.5856998 C13.2035028,20.7931321 13.0362546,21.0129654 12.8431099,21.2463268 C12.6521233,21.4796882 12.4568206,21.6476633 12.2582808,21.7513795 C12.059741,21.8550957 11.8558061,21.9069538 11.644318,21.9069538 L7.02718884,21.9069538 L7.02071471,20.4526725 C7.02071471,20.2948435 6.97215879,20.1663256 6.87612595,20.0648641 C6.7790141,19.9634026 6.65492673,19.9126719 6.50494286,19.9126719 L1.34182923,19.9126719 C1.19076635,19.9126719 1.067758,19.9634026 0.970646141,20.0648641 C0.873534286,20.1663256 0.824978359,20.2948435 0.824978359,20.4526725 L0.824978359,25.8470416 C0.824978359,26.0037432 0.873534286,26.1333885 0.970646141,26.2348499 C1.067758,26.3351841 1.19076635,26.3859148 1.34182923,26.3859148 L6.50494286,26.3859148 C6.65492673,26.3859148 6.7790141,26.3351841 6.87612595,26.2348499 C6.97215879,26.1333885 7.02071471,26.0037432 7.02071471,25.8470416 L7.02718884,24.3927603 L11.644318,24.3927603 C12.0413976,24.3927603 12.4190548,24.327374 12.7783687,24.1988561 C13.1376826,24.0692109 13.4538356,23.9170186 13.7268278,23.7422794 C13.99982,23.5675402 14.2782073,23.3048676 14.5630688,22.9553892 C14.8479302,22.6059107 15.0777616,22.3082904 15.2504049,22.0625281 C15.4241272,21.8156385 15.6323782,21.4469951 15.8740788,20.9554705 C16.1157795,20.4628186 16.2916598,20.0907932 16.403878,19.8382668 C16.5150171,19.5857404 16.6887394,19.19455 16.9239659,18.6635683 C17.2088273,17.9770122 17.4386587,17.4494125 17.611302,17.080769 C17.7850243,16.7109983 18.0083816,16.2904968 18.2813738,15.8181372 C18.553287,15.3457776 18.8295163,14.9996812 19.1079036,14.7787206 C19.3873699,14.5588874 19.6754685,14.4495345 19.9721991,14.4495345 L21.8259565,14.4495345 L21.8259565,16.2893694 C21.8259565,17.5294543 22.7970751,18.5440692 23.9839978,18.5440692 L30.0329873,18.5440692 C31.21991,18.5440692 32.1910285,17.5294543 32.1910285,16.2893694 L32.1910285,9.96944611 C32.1910285,8.72936126 31.21991,7.71474638 30.0329873,7.71474638" id="Fill-1"></path>
  </symbol>
</svg>
