<?xml version="1.0" encoding="UTF-8" standalone="no"?>
<svg width="104px" height="30px" viewBox="0 0 104 30" version="1.1" xmlns="http://www.w3.org/2000/svg" xmlns:xlink="http://www.w3.org/1999/xlink" xmlns:sketch="http://www.bohemiancoding.com/sketch/ns">
    <title>how-chef-works 4</title>
    <description>Created with Sketch (http://www.bohemiancoding.com/sketch)</description>
    <defs></defs>
    <g id="Page-1" stroke="none" stroke-width="1" fill="none" fill-rule="evenodd" sketch:type="MSPage">
        <g id="Delivery-Header---Stacked---Light" sketch:type="MSArtboardGroup" transform="translate(-10.000000, -10.000000)">
            <g id="Header" sketch:type="MSLayerGroup">
                <g id="Logo" transform="translate(10.000000, 10.000000)" sketch:type="MSShapeGroup">
                    <g id="Nodes">
                        <path d="M15.0469751,21.7325895 C11.3106012,21.7325895 8.27076232,18.7061928 8.27076232,14.986135 C8.27076232,11.2659093 11.3106012,8.23934482 15.0469751,8.23934482 C18.1311482,8.23934482 20.7384342,10.3018664 21.5558344,13.1136024 L24.1777861,13.1136024 C23.3052632,8.89071159 19.543098,5.70520754 15.0469751,5.70520754 C9.90707998,5.70520754 5.72534182,9.86851699 5.72534182,14.986135 C5.72534182,20.1035851 9.90707998,24.2670624 15.0469751,24.2670624 C19.543098,24.2670624 23.3052632,21.0815584 24.1777861,16.8584997 L21.5558344,16.8584997 C20.7384342,19.6702357 18.1311482,21.7325895 15.0469751,21.7325895" id="Blue" fill="#425363"></path>
                        <path d="M10.4792096,19.5339539 C11.6494287,20.6988951 13.2650122,21.4209203 15.0469751,21.4209203 L15.0469751,18.7310323 C14.0082412,18.7310323 13.0679528,18.3116132 12.3872635,17.6338964 L10.4792096,19.5339539" id="Blue" fill="#425363"></path>
                        <path d="M8.58396704,14.986135 C8.58396704,15.9068766 8.78085784,16.7828063 9.13249672,17.5756577 L11.6040832,16.4934591 C11.3997752,16.0322491 11.2858213,15.5225349 11.2858213,14.986135 C11.2858213,12.917907 12.969676,11.2414055 15.0471437,11.2414055 L15.0471437,8.55151751 C11.4832178,8.55151751 8.58396704,11.43794 8.58396704,14.986135" id="Orange" fill="#F38A00"></path>
                        <path d="M17.3902791,8.98973411 L16.410545,11.4975213 C17.2105825,11.8078478 17.8782918,12.3816749 18.3034276,13.1136024 L21.2296497,13.1136024 C20.6517887,11.2252933 19.223319,9.70236057 17.3902791,8.98973411" id="Blue" fill="#425363"></path>
                        <path d="M16.4107136,18.4745808 L17.3902791,20.9825359 C19.223319,20.2697416 20.6517887,18.7468088 21.2298183,16.8584997 L18.3037647,16.8584997 C17.8782918,17.5904272 17.2105825,18.1644221 16.4107136,18.4745808" id="Orange" fill="#F38A00"></path>
                        <path d="M3.09024162,18.5855196 C3.04725604,18.4447062 3.0069676,18.3028858 2.968702,18.1600584 C2.96651058,18.151331 2.96431916,18.1426036 2.96195917,18.1337084 C2.92723356,18.0019581 2.89453081,17.8692008 2.86401948,17.7357721 C2.85778236,17.708415 2.85205095,17.6812258 2.84598239,17.6540366 C2.82035962,17.5394054 2.79659112,17.4241029 2.77417119,17.3082969 C2.76439408,17.2571073 2.75562839,17.2054142 2.74652557,17.1538889 C2.73000562,17.061412 2.71399138,16.9691029 2.69966286,16.8762902 C2.68735718,16.7970722 2.67690579,16.7176864 2.66611725,16.6379648 C2.59278891,16.0955229 2.55317475,15.5443534 2.55368046,14.9859671 L0.00185427983,14.9859671 C0.000842854467,15.5948717 0.0394455891,16.1962237 0.111425361,16.7895197 L0.11125679,16.7895197 C0.112605357,16.8024429 0.114965349,16.8150305 0.116651058,16.8282895 C0.136710995,16.9897465 0.158625211,17.1508679 0.183910845,17.3111501 C0.190990822,17.3552907 0.198913654,17.3990956 0.206330774,17.4432361 C0.228413561,17.5748186 0.251170631,17.7062332 0.276793407,17.8366408 C0.289941937,17.9061244 0.304944746,17.9751045 0.319610414,18.0442524 C0.341187488,18.14831 0.363101704,18.2523676 0.387207342,18.3557538 C0.408278704,18.4465524 0.431035774,18.5370153 0.453792845,18.6273104 C0.474189923,18.708039 0.49441843,18.7891032 0.515995505,18.869496 C0.544989698,18.9764068 0.575669601,19.0824784 0.606686645,19.1885499 C0.619835175,19.2328583 0.631297996,19.2776702 0.644783667,19.3218108 L0.646132235,19.3214751 C0.822288818,19.9018477 1.03114816,20.4681223 1.27372167,21.0166063 L3.61247425,19.9926464 C3.41069489,19.5373106 3.2368983,19.0672054 3.09024162,18.5855196" id="Blue" fill="#425363"></path>
                        <path d="M15.0469751,27.4250416 C11.6022289,27.4250416 8.48029594,26.0286562 6.21841169,23.7759779 L4.41048886,25.5761737 C7.13274021,28.2868731 10.8923768,29.9650531 15.0469751,29.9650531 C22.7189736,29.9650531 29.0491478,24.2475936 29.974602,16.8583319 L27.3986702,16.8583319 C26.4893988,22.8320751 21.296741,27.4250416 15.0469751,27.4250416" id="Orange" fill="#F38A00"></path>
                        <path d="M15.0469751,2.5472284 C17.8450833,2.5472284 20.4302866,3.46847348 22.5151714,5.0216165 L24.0444465,2.98124913 C21.5349316,1.11358374 18.4205844,0.00704906059 15.0469751,0.00704906059 C8.66302678,0.00704906059 3.20840981,3.96643926 1.02373104,9.55332328 L3.40445776,10.4755754 C5.22215771,5.83997887 9.7551976,2.5472284 15.0469751,2.5472284" id="Orange" fill="#F38A00"></path>
                        <path d="M27.3988387,13.1137702 L29.9747706,13.1137702 C29.69882,10.9092604 28.941431,8.85395577 27.810826,7.05459914 L25.6418243,8.40231239 C26.5274958,9.80977482 27.1385653,11.4052122 27.3988387,13.1137702" id="Blue" fill="#425363"></path>
                        <path d="M24.4972279,13.1137702 L27.0814197,13.1137702 C26.4071362,8.79940947 23.4394456,5.23191347 19.4630268,3.68615519 L18.5395954,6.049101 C21.5640944,7.22461577 23.8514329,9.8772444 24.4972279,13.1137702" id="Orange" fill="#F38A00"></path>
                        <path d="M15.0469751,5.39320269 L15.0473122,5.39320269 L15.0473122,2.85940108 L15.0469751,2.85940108 C9.88803147,2.85940108 5.46860835,6.06957684 3.69659112,10.588696 L6.06838359,11.5075914 C7.47005057,7.93271069 10.9658738,5.39320269 15.0469751,5.39320269" id="Blue" fill="#425363"></path>
                        <path d="M5.41196853,14.986135 L5.41196853,14.9859671 L2.86705376,14.9859671 L2.86705376,14.986135 C2.86705376,20.0819345 6.04141225,24.4516807 10.5238809,26.2431491 L11.4688893,23.8911125 C7.92300056,22.4737478 5.41196853,19.0173585 5.41196853,14.986135" id="Orange" fill="#F38A00"></path>
                        <path d="M15.0469751,24.5788994 L15.0469751,27.1130367 C21.1236187,27.1130367 26.1746769,22.6593731 27.0814197,16.8583319 L24.4968908,16.8583319 C23.6198164,21.2549317 19.7165574,24.5788994 15.0469751,24.5788994" id="Blue" fill="#425363"></path>
                    </g>
                    <g id="Text" transform="translate(34.000000, 4.000000)">
                        <path d="M5.698,8.068 C6.7713387,8.068 7.64866326,7.64333758 8.33,6.794 L9.73,8.236 C8.61932778,9.48667292 7.31034087,10.112 5.803,10.112 C4.29565913,10.112 3.05433821,9.63600476 2.079,8.684 C1.10366179,7.73199524 0.616,6.53034059 0.616,5.079 C0.616,3.62765941 1.11299503,2.41667152 2.107,1.446 C3.10100497,0.47532848 4.31665948,-0.01 5.754,-0.01 C7.35934136,-0.01 8.70332792,0.60132722 9.786,1.824 L8.428,3.364 C7.73732988,2.50532904 6.8786718,2.076 5.852,2.076 C5.03066256,2.076 4.32833625,2.34433065 3.745,2.881 C3.16166375,3.41766935 2.87,4.14099545 2.87,5.051 C2.87,5.96100455 3.14533058,6.69133058 3.696,7.242 C4.24666942,7.79266942 4.91399608,8.068 5.698,8.068 Z M17.528,0.214 L19.712,0.214 L19.712,10 L17.528,10 L17.528,6.15 L13.636,6.15 L13.636,10 L11.452,10 L11.452,0.214 L13.636,0.214 L13.636,4.302 L17.528,4.302 L17.528,0.214 Z M29.176,0.214 L29.176,2.16 L24.304,2.16 L24.304,4.176 L28.686,4.176 L28.686,6.038 L24.304,6.038 L24.304,8.068 L29.33,8.068 L29.33,10 L22.12,10 L22.12,0.214 L29.176,0.214 Z M37.996,0.214 L37.996,2.132 L33.46,2.132 L33.46,4.246 L37.772,4.246 L37.772,6.164 L33.46,6.164 L33.46,10 L31.276,10 L31.276,0.214 L37.996,0.214 Z" id="CHEF" fill="#425363"></path>
                        <path d="M8.68,15.495 C9.613338,16.3490043 10.08,17.5366591 10.08,19.058 C10.08,20.5793409 9.62500455,21.7833289 8.715,22.67 C7.80499545,23.5566711 6.416676,24 4.55,24 L1.204,24 L1.204,14.214 L4.662,14.214 C6.40734206,14.214 7.746662,14.6409957 8.68,15.495 Z M7.077,21.312 C7.61366935,20.8079975 7.882,20.0753381 7.882,19.114 C7.882,18.1526619 7.61366935,17.4130026 7.077,16.895 C6.54033065,16.3769974 5.71667222,16.118 4.606,16.118 L3.388,16.118 L3.388,22.068 L4.774,22.068 C5.77267166,22.068 6.54033065,21.8160025 7.077,21.312 Z M19.026,14.214 L19.026,16.16 L14.154,16.16 L14.154,18.176 L18.536,18.176 L18.536,20.038 L14.154,20.038 L14.154,22.068 L19.18,22.068 L19.18,24 L11.97,24 L11.97,14.214 L19.026,14.214 Z M21.126,24 L21.126,14.214 L23.31,14.214 L23.31,22.054 L27.482,22.054 L27.482,24 L21.126,24 Z M29.078,14.214 L31.262,14.214 L31.262,24 L29.078,24 L29.078,14.214 Z M37.282,20.444 L39.774,14.214 L42.14,14.214 L38.206,24 L36.358,24 L32.424,14.214 L34.79,14.214 L37.282,20.444 Z M50.358,14.214 L50.358,16.16 L45.486,16.16 L45.486,18.176 L49.868,18.176 L49.868,20.038 L45.486,20.038 L45.486,22.068 L50.512,22.068 L50.512,24 L43.302,24 L43.302,14.214 L50.358,14.214 Z M60.396,17.462 C60.396,19.0300078 59.7753395,20.0426644 58.534,20.5 L61.012,24 L58.324,24 L56.154,20.878 L54.642,20.878 L54.642,24 L52.458,24 L52.458,14.214 L56.168,14.214 C57.6893409,14.214 58.7743301,14.4706641 59.423,14.984 C60.0716699,15.4973359 60.396,16.3233276 60.396,17.462 Z M57.764,18.624 C58.034668,18.3813321 58.17,17.996336 58.17,17.469 C58.17,16.941664 58.0300014,16.580001 57.75,16.384 C57.4699986,16.187999 56.9800035,16.09 56.28,16.09 L54.642,16.09 L54.642,18.988 L56.238,18.988 C56.9846704,18.988 57.493332,18.8666679 57.764,18.624 Z M66.598,24 L64.414,24 L64.414,20.136 L61.026,14.214 L63.392,14.214 L65.506,17.854 L67.62,14.214 L69.986,14.214 L66.598,20.136 L66.598,24 Z" id="DELIVERY" fill="#F38A00"></path>
                    </g>
                </g>
            </g>
        </g>
    </g>
</svg>
