<?xml version="1.0" encoding="UTF-8" standalone="no"?>
<svg width="40px" height="40px" viewBox="0 0 40 40" version="1.1" xmlns="http://www.w3.org/2000/svg" xmlns:xlink="http://www.w3.org/1999/xlink" xmlns:sketch="http://www.bohemiancoding.com/sketch/ns">
    <!-- Generator: Sketch 3.2.2 (9983) - http://www.bohemiancoding.com/sketch -->
    <title>Success</title>
    <desc>Created with Sketch.</desc>
    <defs></defs>
    <g id="Pipeline-Visualization-Wires" stroke="none" stroke-width="1" fill="none" fill-rule="evenodd" sketch:type="MSPage">
        <g id="Pipeline-Visualization-Enterprise-Level-(verify-hover)" sketch:type="MSArtboardGroup" transform="translate(-910.000000, -348.000000)" fill="#58B957">
            <g id="Production" sketch:type="MSLayerGroup" transform="translate(579.000000, 294.000000)">
                <g id="Delivered" transform="translate(291.000000, 24.000000)" sketch:type="MSShapeGroup">
                    <g id="Rectangle-213-+-Rectangle-214-+-Last-deployed-delive" transform="translate(0.000000, 20.000000)">
                        <path d="M49.966,12.6803333 C53.037,10.8936667 56.3813333,10 60,10 C63.6183333,10 66.9623333,10.8936667 70.0336667,12.6803333 C73.1036667,14.467 75.5333333,16.8956667 77.3196667,19.9666667 C79.106,23.0373333 80,26.3816667 80,30 C80,33.6183333 79.106,36.963 77.3196667,40.0333333 C75.5333333,43.1046667 73.1036667,45.5333333 70.0336667,47.3193333 C66.9623333,49.1066667 63.6183333,50 60,50 C56.3813333,50 53.037,49.1066667 49.966,47.3193333 C46.8953333,45.5333333 44.4666667,43.1046667 42.6803333,40.0333333 C40.8933333,36.963 40,33.6183333 40,30 C40,26.3816667 40.8933333,23.0373333 42.6803333,19.9666667 C44.4666667,16.8956667 46.8953333,14.467 49.966,12.6803333 C49.966,12.6803333 46.8953333,14.467 49.966,12.6803333 L49.966,12.6803333 L49.966,12.6803333 Z M58.191,29.2296667 L54.774,25.8126667 L48.9446667,31.6416667 L58.191,40.921 L71.9596667,27.1526667 L66.0976667,21.3233333 L58.191,29.2296667 L58.191,29.2296667 Z" id="Success"></path>
                    </g>
                </g>
            </g>
        </g>
    </g>
</svg>