<?xml version="1.0" encoding="UTF-8" standalone="no"?>
<svg width="36px" height="33px" viewBox="0 0 36 33" version="1.1" xmlns="http://www.w3.org/2000/svg" xmlns:xlink="http://www.w3.org/1999/xlink" xmlns:sketch="http://www.bohemiancoding.com/sketch/ns">
    <!-- Generator: Sketch 3.2.2 (9983) - http://www.bohemiancoding.com/sketch -->
    <title>User Gate</title>
    <desc>Created with Sketch.</desc>
    <defs></defs>
    <g id="Pipeline-Visualization-Wires" stroke="none" stroke-width="1" fill="none" fill-rule="evenodd" sketch:type="MSPage">
        <g id="Pipeline-Visualization-Enterprise-Level-(acceptance-hover)" sketch:type="MSArtboardGroup" transform="translate(-211.000000, -352.000000)" fill="#231F1F">
            <g id="User-Gate" sketch:type="MSLayerGroup" transform="translate(211.000000, 352.000000)">
                <path d="M33,15.93 L33,21 C33,24.3 31.825,27.125 29.475,29.475 C27.125,31.825 24.3,33 21,33 L12,33 C8.701,33 5.875,31.825 3.526,29.475 C1.175,27.125 0,24.3 0,21 L0,12 C0,8.7 1.175,5.876 3.526,3.525 C5.875,1.175 8.701,0 12,0 L21,0 C22.201,0 23.47,0.23 24.811,0.69 L19.471,6 L9,6 C8.18,6 7.475,6.296 6.885,6.885 C6.295,7.475 6,8.18 6,9 L6,24 C6,24.82 6.295,25.525 6.885,26.115 C7.475,26.705 8.18,27 9,27 L24,27 C24.821,27 25.526,26.705 26.116,26.115 C26.705,25.525 27,24.82 27,24 L27,21.93 L33,15.93 L33,15.93 L33,15.93 L33,15.93 Z M18.75,22.56 L35.731,5.55 L31.651,1.44 L18.75,14.37 L14.34,9.96 L10.26,14.04 L18.75,22.56 L18.75,22.56 Z" id="Fill-69" sketch:type="MSShapeGroup"></path>
            </g>
        </g>
    </g>
</svg>