<?xml version="1.0" encoding="UTF-8" standalone="no"?>
<svg width="40px" height="40px" viewBox="0 0 40 40" version="1.1" xmlns="http://www.w3.org/2000/svg" xmlns:xlink="http://www.w3.org/1999/xlink" xmlns:sketch="http://www.bohemiancoding.com/sketch/ns">
    <!-- Generator: Sketch 3.2.2 (9983) - http://www.bohemiancoding.com/sketch -->
    <title>Caution</title>
    <desc>Created with Sketch.</desc>
    <defs></defs>
    <g id="Pipeline-Visualization-Wires" stroke="none" stroke-width="1" fill="none" fill-rule="evenodd" sketch:type="MSPage">
        <g id="Pipeline-Visualization-Enterprise-Level-(verify-hover)" sketch:type="MSArtboardGroup" transform="translate(-634.000000, -348.000000)" fill="#456A8D">
            <g id="Production" sketch:type="MSLayerGroup" transform="translate(579.000000, 294.000000)">
                <g id="Union" transform="translate(15.000000, 26.000000)" sketch:type="MSShapeGroup">
                    <g id="Rectangle-213-+-Deploying-delivery_a" transform="translate(0.000000, 18.000000)">
                        <path d="M52.282314,11.5773333 C54.7229752,10.5256667 57.2952066,10 60,10 C62.7038017,10 65.2770248,10.5256667 67.7180165,11.5773333 C70.1580165,12.629 72.2664463,14.05 74.0426446,15.841 C75.8181818,17.6313333 77.2280992,19.757 78.2707438,22.2186667 C79.3127273,24.6793333 79.8340496,27.2733333 79.8340496,30 C79.8340496,32.7273333 79.3127273,35.3206667 78.2707438,37.7813333 C77.2280992,40.2426667 75.8181818,42.3686667 74.0426446,44.159 C72.2664463,45.9506667 70.1580165,47.3716667 67.7180165,48.4226667 C65.2770248,49.4746667 62.7038017,50 60,50 C57.2952066,50 54.7229752,49.4746667 52.282314,48.4226667 C49.8419835,47.3716667 47.7335537,45.9506667 45.957686,44.159 C44.1821488,42.3686667 42.7722314,40.2426667 41.7289256,37.7813333 C40.686281,35.3206667 40.1659504,32.7273333 40.1659504,30 C40.1659504,27.2733333 40.686281,24.6793333 41.7289256,22.2186667 C42.7722314,19.757 44.1821488,17.6313333 45.957686,15.841 C47.7335537,14.05 49.8419835,12.629 52.282314,11.5773333 C52.282314,11.5773333 49.8419835,12.629 52.282314,11.5773333 L52.282314,11.5773333 L52.282314,11.5773333 Z M62.9563636,31.7676667 L64.9507438,21.3 C65.0413223,20.838 64.9507438,20.439 64.6753719,20.104 C64.3996694,19.7696667 64.0218182,19.6013333 63.5404959,19.6013333 L56.425124,19.6013333 C55.966281,19.6013333 55.6,19.7696667 55.3246281,20.104 C55.0495868,20.439 54.9580165,20.838 55.0495868,21.3 L57.0439669,31.7676667 C57.1352066,32.23 57.3814876,32.629 57.7834711,32.9636667 C58.1841322,33.2986667 58.6138843,33.466 59.0723967,33.466 L60.9276033,33.466 C61.3864463,33.466 61.8161983,33.2986667 62.2171901,32.9636667 C62.6185124,32.629 62.8647934,32.23 62.9563636,31.7676667 C62.9563636,31.7676667 62.8647934,32.23 62.9563636,31.7676667 L62.9563636,31.7676667 L62.9563636,31.7676667 Z M56.562314,40.3986667 L63.4373554,40.3986667 L63.4373554,36.9323333 L56.562314,36.9323333 L56.562314,36.9323333 L56.562314,40.3986667 L56.562314,40.3986667 Z" id="Caution"></path>
                    </g>
                </g>
            </g>
        </g>
    </g>
</svg>
