<?xml version="1.0" encoding="UTF-8" standalone="no"?>
<svg width="28px" height="28px" viewBox="0 0 28 28" version="1.1" xmlns="http://www.w3.org/2000/svg" xmlns:xlink="http://www.w3.org/1999/xlink">
    <!-- Generator: sketchtool 3.8.3 (29802) - http://www.bohemiancoding.com/sketch -->
    <title>449B808B-520D-423E-9815-4F72C497C778</title>
    <desc>Created with sketchtool.</desc>
    <defs>
        <polygon id="path-1" points="14.00015 28 28 28 28 0 14.00015 0 0.0003 0 0.0003 28 14.00015 28"></polygon>
    </defs>
    <g id="Change-Screens" stroke="none" stroke-width="1" fill="none" fill-rule="evenodd">
        <g id="Change-Details-Style-Helper" transform="translate(-325.000000, -604.000000)">
            <g id="Rehearsal---Disabled" transform="translate(325.000000, 604.000000)">
                <g id="Page-1">
                    <mask id="mask-2" fill="white">
                        <use xlink:href="#path-1"></use>
                    </mask>
                    <g id="Clip-2"></g>
                    <path d="M25.6663523,14 L25.6663523,24.2082909 C25.6663523,25.0136727 25.0137047,25.6663273 24.2083315,25.6663273 L3.79196847,25.6663273 C2.98659528,25.6663273 2.33292955,25.0136727 2.33292955,24.2082909 L2.33292955,14 L25.6663523,14 Z M16.1138728,9.33367273 L19.6754346,9.33367273 L17.2969874,11.6663273 L13.7344074,11.6663273 L16.1138728,9.33367273 Z M23.1280522,9.33367273 L26.6906322,9.33367273 L24.3132031,11.6663273 L20.749605,11.6663273 L23.1280522,9.33367273 Z M12.6541281,9.33367273 L10.2756808,11.6663273 L6.71208263,11.6663273 L9.09154805,9.33367273 L12.6541281,9.33367273 Z M9.69226888,4.77934545 L12.4963116,6.65585455 L9.00398535,7.35025455 L6.19790632,5.47170909 L9.69226888,4.77934545 Z M16.5812133,3.41396364 L19.3811833,5.28741818 L15.888857,5.98181818 L13.0858325,4.10632727 L16.5812133,3.41396364 Z M23.4620123,2.05061818 L26.2579096,3.92101818 L22.7645652,4.61541818 L19.9666315,2.74298182 L23.4620123,2.05061818 Z M28,5.10414545 L27.9908365,5.05425455 L26.8148491,0 L2.11707732,4.89541818 C0.888145033,5.13978182 0.0003,6.21803636 0.0003,7.4704 L0.0003,24.5005091 C0.0003,26.4330182 1.56726503,28 3.49975341,28 L24.4995284,28 C26.4320168,28 28,26.4330182 28,24.5005091 L28,8.16683636 L13.1428501,8.16683636 L28,5.10414545 Z" id="Fill-1" fill="#ACACAC" mask="url(#mask-2)"></path>
                </g>
            </g>
        </g>
    </g>
</svg>