<?xml version="1.0" encoding="UTF-8" standalone="no"?>
<svg width="22px" height="20px" viewBox="0 0 22 20" version="1.1" xmlns="http://www.w3.org/2000/svg" xmlns:xlink="http://www.w3.org/1999/xlink">
    <!-- Generator: sketchtool 3.8.3 (29802) - http://www.bohemiancoding.com/sketch -->
    <title>ADB7CEEF-70FA-4EB1-9350-2199CEAD6C10</title>
    <desc>Created with sketchtool.</desc>
    <defs></defs>
    <g id="Change-Screens" stroke="none" stroke-width="1" fill="none" fill-rule="evenodd">
        <g id="Change-Details-Style-Helper" transform="translate(-280.000000, -273.000000)" fill="#3F5364">
            <path d="M290.285714,282.857143 C290.285714,282.068448 290.006699,281.395092 289.448661,280.837054 C288.890622,280.279015 288.217266,280 287.428571,280 C286.639877,280 285.966521,280.279015 285.408482,280.837054 C284.850444,281.395092 284.571429,282.068448 284.571429,282.857143 C284.571429,283.645837 284.850444,284.319194 285.408482,284.877232 C285.966521,285.435271 286.639877,285.714286 287.428571,285.714286 C288.217266,285.714286 288.890622,285.435271 289.448661,284.877232 C290.006699,284.319194 290.285714,283.645837 290.285714,282.857143 L290.285714,282.857143 Z M298.857143,288.571429 C298.857143,288.184522 298.715775,287.849704 298.433036,287.566964 C298.150296,287.284225 297.815478,287.142857 297.428571,287.142857 C297.041665,287.142857 296.706847,287.284225 296.424107,287.566964 C296.141368,287.849704 296,288.184522 296,288.571429 C296,288.965776 296.139508,289.302454 296.418527,289.581473 C296.697546,289.860492 297.034224,290 297.428571,290 C297.822919,290 298.159597,289.860492 298.438616,289.581473 C298.717635,289.302454 298.857143,288.965776 298.857143,288.571429 L298.857143,288.571429 Z M298.857143,277.142857 C298.857143,276.75595 298.715775,276.421132 298.433036,276.138393 C298.150296,275.855653 297.815478,275.714286 297.428571,275.714286 C297.041665,275.714286 296.706847,275.855653 296.424107,276.138393 C296.141368,276.421132 296,276.75595 296,277.142857 C296,277.537204 296.139508,277.873883 296.418527,278.152902 C296.697546,278.431921 297.034224,278.571429 297.428571,278.571429 C297.822919,278.571429 298.159597,278.431921 298.438616,278.152902 C298.717635,277.873883 298.857143,277.537204 298.857143,277.142857 L298.857143,277.142857 Z M294.571429,281.841518 L294.571429,283.90625 C294.571429,283.980655 294.545387,284.053199 294.493304,284.123884 C294.44122,284.194569 294.381697,284.233631 294.314732,284.241071 L292.584821,284.508929 C292.502976,284.769347 292.383929,285.052082 292.227679,285.357143 C292.480656,285.714288 292.815474,286.142111 293.232143,286.640625 C293.284226,286.71503 293.310268,286.789434 293.310268,286.863839 C293.310268,286.953125 293.284226,287.023809 293.232143,287.075893 C293.061011,287.299108 292.754094,287.632066 292.311384,288.074777 C291.868673,288.517487 291.576638,288.738839 291.435268,288.738839 C291.353422,288.738839 291.275298,288.712798 291.200893,288.660714 L289.917411,287.65625 C289.642112,287.79762 289.355656,287.912946 289.058036,288.002232 C288.97619,288.805808 288.890625,289.382439 288.801339,289.732143 C288.749256,289.910715 288.63765,290 288.466518,290 L286.390625,290 C286.308779,290 286.234375,289.972098 286.167411,289.916295 C286.100446,289.860491 286.063244,289.795387 286.055804,289.720982 L285.799107,288.013393 C285.54613,287.938988 285.267115,287.823661 284.962054,287.667411 L283.645089,288.660714 C283.593006,288.712798 283.518602,288.738839 283.421875,288.738839 C283.340029,288.738839 283.261905,288.709078 283.1875,288.649554 C282.116066,287.659965 281.580357,287.064733 281.580357,286.863839 C281.580357,286.796875 281.606399,286.726191 281.658482,286.651786 C281.732887,286.547619 281.885416,286.350448 282.116071,286.060268 C282.346727,285.770088 282.521577,285.543156 282.640625,285.379464 C282.469493,285.052082 282.339286,284.747025 282.25,284.464286 L280.553571,284.196429 C280.479166,284.188988 280.415923,284.153646 280.363839,284.090402 C280.311756,284.027157 280.285714,283.954614 280.285714,283.872768 L280.285714,281.808036 C280.285714,281.733631 280.311756,281.661087 280.363839,281.590402 C280.415923,281.519717 280.475446,281.480655 280.542411,281.473214 L282.272321,281.205357 C282.354167,280.944939 282.473214,280.662204 282.629464,280.357143 C282.376487,279.999998 282.041669,279.572175 281.625,279.073661 C281.572916,278.991815 281.546875,278.917411 281.546875,278.850446 C281.546875,278.76116 281.572916,278.686756 281.625,278.627232 C281.788691,278.404017 282.093748,278.072919 282.540179,277.633929 C282.986609,277.194938 283.280505,276.975446 283.421875,276.975446 C283.503721,276.975446 283.581845,277.001488 283.65625,277.053571 L284.939732,278.058036 C285.19271,277.924106 285.479165,277.80506 285.799107,277.700893 C285.880953,276.897317 285.966517,276.324406 286.055804,275.982143 C286.107887,275.803571 286.219493,275.714286 286.390625,275.714286 L288.466518,275.714286 C288.548364,275.714286 288.622768,275.742187 288.689732,275.797991 C288.756697,275.853795 288.793899,275.918898 288.801339,275.993304 L289.058036,277.700893 C289.311013,277.775298 289.590028,277.890624 289.895089,278.046875 L291.212054,277.053571 C291.271578,277.001488 291.345982,276.975446 291.435268,276.975446 C291.517114,276.975446 291.595238,277.005208 291.669643,277.064732 C292.741077,278.05432 293.276786,278.649553 293.276786,278.850446 C293.276786,278.917411 293.250744,278.988095 293.198661,279.0625 C293.109375,279.181548 292.953126,279.382439 292.729911,279.665179 C292.506695,279.947918 292.339286,280.17113 292.227679,280.334821 C292.39881,280.691966 292.525297,280.997023 292.607143,281.25 L294.303571,281.506696 C294.377977,281.521577 294.44122,281.56064 294.493304,281.623884 C294.545387,281.687128 294.571429,281.759672 294.571429,281.841518 L294.571429,281.841518 Z M301.714286,287.790179 L301.714286,289.352679 C301.714286,289.471727 301.159976,289.587053 300.051339,289.698661 C299.962053,289.899555 299.850447,290.093005 299.716518,290.279018 C300.095984,291.119796 300.285714,291.633184 300.285714,291.819196 C300.285714,291.848958 300.270833,291.875 300.241071,291.897321 C299.333329,292.425598 298.872024,292.689732 298.857143,292.689732 C298.797619,292.689732 298.62649,292.514883 298.34375,292.165179 C298.06101,291.815474 297.86756,291.562501 297.763393,291.40625 C297.614583,291.421131 297.502977,291.428571 297.428571,291.428571 C297.354166,291.428571 297.24256,291.421131 297.09375,291.40625 C296.989583,291.562501 296.796132,291.815474 296.513393,292.165179 C296.230653,292.514883 296.059524,292.689732 296,292.689732 C295.985119,292.689732 295.523814,292.425598 294.616071,291.897321 C294.586309,291.875 294.571429,291.848958 294.571429,291.819196 C294.571429,291.633184 294.761159,291.119796 295.140625,290.279018 C295.006696,290.093005 294.89509,289.899555 294.805804,289.698661 C293.697167,289.587053 293.142857,289.471727 293.142857,289.352679 L293.142857,287.790179 C293.142857,287.67113 293.697167,287.555804 294.805804,287.444196 C294.90253,287.228422 295.014136,287.034971 295.140625,286.863839 C294.761159,286.023061 294.571429,285.509674 294.571429,285.323661 C294.571429,285.293899 294.586309,285.267857 294.616071,285.245536 C294.645833,285.230655 294.776041,285.156251 295.006696,285.022321 C295.237352,284.888392 295.456844,284.761905 295.665179,284.642857 C295.873513,284.523809 295.985119,284.464286 296,284.464286 C296.059524,284.464286 296.230653,284.637275 296.513393,284.983259 C296.796132,285.329243 296.989583,285.580356 297.09375,285.736607 C297.24256,285.721726 297.354166,285.714286 297.428571,285.714286 C297.502977,285.714286 297.614583,285.721726 297.763393,285.736607 C298.142859,285.208331 298.485118,284.791668 298.790179,284.486607 L298.857143,284.464286 C298.886905,284.464286 299.34821,284.7247 300.241071,285.245536 C300.270833,285.267857 300.285714,285.293899 300.285714,285.323661 C300.285714,285.509674 300.095984,286.023061 299.716518,286.863839 C299.843007,287.034971 299.954613,287.228422 300.051339,287.444196 C301.159976,287.555804 301.714286,287.67113 301.714286,287.790179 L301.714286,287.790179 Z M301.714286,276.361607 L301.714286,277.924107 C301.714286,278.043155 301.159976,278.158482 300.051339,278.270089 C299.962053,278.470983 299.850447,278.664434 299.716518,278.850446 C300.095984,279.691224 300.285714,280.204612 300.285714,280.390625 C300.285714,280.420387 300.270833,280.446428 300.241071,280.46875 C299.333329,280.997026 298.872024,281.261161 298.857143,281.261161 C298.797619,281.261161 298.62649,281.086311 298.34375,280.736607 C298.06101,280.386903 297.86756,280.133929 297.763393,279.977679 C297.614583,279.99256 297.502977,280 297.428571,280 C297.354166,280 297.24256,279.99256 297.09375,279.977679 C296.989583,280.133929 296.796132,280.386903 296.513393,280.736607 C296.230653,281.086311 296.059524,281.261161 296,281.261161 C295.985119,281.261161 295.523814,280.997026 294.616071,280.46875 C294.586309,280.446428 294.571429,280.420387 294.571429,280.390625 C294.571429,280.204612 294.761159,279.691224 295.140625,278.850446 C295.006696,278.664434 294.89509,278.470983 294.805804,278.270089 C293.697167,278.158482 293.142857,278.043155 293.142857,277.924107 L293.142857,276.361607 C293.142857,276.242559 293.697167,276.127233 294.805804,276.015625 C294.90253,275.79985 295.014136,275.6064 295.140625,275.435268 C294.761159,274.59449 294.571429,274.081102 294.571429,273.895089 C294.571429,273.865327 294.586309,273.839286 294.616071,273.816964 C294.645833,273.802083 294.776041,273.727679 295.006696,273.59375 C295.237352,273.459821 295.456844,273.333334 295.665179,273.214286 C295.873513,273.095237 295.985119,273.035714 296,273.035714 C296.059524,273.035714 296.230653,273.208704 296.513393,273.554688 C296.796132,273.900671 296.989583,274.151785 297.09375,274.308036 C297.24256,274.293155 297.354166,274.285714 297.428571,274.285714 C297.502977,274.285714 297.614583,274.293155 297.763393,274.308036 C298.142859,273.779759 298.485118,273.363097 298.790179,273.058036 L298.857143,273.035714 C298.886905,273.035714 299.34821,273.296128 300.241071,273.816964 C300.270833,273.839286 300.285714,273.865327 300.285714,273.895089 C300.285714,274.081102 300.095984,274.59449 299.716518,275.435268 C299.843007,275.6064 299.954613,275.79985 300.051339,276.015625 C301.159976,276.127233 301.714286,276.242559 301.714286,276.361607 L301.714286,276.361607 Z" id="Shape"></path>
        </g>
    </g>
</svg>