<?xml version="1.0" encoding="UTF-8" standalone="no"?>
<svg width="15px" height="14px" viewBox="0 0 15 14" version="1.1" xmlns="http://www.w3.org/2000/svg" xmlns:xlink="http://www.w3.org/1999/xlink">
    <!-- Generator: sketchtool 3.8.3 (29802) - http://www.bohemiancoding.com/sketch -->
    <title>91D4DF64-FC3C-43DD-9EB4-A79F36AB5148</title>
    <desc>Created with sketchtool.</desc>
    <defs></defs>
    <g id="Dashboard" stroke="none" stroke-width="1" fill="none" fill-rule="evenodd">
        <g id="dashboard-style-helper" transform="translate(-284.000000, -130.000000)" fill="#C4C4C4">
            <path d="M291,136.875 C291,136.322914 290.804689,135.851564 290.414062,135.460938 C290.023436,135.070311 289.552086,134.875 289,134.875 C288.447914,134.875 287.976564,135.070311 287.585938,135.460938 C287.195311,135.851564 287,136.322914 287,136.875 C287,137.427086 287.195311,137.898436 287.585938,138.289062 C287.976564,138.679689 288.447914,138.875 289,138.875 C289.552086,138.875 290.023436,138.679689 290.414062,138.289062 C290.804689,137.898436 291,137.427086 291,136.875 L291,136.875 Z M297,140.875 C297,140.604165 296.901043,140.369793 296.703125,140.171875 C296.505207,139.973957 296.270835,139.875 296,139.875 C295.729165,139.875 295.494793,139.973957 295.296875,140.171875 C295.098957,140.369793 295,140.604165 295,140.875 C295,141.151043 295.097655,141.386718 295.292969,141.582031 C295.488282,141.777345 295.723957,141.875 296,141.875 C296.276043,141.875 296.511718,141.777345 296.707031,141.582031 C296.902345,141.386718 297,141.151043 297,140.875 L297,140.875 Z M297,132.875 C297,132.604165 296.901043,132.369793 296.703125,132.171875 C296.505207,131.973957 296.270835,131.875 296,131.875 C295.729165,131.875 295.494793,131.973957 295.296875,132.171875 C295.098957,132.369793 295,132.604165 295,132.875 C295,133.151043 295.097655,133.386718 295.292969,133.582031 C295.488282,133.777345 295.723957,133.875 296,133.875 C296.276043,133.875 296.511718,133.777345 296.707031,133.582031 C296.902345,133.386718 297,133.151043 297,132.875 L297,132.875 Z M294,136.164062 L294,137.609375 C294,137.661459 293.981771,137.712239 293.945312,137.761719 C293.908854,137.811198 293.867188,137.838542 293.820312,137.84375 L292.609375,138.03125 C292.552083,138.213543 292.468751,138.411457 292.359375,138.625 C292.536459,138.875001 292.770832,139.174477 293.0625,139.523438 C293.098959,139.575521 293.117188,139.627604 293.117188,139.679688 C293.117188,139.742188 293.098959,139.791666 293.0625,139.828125 C292.942708,139.984376 292.727866,140.217446 292.417969,140.527344 C292.108071,140.837241 291.903646,140.992188 291.804688,140.992188 C291.747396,140.992188 291.692709,140.973959 291.640625,140.9375 L290.742188,140.234375 C290.549478,140.333334 290.348959,140.414062 290.140625,140.476562 C290.083333,141.039065 290.023438,141.442707 289.960938,141.6875 C289.924479,141.812501 289.846355,141.875 289.726562,141.875 L288.273438,141.875 C288.216146,141.875 288.164063,141.855469 288.117188,141.816406 C288.070312,141.777344 288.044271,141.731771 288.039062,141.679688 L287.859375,140.484375 C287.682291,140.432291 287.48698,140.351563 287.273438,140.242188 L286.351562,140.9375 C286.315104,140.973959 286.263021,140.992188 286.195312,140.992188 C286.138021,140.992188 286.083334,140.971354 286.03125,140.929688 C285.281246,140.236976 284.90625,139.820313 284.90625,139.679688 C284.90625,139.632812 284.924479,139.583334 284.960938,139.53125 C285.013021,139.458333 285.119791,139.320314 285.28125,139.117188 C285.442709,138.914061 285.565104,138.755209 285.648438,138.640625 C285.528645,138.411457 285.4375,138.197918 285.375,138 L284.1875,137.8125 C284.135416,137.807292 284.091146,137.782552 284.054688,137.738281 C284.018229,137.69401 284,137.643229 284,137.585938 L284,136.140625 C284,136.088541 284.018229,136.037761 284.054688,135.988281 C284.091146,135.938802 284.132812,135.911458 284.179688,135.90625 L285.390625,135.71875 C285.447917,135.536457 285.531249,135.338543 285.640625,135.125 C285.463541,134.874999 285.229168,134.575523 284.9375,134.226562 C284.901041,134.169271 284.882812,134.117188 284.882812,134.070312 C284.882812,134.007812 284.901041,133.955729 284.9375,133.914062 C285.052084,133.757812 285.265623,133.526043 285.578125,133.21875 C285.890627,132.911457 286.096354,132.757812 286.195312,132.757812 C286.252604,132.757812 286.307291,132.776041 286.359375,132.8125 L287.257812,133.515625 C287.434897,133.421875 287.635416,133.338542 287.859375,133.265625 C287.916667,132.703122 287.976562,132.302085 288.039062,132.0625 C288.075521,131.937499 288.153645,131.875 288.273438,131.875 L289.726562,131.875 C289.783854,131.875 289.835937,131.894531 289.882812,131.933594 C289.929688,131.972656 289.955729,132.018229 289.960938,132.070312 L290.140625,133.265625 C290.317709,133.317709 290.51302,133.398437 290.726562,133.507812 L291.648438,132.8125 C291.690104,132.776041 291.742187,132.757812 291.804688,132.757812 C291.861979,132.757812 291.916666,132.778646 291.96875,132.820312 C292.718754,133.513024 293.09375,133.929687 293.09375,134.070312 C293.09375,134.117188 293.075521,134.166666 293.039062,134.21875 C292.976562,134.302084 292.867188,134.442707 292.710938,134.640625 C292.554687,134.838543 292.4375,134.994791 292.359375,135.109375 C292.479167,135.359376 292.567708,135.572916 292.625,135.75 L293.8125,135.929688 C293.864584,135.940104 293.908854,135.967448 293.945312,136.011719 C293.981771,136.05599 294,136.106771 294,136.164062 L294,136.164062 Z M299,140.328125 L299,141.421875 C299,141.505209 298.611983,141.585937 297.835938,141.664062 C297.773437,141.804688 297.695313,141.940104 297.601562,142.070312 C297.867189,142.658857 298,143.018229 298,143.148438 C298,143.169271 297.989583,143.1875 297.96875,143.203125 C297.33333,143.572919 297.010417,143.757812 297,143.757812 C296.958333,143.757812 296.838543,143.635418 296.640625,143.390625 C296.442707,143.145832 296.307292,142.968751 296.234375,142.859375 C296.130208,142.869792 296.052084,142.875 296,142.875 C295.947916,142.875 295.869792,142.869792 295.765625,142.859375 C295.692708,142.968751 295.557293,143.145832 295.359375,143.390625 C295.161457,143.635418 295.041667,143.757812 295,143.757812 C294.989583,143.757812 294.66667,143.572919 294.03125,143.203125 C294.010417,143.1875 294,143.169271 294,143.148438 C294,143.018229 294.132811,142.658857 294.398438,142.070312 C294.304687,141.940104 294.226563,141.804688 294.164062,141.664062 C293.388017,141.585937 293,141.505209 293,141.421875 L293,140.328125 C293,140.244791 293.388017,140.164063 294.164062,140.085938 C294.231771,139.934895 294.309895,139.79948 294.398438,139.679688 C294.132811,139.091143 294,138.731771 294,138.601562 C294,138.580729 294.010417,138.5625 294.03125,138.546875 C294.052083,138.536458 294.143228,138.484375 294.304688,138.390625 C294.466147,138.296875 294.619791,138.208334 294.765625,138.125 C294.911459,138.041666 294.989583,138 295,138 C295.041667,138 295.161457,138.121093 295.359375,138.363281 C295.557293,138.60547 295.692708,138.781249 295.765625,138.890625 C295.869792,138.880208 295.947916,138.875 296,138.875 C296.052084,138.875 296.130208,138.880208 296.234375,138.890625 C296.500001,138.520831 296.739582,138.229168 296.953125,138.015625 L297,138 C297.020833,138 297.343747,138.18229 297.96875,138.546875 C297.989583,138.5625 298,138.580729 298,138.601562 C298,138.731771 297.867189,139.091143 297.601562,139.679688 C297.690105,139.79948 297.768229,139.934895 297.835938,140.085938 C298.611983,140.164063 299,140.244791 299,140.328125 L299,140.328125 Z M299,132.328125 L299,133.421875 C299,133.505209 298.611983,133.585937 297.835938,133.664062 C297.773437,133.804688 297.695313,133.940104 297.601562,134.070312 C297.867189,134.658857 298,135.018229 298,135.148438 C298,135.169271 297.989583,135.1875 297.96875,135.203125 C297.33333,135.572919 297.010417,135.757812 297,135.757812 C296.958333,135.757812 296.838543,135.635418 296.640625,135.390625 C296.442707,135.145832 296.307292,134.968751 296.234375,134.859375 C296.130208,134.869792 296.052084,134.875 296,134.875 C295.947916,134.875 295.869792,134.869792 295.765625,134.859375 C295.692708,134.968751 295.557293,135.145832 295.359375,135.390625 C295.161457,135.635418 295.041667,135.757812 295,135.757812 C294.989583,135.757812 294.66667,135.572919 294.03125,135.203125 C294.010417,135.1875 294,135.169271 294,135.148438 C294,135.018229 294.132811,134.658857 294.398438,134.070312 C294.304687,133.940104 294.226563,133.804688 294.164062,133.664062 C293.388017,133.585937 293,133.505209 293,133.421875 L293,132.328125 C293,132.244791 293.388017,132.164063 294.164062,132.085938 C294.231771,131.934895 294.309895,131.79948 294.398438,131.679688 C294.132811,131.091143 294,130.731771 294,130.601562 C294,130.580729 294.010417,130.5625 294.03125,130.546875 C294.052083,130.536458 294.143228,130.484375 294.304688,130.390625 C294.466147,130.296875 294.619791,130.208334 294.765625,130.125 C294.911459,130.041666 294.989583,130 295,130 C295.041667,130 295.161457,130.121093 295.359375,130.363281 C295.557293,130.60547 295.692708,130.781249 295.765625,130.890625 C295.869792,130.880208 295.947916,130.875 296,130.875 C296.052084,130.875 296.130208,130.880208 296.234375,130.890625 C296.500001,130.520831 296.739582,130.229168 296.953125,130.015625 L297,130 C297.020833,130 297.343747,130.18229 297.96875,130.546875 C297.989583,130.5625 298,130.580729 298,130.601562 C298,130.731771 297.867189,131.091143 297.601562,131.679688 C297.690105,131.79948 297.768229,131.934895 297.835938,132.085938 C298.611983,132.164063 299,132.244791 299,132.328125 L299,132.328125 Z" id="-copy-4"></path>
        </g>
    </g>
</svg>