<?xml version="1.0" encoding="UTF-8" standalone="no"?>
<svg width="20px" height="20px" viewBox="0 0 20 20" version="1.1" xmlns="http://www.w3.org/2000/svg" xmlns:xlink="http://www.w3.org/1999/xlink" xmlns:sketch="http://www.bohemiancoding.com/sketch/ns">
    <!-- Generator: Sketch 3.2.2 (9983) - http://www.bohemiancoding.com/sketch -->
    <title>Icon/Success/small</title>
    <desc>Created with Sketch.</desc>
    <defs></defs>
    <g id="Change" stroke="none" stroke-width="1" fill="none" fill-rule="evenodd" sketch:type="MSPage">
        <g id="Group" sketch:type="MSLayerGroup" transform="translate(-305.000000, -6.000000)" fill="#456A8D">
            <g id="Group-14" transform="translate(253.000000, 0.000000)" sketch:type="MSShapeGroup">
                <g id="Icon/Success/small" transform="translate(52.000000, 6.000000)">
                    <path d="M6.14115702,0.788666667 C7.3614876,0.262833333 8.64760331,0 10,0 C11.3519008,0 12.6385124,0.262833333 13.8590083,0.788666667 C15.0790083,1.3145 16.1332231,2.025 17.0213223,2.9205 C17.9090909,3.81566667 18.6140496,4.8785 19.1353719,6.10933333 C19.6563636,7.33966667 19.9170248,8.63666667 19.9170248,10 C19.9170248,11.3636667 19.6563636,12.6603333 19.1353719,13.8906667 C18.6140496,15.1213333 17.9090909,16.1843333 17.0213223,17.0795 C16.1332231,17.9753333 15.0790083,18.6858333 13.8590083,19.2113333 C12.6385124,19.7373333 11.3519008,20 10,20 C8.64760331,20 7.3614876,19.7373333 6.14115702,19.2113333 C4.92099174,18.6858333 3.86677686,17.9753333 2.97884298,17.0795 C2.09107438,16.1843333 1.3861157,15.1213333 0.86446281,13.8906667 C0.343140496,12.6603333 0.0829752066,11.3636667 0.0829752066,10 C0.0829752066,8.63666667 0.343140496,7.33966667 0.86446281,6.10933333 C1.3861157,4.8785 2.09107438,3.81566667 2.97884298,2.9205 C3.86677686,2.025 4.92099174,1.3145 6.14115702,0.788666667 C6.14115702,0.788666667 4.92099174,1.3145 6.14115702,0.788666667 Z M9.7655309,12.0044647 C9.79760176,11.8240108 9.81432393,11.6383597 9.81432393,11.4488636 C9.81432393,11.3026425 9.8043673,11.1587107 9.78508506,11.0176895 L10.0242067,10.9412008 L10.5291925,10.7796692 L10.2010329,9.78538283 L9.69604709,9.94691445 L9.47248965,10.0184246 C9.31853522,9.71543124 9.11719731,9.43983265 8.87803819,9.2010426 L8.87803819,9.2010426 L9.01181445,9.01977492 L9.32391282,8.59687967 L8.46477973,7.9823769 L8.15268136,8.40527215 L8.0194385,8.58581707 C7.7185183,8.43707529 7.39090856,8.33296038 7.0455697,8.28229358 L7.0455697,8.05113636 L7.0455697,7.52840909 L5.9836228,7.52840909 L5.9836228,8.05113636 L5.9836228,8.29765869 C5.64680053,8.35718899 5.32797626,8.46777431 5.03570998,8.62098759 L4.87651113,8.40527215 L4.56441277,7.9823769 L3.70527968,8.59687967 L4.01737804,9.01977492 L4.19202612,9.25642416 C3.96982705,9.48913438 3.78259146,9.7545746 3.63857812,10.0446143 L3.3331454,9.94691445 L2.82815964,9.78538283 L2.5,10.7796692 L3.00498576,10.9412008 L3.33528845,11.0468559 C3.31853208,11.1785391 3.30989915,11.3127089 3.30989915,11.4488636 C3.30989915,11.6282925 3.32489175,11.804274 3.35371092,11.9756603 L3.00498576,12.0872083 L2.5,12.2487399 L2.82815964,13.2430263 L3.3331454,13.0814946 L3.69699593,12.9651085 C3.84456103,13.2347885 4.03026495,13.4812508 4.24699861,13.6974969 L4.01737804,14.0086342 L3.70527968,14.4315294 L4.56441277,15.0460322 L4.87651113,14.6231369 L5.10582011,14.3124218 C5.37871491,14.4471907 5.67354206,14.5452646 5.9836228,14.6000686 L5.9836228,14.9772727 L5.9836228,15.5 L7.0455697,15.5 L7.0455697,14.9772727 L7.0455697,14.6154337 L7.0455697,14.6154337 C7.363842,14.568738 7.66705538,14.476644 7.94819546,14.3460573 L8.15268136,14.6231369 L8.46477973,15.0460322 L9.32391282,14.4315294 L9.01181445,14.0086342 L8.82194356,13.7513579 L8.82194356,13.7513579 C9.05538096,13.5292594 9.25513828,13.2730692 9.41293865,12.9909357 L9.69604709,13.0814946 L10.2010329,13.2430263 L10.5291925,12.2487399 L10.0242067,12.0872083 L9.7655309,12.0044647 L9.7655309,12.0044647 Z M16.6681858,8.47605563 C16.7002566,8.29560172 16.7169788,8.10995064 16.7169788,7.92045455 C16.7169788,7.77423338 16.7070222,7.63030159 16.6877399,7.48928042 L16.6877399,7.48928042 L16.9268616,7.41279171 L17.4318474,7.2512601 L17.1036877,6.25697374 L16.598702,6.41850535 L16.3751445,6.49001548 C16.2211901,6.18702214 16.0198522,5.91142356 15.7806931,5.67263351 L15.7806931,5.67263351 L15.9144693,5.49136582 L16.2265677,5.06847058 L15.3674346,4.45396781 L15.0553362,4.87686306 L14.9220934,5.05740798 C14.6211732,4.9086662 14.2935634,4.80455128 13.9482246,4.75388449 L13.9482246,4.52272727 L13.9482246,4 L12.8862777,4 L12.8862777,4.52272727 L12.8862777,4.7692496 C12.5494554,4.8287799 12.2306311,4.93936522 11.9383648,5.0925785 L11.779166,4.87686306 L11.4670676,4.45396781 L10.6079345,5.06847058 L10.9200329,5.49136582 L11.094681,5.72801507 C10.8724819,5.96072529 10.6852463,6.22616551 10.541233,6.51620522 L10.2358003,6.41850535 L9.73081451,6.25697374 L9.40265487,7.2512601 L9.90764063,7.41279171 L10.2379433,7.51844682 C10.2211869,7.65013001 10.212554,7.78429977 10.212554,7.92045455 C10.212554,8.0998834 10.2275466,8.27586492 10.2563658,8.44725123 L9.90764063,8.5587992 L9.40265487,8.72033081 L9.73081451,9.71461717 L10.2358003,9.55308555 L10.5996508,9.43669938 C10.7472159,9.7063794 10.9329198,9.95284175 11.1496535,10.1690878 L10.9200329,10.4802251 L10.6079345,10.9031203 L11.4670676,11.5176231 L11.779166,11.0947278 L12.008475,10.7840127 C12.2813698,10.9187816 12.5761969,11.0168555 12.8862777,11.0716595 L12.8862777,11.4488636 L12.8862777,11.9715909 L13.9482246,11.9715909 L13.9482246,11.4488636 L13.9482246,11.0870246 L13.9482246,11.0870246 C14.2664969,11.0403289 14.5697102,10.948235 14.8508503,10.8176482 L15.0553362,11.0947278 L15.3674346,11.5176231 L16.2265677,10.9031203 L15.9144693,10.4802251 L15.7245984,10.2229488 L15.7245984,10.2229488 C15.9580358,10.0008503 16.1577931,9.74466012 16.3155935,9.46252664 L16.598702,9.55308555 L17.1036877,9.71461717 L17.4318474,8.72033081 L16.9268616,8.5587992 L16.6681858,8.47605563 L16.6681858,8.47605563 Z M6.54867257,10.2727273 L7.44037802,10.6363475 L7.80973451,11.5142045 L7.44037802,12.3920615 L6.54867257,12.7556818 L5.65696711,12.3920615 L5.28761062,11.5142045 L5.65696711,10.6363475 L6.54867257,10.2727273 Z M13.4513274,6.74431818 L14.3430329,7.10793846 L14.7123894,7.98579545 L14.3430329,8.86365245 L13.4513274,9.22727273 L12.559622,8.86365245 L12.1902655,7.98579545 L12.559622,7.10793846 L13.4513274,6.74431818 Z" id="Path-2"></path>
                </g>
            </g>
        </g>
    </g>
</svg>