<?xml version="1.0" encoding="UTF-8" standalone="no"?>
<svg width="17px" height="15px" viewBox="0 0 17 15" version="1.1" xmlns="http://www.w3.org/2000/svg" xmlns:xlink="http://www.w3.org/1999/xlink">
    <!-- Generator: sketchtool 3.8.3 (29802) - http://www.bohemiancoding.com/sketch -->
    <title>0AA804D5-C002-4712-BF50-3E120AC479A8</title>
    <desc>Created with sketchtool.</desc>
    <defs></defs>
    <g id="Change-Screens" stroke="none" stroke-width="1" fill="none" fill-rule="evenodd">
        <g id="Change-Details-Style-Helper" transform="translate(-323.000000, -276.000000)" fill="#3F5364">
            <path d="M330.964286,283.642857 C330.964286,283.051336 330.755024,282.546319 330.336496,282.12779 C329.917967,281.709261 329.412949,281.5 328.821429,281.5 C328.229908,281.5 327.72489,281.709261 327.306362,282.12779 C326.887833,282.546319 326.678571,283.051336 326.678571,283.642857 C326.678571,284.234378 326.887833,284.739395 327.306362,285.157924 C327.72489,285.576453 328.229908,285.785714 328.821429,285.785714 C329.412949,285.785714 329.917967,285.576453 330.336496,285.157924 C330.755024,284.739395 330.964286,284.234378 330.964286,283.642857 L330.964286,283.642857 Z M337.392857,287.928571 C337.392857,287.638391 337.286831,287.387278 337.074777,287.175223 C336.862722,286.963169 336.611609,286.857143 336.321429,286.857143 C336.031249,286.857143 335.780135,286.963169 335.56808,287.175223 C335.356026,287.387278 335.25,287.638391 335.25,287.928571 C335.25,288.224332 335.354631,288.47684 335.563895,288.686105 C335.77316,288.895369 336.025668,289 336.321429,289 C336.617189,289 336.869698,288.895369 337.078962,288.686105 C337.288226,288.47684 337.392857,288.224332 337.392857,287.928571 L337.392857,287.928571 Z M337.392857,279.357143 C337.392857,279.066963 337.286831,278.815849 337.074777,278.603795 C336.862722,278.39174 336.611609,278.285714 336.321429,278.285714 C336.031249,278.285714 335.780135,278.39174 335.56808,278.603795 C335.356026,278.815849 335.25,279.066963 335.25,279.357143 C335.25,279.652903 335.354631,279.905412 335.563895,280.114676 C335.77316,280.323941 336.025668,280.428571 336.321429,280.428571 C336.617189,280.428571 336.869698,280.323941 337.078962,280.114676 C337.288226,279.905412 337.392857,279.652903 337.392857,279.357143 L337.392857,279.357143 Z M334.178571,282.881138 L334.178571,284.429688 C334.178571,284.485491 334.15904,284.539899 334.119978,284.592913 C334.080915,284.645927 334.036273,284.675223 333.986049,284.680804 L332.688616,284.881696 C332.627232,285.07701 332.537947,285.289061 332.420759,285.517857 C332.610492,285.785716 332.861606,286.106583 333.174107,286.480469 C333.21317,286.536273 333.232701,286.592076 333.232701,286.647879 C333.232701,286.714844 333.21317,286.767857 333.174107,286.80692 C333.045758,286.974331 332.815571,287.22405 332.483538,287.556083 C332.151505,287.888115 331.932478,288.054129 331.826451,288.054129 C331.765067,288.054129 331.706473,288.034598 331.65067,287.995536 L330.688058,287.242188 C330.481584,287.348215 330.266742,287.434709 330.043527,287.501674 C329.982143,288.104356 329.917969,288.536829 329.851004,288.799107 C329.811942,288.933036 329.728237,289 329.599888,289 L328.042969,289 C327.981585,289 327.925782,288.979074 327.875558,288.937221 C327.825335,288.895368 327.797433,288.84654 327.791853,288.790737 L327.59933,287.510045 C327.409597,287.454241 327.200336,287.367746 326.97154,287.250558 L325.983817,287.995536 C325.944754,288.034598 325.888951,288.054129 325.816406,288.054129 C325.755022,288.054129 325.696429,288.031808 325.640625,287.987165 C324.83705,287.244974 324.435268,286.79855 324.435268,286.647879 C324.435268,286.597656 324.454799,286.544643 324.493862,286.488839 C324.549665,286.410714 324.664062,286.262836 324.837054,286.045201 C325.010046,285.827566 325.141183,285.657367 325.230469,285.534598 C325.10212,285.289061 325.004465,285.060269 324.9375,284.848214 L323.665179,284.647321 C323.609375,284.641741 323.561942,284.615235 323.522879,284.567801 C323.483817,284.520368 323.464286,284.46596 323.464286,284.404576 L323.464286,282.856027 C323.464286,282.800223 323.483817,282.745815 323.522879,282.692801 C323.561942,282.639788 323.606585,282.610491 323.656808,282.604911 L324.954241,282.404018 C325.015625,282.208704 325.10491,281.996653 325.222098,281.767857 C325.032365,281.499999 324.781252,281.179131 324.46875,280.805246 C324.429687,280.743861 324.410156,280.688058 324.410156,280.637835 C324.410156,280.57087 324.429687,280.515067 324.46875,280.470424 C324.591518,280.303013 324.820311,280.054689 325.155134,279.725446 C325.489957,279.396204 325.710379,279.231585 325.816406,279.231585 C325.87779,279.231585 325.936384,279.251116 325.992188,279.290179 L326.954799,280.043527 C327.144532,279.94308 327.359374,279.853795 327.59933,279.77567 C327.660715,279.172988 327.724888,278.743305 327.791853,278.486607 C327.830915,278.352678 327.91462,278.285714 328.042969,278.285714 L329.599888,278.285714 C329.661273,278.285714 329.717076,278.30664 329.767299,278.348493 C329.817523,278.390346 329.845424,278.439174 329.851004,278.494978 L330.043527,279.77567 C330.23326,279.831473 330.442521,279.917968 330.671317,280.035156 L331.65904,279.290179 C331.703683,279.251116 331.759486,279.231585 331.826451,279.231585 C331.887835,279.231585 331.946428,279.253906 332.002232,279.298549 C332.805808,280.04074 333.207589,280.487164 333.207589,280.637835 C333.207589,280.688058 333.188058,280.741071 333.148996,280.796875 C333.082031,280.886161 332.964845,281.036829 332.797433,281.248884 C332.630021,281.460939 332.504465,281.628348 332.420759,281.751116 C332.549108,282.018975 332.643973,282.247767 332.705357,282.4375 L333.977679,282.630022 C334.033482,282.641183 334.080915,282.67048 334.119978,282.717913 C334.15904,282.765346 334.178571,282.819754 334.178571,282.881138 L334.178571,282.881138 Z M339.535714,287.342634 L339.535714,288.514509 C339.535714,288.603795 339.119982,288.69029 338.288504,288.773996 C338.22154,288.924666 338.137835,289.069754 338.037388,289.209263 C338.321988,289.839847 338.464286,290.224888 338.464286,290.364397 C338.464286,290.386719 338.453125,290.40625 338.430804,290.422991 C337.749997,290.819198 337.404018,291.017299 337.392857,291.017299 C337.348214,291.017299 337.219867,290.886162 337.007812,290.623884 C336.795758,290.361606 336.65067,290.171876 336.572545,290.054688 C336.460937,290.065848 336.377232,290.071429 336.321429,290.071429 C336.265625,290.071429 336.18192,290.065848 336.070312,290.054688 C335.992187,290.171876 335.847099,290.361606 335.635045,290.623884 C335.42299,290.886162 335.294643,291.017299 335.25,291.017299 C335.238839,291.017299 334.892861,290.819198 334.212054,290.422991 C334.189732,290.40625 334.178571,290.386719 334.178571,290.364397 C334.178571,290.224888 334.320869,289.839847 334.605469,289.209263 C334.505022,289.069754 334.421317,288.924666 334.354353,288.773996 C333.522875,288.69029 333.107143,288.603795 333.107143,288.514509 L333.107143,287.342634 C333.107143,287.253348 333.522875,287.166853 334.354353,287.083147 C334.426898,286.921316 334.510602,286.776228 334.605469,286.647879 C334.320869,286.017296 334.178571,285.632255 334.178571,285.492746 C334.178571,285.470424 334.189732,285.450893 334.212054,285.434152 C334.234375,285.422991 334.33203,285.367188 334.505022,285.266741 C334.678014,285.166294 334.842633,285.071429 334.998884,284.982143 C335.155135,284.892857 335.238839,284.848214 335.25,284.848214 C335.294643,284.848214 335.42299,284.977956 335.635045,285.237444 C335.847099,285.496932 335.992187,285.685267 336.070312,285.802455 C336.18192,285.791295 336.265625,285.785714 336.321429,285.785714 C336.377232,285.785714 336.460937,285.791295 336.572545,285.802455 C336.857144,285.406248 337.113838,285.093751 337.342634,284.864955 L337.392857,284.848214 C337.415179,284.848214 337.761157,285.043525 338.430804,285.434152 C338.453125,285.450893 338.464286,285.470424 338.464286,285.492746 C338.464286,285.632255 338.321988,286.017296 338.037388,286.647879 C338.132255,286.776228 338.215959,286.921316 338.288504,287.083147 C339.119982,287.166853 339.535714,287.253348 339.535714,287.342634 L339.535714,287.342634 Z M339.535714,278.771205 L339.535714,279.94308 C339.535714,280.032367 339.119982,280.118861 338.288504,280.202567 C338.22154,280.353237 338.137835,280.498325 338.037388,280.637835 C338.321988,281.268418 338.464286,281.653459 338.464286,281.792969 C338.464286,281.81529 338.453125,281.834821 338.430804,281.851562 C337.749997,282.24777 337.404018,282.445871 337.392857,282.445871 C337.348214,282.445871 337.219867,282.314733 337.007812,282.052455 C336.795758,281.790177 336.65067,281.600447 336.572545,281.483259 C336.460937,281.49442 336.377232,281.5 336.321429,281.5 C336.265625,281.5 336.18192,281.49442 336.070312,281.483259 C335.992187,281.600447 335.847099,281.790177 335.635045,282.052455 C335.42299,282.314733 335.294643,282.445871 335.25,282.445871 C335.238839,282.445871 334.892861,282.24777 334.212054,281.851562 C334.189732,281.834821 334.178571,281.81529 334.178571,281.792969 C334.178571,281.653459 334.320869,281.268418 334.605469,280.637835 C334.505022,280.498325 334.421317,280.353237 334.354353,280.202567 C333.522875,280.118861 333.107143,280.032367 333.107143,279.94308 L333.107143,278.771205 C333.107143,278.681919 333.522875,278.595425 334.354353,278.511719 C334.426898,278.349888 334.510602,278.2048 334.605469,278.076451 C334.320869,277.445867 334.178571,277.060827 334.178571,276.921317 C334.178571,276.898995 334.189732,276.879464 334.212054,276.862723 C334.234375,276.851562 334.33203,276.795759 334.505022,276.695312 C334.678014,276.594866 334.842633,276.5 334.998884,276.410714 C335.155135,276.321428 335.238839,276.276786 335.25,276.276786 C335.294643,276.276786 335.42299,276.406528 335.635045,276.666016 C335.847099,276.925504 335.992187,277.113839 336.070312,277.231027 C336.18192,277.219866 336.265625,277.214286 336.321429,277.214286 C336.377232,277.214286 336.460937,277.219866 336.572545,277.231027 C336.857144,276.834819 337.113838,276.522323 337.342634,276.293527 L337.392857,276.276786 C337.415179,276.276786 337.761157,276.472096 338.430804,276.862723 C338.453125,276.879464 338.464286,276.898995 338.464286,276.921317 C338.464286,277.060827 338.321988,277.445867 338.037388,278.076451 C338.132255,278.2048 338.215959,278.349888 338.288504,278.511719 C339.119982,278.595425 339.535714,278.681919 339.535714,278.771205 L339.535714,278.771205 Z" id="-copy"></path>
        </g>
    </g>
</svg>