<?xml version="1.0" encoding="UTF-8" standalone="no"?>
<svg width="20px" height="20px" viewBox="0 0 20 20" version="1.1" xmlns="http://www.w3.org/2000/svg" xmlns:xlink="http://www.w3.org/1999/xlink" xmlns:sketch="http://www.bohemiancoding.com/sketch/ns">
    <!-- Generator: Sketch 3.3 (11970) - http://www.bohemiancoding.com/sketch -->
    <title>Small Success 2</title>
    <desc>Created with Sketch.</desc>
    <defs></defs>
    <g id="Change-Status-Progression" stroke="none" stroke-width="1" fill="none" fill-rule="evenodd" sketch:type="MSPage">
        <g id="Phase-4" sketch:type="MSArtboardGroup" transform="translate(-76.000000, -528.000000)" fill="#DDDDDD">
            <g id="Patchset-4" sketch:type="MSLayerGroup" transform="translate(60.000000, 478.000000)">
                <g id="Verify" transform="translate(0.000000, 39.000000)" sketch:type="MSShapeGroup">
                    <g id="Small-Success-2" transform="translate(16.000000, 11.000000)">
                        <path d="M4.9835,1.34033333 C6.5185,0.446833333 8.19066667,0 10,0 C11.8091667,0 13.4808333,0.446833333 15.0163333,1.34033333 C16.5516667,2.2335 17.7665,3.448 18.6598333,4.98333333 C19.5528333,6.51866667 20,8.19083333 20,10 C20,11.8091667 19.5528333,13.4815 18.6598333,15.0166667 C17.7665,16.5523333 16.5516667,17.7666667 15.0163333,18.6596667 C13.4808333,19.5533333 11.8091667,20 10,20 C8.19066667,20 6.5185,19.5533333 4.9835,18.6596667 C3.4475,17.7666667 2.23333333,16.5523333 1.34016667,15.0166667 C0.446333333,13.4815 0,11.8091667 0,10 C0,8.19083333 0.446333333,6.51866667 1.34016667,4.98333333 C2.23333333,3.448 3.4475,2.2335 4.9835,1.34033333 C4.9835,1.34033333 3.4475,2.2335 4.9835,1.34033333 L4.9835,1.34033333 L4.9835,1.34033333 Z M4.14309346,7.47950819 L4.1427399,12.5250686 L15.8689274,12.5253043 L15.8572601,7.49176471 L4.14309346,7.47950819 Z" id="Error"></path>
                    </g>
                </g>
            </g>
        </g>
    </g>
</svg>