<?xml version="1.0" encoding="UTF-8" standalone="no"?>
<svg width="13px" height="14px" viewBox="0 0 13 14" version="1.1" xmlns="http://www.w3.org/2000/svg" xmlns:xlink="http://www.w3.org/1999/xlink">
    <!-- Generator: sketchtool 3.8.3 (29802) - http://www.bohemiancoding.com/sketch -->
    <title>3AAD1506-FFAB-4123-BD00-65CEC70FE389</title>
    <desc>Created with sketchtool.</desc>
    <defs></defs>
    <g id="Change-Screens" stroke="none" stroke-width="1" fill="none" fill-rule="evenodd">
        <g id="Change-Details-Style-Helper" transform="translate(-324.000000, -163.000000)" fill="#C4C4C4">
            <path d="M334.178571,170.178571 L334.178571,169.107143 C334.178571,168.962053 334.125559,168.836496 334.019531,168.730469 C333.913504,168.624441 333.787947,168.571429 333.642857,168.571429 L327.214286,168.571429 C327.069196,168.571429 326.943639,168.624441 326.837612,168.730469 C326.731584,168.836496 326.678571,168.962053 326.678571,169.107143 L326.678571,170.178571 C326.678571,170.323661 326.731584,170.449218 326.837612,170.555246 C326.943639,170.661273 327.069196,170.714286 327.214286,170.714286 L333.642857,170.714286 C333.787947,170.714286 333.913504,170.661273 334.019531,170.555246 C334.125559,170.449218 334.178571,170.323661 334.178571,170.178571 L334.178571,170.178571 Z M336.857143,169.642857 C336.857143,170.809158 336.569757,171.884761 335.994978,172.869699 C335.420198,173.854637 334.640351,174.634484 333.655413,175.209263 C332.670475,175.784043 331.594872,176.071429 330.428571,176.071429 C329.262271,176.071429 328.186668,175.784043 327.20173,175.209263 C326.216792,174.634484 325.436945,173.854637 324.862165,172.869699 C324.287386,171.884761 324,170.809158 324,169.642857 C324,168.476557 324.287386,167.400954 324.862165,166.416016 C325.436945,165.431078 326.216792,164.651231 327.20173,164.076451 C328.186668,163.501671 329.262271,163.214286 330.428571,163.214286 C331.594872,163.214286 332.670475,163.501671 333.655413,164.076451 C334.640351,164.651231 335.420198,165.431078 335.994978,166.416016 C336.569757,167.400954 336.857143,168.476557 336.857143,169.642857 L336.857143,169.642857 Z" id="-copy-2"></path>
        </g>
    </g>
</svg>