<?xml version="1.0" encoding="UTF-8" standalone="no"?>
<svg width="18px" height="18px" viewBox="0 0 18 18" version="1.1" xmlns="http://www.w3.org/2000/svg" xmlns:xlink="http://www.w3.org/1999/xlink">
    <!-- Generator: sketchtool 3.8.3 (29802) - http://www.bohemiancoding.com/sketch -->
    <title>CC4FB3D5-79C8-492B-B248-69B286FF1AF2</title>
    <desc>Created with sketchtool.</desc>
    <defs></defs>
    <g id="Change-Screens" stroke="none" stroke-width="1" fill="none" fill-rule="evenodd">
        <g id="Change-Details-Style-Helper" transform="translate(-282.000000, -159.000000)" fill="#C4C4C4">
            <path d="M295.571429,168.571429 L295.571429,167.142857 C295.571429,166.949404 295.500745,166.781995 295.359375,166.640625 C295.218005,166.499255 295.050596,166.428571 294.857143,166.428571 L286.285714,166.428571 C286.092261,166.428571 285.924852,166.499255 285.783482,166.640625 C285.642112,166.781995 285.571429,166.949404 285.571429,167.142857 L285.571429,168.571429 C285.571429,168.764882 285.642112,168.932291 285.783482,169.073661 C285.924852,169.21503 286.092261,169.285714 286.285714,169.285714 L294.857143,169.285714 C295.050596,169.285714 295.218005,169.21503 295.359375,169.073661 C295.500745,168.932291 295.571429,168.764882 295.571429,168.571429 L295.571429,168.571429 Z M299.142857,167.857143 C299.142857,169.41221 298.759676,170.846348 297.993304,172.159598 C297.226931,173.472849 296.187135,174.512645 294.873884,175.279018 C293.560633,176.045391 292.126496,176.428571 290.571429,176.428571 C289.016361,176.428571 287.582224,176.045391 286.268973,175.279018 C284.955723,174.512645 283.915926,173.472849 283.149554,172.159598 C282.383181,170.846348 282,169.41221 282,167.857143 C282,166.302076 282.383181,164.867938 283.149554,163.554688 C283.915926,162.241437 284.955723,161.201641 286.268973,160.435268 C287.582224,159.668895 289.016361,159.285714 290.571429,159.285714 C292.126496,159.285714 293.560633,159.668895 294.873884,160.435268 C296.187135,161.201641 297.226931,162.241437 297.993304,163.554688 C298.759676,164.867938 299.142857,166.302076 299.142857,167.857143 L299.142857,167.857143 Z" id="Shape"></path>
        </g>
    </g>
</svg>