<?xml version="1.0" encoding="UTF-8" standalone="no"?>
<svg width="40px" height="43px" viewBox="0 0 40 43" version="1.1" xmlns="http://www.w3.org/2000/svg" xmlns:xlink="http://www.w3.org/1999/xlink" xmlns:sketch="http://www.bohemiancoding.com/sketch/ns">
    <!-- Generator: Sketch 3.3 (11970) - http://www.bohemiancoding.com/sketch -->
    <title>Thumbs_up_font_awesome</title>
    <desc>Created with Sketch.</desc>
    <defs></defs>
    <g id="Page-1" stroke="none" stroke-width="1" fill="none" fill-rule="evenodd" sketch:type="MSPage">
        <g id="Artboard-7" sketch:type="MSArtboardGroup" transform="translate(-456.000000, -216.000000)">
            <g id="Thumbs_up_font_awesome" sketch:type="MSLayerGroup" transform="translate(456.000000, 215.000000)">
                <g id="g3890" transform="translate(20.002172, 22.478858) scale(1, -1) translate(-20.002172, -22.478858) translate(0.002172, 0.978858)" sketch:type="MSShapeGroup">
                    <path d="M6.55983184,8.14620335 C6.55983184,8.58745603 6.39754433,8.96930931 6.07296932,9.29176319 C5.74839431,9.61421707 5.36402916,9.77544402 4.91987388,9.77544402 C4.4757186,9.77544402 4.09135345,9.61421707 3.76677844,9.29176319 C3.44220343,8.96930931 3.27991592,8.58745603 3.27991592,8.14620335 C3.27991592,7.70495066 3.44220343,7.32309738 3.76677844,7.0006435 C4.09135345,6.67818962 4.4757186,6.51696268 4.91987388,6.51696268 C5.36402916,6.51696268 5.74839431,6.67818962 6.07296932,7.0006435 C6.39754433,7.32309738 6.55983184,7.70495066 6.55983184,8.14620335 L6.55983184,8.14620335 Z M36.0790751,22.8093694 C36.0790751,23.6749035 35.7459587,24.4343672 35.0797257,25.0877606 C34.4134928,25.741154 33.653304,26.0678507 32.7991592,26.0678507 L23.7793904,26.0678507 C23.7793904,27.0521836 24.1893799,28.4056414 25.0093589,30.1282239 C25.8293379,31.8508065 26.2393274,33.2127499 26.2393274,34.2140541 C26.2393274,35.8772372 25.966001,37.1076534 25.4193484,37.9053024 C24.8726957,38.7029515 23.7793904,39.1017761 22.1394325,39.1017761 C21.6952772,38.6605234 21.3707022,37.939245 21.1657074,36.9379408 C20.9607127,35.9366366 20.7001985,34.8716903 20.384165,33.7431017 C20.0681314,32.6145131 19.5599153,31.6853368 18.8595165,30.9555727 C18.4836928,30.5652338 17.8260014,29.7930416 16.8864421,28.6389961 C16.8181105,28.5541399 16.6216572,28.299571 16.2970822,27.8752896 C15.9725072,27.4510082 15.7034516,27.1030974 15.4899154,26.8315573 C15.2763792,26.5600172 14.9816993,26.1993779 14.6058756,25.7496396 C14.2300519,25.2999013 13.888394,24.9265337 13.5809019,24.6295367 C13.2734097,24.3325397 12.944564,24.0312999 12.5943646,23.7258172 C12.2441653,23.4203346 11.9025074,23.1912227 11.5693909,23.0384813 C11.2362745,22.88574 10.9330531,22.8093694 10.6597267,22.8093694 L9.83974776,22.8093694 L9.83974776,6.51696268 L10.6597267,6.51696268 C10.8818044,6.51696268 11.15086,6.49150579 11.4668935,6.44059202 C11.7829271,6.38967825 12.0647949,6.33452166 12.3124969,6.27512227 C12.5601989,6.21572287 12.8847739,6.12238095 13.2862219,5.99509653 C13.68767,5.8678121 13.9866206,5.77022737 14.1830739,5.70234234 C14.3795272,5.63445731 14.6827486,5.52838696 15.0927381,5.38413127 C15.5027276,5.23987559 15.7504296,5.15077649 15.8358441,5.11683398 C19.440335,3.87793222 22.3615101,3.25848134 24.5993694,3.25848134 L27.6999149,3.25848134 C30.9798308,3.25848134 32.6197888,4.6755813 32.6197888,7.50978121 C32.6197888,7.95103389 32.5770816,8.42622909 32.4916671,8.9353668 C33.0041539,9.20690691 33.4098727,9.6524024 33.7088234,10.2718533 C34.0077741,10.8913042 34.1572494,11.5149979 34.1572494,12.1429344 C34.1572494,12.7708709 34.0035033,13.3563792 33.6960112,13.8994595 C34.6014047,14.7480223 35.0541014,15.7578121 35.0541014,16.9288288 C35.0541014,17.3531103 34.9686869,17.8240626 34.797858,18.341686 C34.627029,18.8593093 34.4134928,19.2623767 34.1572494,19.550888 C34.703902,19.5678593 35.1608695,19.9666838 35.5281517,20.7473616 C35.895434,21.5280395 36.0790751,22.2153754 36.0790751,22.8093694 L36.0790751,22.8093694 Z M39.358991,22.8348263 C39.358991,21.3243844 38.9404601,19.9412269 38.1033982,18.6853539 C38.2571443,18.1253024 38.3340173,17.5397941 38.3340173,16.9288288 C38.3340173,15.622042 38.0094423,14.4001115 37.3602923,13.2630373 C37.411541,12.9066409 37.4371653,12.5417589 37.4371653,12.1683912 C37.4371653,10.4542943 36.9246784,8.94385242 35.8997047,7.63706564 C35.9167876,5.27806092 35.1907646,3.41546547 33.7216356,2.04927928 C32.2525065,0.683093093 30.3135979,2.91322522e-13 27.9049097,2.91322522e-13 L26.9824333,2.91322522e-13 L24.5993694,2.91322522e-13 C22.9594114,2.91322522e-13 21.3408071,0.190926641 19.7435564,0.572779923 C18.1463057,0.954633205 16.2970822,1.51044187 14.1958861,2.24020592 C12.2142702,2.9190562 11.0355504,3.25848134 10.6597267,3.25848134 L3.27991592,3.25848134 C2.37452246,3.25848134 1.60152145,3.57669241 0.960912867,4.21311454 C0.320304289,4.84953668 0,5.61748606 0,6.51696268 L0,22.8093694 C0,23.708846 0.320304289,24.4767954 0.960912867,25.1132175 C1.60152145,25.7496396 2.37452246,26.0678507 3.27991592,26.0678507 L10.3009859,26.0678507 C10.9159702,26.4751609 12.0861485,27.7904333 13.8115209,30.013668 C14.8023289,31.2865122 15.7162638,32.3726727 16.5533257,33.2721493 C16.9633151,33.6964307 17.2665365,34.421952 17.4629898,35.448713 C17.6594431,36.475474 17.9199573,37.548906 18.2445323,38.669009 C18.5691073,39.789112 19.0986771,40.7055598 19.8332416,41.4183526 C20.4994745,42.0462891 21.2682048,42.3602574 22.1394325,42.3602574 C23.5743957,42.3602574 24.8641543,42.0844745 26.0087083,41.5329086 C27.1532623,40.9813428 28.0244899,40.1200515 28.6223913,38.9490347 C29.2202926,37.778018 29.5192433,36.1996911 29.5192433,34.2140541 C29.5192433,32.6357272 29.1092538,31.0064865 28.2892748,29.326332 L32.7991592,29.326332 C34.5757803,29.326332 36.1132409,28.6814243 37.411541,27.3916088 C38.709841,26.1017932 39.358991,24.5828657 39.358991,22.8348263 L39.358991,22.8348263 Z" id="path3892" fill="#4A4A4A"></path>
                    <path d="M36.0790751,22.8093694 C36.0790751,23.6749035 35.7459587,24.4343672 35.0797257,25.0877606 C34.4134928,25.741154 33.653304,26.0678507 32.7991592,26.0678507 L23.7793904,26.0678507 C23.7793904,27.0521836 24.1893799,28.4056414 25.0093589,30.1282239 C25.8293379,31.8508065 26.2393274,33.2127499 26.2393274,34.2140541 C26.2393274,35.8772372 25.966001,37.1076534 25.4193484,37.9053024 C24.8726957,38.7029515 23.7793904,39.1017761 22.1394325,39.1017761 C21.6952772,38.6605234 21.3707022,37.939245 21.1657074,36.9379408 C20.9607127,35.9366366 20.7001985,34.8716903 20.384165,33.7431017 C20.0681314,32.6145131 19.5599153,31.6853368 18.8595165,30.9555727 C18.4836928,30.5652338 17.8260014,29.7930416 16.8864421,28.6389961 C16.8181105,28.5541399 16.6216572,28.299571 16.2970822,27.8752896 C15.9725072,27.4510082 15.7034516,27.1030974 15.4899154,26.8315573 C15.2763792,26.5600172 14.9816993,26.1993779 14.6058756,25.7496396 C14.2300519,25.2999013 13.888394,24.9265337 13.5809019,24.6295367 C13.2734097,24.3325397 12.944564,24.0312999 12.5943646,23.7258172 C12.2441653,23.4203346 11.9025074,23.1912227 11.5693909,23.0384813 C11.2362745,22.88574 10.9330531,22.8093694 10.6597267,22.8093694 L9.83974776,22.8093694 L9.83974776,6.51696268 L10.6597267,6.51696268 C10.8818044,6.51696268 11.15086,6.49150579 11.4668935,6.44059202 C11.7829271,6.38967825 12.0647949,6.33452166 12.3124969,6.27512227 C12.5601989,6.21572287 12.8847739,6.12238095 13.2862219,5.99509653 C13.68767,5.8678121 13.9866206,5.77022737 14.1830739,5.70234234 C14.3795272,5.63445731 14.6827486,5.52838696 15.0927381,5.38413127 C15.5027276,5.23987559 15.7504296,5.15077649 15.8358441,5.11683398 C19.440335,3.87793222 22.3615101,3.25848134 24.5993694,3.25848134 L27.6999149,3.25848134 C30.9798308,3.25848134 32.6197888,4.6755813 32.6197888,7.50978121 C32.6197888,7.95103389 32.5770816,8.42622909 32.4916671,8.9353668 C33.0041539,9.20690691 33.4098727,9.6524024 33.7088234,10.2718533 C34.0077741,10.8913042 34.1572494,11.5149979 34.1572494,12.1429344 C34.1572494,12.7708709 34.0035033,13.3563792 33.6960112,13.8994595 C34.6014047,14.7480223 35.0541014,15.7578121 35.0541014,16.9288288 C35.0541014,17.3531103 34.9686869,17.8240626 34.797858,18.341686 C34.627029,18.8593093 34.4134928,19.2623767 34.1572494,19.550888 C34.703902,19.5678593 35.1608695,19.9666838 35.5281517,20.7473616 C35.895434,21.5280395 36.0790751,22.2153754 36.0790751,22.8093694 L36.0790751,22.8093694 Z" id="path3892-path-copy-2" fill="#FFFFFF"></path>
                    <path d="M6.55983184,8.14620335 C6.55983184,8.58745603 6.39754433,8.96930931 6.07296932,9.29176319 C5.74839431,9.61421707 5.36402916,9.77544402 4.91987388,9.77544402 C4.4757186,9.77544402 4.09135345,9.61421707 3.76677844,9.29176319 C3.44220343,8.96930931 3.27991592,8.58745603 3.27991592,8.14620335 C3.27991592,7.70495066 3.44220343,7.32309738 3.76677844,7.0006435 C4.09135345,6.67818962 4.4757186,6.51696268 4.91987388,6.51696268 C5.36402916,6.51696268 5.74839431,6.67818962 6.07296932,7.0006435 C6.39754433,7.32309738 6.55983184,7.70495066 6.55983184,8.14620335 L6.55983184,8.14620335 Z" id="path3892-path-copy" fill="#FFFFFF"></path>
                </g>
            </g>
        </g>
    </g>
</svg>