<?xml version="1.0" encoding="UTF-8" standalone="no"?>
<svg width="33px" height="26px" viewBox="0 0 33 26" version="1.1" xmlns="http://www.w3.org/2000/svg" xmlns:xlink="http://www.w3.org/1999/xlink" xmlns:sketch="http://www.bohemiancoding.com/sketch/ns">
    <!-- Generator: Sketch 3.2.2 (9983) - http://www.bohemiancoding.com/sketch -->
    <title>Truck</title>
    <desc>Created with Sketch.</desc>
    <defs></defs>
    <g id="Change" stroke="none" stroke-width="1" fill="none" fill-rule="evenodd" sketch:type="MSPage">
        <g id="Change-in-Verify(status)" sketch:type="MSArtboardGroup" transform="translate(-733.000000, -439.000000)">
            <g id="Group-2" sketch:type="MSLayerGroup" transform="translate(60.000000, 423.000000)">
                <g id="Group" transform="translate(666.000000, 0.000000)" sketch:type="MSShapeGroup">
                    <g id="Truck" transform="translate(7.000000, 16.000000)">
                        <path d="M13.9222597,21.5609756 L18.0416767,21.5609756 C18.5866233,21.5609756 19.0384615,21.1147429 19.0384615,20.564287 L19.0384615,0.996688591 C19.0384615,0.450331618 18.5921857,0 18.0416767,0 L0.996784874,0 C0.451838199,0 0,0.446232682 0,0.996688591 L0,20.564287 C0,21.110644 0.446275789,21.5609756 0.996784874,21.5609756 L3.84697104,21.5609756 C4.15926405,19.0584366 6.29562726,17.1219512 8.88461538,17.1219512 C11.4736035,17.1219512 13.6099667,19.0584366 13.9222597,21.5609756 Z" id="Rectangle-335" fill="#456a8d"></path>
                        <path d="M31.6914905,21.5609756 L31.9983147,21.5609756 C32.5565894,21.5609756 33,21.1173553 33,20.570122 L33,16.2103659 C33,15.6755746 32.8110471,14.8104168 32.5779619,14.3057721 L29.6143458,7.88934984 C29.3759606,7.37323031 28.7442644,6.97560976 28.1915751,6.97560976 L20.6738096,6.97560976 C20.1194414,6.97560976 19.6730769,7.42444934 19.6730769,7.97812102 L19.6730769,20.5584643 C19.6730769,21.1084708 20.1215467,21.5609756 20.6747622,21.5609756 L21.6162018,21.5609756 C21.9284948,19.0584366 24.064858,17.1219512 26.6538462,17.1219512 C29.2428343,17.1219512 31.3791975,19.0584366 31.6914905,21.5609756 Z" id="Rectangle-336" fill="#456a8d"></path>
                        <path d="M22.2115385,9.2380412 C22.2115385,8.68899352 22.6597133,8.24390244 23.2064125,8.24390244 L26.9282028,8.24390244 C27.4776566,8.24390244 28.1056368,8.65435861 28.3309247,9.16088166 L30.0536907,13.0342403 C30.2789388,13.5406739 30.0179826,13.9512195 29.4663957,13.9512195 L23.2066812,13.9512195 C22.6570791,13.9512195 22.2115385,13.5033759 22.2115385,12.9570807 L22.2115385,9.2380412 Z" id="Rectangle-336" fill="#FFFFFF"></path>
                        <ellipse id="Oval-112" fill="#456a8d" cx="8.88461538" cy="22.195122" rx="3.80769231" ry="3.80487805"></ellipse>
                        <ellipse id="Oval-112" fill="#456a8d" cx="26.6538462" cy="22.195122" rx="3.80769231" ry="3.80487805"></ellipse>
                    </g>
                </g>
            </g>
        </g>
    </g>
</svg>
