<?xml version="1.0" encoding="UTF-8" standalone="no"?>
<svg width="29px" height="24px" viewBox="0 0 29 24" version="1.1" xmlns="http://www.w3.org/2000/svg" xmlns:xlink="http://www.w3.org/1999/xlink">
    <!-- Generator: sketchtool 3.8.3 (29802) - http://www.bohemiancoding.com/sketch -->
    <title>956E8AAD-3CD8-4161-8500-9601F7125CDD</title>
    <desc>Created with sketchtool.</desc>
    <defs>
        <polygon id="path-1" points="29.0004 -0.0001 0 -0.0001 0 23.3785 29.0004 23.3785 29.0004 -0.0001"></polygon>
    </defs>
    <g id="Change-Screens" stroke="none" stroke-width="1" fill="none" fill-rule="evenodd">
        <g id="Change-Details-Style-Helper" transform="translate(-275.000000, -564.000000)">
            <g id="Union" transform="translate(275.000000, 564.000000)">
                <g id="Page-1">
                    <mask id="mask-2" fill="white">
                        <use xlink:href="#path-1"></use>
                    </mask>
                    <g id="Clip-2"></g>
                    <path d="M27.0047198,6.82793173 L21.4119494,6.82793173 C20.3145453,6.82793173 19.4166692,7.72582018 19.4166692,8.82323939 L19.4166692,10.5870913 L17.4652852,10.5870913 C17.1899365,10.5870913 16.9235666,10.4903189 16.6661755,10.2947788 C16.4077867,10.1002363 16.1533885,9.79395656 15.9009855,9.3759396 C15.6495802,8.956925 15.4430687,8.58480012 15.2824487,8.25856732 C15.1218286,7.93233452 14.9103289,7.46543253 14.6469519,6.85786135 C14.4294664,6.3879664 14.2688463,6.04178052 14.1650917,5.81830606 C14.0623348,5.59483161 13.8987218,5.26460819 13.6752505,4.82963112 C13.4517791,4.3936564 13.2602322,4.0674236 13.0996121,3.84993506 C12.9389921,3.63244653 12.7274924,3.36906592 12.4641154,3.05979323 C12.2007384,2.75052055 11.9423496,2.51806721 11.6899467,2.36343086 C11.4385414,2.20879452 11.1462328,2.07411125 10.8140187,1.95938106 C10.4818045,1.84465087 10.1326305,1.78778461 9.76549892,1.78778461 L5.7470046,1.78778461 L5.73403528,1.79177522 L5.72804944,0.504801786 C5.72804944,0.365130251 5.68315564,0.251397714 5.59436567,0.16160887 C5.50457806,0.0718200257 5.38984945,0.0269256036 5.25117747,0.0269256036 L0.477469607,0.0269256036 C0.337799993,0.0269256036 0.224069022,0.0718200257 0.134281413,0.16160887 C0.0444938044,0.251397714 -0.000400000001,0.365130251 -0.000400000001,0.504801786 L-0.000400000001,5.27857534 C-0.000400000001,5.41724922 0.0444938044,5.53197941 0.134281413,5.62176826 C0.224069022,5.7115571 0.337799993,5.75545387 0.477469607,5.75545387 L5.25117747,5.75545387 C5.38984945,5.75545387 5.50457806,5.7115571 5.59436567,5.62176826 C5.68315564,5.53197941 5.72804944,5.41724922 5.72804944,5.27857534 L5.73403528,3.99160191 L5.7470046,3.98761129 L9.76549892,3.98761129 C9.96003874,3.98761129 10.1495904,4.03350337 10.3321585,4.12528752 C10.5157243,4.21707167 10.6962971,4.36572209 10.8738771,4.57223643 C11.051457,4.77775312 11.2060912,4.97329327 11.3377797,5.15586392 C11.4694682,5.33943223 11.6241024,5.60879876 11.8016824,5.96396352 C11.9802599,6.31912828 12.1169366,6.60046666 12.2147054,6.80598335 C12.3114764,7.01249769 12.4521437,7.3277563 12.6357095,7.75175918 C13.1624634,8.97787573 13.6383378,9.9226539 14.0623348,10.5870913 L5.73403528,10.5870913 L5.72804944,9.30011791 C5.72804944,9.16144403 5.68315564,9.04671384 5.59436567,8.95792265 C5.50457806,8.86813381 5.38984945,8.82323939 5.25117747,8.82323939 L0.477469607,8.82323939 C0.337799993,8.82323939 0.224069022,8.86813381 0.134281413,8.95792265 C0.0444938044,9.04671384 -0.000400000001,9.16144403 -0.000400000001,9.30011791 L-0.000400000001,14.0738915 C-0.000400000001,14.213563 0.0444938044,14.3282932 0.134281413,14.4170844 C0.224069022,14.5068732 0.337799993,14.5517677 0.477469607,14.5517677 L5.25117747,14.5517677 C5.38984945,14.5517677 5.50457806,14.5068732 5.59436567,14.4170844 C5.68315564,14.3282932 5.72804944,14.213563 5.72804944,14.0738915 L5.73403528,12.7879157 L14.2997732,12.7879157 C13.8757761,13.4513555 13.4008994,14.3971313 12.8731478,15.6232479 C12.6905797,16.0472507 12.5499124,16.3625093 12.4521437,16.5690237 C12.3553726,16.7745404 12.2176983,17.0558788 12.0401183,17.4110435 C11.8625384,17.7662083 11.7079042,18.0355748 11.5762157,18.2181455 C11.4445272,18.4017138 11.289893,18.5962563 11.1113154,18.8027706 C10.9347331,19.0092849 10.7541603,19.1579354 10.5705945,19.2497195 C10.3870287,19.3415037 10.1984747,19.3873957 10.0029373,19.3873957 L5.73403528,19.3873957 L5.72804944,18.1004223 C5.72804944,17.9607508 5.68315564,17.8470182 5.59436567,17.7572294 C5.50457806,17.6674406 5.38984945,17.6225461 5.25117747,17.6225461 L0.477469607,17.6225461 C0.337799993,17.6225461 0.224069022,17.6674406 0.134281413,17.7572294 C0.0444938044,17.8470182 -0.000400000001,17.9607508 -0.000400000001,18.1004223 L-0.000400000001,22.8741959 C-0.000400000001,23.0128697 0.0444938044,23.1275999 0.134281413,23.2173888 C0.224069022,23.30618 0.337799993,23.3510744 0.477469607,23.3510744 L5.25117747,23.3510744 C5.38984945,23.3510744 5.50457806,23.30618 5.59436567,23.2173888 C5.68315564,23.1275999 5.72804944,23.0128697 5.72804944,22.8741959 L5.73403528,21.5872224 L10.0029373,21.5872224 C10.3700688,21.5872224 10.7192428,21.5293585 11.051457,21.415626 C11.3836712,21.3008958 11.6759797,21.1662125 11.9283826,21.0115762 C12.1807856,20.8569398 12.4381767,20.6244865 12.7015537,20.3152138 C12.9649307,20.0059411 13.1774281,19.7425605 13.3370505,19.525072 C13.4976705,19.3065858 13.6902151,18.980353 13.9136864,18.5453759 C14.1371578,18.1094012 14.2997732,17.7801754 14.4035277,17.556701 C14.5062847,17.3332265 14.6669047,16.9870406 14.8843903,16.5171457 C15.1477672,15.9095745 15.3602646,15.4426725 15.519887,15.1164397 C15.6805071,14.7892093 15.8870186,14.4170844 16.1394215,13.9990674 C16.3908268,13.5810505 16.6462227,13.2747708 16.9036138,13.0792306 C17.1620026,12.8846881 17.4283725,12.7879157 17.7027235,12.7879157 L19.4166692,12.7879157 L19.4166692,14.4160867 C19.4166692,15.5135059 20.3145453,16.4113944 21.4119494,16.4113944 L27.0047198,16.4113944 C28.1021239,16.4113944 29,15.5135059 29,14.4160867 L29,8.82323939 C29,7.72582018 28.1021239,6.82793173 27.0047198,6.82793173" id="Fill-1" fill="#3F5364" mask="url(#mask-2)"></path>
                </g>
            </g>
        </g>
    </g>
</svg>