<?xml version="1.0" encoding="UTF-8" standalone="no"?>
<svg width="9px" height="9px" viewBox="0 0 9 9" version="1.1" xmlns="http://www.w3.org/2000/svg" xmlns:xlink="http://www.w3.org/1999/xlink" xmlns:sketch="http://www.bohemiancoding.com/sketch/ns">
    <!-- Generator: Sketch 3.3 (11970) - http://www.bohemiancoding.com/sketch -->
    <title>Oval 2</title>
    <desc>Created with Sketch.</desc>
    <defs></defs>
    <g id="Change-Status-Progression" stroke="none" stroke-width="1" fill="none" fill-rule="evenodd" sketch:type="MSPage">
        <g id="Phase-4" sketch:type="MSArtboardGroup" transform="translate(-78.000000, -535.000000)" fill="#FFFFFF">
            <g id="Patchset-4" sketch:type="MSLayerGroup" transform="translate(60.000000, 478.000000)">
                <g id="Verify" transform="translate(0.000000, 39.000000)" sketch:type="MSShapeGroup">
                    <g id="Oval-2-+-Path" transform="translate(18.000000, 18.000000)">
                        <path d="M7.7655309,5.00446472 C7.79760176,4.82401081 7.81432393,4.63835973 7.81432393,4.44886364 C7.81432393,4.30264247 7.8043673,4.15871068 7.78508506,4.01768951 L8.02420673,3.9412008 L8.52919249,3.77966919 L8.20103285,2.78538283 L7.69604709,2.94691445 L7.47248965,3.01842457 C7.31853522,2.71543124 7.11719731,2.43983265 6.87803819,2.2010426 L6.87803819,2.2010426 L7.01181445,2.01977492 L7.32391282,1.59687967 L6.46477973,0.982376905 L6.15268136,1.40527215 L6.0194385,1.58581707 C5.7185183,1.43707529 5.39090856,1.33296038 5.0455697,1.28229358 L5.0455697,1.05113636 L5.0455697,0.528409091 L3.9836228,0.528409091 L3.9836228,1.05113636 L3.9836228,1.29765869 C3.64680053,1.35718899 3.32797626,1.46777431 3.03570998,1.62098759 L2.87651113,1.40527215 L2.56441277,0.982376905 L1.70527968,1.59687967 L2.01737804,2.01977492 L2.19202612,2.25642416 C1.96982705,2.48913438 1.78259146,2.7545746 1.63857812,3.04461431 L1.3331454,2.94691445 L0.82815964,2.78538283 L0.5,3.77966919 L1.00498576,3.9412008 L1.33528845,4.04685591 C1.31853208,4.1785391 1.30989915,4.31270886 1.30989915,4.44886364 C1.30989915,4.62829249 1.32489175,4.80427401 1.35371092,4.97566032 L1.00498576,5.08720829 L0.5,5.2487399 L0.82815964,6.24302626 L1.3331454,6.08149465 L1.69699593,5.96510847 C1.84456103,6.23478849 2.03026495,6.48125084 2.24699861,6.69749685 L2.01737804,7.00863418 L1.70527968,7.43152942 L2.56441277,8.04603219 L2.87651113,7.62313694 L3.10582011,7.31242182 C3.37871491,7.44719068 3.67354206,7.5452646 3.9836228,7.60006858 L3.9836228,7.97727273 L3.9836228,8.5 L5.0455697,8.5 L5.0455697,7.97727273 L5.0455697,7.61543369 L5.0455697,7.61543369 C5.363842,7.568738 5.66705538,7.47664404 5.94819546,7.34605726 L6.15268136,7.62313694 L6.46477973,8.04603219 L7.32391282,7.43152942 L7.01181445,7.00863418 L6.82194356,6.75135792 L6.82194356,6.75135792 C7.05538096,6.52925938 7.25513828,6.27306921 7.41293865,5.99093573 L7.69604709,6.08149465 L8.20103285,6.24302626 L8.52919249,5.2487399 L8.02420673,5.08720829 L7.7655309,5.00446472 L7.7655309,5.00446472 Z M4.54867257,3.27272727 L5.44037802,3.63634755 L5.80973451,4.51420455 L5.44037802,5.39206154 L4.54867257,5.75568182 L3.65696711,5.39206154 L3.28761062,4.51420455 L3.65696711,3.63634755 L4.54867257,3.27272727 Z" id="Oval-2"></path>
                    </g>
                </g>
            </g>
        </g>
    </g>
</svg>