<?xml version="1.0" encoding="UTF-8" standalone="no"?>
<svg width="19px" height="20px" viewBox="0 0 19 20" version="1.1" xmlns="http://www.w3.org/2000/svg" xmlns:xlink="http://www.w3.org/1999/xlink">
    <!-- Generator: sketchtool 3.8.3 (29802) - http://www.bohemiancoding.com/sketch -->
    <title>6021AB65-6847-4842-8713-852BE1922415</title>
    <desc>Created with sketchtool.</desc>
    <defs></defs>
    <g id="Exploration" stroke="none" stroke-width="1" fill="none" fill-rule="evenodd">
        <g id="WELCOME" transform="translate(-998.000000, -306.000000)">
            <text id="Compliance-Status-Copy-3" font-family="HelveticaNeue-Light, Helvetica Neue" font-size="11" font-weight="300" line-spacing="30" fill="#677C8B">
                <tspan x="998" y="292">ACTIVE BUILD NODES  </tspan>
            </text>
            <path d="M1007.42857,306.714286 C1009.13915,306.714286 1010.7167,307.135784 1012.16127,307.978795 C1013.60585,308.821805 1014.74962,309.965581 1015.59263,311.410156 C1016.43564,312.854732 1016.85714,314.432283 1016.85714,316.142857 C1016.85714,317.853431 1016.43564,319.430982 1015.59263,320.875558 C1014.74962,322.320134 1013.60585,323.463909 1012.16127,324.30692 C1010.7167,325.14993 1009.13915,325.571429 1007.42857,325.571429 C1005.718,325.571429 1004.14045,325.14993 1002.69587,324.30692 C1001.25129,323.463909 1000.10752,322.320134 999.264509,320.875558 C998.421499,319.430982 998,317.853431 998,316.142857 C998,314.432283 998.421499,312.854732 999.264509,311.410156 C1000.10752,309.965581 1001.25129,308.821805 1002.69587,307.978795 C1004.14045,307.135784 1005.718,306.714286 1007.42857,306.714286 L1007.42857,306.714286 Z M1012.14286,316.81808 C1012.40476,316.670758 1012.53571,316.445686 1012.53571,316.142857 C1012.53571,315.840028 1012.40476,315.614956 1012.14286,315.467634 L1005.46429,311.539062 C1005.21056,311.383556 1004.94866,311.379464 1004.67857,311.526786 C1004.41667,311.682292 1004.28571,311.911457 1004.28571,312.214286 L1004.28571,320.071429 C1004.28571,320.374257 1004.41667,320.603422 1004.67857,320.758929 C1004.80952,320.824405 1004.94048,320.857143 1005.07143,320.857143 C1005.21057,320.857143 1005.34152,320.820313 1005.46429,320.746652 L1012.14286,316.81808 Z" id="Shape" fill="#7DC67D"></path>
        </g>
    </g>
</svg>