<?xml version="1.0" encoding="utf-8"?>
<!-- Generator: Adobe Illustrator 19.2.1, SVG Export Plug-In . SVG Version: 6.00 Build 0)  -->
<svg version="1.1" id="Layer_1" xmlns="http://www.w3.org/2000/svg" xmlns:xlink="http://www.w3.org/1999/xlink" x="0px" y="0px"
	 viewBox="0 0 335.5 28.3" style="enable-background:new 0 0 335.5 28.3;" xml:space="preserve">
<style type="text/css">
	.st0{fill:#FFFFFF;}
	.st1{fill:#F38B00;}
</style>
<g>
	<g>
		<path class="st0" d="M0,14.2L0,14.2C0,6.4,5.9,0,14.3,0c5.2,0,8.3,1.7,10.8,4.2l-3.8,4.4c-2.1-1.9-4.3-3.1-7-3.1
			c-4.6,0-7.9,3.8-7.9,8.5v0.1c0,4.7,3.2,8.6,7.9,8.6c3.1,0,5.1-1.3,7.2-3.2l3.8,3.9c-2.8,3-6,4.9-11.2,4.9C6,28.3,0,22.1,0,14.2z"
			/>
		<path class="st0" d="M30.1,0.5h6v10.8h11.1V0.5h6v27.4h-6v-11H36.1v11h-6V0.5z"/>
		<path class="st0" d="M59.9,0.5h20.7v5.4H65.8v5.6h12.9v5.4H65.8v5.8h14.9v5.4H59.9V0.5z"/>
		<path class="st0" d="M86.1,0.5h20.9V6H92.1v5.8h13.1v5.5H92.1v10.6h-6V0.5z"/>
	</g>
	<g>
		<path class="st1" d="M122.5,0.3h2.9l12.5,27.6h-3.3l-3.2-7.2h-14.9l-3.2,7.2H110L122.5,0.3z M130.1,17.8l-6.2-13.9l-6.3,13.9
			H130.1z"/>
		<path class="st1" d="M141.9,16.4V0.5h3.1v15.7c0,5.9,3.2,9.2,8.4,9.2c5,0,8.3-3.1,8.3-9V0.5h3.1v15.7c0,8-4.6,12.1-11.4,12.1
			C146.5,28.3,141.9,24.2,141.9,16.4z"/>
		<path class="st1" d="M179.2,3.3H170V0.5h21.5v2.9h-9.2v24.5h-3.1V3.3z"/>
		<path class="st1" d="M194.3,14.2L194.3,14.2c0-7.6,5.7-14.2,14-14.2s13.9,6.5,13.9,14.1v0.1c0,7.6-5.7,14.2-14,14.2
			C199.9,28.3,194.3,21.8,194.3,14.2z M219,14.2L219,14.2c0-6.3-4.5-11.4-10.8-11.4c-6.3,0-10.7,5-10.7,11.2v0.1
			c0,6.2,4.5,11.3,10.8,11.3S219,20.5,219,14.2z"/>
		<path class="st1" d="M228.8,0.5h3.1l10,15l10-15h3.1v27.4h-3.1V5.7l-10,14.7h-0.2l-10-14.6v22.2h-3V0.5z"/>
		<path class="st1" d="M272.9,0.3h2.9l12.5,27.6h-3.3l-3.2-7.2h-14.9l-3.2,7.2h-3.2L272.9,0.3z M280.5,17.8l-6.2-13.9L268,17.8
			H280.5z"/>
		<path class="st1" d="M297.4,3.3h-9.2V0.5h21.5v2.9h-9.2v24.5h-3.1V3.3z"/>
		<path class="st1" d="M315.5,0.5h19.8v2.8h-16.7v9.4h15v2.8h-15v9.6h16.9v2.8h-20V0.5z"/>
	</g>
</g>
</svg>
