<?xml version="1.0" encoding="UTF-8"?>
<svg width="85px" height="89px" viewBox="0 0 85 89" version="1.1" xmlns="http://www.w3.org/2000/svg" xmlns:xlink="http://www.w3.org/1999/xlink">
    <!-- Generator: Sketch 45 (43475) - http://www.bohemiancoding.com/sketch -->
    <title>bubble</title>
    <desc>Created with Sketch.</desc>
    <defs></defs>
    <g id="Page-1" stroke="none" stroke-width="1" fill="none" fill-rule="evenodd">
        <g id="bubble" fill-rule="nonzero">
            <path d="M47.4373624,57.6986275 C41.5868744,57.6986275 36.8283328,53.0471739 36.8283328,47.3307124 C36.8283328,41.6131902 41.5868744,36.9617365 47.4373624,36.9617365 C53.2878502,36.9617365 58.0463918,41.6131902 58.0463918,47.3307124 C58.0463918,53.0471739 53.2878502,57.6986275 47.4373624,57.6986275 M62.3881268,47.3307124 C62.3881268,39.2731431 55.682317,32.7186773 47.4373624,32.7186773 C39.1924076,32.7186773 32.4865978,39.2731431 32.4865978,47.3307124 C32.4865978,55.3872211 39.1924076,61.9416867 47.4373624,61.9416867 C55.682317,61.9416867 62.3881268,55.3872211 62.3881268,47.3307124" id="Fill-1" fill="#B4B8BB"></path>
            <path d="M38.2742392,26.518507 C38.2742392,22.7283944 35.130823,19.6564196 31.2525683,19.6564196 C27.3743135,19.6564196 24.2298119,22.7283944 24.2298119,26.518507 C24.2298119,30.3086197 27.3743135,33.3805946 31.2525683,33.3805946 C35.130823,33.3805946 38.2742392,30.3086197 38.2742392,26.518507" id="Fill-3" fill="#5AAADE"></path>
            <path d="M78.3806905,64.0461381 C77.1747736,64.0461381 76.1935414,63.0872067 76.1935414,61.9076362 C76.1935414,60.7291265 77.1747736,59.7691344 78.3806905,59.7691344 C79.5876928,59.7691344 80.5700103,60.7291265 80.5700103,61.9076362 C80.5700103,63.0872067 79.5876928,64.0461381 78.3806905,64.0461381 M78.3806905,55.5260752 C74.7813921,55.5260752 71.8518066,58.3890793 71.8518066,61.9076362 C71.8518066,65.426193 74.7813921,68.2891973 78.3806905,68.2891973 C81.9810742,68.2891973 84.9117453,65.426193 84.9117453,61.9076362 C84.9117453,58.3890793 81.9810742,55.5260752 78.3806905,55.5260752" id="Fill-5" fill="#B4B8BB"></path>
            <path d="M68.3612687,17.2822158 C68.3612687,10.8327658 63.0133366,5.60531692 56.4171556,5.60531692 C49.8177186,5.60531692 44.4665301,10.8327658 44.4665301,17.2822158 C44.4665301,23.7284836 49.8177186,28.9580539 56.4171556,28.9580539 C63.0133366,28.9580539 68.3612687,23.7284836 68.3612687,17.2822158 Z" id="Fill-7" fill="#5AAADE"></path>
            <path d="M54.7259414,72.194509 C50.8487721,72.194509 47.7042705,75.2686053 47.7042705,79.058718 C47.7042705,82.8456482 50.8487721,85.9197445 54.7259414,85.9197445 C58.6031107,85.9197445 61.7476122,82.8456482 61.7476122,79.058718 C61.7476122,75.2686053 58.6031107,72.194509 54.7259414,72.194509" id="Fill-9" fill="#5AAADE"></path>
            <path d="M12.6558319,17.8500432 C14.4489684,17.8500432 15.9088768,19.2767719 15.9088768,21.0302161 C15.9088768,22.7825996 14.4489684,24.2093281 12.6558319,24.2093281 C10.8616099,24.2093281 9.40170148,22.7825996 9.40170148,21.0302161 C9.40170148,19.2767719 10.8616099,17.8500432 12.6558319,17.8500432 M12.6558319,28.4523873 C16.8434353,28.4523873 20.2506118,25.1226468 20.2506118,21.0302161 C20.2506118,16.9367247 16.8434353,13.606984 12.6558319,13.606984 C8.46822847,13.606984 5.0599665,16.9367247 5.0599665,21.0302161 C5.0599665,25.1226468 8.46822847,28.4523873 12.6558319,28.4523873" id="Fill-11" fill="#B4B8BB"></path>
            <path d="M16.1187997,61.4175629 C12.2687662,61.4175629 9.1362044,58.3572565 9.1362044,54.5947237 C9.1362044,50.8332518 12.2687662,47.7729452 16.1187997,47.7729452 C19.9688332,47.7729452 23.1003096,50.8332518 23.1003096,54.5947237 C23.1003096,58.3572565 19.9688332,61.4175629 16.1187997,61.4175629 M16.1187997,43.529886 C9.87429935,43.529886 4.7944694,48.4932046 4.7944694,54.5947237 C4.7944694,60.6962428 9.87429935,65.6606221 16.1187997,65.6606221 C22.3622147,65.6606221 27.4420446,60.6962428 27.4420446,54.5947237 C27.4420446,48.4932046 22.3622147,43.529886 16.1187997,43.529886" id="Fill-13" fill="#B4B8BB"></path>
            <path d="M69.9770453,36.7055618 C70.9463377,36.7055618 71.7332772,37.475677 71.7332772,38.4218793 C71.7332772,39.3680815 70.9463377,40.1381967 69.9770453,40.1381967 C69.0088385,40.1381967 68.221899,39.3680815 68.221899,38.4218793 C68.221899,37.475677 69.0088385,36.7055618 69.9770453,36.7055618 M63.880164,38.4218793 C63.880164,41.7081287 66.6143716,44.3812559 69.9770453,44.3812559 C73.3397191,44.3812559 76.0750122,41.7081287 76.0750122,38.4218793 C76.0750122,35.1366907 73.3397191,32.4625027 69.9770453,32.4625027 C66.6143716,32.4625027 63.880164,35.1366907 63.880164,38.4218793" id="Fill-15" fill="#B4B8BB"></path>
            <path d="M82.1055252,30.6348873 C80.5989432,30.6348873 79.3767447,31.8282478 79.3767447,33.2995285 C79.3767447,34.7729308 80.5989432,35.9662913 82.1055252,35.9662913 C83.6110219,35.9662913 84.8321348,34.7729308 84.8321348,33.2995285 C84.8321348,31.8282478 83.6110219,30.6348873 82.1055252,30.6348873" id="Fill-17" fill="#5AAADE"></path>
            <path d="M35.0969574,5.22132007 C36.0651643,5.22132007 36.852104,5.99037455 36.852104,6.93551598 C36.852104,7.88277893 36.0651643,8.65395495 35.0969574,8.65395495 C34.1276652,8.65395495 33.3407258,7.88277893 33.3407258,6.93551598 C33.3407258,5.99037455 34.1276652,5.22132007 35.0969574,5.22132007 M35.0969574,12.8970141 C38.4596313,12.8970141 41.1938388,10.2228261 41.1938388,6.93551598 C41.1938388,3.65138816 38.4596313,0.97826087 35.0969574,0.97826087 C31.7342837,0.97826087 28.9989908,3.65138816 28.9989908,6.93551598 C28.9989908,10.2228261 31.7342837,12.8970141 35.0969574,12.8970141" id="Fill-19" fill="#B4B8BB"></path>
            <path d="M16.4092618,37.2309586 C16.4092618,38.6311682 17.5717613,39.7651257 19.0056193,39.7651257 C20.4373064,39.7651257 21.5998059,38.6311682 21.5998059,37.2309586 C21.5998059,35.8275668 20.4373064,34.6936093 19.0056193,34.6936093 C17.5717613,34.6936093 16.4092618,35.8275668 16.4092618,37.2309586" id="Fill-21" fill="#5AAADE"></path>
            <path d="M63.7372123,61.7537191 C62.3044399,61.7537191 61.1408547,62.8908592 61.1408547,64.2910686 C61.1408547,65.6902174 62.3044399,66.8273572 63.7372123,66.8273572 C65.1699849,66.8273572 66.3335699,65.6902174 66.3335699,64.2910686 C66.3335699,62.8908592 65.1699849,61.7537191 63.7372123,61.7537191" id="Fill-23" fill="#5AAADE"></path>
            <path d="M40.0717174,66.0469525 C40.0717174,63.9275445 38.3133148,62.2112271 36.1446181,62.2112271 C33.9759215,62.2112271 32.2175189,63.9275445 32.2175189,66.0469525 C32.2175189,68.1663606 33.9759215,69.8858605 36.1446181,69.8858605 C38.3133148,69.8858605 40.0717174,68.1663606 40.0717174,66.0469525" id="Fill-25" fill="#5AAADE"></path>
            <path d="M7.85354733,39.2466238 C7.85354733,37.1272158 6.09514466,35.4077161 3.92644804,35.4077161 C1.75883684,35.4077161 0.000434173502,37.1272158 0.000434173502,39.2466238 C0.000434173502,41.366032 1.75883684,43.0823495 3.92644804,43.0823495 C6.09514466,43.0823495 7.85354733,41.366032 7.85354733,39.2466238" id="Fill-27" fill="#5AAADE"></path>
            <path d="M15.0111146,68.2907883 C12.4212696,68.2907883 10.3144427,70.3486722 10.3144427,72.8775354 C10.3144427,75.4085201 12.4212696,77.4674646 15.0111146,77.4674646 C17.6009595,77.4674646 19.7067009,75.4085201 19.7067009,72.8775354 C19.7067009,70.3486722 17.6009595,68.2907883 15.0111146,68.2907883" id="Fill-35" fill="#B4B8BB"></path>
            <path d="M38.4372712,80.4506535 C36.2555495,80.4506535 34.4754382,82.1903077 34.4754382,84.3224451 C34.4754382,86.4651899 36.2555495,88.2048442 38.4372712,88.2048442 C40.6298475,88.2048442 42.4099589,86.4651899 42.4099589,84.3224451 C42.4099589,82.1903077 40.6298475,80.4506535 38.4372712,80.4506535" id="Fill-39" fill="#B4B8BB"></path>
        </g>
    </g>
</svg>