<?xml version="1.0" encoding="UTF-8" standalone="no"?>
<svg width="23px" height="23px" viewBox="0 0 23 23" version="1.1" xmlns="http://www.w3.org/2000/svg" xmlns:xlink="http://www.w3.org/1999/xlink">
    <!-- Generator: sketchtool 3.8.3 (29802) - http://www.bohemiancoding.com/sketch -->
    <title>27F5FD6F-C598-4A40-A1AE-C4B6D925BF04</title>
    <desc>Created with sketchtool.</desc>
    <defs>
        <rect id="path-1" x="0" y="0" width="22.7555192" height="22.7555192" rx="4"></rect>
        <mask id="mask-2" maskContentUnits="userSpaceOnUse" maskUnits="objectBoundingBox" x="0" y="0" width="22.7555192" height="22.7555192" fill="white">
            <use xlink:href="#path-1"></use>
        </mask>
    </defs>
    <g id="Exploration" stroke="none" stroke-width="1" fill="none" fill-rule="evenodd">
        <g id="WELCOME" transform="translate(-306.000000, -404.000000)">
            <text id="COOKBOOK-CHANGES-*" font-family="HelveticaNeue, Helvetica Neue" font-size="11" font-weight="normal" line-spacing="30">
                <tspan x="331.865939" y="377.619787" fill="#6E8492">COOKBOOK CHANGES </tspan>
                <tspan x="454.724939" y="377.619787" font-size="16" fill="#6E8492">*</tspan>
                <tspan x="460.356939" y="377.619787" fill="#6E8492"></tspan>
                <tspan x="305.237939" y="403.463904" font-size="28" fill="#F6A623">    </tspan>
                <tspan x="336.373939" y="403.463904" font-size="28" fill="#FDB714">8</tspan>
                <tspan x="369.059939" y="407.619787" font-size="10" fill="#6E8492">   </tspan>
                <tspan x="375.497939" y="407.619787" font-size="12" fill="#4A90E2">view trend </tspan>
                <tspan x="445.787243" y="407.619787" font-family="FontAwesome" font-size="12" fill="#4A90E2"></tspan>
            </text>
            <g id="Group-4" transform="translate(306.000000, 404.000000)">
                <use id="Rectangle-296" stroke="#FDB714" mask="url(#mask-2)" stroke-width="2" fill="#FDB714" xlink:href="#path-1"></use>
                <path d="M14.098,9.598 L16.226,9.598 C16.1606663,9.01933044 16.0020013,8.50600224 15.75,8.058 C15.4979987,7.60999776 15.1783353,7.23433485 14.791,6.931 C14.4036647,6.62766515 13.9650025,6.39666746 13.475,6.238 C12.9849976,6.07933254 12.4646694,6 11.914,6 C11.1486628,6 10.4603364,6.13533198 9.849,6.406 C9.23766361,6.67666802 8.7220021,7.04999762 8.302,7.526 C7.8819979,8.00200238 7.56000112,8.55966347 7.336,9.199 C7.11199888,9.83833653 7,10.5313296 7,11.278 C7,12.0060036 7.11199888,12.6849968 7.336,13.315 C7.56000112,13.9450031 7.8819979,14.493331 8.302,14.96 C8.7220021,15.426669 9.23766361,15.7929987 9.849,16.059 C10.4603364,16.3250013 11.1486628,16.458 11.914,16.458 C12.5300031,16.458 13.0946641,16.3646676 13.608,16.178 C14.1213359,15.9913324 14.5693314,15.7206684 14.952,15.366 C15.3346686,15.0113316 15.6426655,14.5820025 15.876,14.078 C16.1093345,13.5739975 16.2539997,13.0093365 16.31,12.384 L14.182,12.384 C14.0979996,13.0560034 13.8670019,13.5973313 13.489,14.008 C13.1109981,14.4186687 12.5860034,14.624 11.914,14.624 C11.4193309,14.624 10.9993351,14.5283343 10.654,14.337 C10.3086649,14.1456657 10.0286677,13.8913349 9.814,13.574 C9.59933226,13.2566651 9.44300049,12.8996687 9.345,12.503 C9.24699951,12.1063313 9.198,11.6980021 9.198,11.278 C9.198,10.8393311 9.24699951,10.4146687 9.345,10.004 C9.44300049,9.59333128 9.59933226,9.22700161 9.814,8.905 C10.0286677,8.58299839 10.3086649,8.32633429 10.654,8.135 C10.9993351,7.94366571 11.4193309,7.848 11.914,7.848 C12.184668,7.848 12.4436654,7.89233289 12.691,7.981 C12.9383346,8.06966711 13.159999,8.19333254 13.356,8.352 C13.552001,8.51066746 13.7153327,8.69499895 13.846,8.905 C13.9766673,9.11500105 14.0606665,9.34599874 14.098,9.598 L14.098,9.598 Z" id="C" fill="#FFFFFF"></path>
            </g>
        </g>
    </g>
</svg>