<?xml version="1.0" encoding="UTF-8" standalone="no"?>
<svg width="19px" height="20px" viewBox="0 0 19 20" version="1.1" xmlns="http://www.w3.org/2000/svg" xmlns:xlink="http://www.w3.org/1999/xlink">
    <!-- Generator: sketchtool 3.8.3 (29802) - http://www.bohemiancoding.com/sketch -->
    <title>CA98EC2D-D58C-4DB1-ABC8-4AE5A5EE8228</title>
    <desc>Created with sketchtool.</desc>
    <defs></defs>
    <g id="Exploration" stroke="none" stroke-width="1" fill="none" fill-rule="evenodd">
        <g id="WELCOME" transform="translate(-1203.000000, -305.000000)">
            <text id="Compliance-Status-Copy-3" font-family="HelveticaNeue-Light, Helvetica Neue" font-size="11" font-weight="300" line-spacing="30" fill="#677C8B">
                <tspan x="1204" y="292">IDLE BUILD NODES  </tspan>
            </text>
            <path d="M1214,310.821429 L1214,316.321429 C1214,316.436012 1213.96317,316.530134 1213.88951,316.603795 C1213.81585,316.677456 1213.72173,316.714286 1213.60714,316.714286 L1209.67857,316.714286 C1209.56399,316.714286 1209.46987,316.677456 1209.39621,316.603795 C1209.32254,316.530134 1209.28571,316.436012 1209.28571,316.321429 L1209.28571,315.535714 C1209.28571,315.42113 1209.32254,315.327009 1209.39621,315.253348 C1209.46987,315.179687 1209.56399,315.142857 1209.67857,315.142857 L1212.42857,315.142857 L1212.42857,310.821429 C1212.42857,310.706845 1212.4654,310.612724 1212.53906,310.539062 C1212.61272,310.465401 1212.70684,310.428571 1212.82143,310.428571 L1213.60714,310.428571 C1213.72173,310.428571 1213.81585,310.465401 1213.88951,310.539062 C1213.96317,310.612724 1214,310.706845 1214,310.821429 L1214,310.821429 Z M1219.10714,315.142857 C1219.10714,313.931542 1218.80841,312.814365 1218.21094,311.791295 C1217.61346,310.768224 1216.8032,309.957964 1215.78013,309.360491 C1214.75706,308.763018 1213.63989,308.464286 1212.42857,308.464286 C1211.21726,308.464286 1210.10008,308.763018 1209.07701,309.360491 C1208.05394,309.957964 1207.24368,310.768224 1206.64621,311.791295 C1206.04873,312.814365 1205.75,313.931542 1205.75,315.142857 C1205.75,316.354173 1206.04873,317.471349 1206.64621,318.49442 C1207.24368,319.51749 1208.05394,320.32775 1209.07701,320.925223 C1210.10008,321.522696 1211.21726,321.821429 1212.42857,321.821429 C1213.63989,321.821429 1214.75706,321.522696 1215.78013,320.925223 C1216.8032,320.32775 1217.61346,319.51749 1218.21094,318.49442 C1218.80841,317.471349 1219.10714,316.354173 1219.10714,315.142857 L1219.10714,315.142857 Z M1221.85714,315.142857 C1221.85714,316.853431 1221.43564,318.430982 1220.59263,319.875558 C1219.74962,321.320134 1218.60585,322.463909 1217.16127,323.30692 C1215.7167,324.14993 1214.13915,324.571429 1212.42857,324.571429 C1210.718,324.571429 1209.14045,324.14993 1207.69587,323.30692 C1206.25129,322.463909 1205.10752,321.320134 1204.26451,319.875558 C1203.4215,318.430982 1203,316.853431 1203,315.142857 C1203,313.432283 1203.4215,311.854732 1204.26451,310.410156 C1205.10752,308.965581 1206.25129,307.821805 1207.69587,306.978795 C1209.14045,306.135784 1210.718,305.714286 1212.42857,305.714286 C1214.13915,305.714286 1215.7167,306.135784 1217.16127,306.978795 C1218.60585,307.821805 1219.74962,308.965581 1220.59263,310.410156 C1221.43564,311.854732 1221.85714,313.432283 1221.85714,315.142857 L1221.85714,315.142857 Z" id="idle-nodes" fill="#4A90E2"></path>
        </g>
    </g>
</svg>