<?xml version="1.0" encoding="utf-8"?>
<!-- Generator: Adobe Illustrator 19.2.1, SVG Export Plug-In . SVG Version: 6.00 Build 0)  -->
<svg version="1.1" id="Layer_1" xmlns="http://www.w3.org/2000/svg" xmlns:xlink="http://www.w3.org/1999/xlink" x="0px" y="0px"
	 viewBox="0 0 367 90" style="enable-background:new 0 0 367 90;" xml:space="preserve">
<style type="text/css">
	.st0{fill:#FFFFFF;}
</style>
<g>
	<g>
		<g>
			<path class="st0" d="M60.3,45.1c0,8.4-6.9,15.2-15.3,15.2S29.8,53.4,29.8,45s6.9-15.2,15.3-15.2S60.3,36.7,60.3,45.1z"/>
			<path class="st0" d="M90,45.2C89.9,70.1,69.6,90.1,44.8,90c-10.3-0.1-19.8-3.6-27.3-9.4l13-12.9c4.2,2.7,9.1,4.2,14.4,4.3
				c14.9,0.1,27-12,27.1-26.9c0.1-14.8-12-27-26.9-27.1c-14.8-0.1-27,12-27.1,26.9c0,5.3,1.5,10.3,4.1,14.5l-13,12.9
				C3.4,64.6-0.1,55.1,0,44.8C0.1,19.9,20.4-0.1,45.2,0C70.1,0.1,90.1,20.4,90,45.2z"/>
		</g>
	</g>
	<g>
		<path class="st0" d="M106.9,69.8V18.3h10.3v51.5H106.9z"/>
		<path class="st0" d="M170.3,69.9l-29-30.1v30.1H131V18.3h3.2l28.5,28.8V18.3H173v51.6C173,69.9,170.3,69.9,170.3,69.9z"/>
		<path class="st0" d="M201.8,48c-1.7-0.4-4.9-1.3-7.8-3.2c-4.1-2.7-6.4-6.7-6.6-11.6c-0.2-4.1,1.1-7.7,3.8-10.5
			c3.8-4,9.3-5.1,12-5.1c7.5,0,11.7,2.7,15.4,5.1l1.7,1.1l-5.4,8.8l-1.8-1.2c-3.3-2.1-5.4-3.5-9.9-3.5c-0.7,0-3.2,0.5-4.6,1.9
			c-0.4,0.4-1,1.2-0.9,2.9c0.1,2.6,1.9,4.1,6.6,5.3c0.6,0.1,1,0.3,1.5,0.4c4.9,1.7,8.8,4,11.4,6.8c2.6,2.9,4,6.4,4,10.1
			c0,3.6-1.5,7.4-4.1,10.2c-3,3.4-7.2,5.3-11.8,5.3c-2.3,0-5.4-0.1-9-1.3c-4.6-1.5-8.8-4-12.3-7.8l7.5-7.1
			c5.4,5.8,11.5,5.8,13.8,5.8c4.3,0,5.7-3.9,5.7-5.2c0-2.8-3.2-5.4-8.5-7.2l-0.2-0.1L201.8,48z"/>
		<path class="st0" d="M250.7,18.3c8.5,0,15.4,7,15.4,15.5s-6.9,15.4-15.4,15.4h-6.4v20.6H234V18.3H250.7z M250.7,39
			c2.8,0,5.1-2.3,5.1-5.1c0-2.9-2.4-5.2-5.1-5.2h-6.4V39H250.7z"/>
		<g>
			<path class="st0" d="M311.4,28.6H277V18.3h34.3v10.3H311.4z M277,38.2h28.5v10.3H277V38.2z M277,59.6h34.1v10.3H277V59.6z"/>
		</g>
		<path class="st0" d="M359.8,30.8c-10-6.5-25.1-0.4-25.1,13.4c0,14.5,16,20.3,25.7,12.9l6.6,7.6c-4.6,3.8-10.6,6.2-17.1,6.2
			c-14.7,0-26.7-12-26.7-26.7s12-26.7,26.7-26.7c6.2,0,11.9,2.1,16.5,5.7L359.8,30.8z"/>
	</g>
</g>
</svg>
