<svg width="16" height="16" viewBox="0 0 16 16" fill="none" xmlns="http://www.w3.org/2000/svg">
<path fill-rule="evenodd" clip-rule="evenodd" d="M10.5 1.00006C8.01472 1.00006 6 3.01478 6 5.50006C5.99956 5.94235 6.06529 6.38222 6.195 6.80506L1 12.0001V15.0001H4L9.195 9.80506C10.4979 10.2048 11.9118 9.99259 13.0399 9.22788C14.1681 8.46317 14.8888 7.2284 15 5.87006C15.1009 4.80284 14.8075 3.7356 14.175 2.87006C13.3245 1.68914 11.9553 0.99246 10.5 1.00006ZM12 6.99994C12.5523 6.99994 13 6.55222 13 5.99994C13 5.44765 12.5523 4.99994 12 4.99994C11.4477 4.99994 11 5.44765 11 5.99994C11 6.55222 11.4477 6.99994 12 6.99994ZM9.5 8.85006C9.82432 8.9482 10.1612 8.99873 10.5 9.00006C11.6972 9.00101 12.8119 8.38993 13.455 7.38006C13.8439 6.78792 14.0347 6.08762 14 5.38006C13.9649 4.17442 13.3116 3.07177 12.2709 2.46201C11.2302 1.85224 9.94891 1.82127 8.88 2.38006C7.37433 3.19674 6.6609 4.96772 7.18 6.60006L7.325 7.07506L6.9 7.50006L2 12.4151V14.0001H3.585L4.69 12.8951L4 12.2051L4.705 11.5001L5.395 12.1901L6.19 11.3951L5.5 10.7051L6.205 10.0001L6.91 10.6901L8.5 9.10006L8.925 8.67506L9.5 8.85006Z" fill="#3864F2"/>
</svg>
