<?xml version="1.0" encoding="utf-8"?>
<!-- Generator: Adobe Illustrator 21.0.0, SVG Export Plug-In . SVG Version: 6.00 Build 0)  -->
<svg version="1.1" id="Layer_1" xmlns="http://www.w3.org/2000/svg" xmlns:xlink="http://www.w3.org/1999/xlink" x="0px" y="0px"
	 viewBox="0 0 159.4 18.1" style="enable-background:new 0 0 159.4 18.1;" xml:space="preserve">
<style type="text/css">
	.st0{fill:#FFFFFF;}
	.st1{fill:#D02429;}
	.st2{fill:#D02328;}
	.st3{fill:#6E6E6D;}
	.st4{fill:#6F6F6D;}
	.st5{fill:#FAFBFB;}
</style>
<g id="servicenow">
	<g>
		<path class="st0" d="M152.8,12.5c-0.4-0.4-0.4-0.7-0.5-1.1c-0.7-2.4-1.5-4.8-2.2-7.2c-0.4-1.2-1-1.5-2.4-1.5
			c-1.4,0-2.1,0.4-2.4,1.5c-0.4,1.4-0.9,2.8-1.3,4.1c-0.4,1.4-0.9,2.8-1.4,4.4c-0.1-0.5-0.2-0.7-0.3-1c-0.7-3.2-1.4-6.4-2.1-9.6
			c-0.5-2-2-2.6-3.8-1.6c-0.6,0.4-0.8,0.8-0.6,1.5c1.3,4.7,2.7,9.5,4,14.2c0.4,1.3,0.8,1.6,2.2,1.7c1.8,0.1,2.3-0.2,2.8-1.5
			c0.6-1.8,1.2-3.7,1.8-5.5c0.3-1,0.7-1.9,1-3c0.3,0.4,0.4,0.7,0.5,1c0.8,2.5,1.6,5,2.4,7.5c0.4,1.2,0.8,1.5,2,1.5
			c0.5,0,0.9,0,1.4-0.1c0.8-0.1,1.2-0.5,1.4-1.2c1.4-4.9,2.7-9.9,4.1-14.8c0.1-0.5,0-0.9-0.4-1.2c-1.7-1.2-3.4-0.6-3.8,1.5
			C154.4,5.6,153.6,9,152.8,12.5z M104.4,2.3c-0.7-1.6-1.5-2.2-2.8-2c-0.8,0.1-1.2,0.4-1.2,1.4c0.1,4.7,0,9.4,0,14.1
			c0,0.3,0,0.7,0.1,1c0.1,0.5,0.4,0.9,0.9,1.1c1.8,0.7,3-0.2,3-2.1c0-2.8,0.1-5.6,0-8.3c0-1.3,0.6-2.2,1.5-2.9
			c1.7-1.3,4.2-1.1,5.3,0.3c0.7,0.8,0.9,1.8,0.9,2.8c0,2.8,0,5.6,0,8.4c0,1.4,0.6,1.9,2,1.9c1.5,0,2-0.5,2-1.9c0-3.1,0-6.2,0-9.3
			c-0.1-3.3-1.8-5.8-4.6-6.5C109-0.3,106.5,0.2,104.4,2.3z M91.7,10C91.7,10,91.7,10,91.7,10c2,0,4,0,5.9,0c0.8,0,1.2-0.3,1.2-1.1
			c0.1-6.4-4.6-9.8-10-8.6c-5.8,1.3-8.2,7.9-5.8,13c2.8,6.1,11,5.7,14.3,2.6c0.4-0.4,0.7-0.8,0.9-1.3c0.3-0.7,0-1.5-0.7-1.9
			c-0.8-0.5-1.1,0-1.6,0.5c-1.7,2.2-4,2.5-6.4,2c-2.4-0.5-3.8-2.1-4.3-4.4c-0.1-0.6,0-0.8,0.6-0.8C87.8,10,89.7,10,91.7,10z
			 M24.5,10c1.9,0,3.9,0,5.8,0c0.6,0,1.2-0.1,1.2-0.8c0.2-2.9-0.8-6.6-4.2-8.3c-3.6-1.8-8.1-0.8-10.5,2.4C14.2,6.7,14.2,12,17,15.1
			c2.7,3.1,7.9,3.9,11.6,1.7c0.9-0.5,1.8-1.2,2.3-2.1c0.4-0.8,0.1-1.6-0.6-2.1c-0.8-0.5-1.2,0-1.6,0.6c-1.7,2.1-3.9,2.4-6.4,1.9
			c-2.3-0.5-3.7-2.1-4.3-4.3c-0.2-0.6,0-0.9,0.7-0.9C20.6,10,22.5,10,24.5,10z M126.2,18c2.2,0,3.8-0.4,5.1-1.1
			c4.3-2.4,5.8-8.1,3.3-12.4c-0.4-0.6-0.8-1.2-1.4-1.6c-0.8-0.5-1.8-0.2-2.6,0.6c-0.7,0.7-0.3,1.2,0.1,1.9c0.8,1.3,1.2,2.7,1.1,4.2
			c-0.2,2.4-1.8,4.4-4,4.8c-2.4,0.5-4.6-0.5-5.6-2.7c-1.1-2.3-0.8-4.5,0.7-6.5c0.6-0.8,0.4-1.3-0.2-1.8c-1.2-1.1-2.7-0.8-3.7,0.9
			c-1.8,3.2-1.8,6.4,0,9.5C120.7,16.7,123.4,17.9,126.2,18z M6.8,18c1.8,0,3.3-0.2,4.7-1c1.7-1,2.6-2.6,2.5-4.6
			c-0.1-2-1.3-3.1-3-3.9c-0.5-0.2-1-0.4-1.5-0.5C8,7.7,6.5,7.4,5,6.9C3.8,6.6,3.3,5.9,3.3,5c0-1,0.6-1.8,1.9-2.1
			c2.4-0.6,4.7-0.4,6.4,1.8c0.4,0.5,0.7,0.4,1.1,0.2c1.1-0.5,1.2-1.7,0.3-2.7C10.6-0.6,4.2-0.7,1.8,2c-2.3,2.5-1.6,6.1,1.6,7.4
			C4.2,9.7,5,9.9,5.9,10.1c1.4,0.3,2.8,0.5,4.1,1.1c1.5,0.7,1.6,2.5,0.2,3.5C9.8,15,9.4,15.2,9,15.3c-2.7,0.5-5.1,0.1-7-2.1
			c-0.2-0.2-0.4-0.5-0.8-0.4c-0.9,0.2-1.4,1.1-1.2,2c0.2,0.7,0.7,1.2,1.2,1.6C3,17.6,5,18,6.8,18z M64.9,10c0,2.1,1.2,4.7,3.9,6.5
			c3.4,2.3,8.7,1.8,11.3-1.1c0.6-0.6,1-1.3,1.1-2.2c0-0.8-0.5-1.3-1.2-1.5c-0.7-0.2-0.9,0.2-1.2,0.7c-1.4,2.6-4.6,3.7-7.4,2.4
			c-2.5-1.1-3.8-3.8-3.4-6.9c0.3-2.7,2.2-4.7,4.8-5.2c2.6-0.5,4.8,0.5,6.2,3c0.4,0.8,1,0.6,1.5,0.3c0.8-0.4,1-1.1,0.6-2.1
			c-0.5-1.4-1.6-2.4-2.9-3C72.1-1.9,64.9,1.7,64.9,10z M51.6,14.3c-0.3-0.3-0.4-0.6-0.5-0.9c-1.4-3.8-2.8-7.5-4.3-11.3
			c-0.2-0.5-0.4-1-0.8-1.5c-0.6-0.6-1.5-0.7-2.2-0.3c-0.8,0.5-0.4,1.1-0.2,1.7c1.9,4.9,3.9,9.7,5.8,14.6c0.4,1,1,1.4,2,1.4
			c1,0,1.7-0.4,2-1.4c1.9-4.9,3.8-9.8,5.7-14.7c0.2-0.6,0.5-1.2-0.3-1.7c-0.7-0.4-1.6-0.3-2.1,0.3c-0.3,0.4-0.5,0.8-0.7,1.2
			C54.7,6,53.2,10.1,51.6,14.3z M35.9,2.1c-0.2-0.5-0.3-0.8-0.5-1.1c-0.5-0.7-1.2-0.7-1.9-0.6C32.8,0.5,33,1.1,33,1.6
			c0,4.9,0,9.8,0,14.7c0,1.3,0.4,1.8,1.4,1.8c1.1,0,1.5-0.4,1.5-1.8c0-2.2,0-4.4,0-6.6C35.9,7.8,36,6,37,4.3
			c0.9-1.5,2.6-1.9,4.1-1.1c0.7,0.4,1,0.2,1.3-0.4c0.6-1.2-0.1-2.5-1.6-2.7C38.9-0.2,37.2,0.3,35.9,2.1z M60.6,9L60.6,9
			c0,2.4,0,4.9,0,7.3c0,1.2,0.4,1.7,1.4,1.7c1.1,0,1.5-0.4,1.5-1.6c0-4.9,0-9.8,0-14.6c0-1.2-0.5-1.7-1.5-1.7c-1,0-1.4,0.5-1.4,1.7
			C60.6,4.2,60.6,6.6,60.6,9z M128.6,5.7c0-1.2,0-2.5,0-3.7c0-1.4-0.6-2-1.9-1.9c-1.1,0-1.7,0.6-1.7,2c0,2.4,0,4.9,0,7.3
			c0,1.3,0.6,1.9,1.7,1.9c1.2,0,1.8-0.6,1.8-1.9C128.6,8.2,128.6,6.9,128.6,5.7z"/>
		<path class="st1" d="M152.8,12.5c0.8-3.5,1.5-6.9,2.3-10.3c0.4-2,2.1-2.7,3.8-1.5c0.4,0.3,0.6,0.7,0.4,1.2
			c-1.4,4.9-2.7,9.9-4.1,14.8c-0.2,0.7-0.7,1.2-1.4,1.2c-0.5,0-0.9,0.1-1.4,0.1c-1.2,0-1.6-0.4-2-1.5c-0.8-2.5-1.6-5-2.4-7.5
			c-0.1-0.3-0.1-0.7-0.5-1c-0.4,1.1-0.7,2-1,3c-0.6,1.8-1.2,3.7-1.8,5.5c-0.5,1.3-1,1.6-2.8,1.5c-1.4,0-1.8-0.4-2.2-1.7
			c-1.3-4.7-2.6-9.5-4-14.2c-0.2-0.7,0-1.1,0.6-1.5c1.8-1.1,3.3-0.5,3.8,1.6c0.7,3.2,1.4,6.4,2.1,9.6c0.1,0.2,0.1,0.5,0.3,1
			c0.5-1.6,1-3,1.4-4.4c0.4-1.4,0.9-2.8,1.3-4.1c0.4-1.1,1-1.5,2.4-1.5c1.4,0,2,0.4,2.4,1.5c0.7,2.4,1.5,4.8,2.2,7.2
			C152.4,11.7,152.5,12.1,152.8,12.5z"/>
		<path class="st2" d="M104.4,2.3c2.1-2.1,4.5-2.6,7.2-2c2.8,0.7,4.6,3.2,4.6,6.5c0,3.1,0,6.2,0,9.3c0,1.4-0.6,1.9-2,1.9
			c-1.4,0-2-0.5-2-1.9c0-2.8,0-5.6,0-8.4c0-1-0.2-2-0.9-2.8c-1.2-1.4-3.6-1.5-5.3-0.3c-1,0.7-1.6,1.5-1.5,2.9c0.1,2.8,0,5.6,0,8.3
			c0,1.9-1.3,2.7-3,2.1c-0.5-0.2-0.8-0.6-0.9-1.1c-0.1-0.3-0.1-0.7-0.1-1c0-4.7,0-9.4,0-14.1c0-1,0.4-1.3,1.2-1.4
			C102.9,0.2,103.7,0.7,104.4,2.3z"/>
		<path class="st3" d="M91.7,10c-2,0-4,0-5.9,0c-0.6,0-0.7,0.2-0.6,0.8c0.6,2.3,2,3.9,4.3,4.4c2.5,0.5,4.8,0.2,6.4-2
			c0.4-0.6,0.8-1,1.6-0.5c0.7,0.4,1,1.2,0.7,1.9c-0.2,0.5-0.5,0.9-0.9,1.3C94.1,19,85.9,19.4,83,13.2c-2.4-5.1,0-11.7,5.8-13
			c5.4-1.2,10.1,2.2,10,8.6c0,0.8-0.4,1.1-1.2,1.1C95.7,10,93.7,10,91.7,10C91.7,10,91.7,10,91.7,10z M90.5,7.4c1.5,0,3.1,0,4.6,0
			c0.4,0,0.7-0.1,0.5-0.6c-0.4-1.9-1.3-3.3-3.3-3.9c-3-0.9-6.2,0.8-7,3.8c-0.2,0.6,0.1,0.7,0.6,0.7C87.5,7.4,89,7.4,90.5,7.4z"/>
		<path class="st3" d="M24.5,10c-1.9,0-3.9,0-5.8,0c-0.7,0-0.9,0.3-0.7,0.9c0.6,2.3,2,3.9,4.3,4.3c2.4,0.5,4.7,0.2,6.4-1.9
			c0.4-0.6,0.8-1.1,1.6-0.6c0.7,0.5,1,1.3,0.6,2.1c-0.5,1-1.3,1.6-2.3,2.1c-3.7,2.1-8.9,1.4-11.6-1.7c-2.7-3.1-2.8-8.4-0.2-11.9
			c2.4-3.1,7-4.2,10.5-2.4c3.4,1.7,4.4,5.4,4.2,8.3c-0.1,0.8-0.6,0.8-1.2,0.8C28.4,10,26.4,10,24.5,10z M23.2,7.4c1.5,0,3,0,4.5,0
			c0.7,0,0.7-0.2,0.6-0.8c-0.6-2.4-2.3-3.9-4.8-3.9c-2.6,0-4.9,1.8-5.4,4.1c-0.1,0.5,0.1,0.6,0.5,0.6C20.2,7.4,21.7,7.4,23.2,7.4z"
			/>
		<path class="st1" d="M126.2,18c-2.8-0.1-5.6-1.3-7.2-4.2c-1.7-3.1-1.7-6.4,0-9.5c1-1.7,2.4-2,3.7-0.9c0.6,0.6,0.7,1.1,0.2,1.8
			c-1.5,2-1.7,4.3-0.7,6.5c1,2.2,3.3,3.2,5.6,2.7c2.2-0.5,3.8-2.4,4-4.8c0.1-1.5-0.3-2.9-1.1-4.2c-0.4-0.6-0.9-1.1-0.1-1.9
			c0.8-0.8,1.8-1,2.6-0.6c0.6,0.4,1,0.9,1.4,1.6c2.4,4.3,0.9,10-3.3,12.4C130,17.6,128.4,18,126.2,18z"/>
		<path class="st3" d="M6.8,18C5,18,3,17.6,1.3,16.4c-0.6-0.4-1-0.9-1.2-1.6c-0.3-0.9,0.3-1.8,1.2-2c0.4-0.1,0.6,0.1,0.8,0.4
			c1.9,2.2,4.3,2.6,7,2.1c0.4-0.1,0.8-0.3,1.2-0.5c1.3-0.9,1.3-2.7-0.2-3.5c-1.3-0.6-2.7-0.8-4.1-1.1C5,9.9,4.2,9.7,3.4,9.4
			C0.2,8.1-0.6,4.5,1.8,2C4.2-0.7,10.6-0.6,13,2.1c0.9,1,0.7,2.2-0.3,2.7c-0.4,0.2-0.8,0.2-1.1-0.2C9.8,2.5,7.6,2.3,5.1,2.9
			C3.9,3.2,3.3,4,3.3,5c0,0.9,0.5,1.5,1.7,1.9c1.5,0.4,3,0.8,4.5,1.2c0.5,0.1,1,0.3,1.5,0.5c1.7,0.7,2.9,1.9,3,3.9
			c0.1,2-0.8,3.5-2.5,4.6C10.1,17.8,8.6,18,6.8,18z"/>
		<path class="st3" d="M64.9,10c0-8.4,7.2-11.9,13.2-9c1.3,0.6,2.3,1.6,2.9,3c0.4,1,0.2,1.7-0.6,2.1c-0.6,0.3-1.1,0.5-1.5-0.3
			c-1.3-2.5-3.5-3.5-6.2-3C70,3.3,68.2,5.3,67.9,8c-0.4,3.1,0.9,5.7,3.4,6.9c2.8,1.3,6,0.2,7.4-2.4c0.3-0.5,0.4-0.9,1.2-0.7
			c0.8,0.3,1.3,0.7,1.2,1.5c0,0.9-0.5,1.6-1.1,2.2c-2.6,2.9-7.9,3.4-11.3,1.1C66.1,14.7,64.9,12.2,64.9,10z"/>
		<path class="st4" d="M51.6,14.3c1.6-4.2,3.1-8.3,4.7-12.4c0.2-0.4,0.3-0.9,0.7-1.2c0.5-0.6,1.4-0.7,2.1-0.3c0.8,0.5,0.5,1,0.3,1.7
			c-1.9,4.9-3.9,9.8-5.7,14.7c-0.4,1-1,1.4-2,1.4c-1,0-1.6-0.4-2-1.4c-1.9-4.9-3.9-9.8-5.8-14.6c-0.2-0.6-0.6-1.2,0.2-1.7
			c0.7-0.4,1.6-0.3,2.2,0.3c0.4,0.4,0.6,0.9,0.8,1.5c1.4,3.8,2.8,7.5,4.3,11.3C51.2,13.7,51.3,14,51.6,14.3z"/>
		<path class="st3" d="M35.9,2.1c1.3-1.8,3-2.3,4.9-2c1.4,0.2,2.2,1.5,1.6,2.7c-0.3,0.6-0.6,0.8-1.3,0.4c-1.5-0.9-3.2-0.4-4.1,1.1
			c-1,1.6-1.1,3.4-1.1,5.3c0,2.2,0,4.4,0,6.6c0,1.4-0.4,1.8-1.5,1.8c-1.1,0-1.4-0.5-1.4-1.8c0-4.9,0-9.8,0-14.7c0-0.5-0.2-1,0.5-1.2
			c0.7-0.2,1.4-0.1,1.9,0.6C35.6,1.2,35.7,1.6,35.9,2.1z"/>
		<path class="st4" d="M60.6,9c0-2.4,0-4.8,0-7.2c0-1.2,0.4-1.7,1.4-1.7c1,0,1.5,0.5,1.5,1.7c0,4.9,0,9.8,0,14.6
			c0,1.2-0.4,1.6-1.5,1.6c-1.1,0-1.4-0.4-1.4-1.7C60.6,13.9,60.6,11.5,60.6,9L60.6,9L60.6,9z"/>
		<path class="st2" d="M128.6,5.7c0,1.2,0,2.5,0,3.7c0,1.3-0.7,1.9-1.8,1.9c-1.1,0-1.7-0.7-1.7-1.9c0-2.4,0-4.9,0-7.3
			c0-1.3,0.5-1.9,1.7-2c1.3,0,1.8,0.5,1.9,1.9C128.6,3.2,128.6,4.5,128.6,5.7z"/>
		<path class="st5" d="M90.5,7.4c-1.5,0-3,0-4.5,0c-0.5,0-0.7-0.1-0.6-0.7c0.9-3,4.1-4.8,7-3.8c1.9,0.6,2.8,2.1,3.3,3.9
			c0.1,0.5-0.1,0.6-0.5,0.6C93.6,7.4,92,7.4,90.5,7.4z"/>
		<path class="st5" d="M23.2,7.4c-1.5,0-3,0-4.5,0c-0.5,0-0.7-0.1-0.5-0.6c0.5-2.3,2.9-4.1,5.4-4.1c2.5,0,4.2,1.5,4.8,3.9
			c0.1,0.6,0.1,0.8-0.6,0.8C26.2,7.4,24.7,7.4,23.2,7.4z"/>
	</g>
</g>
<g id="Layer_1_1_">
</g>
</svg>
