<svg xmlns="http://www.w3.org/2000/svg" width="32" height="32" viewBox="0 0 32 32">
  <g fill="none">
    <path fill="#37474F" d="M24.195122,26.2631579 C22.4741463,26.2631579 21.0731707,24.8460526 21.0731707,23.1052632 C21.0731707,21.3644737 22.4741463,19.9473684 24.195122,19.9473684 C25.9160976,19.9473684 27.3170732,21.3644737 27.3170732,23.1052632 C27.3170732,24.8460526 25.9160976,26.2631579 24.195122,26.2631579 Z"/>
    <path fill="#37474F" d="M17.7537048,8.12597407 L15.026783,9.66349961 L20.5702705,19.7230019 L21.9323796,18.9590304 C22.6197071,18.5735264 23.392231,18.3684211 24.195122,18.3684211 C26.7757506,18.3684211 28.8780488,20.4949233 28.8780488,23.1052632 C28.8780488,25.715603 26.7757506,27.8421053 24.195122,27.8421053 C22.7592933,27.8421053 21.4286908,27.1810313 20.5417131,26.0644336 L18.108043,28.0424085 C19.5808374,29.8964787 21.8019931,31 24.195122,31 C28.4999567,31 32,27.4596601 32,23.1052632 C32,18.7508662 28.4999567,15.2105263 24.195122,15.2105263 C23.3927645,15.2105263 22.6060911,15.3342557 21.8572025,15.5723956 L17.7537048,8.12597407 Z"/>
    <path fill="#37474F" d="M24.195122,24.6842105 L24.195122,21.5263158 L12.4878049,21.5263158 L12.4878049,23.1052632 C12.4878049,25.715603 10.3855067,27.8421053 7.80487805,27.8421053 C5.22424937,27.8421053 3.12195122,25.715603 3.12195122,23.1052632 C3.12195122,20.9374533 4.58543356,19.0536309 6.63387838,18.5178858 L5.85236552,15.4605353 C2.43481498,16.3543529 0,19.4884932 0,23.1052632 C0,27.4596601 3.50004332,31 7.80487805,31 C11.5752638,31 14.7282846,28.2841639 15.4530706,24.6842105 L24.195122,24.6842105 Z"/>
    <path fill="#E91E63" d="M7.80487805,26.2631579 C6.08390244,26.2631579 4.68292683,24.8460526 4.68292683,23.1052632 C4.68292683,21.3644737 6.08390244,19.9473684 7.80487805,19.9473684 C9.52585366,19.9473684 10.9268293,21.3644737 10.9268293,23.1052632 C10.9268293,24.8460526 9.52585366,26.2631579 7.80487805,26.2631579 Z"/>
    <path fill="#37474F" d="M16.3902439,12.0526316 C14.6692683,12.0526316 13.2682927,10.6355263 13.2682927,8.89473684 C13.2682927,7.15394737 14.6692683,5.73684211 16.3902439,5.73684211 C18.1112195,5.73684211 19.5121951,7.15394737 19.5121951,8.89473684 C19.5121951,10.6355263 18.1112195,12.0526316 16.3902439,12.0526316 Z"/>
    <path fill="#E91E63" d="M6.4715755,22.2841604 L9.1381806,23.9263659 L15.2609945,13.7539208 L13.940505,12.9297079 C12.5633511,12.0701267 11.7073171,10.5547791 11.7073171,8.89473684 C11.7073171,6.28439697 13.8096152,4.15789474 16.3902439,4.15789474 C18.9708726,4.15789474 21.0731707,6.28439697 21.0731707,8.89473684 C21.0731707,9.30443417 21.02148,9.70697573 20.9204082,10.0972748 L23.9404699,10.897462 C24.1089057,10.2470301 24.195122,9.57562115 24.195122,8.89473684 C24.195122,4.54033987 20.6950786,1 16.3902439,1 C12.0854092,1 8.58536585,4.54033987 8.58536585,8.89473684 C8.58536585,11.1209717 9.5087297,13.1910175 11.0610728,14.659168 L6.4715755,22.2841604 Z"/>
  </g>
</svg>
