<svg xmlns="http://www.w3.org/2000/svg" width="32" height="32" viewBox="0 0 32 32">
  <g fill="none">
    <path fill="#ECB32D" d="M20.6308943,2.10731707 C20.1365854,0.624390244 18.5495935,-0.182113821 17.0666667,0.286178862 C15.5837398,0.780487805 14.7772358,2.36747967 15.2455285,3.8504065 L22.5560976,26.3284553 C23.0504065,27.7073171 24.5593496,28.4878049 25.9902439,28.0715447 C27.499187,27.6292683 28.4097561,26.0422764 27.9154472,24.5853659 C27.9154472,24.5333333 20.6308943,2.10731707 20.6308943,2.10731707 Z"/>
    <path fill="#63C1A0" d="M9.31382114,5.77560976 C8.8195122,4.29268293 7.23252033,3.48617886 5.7495935,3.95447154 C4.26666667,4.44878049 3.4601626,6.03577236 3.92845528,7.51869919 L11.2390244,29.996748 C11.7333333,31.3756098 13.2422764,32.1560976 14.6731707,31.7398374 C16.1821138,31.297561 17.0926829,29.7105691 16.598374,28.2536585 C16.598374,28.201626 9.31382114,5.77560976 9.31382114,5.77560976 Z"/>
    <path fill="#E01A59" d="M29.8406504,20.7089431 C31.3235772,20.2146341 32.1300813,18.6276423 31.6617886,17.1447154 C31.1674797,15.6617886 29.5804878,14.8552846 28.097561,15.3235772 L5.59349593,22.6601626 C4.21463415,23.1544715 3.43414634,24.6634146 3.8504065,26.0943089 C4.29268293,27.603252 5.8796748,28.5138211 7.33658537,28.0195122 C7.38861789,28.0195122 29.8406504,20.7089431 29.8406504,20.7089431 Z"/>
    <path fill="#331433" d="M10.2764228,27.0829268 C11.7333333,26.6146341 13.6325203,25.9902439 15.6617886,25.3398374 C15.1934959,23.8829268 14.5691057,21.9837398 13.9186992,19.9544715 L8.53333333,21.697561 L10.2764228,27.0829268 Z"/>
    <path fill="#D62027" d="M21.6195122,23.3886179 C23.6487805,22.7382114 25.5479675,22.1138211 27.004878,21.6455285 C26.5365854,20.1886179 25.9121951,18.2894309 25.2617886,16.2601626 L19.8764228,18.003252 L21.6195122,23.3886179 Z"/>
    <path fill="#89D3DF" d="M26.1463415,9.39186992 C27.6292683,8.89756098 28.4357724,7.31056911 27.9674797,5.82764228 C27.4731707,4.34471545 25.8861789,3.53821138 24.403252,4.00650407 L1.92520325,11.3170732 C0.546341463,11.8113821 -0.234146341,13.3203252 0.182113821,14.7512195 C0.624390244,16.2601626 2.21138211,17.1707317 3.66829268,16.6764228 C3.7203252,16.6764228 26.1463415,9.39186992 26.1463415,9.39186992 Z"/>
    <path fill="#258B74" d="M6.60813008,15.7398374 C8.06504065,15.2715447 9.96422764,14.6471545 11.9934959,13.996748 C11.3430894,11.9674797 10.7186992,10.0682927 10.2504065,8.61138211 L4.86504065,10.3544715 L6.60813008,15.7398374 Z"/>
    <path fill="#819C3C" d="M17.9252033,12.0715447 C19.9544715,11.4211382 21.8536585,10.796748 23.3105691,10.3284553 C22.6601626,8.29918699 22.0357724,6.4 21.5674797,4.94308943 L16.1821138,6.68617886 L17.9252033,12.0715447 Z"/>
  </g>
</svg>
