<svg id="svg" version="1.1" width="400" height="400" viewBox="0 0 400 400" xmlns="http://www.w3.org/2000/svg" xmlns:xlink="http://www.w3.org/1999/xlink" ><g id="svgg"><path id="path0" d="M64.003 2.789 C 63.528 3.090,63.508 3.268,63.903 3.663 C 64.177 3.937,64.414 4.079,64.431 3.980 C 64.447 3.881,64.522 3.485,64.595 3.100 C 64.751 2.288,64.776 2.301,64.003 2.789 M335.378 3.128 C 335.481 3.833,336.089 3.932,336.307 3.279 C 336.377 3.070,336.174 2.799,335.856 2.677 C 335.477 2.531,335.313 2.686,335.378 3.128 M46.678 9.056 C 46.358 9.375,46.719 10.000,47.224 10.000 C 47.431 10.000,47.600 9.730,47.600 9.400 C 47.600 8.781,47.128 8.605,46.678 9.056 M352.400 9.400 C 352.400 9.767,352.594 10.002,352.830 9.923 C 353.067 9.845,353.260 9.609,353.260 9.400 C 353.260 9.191,353.067 8.956,352.830 8.877 C 352.594 8.798,352.400 9.033,352.400 9.400 M9.056 46.678 C 8.605 47.128,8.781 47.600,9.400 47.600 C 9.730 47.600,10.000 47.431,10.000 47.224 C 10.000 46.719,9.375 46.358,9.056 46.678 M390.256 46.678 C 389.805 47.128,389.981 47.600,390.600 47.600 C 390.930 47.600,391.200 47.431,391.200 47.224 C 391.200 46.719,390.575 46.358,390.256 46.678 M2.677 64.144 C 2.555 64.461,2.668 64.690,2.928 64.652 C 3.527 64.564,3.784 63.861,3.279 63.693 C 3.070 63.623,2.799 63.826,2.677 64.144 M396.200 64.000 C 396.064 64.220,396.008 64.414,396.076 64.431 C 397.228 64.716,397.519 64.653,397.330 64.161 C 397.078 63.505,396.552 63.431,396.200 64.000 M2.677 335.856 C 2.799 336.174,3.070 336.377,3.279 336.307 C 3.932 336.089,3.833 335.481,3.128 335.378 C 2.686 335.313,2.531 335.477,2.677 335.856 M396.211 335.522 C 395.957 335.776,396.363 336.400,396.781 336.400 C 396.964 336.400,397.207 336.160,397.319 335.867 C 397.509 335.371,396.634 335.099,396.211 335.522 M8.877 352.830 C 8.956 353.067,9.191 353.260,9.400 353.260 C 9.609 353.260,9.845 353.067,9.923 352.830 C 10.002 352.594,9.767 352.400,9.400 352.400 C 9.033 352.400,8.798 352.594,8.877 352.830 M390.077 352.830 C 390.156 353.067,390.391 353.260,390.600 353.260 C 390.809 353.260,391.045 353.067,391.123 352.830 C 391.202 352.594,390.967 352.400,390.600 352.400 C 390.233 352.400,389.998 352.594,390.077 352.830 M46.678 390.256 C 46.358 390.575,46.719 391.200,47.224 391.200 C 47.431 391.200,47.600 390.930,47.600 390.600 C 47.600 389.981,47.128 389.805,46.678 390.256 M352.400 390.600 C 352.400 390.967,352.594 391.202,352.830 391.123 C 353.067 391.045,353.260 390.809,353.260 390.600 C 353.260 390.391,353.067 390.156,352.830 390.077 C 352.594 389.998,352.400 390.233,352.400 390.600 M63.863 396.270 C 63.718 396.415,63.600 396.664,63.600 396.824 C 63.600 397.272,64.748 397.608,64.983 397.228 C 65.248 396.799,64.216 395.917,63.863 396.270 M335.244 396.547 C 334.665 397.245,335.203 397.693,336.016 397.190 C 336.431 396.934,336.471 396.711,336.160 396.400 C 335.848 396.088,335.590 396.130,335.244 396.547 M82.000 399.600 C 82.000 399.820,82.360 400.000,82.800 400.000 C 83.240 400.000,83.600 399.820,83.600 399.600 C 83.600 399.380,83.240 399.200,82.800 399.200 C 82.360 399.200,82.000 399.380,82.000 399.600 M316.400 399.600 C 316.400 399.820,316.760 400.000,317.200 400.000 C 317.640 400.000,318.000 399.820,318.000 399.600 C 318.000 399.380,317.640 399.200,317.200 399.200 C 316.760 399.200,316.400 399.380,316.400 399.600 " stroke="none" fill="#000000" fill-rule="evenodd"></path><path id="path1" d="M184.142 161.454 C 183.669 161.559,182.563 162.330,181.683 163.167 C 179.595 165.153,179.478 166.628,179.662 188.655 L 179.800 205.110 180.891 206.201 C 183.270 208.578,187.933 209.727,189.167 208.239 C 189.423 207.931,190.030 207.570,190.516 207.436 C 194.228 206.420,194.734 162.800,191.034 162.800 C 190.830 162.800,190.352 162.519,189.973 162.175 C 189.273 161.542,185.725 161.103,184.142 161.454 M104.895 162.766 C 103.518 162.938,101.808 163.358,101.095 163.699 C 100.383 164.040,98.772 164.805,97.516 165.399 C 96.260 165.993,95.023 166.731,94.767 167.039 C 94.511 167.348,94.099 167.603,93.851 167.606 C 93.603 167.609,92.604 168.329,91.632 169.206 C 89.376 171.240,87.761 171.382,87.140 169.600 C 86.910 168.940,86.588 168.400,86.425 168.400 C 86.262 168.400,85.928 167.959,85.682 167.420 C 85.387 166.773,84.697 166.295,83.651 166.014 C 82.780 165.779,81.557 165.321,80.933 164.996 C 78.904 163.938,74.333 164.194,73.170 165.432 L 72.200 166.464 72.077 198.532 C 71.932 236.644,71.842 235.090,74.296 237.099 C 77.752 239.930,84.965 239.029,86.836 235.532 C 87.078 235.081,87.313 226.722,87.433 214.294 C 87.646 192.439,87.861 189.784,89.722 186.029 C 90.658 184.143,95.341 179.200,96.193 179.200 C 96.473 179.200,96.917 178.942,97.179 178.626 C 97.441 178.310,98.225 177.926,98.922 177.773 C 99.618 177.620,100.633 177.204,101.177 176.848 C 102.611 175.907,111.579 175.906,112.658 176.846 C 113.066 177.202,113.884 177.607,114.476 177.748 C 115.707 178.040,120.147 182.168,120.799 183.627 C 121.039 184.162,121.494 185.050,121.811 185.600 C 122.129 186.150,122.391 187.011,122.394 187.514 C 122.397 188.017,122.699 188.885,123.066 189.444 C 123.660 190.351,123.751 192.841,123.920 212.801 L 124.110 235.142 125.215 236.271 C 127.462 238.565,127.562 238.601,131.590 238.586 C 135.685 238.572,137.936 237.680,138.628 235.800 C 139.711 232.855,139.030 183.102,137.877 180.920 C 137.504 180.216,137.199 179.226,137.197 178.720 C 137.196 178.214,136.837 177.260,136.400 176.600 C 135.963 175.940,135.604 175.145,135.603 174.834 C 135.601 174.522,135.343 173.982,135.030 173.634 C 130.201 168.267,128.157 166.485,126.074 165.823 C 125.633 165.683,125.054 165.306,124.787 164.985 C 124.520 164.663,123.954 164.400,123.529 164.400 C 123.104 164.400,121.977 164.045,121.025 163.611 C 119.043 162.708,109.396 162.203,104.895 162.766 M317.731 162.711 C 315.910 162.855,312.800 165.624,312.800 167.102 C 312.800 167.498,312.532 168.205,312.204 168.673 C 311.876 169.142,311.438 170.724,311.230 172.190 C 311.022 173.655,310.661 175.086,310.426 175.368 C 310.192 175.651,309.885 177.033,309.744 178.441 C 309.603 179.848,309.264 181.450,308.991 182.000 C 308.717 182.550,308.361 184.170,308.200 185.600 C 308.039 187.030,307.682 188.650,307.407 189.200 C 307.132 189.750,306.781 191.370,306.627 192.800 C 306.473 194.230,306.117 195.760,305.836 196.200 C 305.556 196.640,305.210 198.130,305.068 199.510 C 304.926 200.891,304.563 202.511,304.260 203.110 C 303.958 203.710,303.611 205.215,303.489 206.455 C 303.367 207.695,302.982 209.261,302.634 209.935 C 302.285 210.609,302.000 211.675,302.000 212.304 C 302.000 217.388,298.345 214.542,296.731 208.200 C 296.507 207.320,296.070 206.090,295.761 205.466 C 295.452 204.843,295.081 203.583,294.937 202.666 C 294.793 201.750,294.442 200.640,294.158 200.200 C 293.873 199.760,293.517 198.590,293.367 197.600 C 293.217 196.610,292.864 195.530,292.582 195.200 C 292.301 194.870,291.939 193.706,291.777 192.613 C 291.615 191.520,291.266 190.409,291.001 190.144 C 290.736 189.879,290.411 188.756,290.280 187.649 C 290.149 186.542,289.782 185.223,289.464 184.718 C 289.147 184.213,288.767 182.949,288.620 181.909 C 288.474 180.869,288.181 179.912,287.971 179.782 C 287.760 179.652,287.330 178.973,287.015 178.273 C 285.434 174.758,283.545 173.800,278.200 173.800 C 274.136 173.800,273.696 173.876,272.438 174.800 C 270.458 176.254,269.200 177.561,269.200 178.164 C 269.200 178.455,268.840 179.150,268.400 179.709 C 267.960 180.269,267.594 181.238,267.586 181.863 C 267.579 182.488,267.225 183.720,266.800 184.600 C 266.375 185.480,266.015 186.650,266.000 187.200 C 265.985 187.750,265.625 188.920,265.200 189.800 C 264.775 190.680,264.421 191.853,264.414 192.406 C 264.406 192.959,264.040 194.084,263.600 194.904 C 263.160 195.725,262.800 196.898,262.800 197.510 C 262.800 198.121,262.545 198.986,262.233 199.431 C 261.921 199.877,261.541 200.952,261.388 201.820 C 261.235 202.689,260.876 203.775,260.590 204.233 C 260.303 204.692,259.944 205.901,259.791 206.920 C 259.638 207.940,259.278 208.969,258.991 209.207 C 258.704 209.445,258.348 210.522,258.200 211.600 C 258.052 212.678,257.676 213.771,257.365 214.029 C 257.054 214.287,256.800 214.740,256.800 215.035 C 256.800 215.843,255.327 216.526,254.933 215.901 C 254.181 214.706,253.111 211.203,252.779 208.853 C 252.581 207.452,252.233 206.081,252.006 205.807 C 251.778 205.532,251.423 204.069,251.216 202.554 C 251.009 201.039,250.569 199.080,250.238 198.200 C 249.906 197.320,249.626 195.880,249.615 195.000 C 249.604 194.120,249.320 192.873,248.984 192.228 C 248.648 191.583,248.264 189.963,248.130 188.628 C 247.997 187.293,247.641 185.710,247.339 185.110 C 247.037 184.511,246.674 182.891,246.532 181.510 C 246.390 180.130,246.047 178.640,245.769 178.200 C 245.492 177.760,245.141 176.320,244.990 175.000 C 244.839 173.680,244.487 172.236,244.208 171.791 C 243.929 171.346,243.565 170.176,243.399 169.191 C 243.234 168.206,242.761 166.971,242.349 166.446 C 241.937 165.921,241.600 165.246,241.600 164.946 C 241.600 164.646,241.395 164.400,241.144 164.400 C 240.893 164.400,240.459 164.087,240.180 163.705 C 239.627 162.948,234.425 162.480,231.891 162.958 C 227.909 163.709,225.789 168.457,227.762 172.200 C 228.110 172.860,228.402 173.940,228.411 174.600 C 228.420 175.260,228.775 176.520,229.200 177.400 C 229.625 178.280,229.985 179.540,230.000 180.200 C 230.015 180.860,230.375 182.120,230.800 183.000 C 231.225 183.880,231.585 185.140,231.600 185.800 C 231.615 186.460,231.975 187.720,232.400 188.600 C 232.825 189.480,233.179 190.835,233.186 191.611 C 233.194 192.387,233.472 193.410,233.804 193.884 C 234.136 194.359,234.518 195.614,234.652 196.673 C 234.786 197.733,235.140 198.992,235.438 199.470 C 235.736 199.949,236.149 201.299,236.356 202.470 C 236.563 203.642,237.010 205.320,237.349 206.200 C 237.688 207.080,237.973 208.345,237.982 209.011 C 237.992 209.677,238.260 210.593,238.578 211.047 C 238.895 211.500,239.283 212.845,239.439 214.036 C 239.595 215.226,239.951 216.560,240.230 217.000 C 240.509 217.440,240.865 218.700,241.021 219.800 C 241.176 220.900,241.527 222.250,241.800 222.800 C 242.073 223.350,242.425 224.685,242.583 225.767 C 242.740 226.848,243.102 228.108,243.387 228.567 C 243.671 229.025,244.017 230.287,244.154 231.371 C 244.292 232.455,244.673 233.639,245.002 234.002 C 245.331 234.366,245.600 234.842,245.600 235.062 C 245.600 237.946,256.142 239.879,260.082 237.718 C 261.720 236.819,263.600 234.793,263.600 233.927 C 263.600 233.620,263.960 232.663,264.400 231.800 C 264.840 230.937,265.200 229.771,265.200 229.209 C 265.200 228.648,265.560 227.516,266.000 226.696 C 266.440 225.875,266.800 224.795,266.800 224.296 C 266.800 223.796,267.160 222.716,267.600 221.896 C 268.040 221.075,268.400 220.042,268.400 219.600 C 268.400 219.158,268.760 218.125,269.200 217.304 C 269.640 216.484,270.000 215.404,270.000 214.904 C 270.000 214.405,270.360 213.325,270.800 212.504 C 271.240 211.684,271.600 210.527,271.600 209.934 C 271.600 209.342,271.857 208.600,272.171 208.286 C 272.485 207.972,272.865 207.014,273.016 206.157 C 273.167 205.301,273.535 204.208,273.836 203.728 C 274.136 203.249,274.495 202.169,274.634 201.328 C 274.924 199.564,276.837 195.775,277.398 195.852 C 277.868 195.916,279.937 199.576,279.973 200.406 C 279.988 200.739,280.360 201.684,280.800 202.504 C 281.240 203.325,281.601 204.313,281.603 204.699 C 281.604 205.084,281.963 205.940,282.400 206.600 C 282.837 207.260,283.196 208.206,283.197 208.701 C 283.199 209.197,283.560 210.275,284.000 211.096 C 284.440 211.916,284.800 212.906,284.800 213.296 C 284.800 213.685,285.160 214.675,285.600 215.496 C 286.040 216.316,286.400 217.451,286.400 218.018 C 286.400 218.584,286.664 219.396,286.987 219.824 C 287.310 220.251,287.692 221.452,287.837 222.493 C 287.983 223.534,288.340 224.584,288.631 224.826 C 288.922 225.068,289.286 226.106,289.439 227.133 C 289.592 228.160,289.941 229.360,290.214 229.800 C 290.487 230.240,290.829 231.275,290.973 232.099 C 291.305 233.993,292.701 236.186,294.000 236.852 C 294.550 237.135,295.334 237.643,295.742 237.983 C 297.053 239.074,304.574 238.845,306.816 237.646 C 308.770 236.602,310.165 234.794,310.610 232.730 C 310.767 231.999,311.145 230.914,311.448 230.320 C 311.752 229.726,312.008 228.736,312.018 228.120 C 312.027 227.504,312.312 226.280,312.651 225.400 C 312.990 224.520,313.438 222.832,313.647 221.648 C 313.856 220.465,314.291 219.119,314.614 218.659 C 314.936 218.199,315.204 217.187,315.209 216.411 C 315.214 215.635,315.574 214.215,316.009 213.256 C 316.444 212.297,316.806 210.947,316.814 210.256 C 316.821 209.565,317.175 208.280,317.600 207.400 C 318.025 206.520,318.379 205.235,318.386 204.544 C 318.394 203.853,318.756 202.503,319.191 201.544 C 319.626 200.585,319.992 199.260,320.005 198.600 C 320.017 197.940,320.375 196.680,320.800 195.800 C 321.225 194.920,321.580 193.660,321.589 193.000 C 321.598 192.340,321.882 191.268,322.221 190.618 C 322.560 189.968,322.941 188.618,323.067 187.618 C 323.193 186.618,323.518 185.440,323.789 185.000 C 324.061 184.560,324.413 183.300,324.572 182.200 C 324.732 181.100,325.092 179.840,325.372 179.400 C 325.653 178.960,326.013 177.700,326.172 176.600 C 326.332 175.500,326.693 174.240,326.974 173.800 C 327.612 172.804,328.152 168.005,327.805 166.425 C 327.251 163.899,322.919 162.302,317.731 162.711 M159.276 173.862 C 158.767 173.972,158.253 174.318,158.133 174.631 C 158.013 174.944,157.707 175.200,157.453 175.200 C 157.199 175.200,156.543 175.759,155.996 176.442 C 155.448 177.125,154.735 177.962,154.411 178.302 C 154.088 178.642,153.621 179.298,153.374 179.760 C 153.127 180.222,152.357 181.639,151.663 182.909 C 150.968 184.179,150.400 185.584,150.400 186.031 C 150.400 186.478,150.063 187.599,149.651 188.522 C 148.145 191.897,148.220 209.735,149.753 212.600 C 150.106 213.260,150.396 214.116,150.398 214.501 C 150.399 214.887,150.760 215.875,151.200 216.696 C 151.640 217.516,152.000 218.466,152.000 218.805 C 152.000 219.145,152.360 219.730,152.800 220.107 C 153.240 220.484,153.600 221.036,153.600 221.334 C 153.600 221.632,153.960 222.202,154.400 222.600 C 154.840 222.998,155.200 223.506,155.200 223.728 C 155.200 224.170,155.426 224.433,158.359 227.400 C 160.397 229.462,161.743 230.637,163.049 231.493 C 163.462 231.764,164.483 232.439,165.318 232.993 C 166.153 233.547,167.024 234.000,167.255 234.000 C 167.485 234.000,168.131 234.360,168.691 234.800 C 169.250 235.240,170.094 235.600,170.565 235.600 C 171.036 235.600,171.822 235.880,172.310 236.222 C 172.799 236.564,174.318 237.024,175.685 237.245 C 177.053 237.465,178.431 237.860,178.748 238.123 C 179.738 238.945,192.595 238.766,194.708 237.900 C 195.648 237.515,196.998 237.199,197.708 237.197 C 198.419 237.196,199.540 236.837,200.200 236.400 C 200.860 235.963,201.670 235.601,202.000 235.597 C 202.330 235.592,203.050 235.332,203.600 235.018 C 204.150 234.705,205.140 234.171,205.800 233.832 C 211.157 231.082,217.530 224.663,219.802 219.727 C 220.124 219.027,220.557 218.350,220.763 218.223 C 220.970 218.095,221.262 217.408,221.414 216.695 C 221.565 215.983,221.923 215.130,222.209 214.800 C 222.496 214.470,222.924 213.140,223.162 211.845 C 223.399 210.550,223.814 209.224,224.085 208.898 C 224.878 207.942,224.756 194.158,223.940 192.600 C 223.594 191.940,223.197 190.650,223.056 189.734 C 222.916 188.817,222.544 187.557,222.230 186.934 C 221.916 186.310,221.097 184.630,220.409 183.200 C 219.212 180.711,218.774 179.957,217.014 177.360 C 213.759 172.554,208.722 172.255,204.228 176.600 C 203.011 177.776,203.058 181.785,204.306 183.372 C 204.798 183.997,205.200 184.664,205.200 184.854 C 205.200 185.044,205.560 185.560,206.000 186.000 C 206.440 186.440,206.800 187.138,206.800 187.551 C 206.800 187.964,207.056 188.514,207.369 188.774 C 207.682 189.034,208.060 189.970,208.209 190.856 C 208.359 191.741,208.732 192.946,209.038 193.533 C 209.811 195.014,209.822 205.366,209.052 206.841 C 208.753 207.414,208.384 208.715,208.231 209.732 C 208.079 210.749,207.808 211.672,207.629 211.782 C 207.450 211.893,206.804 212.971,206.193 214.180 C 204.595 217.338,199.169 222.400,197.382 222.400 C 197.062 222.400,196.800 222.573,196.800 222.784 C 196.800 222.995,196.035 223.373,195.100 223.623 C 194.165 223.874,192.864 224.365,192.210 224.715 C 190.528 225.615,181.130 225.612,180.100 224.712 C 179.715 224.376,178.725 223.980,177.900 223.833 C 177.075 223.685,176.400 223.387,176.400 223.172 C 176.400 222.956,175.947 222.608,175.394 222.398 C 173.232 221.576,166.800 215.730,166.800 214.586 C 166.800 214.331,166.440 213.707,166.000 213.200 C 165.560 212.693,165.200 211.985,165.200 211.628 C 165.200 211.270,164.912 210.566,164.559 210.063 C 162.652 207.341,162.673 192.930,164.587 190.815 C 164.924 190.442,165.200 189.865,165.200 189.532 C 165.200 189.031,166.305 186.655,167.958 183.600 C 170.294 179.283,169.951 176.244,167.028 175.357 C 166.572 175.218,165.898 174.841,165.530 174.517 C 164.840 173.913,160.935 173.504,159.276 173.862 " stroke="none" fill="#ffffff" fill-rule="evenodd"></path><path id="path2" d="M82.000 0.400 C 82.000 0.645,80.067 0.800,77.000 0.800 C 73.748 0.800,72.000 0.948,72.000 1.224 C 72.000 1.457,71.789 1.517,71.532 1.358 C 71.220 1.165,71.147 1.285,71.314 1.719 C 71.530 2.284,71.105 2.385,68.082 2.485 C 65.305 2.577,64.600 2.721,64.600 3.200 C 64.600 3.870,64.555 3.880,61.200 3.950 C 59.083 3.994,58.800 4.094,58.800 4.800 C 58.800 5.511,58.533 5.600,56.400 5.600 C 54.267 5.600,54.000 5.689,54.000 6.400 C 54.000 7.067,53.733 7.200,52.400 7.200 C 51.067 7.200,50.800 7.333,50.800 8.000 C 50.800 8.440,50.665 8.779,50.500 8.753 C 49.133 8.537,47.600 8.879,47.600 9.400 C 47.600 9.730,47.409 10.000,47.176 10.000 C 46.943 10.000,46.872 9.807,47.018 9.570 C 47.204 9.270,47.060 9.262,46.542 9.541 C 46.134 9.761,45.466 10.046,45.058 10.174 C 44.605 10.316,44.406 10.639,44.546 11.003 C 44.725 11.470,44.430 11.600,43.187 11.600 C 41.867 11.600,41.600 11.734,41.600 12.400 C 41.600 13.005,41.331 13.201,40.500 13.206 C 39.286 13.213,38.304 13.694,38.382 14.245 C 38.409 14.440,38.065 14.658,37.616 14.728 C 37.121 14.805,36.800 15.159,36.800 15.628 C 36.800 16.133,36.524 16.400,36.000 16.400 C 35.560 16.400,35.200 16.574,35.200 16.787 C 35.200 17.001,34.899 17.059,34.531 16.918 C 34.037 16.729,33.924 16.825,34.101 17.286 C 34.276 17.742,34.022 17.976,33.171 18.146 C 32.491 18.282,32.000 18.636,32.000 18.990 C 32.000 19.333,31.650 19.600,31.200 19.600 C 30.667 19.600,30.400 19.867,30.400 20.400 C 30.400 20.933,30.133 21.200,29.600 21.200 C 29.067 21.200,28.800 21.467,28.800 22.000 C 28.800 22.533,28.533 22.800,28.000 22.800 C 27.467 22.800,27.200 23.067,27.200 23.600 C 27.200 24.040,26.975 24.403,26.700 24.407 C 26.090 24.415,24.400 26.142,24.400 26.756 C 24.400 27.000,24.040 27.200,23.600 27.200 C 23.067 27.200,22.800 27.467,22.800 28.000 C 22.800 28.533,22.533 28.800,22.000 28.800 C 21.467 28.800,21.200 29.067,21.200 29.600 C 21.200 30.133,20.933 30.400,20.400 30.400 C 19.867 30.400,19.600 30.667,19.600 31.200 C 19.600 31.650,19.333 32.000,18.990 32.000 C 18.636 32.000,18.282 32.491,18.146 33.171 C 17.976 34.022,17.742 34.276,17.286 34.101 C 16.825 33.924,16.729 34.037,16.918 34.531 C 17.059 34.899,17.001 35.200,16.787 35.200 C 16.574 35.200,16.400 35.560,16.400 36.000 C 16.400 36.524,16.133 36.800,15.628 36.800 C 15.132 36.800,14.810 37.122,14.728 37.700 C 14.658 38.195,14.440 38.540,14.245 38.466 C 13.716 38.266,13.213 39.252,13.206 40.500 C 13.201 41.331,13.005 41.600,12.400 41.600 C 11.734 41.600,11.600 41.867,11.600 43.187 C 11.600 44.430,11.470 44.725,11.003 44.546 C 10.639 44.406,10.316 44.605,10.174 45.058 C 10.046 45.466,9.761 46.134,9.541 46.542 C 9.262 47.060,9.270 47.204,9.570 47.018 C 9.807 46.872,10.000 46.943,10.000 47.176 C 10.000 47.409,9.730 47.600,9.400 47.600 C 8.879 47.600,8.537 49.133,8.753 50.500 C 8.779 50.665,8.440 50.800,8.000 50.800 C 7.333 50.800,7.200 51.067,7.200 52.400 C 7.200 53.733,7.067 54.000,6.400 54.000 C 5.691 54.000,5.600 54.267,5.600 56.353 C 5.600 58.370,5.486 58.737,4.800 58.916 C 4.129 59.091,3.992 59.485,3.950 61.363 C 3.879 64.539,3.865 64.600,3.200 64.600 C 2.721 64.600,2.577 65.305,2.485 68.082 C 2.385 71.105,2.284 71.530,1.719 71.314 C 1.285 71.147,1.165 71.220,1.358 71.532 C 1.517 71.789,1.457 72.000,1.224 72.000 C 0.948 72.000,0.800 73.748,0.800 77.000 C 0.800 80.067,0.645 82.000,0.400 82.000 C 0.134 82.000,0.000 121.600,0.000 200.000 C 0.000 278.400,0.134 318.000,0.400 318.000 C 0.645 318.000,0.800 319.933,0.800 323.000 C 0.800 326.252,0.948 328.000,1.224 328.000 C 1.457 328.000,1.517 328.211,1.358 328.468 C 1.165 328.780,1.285 328.853,1.719 328.686 C 2.284 328.470,2.385 328.895,2.485 331.918 C 2.577 334.695,2.721 335.400,3.200 335.400 C 3.865 335.400,3.879 335.461,3.950 338.637 C 3.992 340.515,4.129 340.909,4.800 341.084 C 5.486 341.263,5.600 341.630,5.600 343.647 C 5.600 345.733,5.691 346.000,6.400 346.000 C 7.067 346.000,7.200 346.267,7.200 347.600 C 7.200 348.933,7.333 349.200,8.000 349.200 C 8.440 349.200,8.779 349.335,8.753 349.500 C 8.537 350.867,8.879 352.400,9.400 352.400 C 9.730 352.400,10.000 352.591,10.000 352.824 C 10.000 353.057,9.775 353.112,9.500 352.947 C 9.207 352.771,9.246 352.949,9.594 353.377 C 9.921 353.779,10.191 354.399,10.194 354.754 C 10.197 355.122,10.502 355.376,10.900 355.344 C 11.443 355.301,11.600 355.601,11.600 356.682 C 11.600 357.738,11.793 358.125,12.400 358.284 C 12.942 358.426,13.202 358.833,13.206 359.547 C 13.213 360.719,13.702 361.695,14.245 361.618 C 14.440 361.591,14.658 361.935,14.728 362.384 C 14.805 362.879,15.159 363.200,15.628 363.200 C 16.133 363.200,16.400 363.476,16.400 364.000 C 16.400 364.440,16.574 364.800,16.787 364.800 C 17.001 364.800,17.059 365.101,16.918 365.469 C 16.729 365.963,16.825 366.076,17.286 365.899 C 17.742 365.724,17.976 365.978,18.146 366.829 C 18.282 367.509,18.636 368.000,18.990 368.000 C 19.333 368.000,19.600 368.350,19.600 368.800 C 19.600 369.333,19.867 369.600,20.400 369.600 C 20.933 369.600,21.200 369.867,21.200 370.400 C 21.200 370.933,21.467 371.200,22.000 371.200 C 22.533 371.200,22.800 371.467,22.800 372.000 C 22.800 372.533,23.067 372.800,23.600 372.800 C 24.040 372.800,24.403 373.025,24.407 373.300 C 24.415 373.910,26.142 375.600,26.756 375.600 C 27.000 375.600,27.200 375.960,27.200 376.400 C 27.200 376.933,27.467 377.200,28.000 377.200 C 28.533 377.200,28.800 377.467,28.800 378.000 C 28.800 378.533,29.067 378.800,29.600 378.800 C 30.133 378.800,30.400 379.067,30.400 379.600 C 30.400 380.133,30.667 380.400,31.200 380.400 C 31.650 380.400,32.000 380.667,32.000 381.010 C 32.000 381.364,32.491 381.718,33.171 381.854 C 34.022 382.024,34.276 382.258,34.101 382.714 C 33.924 383.175,34.037 383.271,34.531 383.082 C 34.899 382.941,35.200 382.999,35.200 383.213 C 35.200 383.426,35.560 383.600,36.000 383.600 C 36.524 383.600,36.800 383.867,36.800 384.372 C 36.800 384.868,37.122 385.190,37.700 385.272 C 38.195 385.342,38.540 385.560,38.466 385.755 C 38.266 386.284,39.252 386.787,40.500 386.794 C 41.331 386.799,41.600 386.995,41.600 387.600 C 41.600 388.263,41.867 388.400,43.156 388.400 C 44.392 388.400,44.700 388.544,44.656 389.100 C 44.624 389.498,44.878 389.803,45.246 389.806 C 45.601 389.809,46.221 390.079,46.623 390.406 C 47.051 390.754,47.229 390.793,47.053 390.500 C 46.888 390.225,46.943 390.000,47.176 390.000 C 47.409 390.000,47.600 390.270,47.600 390.600 C 47.600 391.121,49.133 391.463,50.500 391.247 C 50.665 391.221,50.800 391.560,50.800 392.000 C 50.800 392.667,51.067 392.800,52.400 392.800 C 53.733 392.800,54.000 392.933,54.000 393.600 C 54.000 394.309,54.267 394.400,56.353 394.400 C 58.370 394.400,58.737 394.514,58.916 395.200 C 59.091 395.871,59.485 396.008,61.363 396.050 C 64.300 396.116,64.277 396.111,64.880 396.759 C 65.310 397.220,65.302 397.262,64.838 396.997 C 64.462 396.782,64.371 396.829,64.562 397.138 C 64.741 397.427,66.092 397.600,68.179 397.600 C 71.107 397.600,71.504 397.685,71.456 398.300 C 71.405 398.934,71.974 399.010,77.500 399.110 C 81.116 399.176,83.600 399.380,83.600 399.610 C 83.600 399.862,124.742 400.000,200.000 400.000 C 275.258 400.000,316.400 399.862,316.400 399.610 C 316.400 399.380,318.884 399.176,322.500 399.110 C 328.026 399.010,328.595 398.934,328.544 398.300 C 328.496 397.685,328.893 397.600,331.821 397.600 C 333.908 397.600,335.259 397.427,335.438 397.138 C 335.629 396.829,335.538 396.782,335.162 396.997 C 334.698 397.262,334.690 397.220,335.120 396.759 C 335.723 396.111,335.700 396.116,338.637 396.050 C 340.515 396.008,340.909 395.871,341.084 395.200 C 341.263 394.514,341.630 394.400,343.647 394.400 C 345.733 394.400,346.000 394.309,346.000 393.600 C 346.000 392.933,346.267 392.800,347.600 392.800 C 348.933 392.800,349.200 392.667,349.200 392.000 C 349.200 391.560,349.335 391.221,349.500 391.247 C 350.867 391.463,352.400 391.121,352.400 390.600 C 352.400 390.270,352.591 390.000,352.824 390.000 C 353.057 390.000,353.112 390.225,352.947 390.500 C 352.771 390.793,352.949 390.754,353.377 390.406 C 353.779 390.079,354.399 389.809,354.754 389.806 C 355.122 389.803,355.376 389.498,355.344 389.100 C 355.301 388.557,355.601 388.400,356.682 388.400 C 357.738 388.400,358.125 388.207,358.284 387.600 C 358.426 387.058,358.833 386.798,359.547 386.794 C 360.719 386.787,361.695 386.298,361.618 385.755 C 361.591 385.560,361.935 385.342,362.384 385.272 C 362.879 385.195,363.200 384.841,363.200 384.372 C 363.200 383.867,363.476 383.600,364.000 383.600 C 364.440 383.600,364.800 383.426,364.800 383.213 C 364.800 382.999,365.101 382.941,365.469 383.082 C 365.963 383.271,366.076 383.175,365.899 382.714 C 365.724 382.258,365.978 382.024,366.829 381.854 C 367.509 381.718,368.000 381.364,368.000 381.010 C 368.000 380.667,368.350 380.400,368.800 380.400 C 369.333 380.400,369.600 380.133,369.600 379.600 C 369.600 379.067,369.867 378.800,370.400 378.800 C 370.933 378.800,371.200 378.533,371.200 378.000 C 371.200 377.467,371.467 377.200,372.000 377.200 C 372.533 377.200,372.800 376.933,372.800 376.400 C 372.800 375.960,373.025 375.597,373.300 375.593 C 373.910 375.585,375.600 373.858,375.600 373.244 C 375.600 373.000,375.960 372.800,376.400 372.800 C 376.933 372.800,377.200 372.533,377.200 372.000 C 377.200 371.467,377.467 371.200,378.000 371.200 C 378.533 371.200,378.800 370.933,378.800 370.400 C 378.800 369.867,379.067 369.600,379.600 369.600 C 380.133 369.600,380.400 369.333,380.400 368.800 C 380.400 368.350,380.667 368.000,381.010 368.000 C 381.364 368.000,381.718 367.509,381.854 366.829 C 382.024 365.978,382.258 365.724,382.714 365.899 C 383.175 366.076,383.271 365.963,383.082 365.469 C 382.941 365.101,382.999 364.800,383.213 364.800 C 383.426 364.800,383.600 364.440,383.600 364.000 C 383.600 363.476,383.867 363.200,384.372 363.200 C 384.868 363.200,385.190 362.878,385.272 362.300 C 385.342 361.805,385.560 361.460,385.755 361.534 C 386.276 361.731,386.787 360.754,386.794 359.547 C 386.798 358.833,387.058 358.426,387.600 358.284 C 388.207 358.125,388.400 357.738,388.400 356.682 C 388.400 355.601,388.557 355.301,389.100 355.344 C 389.498 355.376,389.803 355.122,389.806 354.754 C 389.809 354.399,390.079 353.779,390.406 353.377 C 390.754 352.949,390.793 352.771,390.500 352.947 C 390.225 353.112,390.000 353.057,390.000 352.824 C 390.000 352.591,390.270 352.400,390.600 352.400 C 391.121 352.400,391.463 350.867,391.247 349.500 C 391.221 349.335,391.560 349.200,392.000 349.200 C 392.667 349.200,392.800 348.933,392.800 347.600 C 392.800 346.267,392.933 346.000,393.600 346.000 C 394.309 346.000,394.400 345.733,394.400 343.647 C 394.400 341.630,394.514 341.263,395.200 341.084 C 395.871 340.909,396.008 340.515,396.050 338.637 C 396.121 335.461,396.135 335.400,396.800 335.400 C 397.279 335.400,397.423 334.695,397.515 331.918 C 397.615 328.895,397.716 328.470,398.281 328.686 C 398.715 328.853,398.835 328.780,398.642 328.468 C 398.483 328.211,398.543 328.000,398.776 328.000 C 399.052 328.000,399.200 326.252,399.200 323.000 C 399.200 319.933,399.355 318.000,399.600 318.000 C 399.866 318.000,400.000 278.400,400.000 200.000 C 400.000 121.600,399.866 82.000,399.600 82.000 C 399.355 82.000,399.200 80.067,399.200 77.000 C 399.200 73.748,399.052 72.000,398.776 72.000 C 398.543 72.000,398.483 71.789,398.642 71.532 C 398.835 71.220,398.715 71.147,398.281 71.314 C 397.716 71.530,397.615 71.105,397.515 68.082 C 397.423 65.305,397.279 64.600,396.800 64.600 C 396.135 64.600,396.121 64.539,396.050 61.363 C 396.008 59.485,395.871 59.091,395.200 58.916 C 394.514 58.737,394.400 58.370,394.400 56.353 C 394.400 54.267,394.309 54.000,393.600 54.000 C 392.933 54.000,392.800 53.733,392.800 52.400 C 392.800 51.067,392.667 50.800,392.000 50.800 C 391.560 50.800,391.221 50.665,391.247 50.500 C 391.463 49.133,391.121 47.600,390.600 47.600 C 390.270 47.600,390.000 47.409,390.000 47.176 C 390.000 46.943,390.193 46.872,390.430 47.018 C 390.730 47.204,390.738 47.060,390.459 46.542 C 390.239 46.134,389.954 45.466,389.826 45.058 C 389.684 44.605,389.361 44.406,388.997 44.546 C 388.530 44.725,388.400 44.430,388.400 43.187 C 388.400 41.867,388.266 41.600,387.600 41.600 C 386.995 41.600,386.799 41.331,386.794 40.500 C 386.787 39.252,386.284 38.266,385.755 38.466 C 385.560 38.540,385.342 38.195,385.272 37.700 C 385.190 37.122,384.868 36.800,384.372 36.800 C 383.867 36.800,383.600 36.524,383.600 36.000 C 383.600 35.560,383.426 35.200,383.213 35.200 C 382.999 35.200,382.941 34.899,383.082 34.531 C 383.271 34.037,383.175 33.924,382.714 34.101 C 382.258 34.276,382.024 34.022,381.854 33.171 C 381.718 32.491,381.364 32.000,381.010 32.000 C 380.667 32.000,380.400 31.650,380.400 31.200 C 380.400 30.667,380.133 30.400,379.600 30.400 C 379.067 30.400,378.800 30.133,378.800 29.600 C 378.800 29.067,378.533 28.800,378.000 28.800 C 377.467 28.800,377.200 28.533,377.200 28.000 C 377.200 27.467,376.933 27.200,376.400 27.200 C 375.960 27.200,375.600 27.000,375.600 26.756 C 375.600 26.142,373.910 24.415,373.300 24.407 C 373.025 24.403,372.800 24.040,372.800 23.600 C 372.800 23.067,372.533 22.800,372.000 22.800 C 371.467 22.800,371.200 22.533,371.200 22.000 C 371.200 21.467,370.933 21.200,370.400 21.200 C 369.867 21.200,369.600 20.933,369.600 20.400 C 369.600 19.867,369.333 19.600,368.800 19.600 C 368.350 19.600,368.000 19.333,368.000 18.990 C 368.000 18.636,367.509 18.282,366.829 18.146 C 365.978 17.976,365.724 17.742,365.899 17.286 C 366.076 16.825,365.963 16.729,365.469 16.918 C 365.101 17.059,364.800 17.001,364.800 16.787 C 364.800 16.574,364.440 16.400,364.000 16.400 C 363.476 16.400,363.200 16.133,363.200 15.628 C 363.200 15.132,362.878 14.810,362.300 14.728 C 361.805 14.658,361.460 14.440,361.534 14.245 C 361.734 13.716,360.748 13.213,359.500 13.206 C 358.669 13.201,358.400 13.005,358.400 12.400 C 358.400 11.734,358.133 11.600,356.813 11.600 C 355.570 11.600,355.275 11.470,355.454 11.003 C 355.594 10.639,355.395 10.316,354.942 10.174 C 354.534 10.046,353.866 9.761,353.458 9.541 C 352.940 9.262,352.796 9.270,352.982 9.570 C 353.128 9.807,353.057 10.000,352.824 10.000 C 352.591 10.000,352.400 9.730,352.400 9.400 C 352.400 8.879,350.867 8.537,349.500 8.753 C 349.335 8.779,349.200 8.440,349.200 8.000 C 349.200 7.333,348.933 7.200,347.600 7.200 C 346.267 7.200,346.000 7.067,346.000 6.400 C 346.000 5.689,345.733 5.600,343.600 5.600 C 341.467 5.600,341.200 5.511,341.200 4.800 C 341.200 4.094,340.917 3.994,338.800 3.950 C 335.445 3.880,335.400 3.870,335.400 3.200 C 335.400 2.721,334.695 2.577,331.918 2.485 C 328.895 2.385,328.470 2.284,328.686 1.719 C 328.853 1.285,328.780 1.165,328.468 1.358 C 328.211 1.517,328.000 1.457,328.000 1.224 C 328.000 0.948,326.252 0.800,323.000 0.800 C 319.933 0.800,318.000 0.645,318.000 0.400 C 318.000 0.134,278.400 0.000,200.000 0.000 C 121.600 0.000,82.000 0.134,82.000 0.400 M118.180 161.346 C 118.631 161.639,119.862 161.975,120.916 162.092 C 121.970 162.209,123.154 162.597,123.548 162.953 C 123.941 163.309,124.656 163.600,125.135 163.600 C 125.615 163.600,126.316 163.960,126.693 164.400 C 127.070 164.840,127.620 165.200,127.916 165.200 C 128.212 165.200,129.439 166.003,130.643 166.984 C 133.057 168.950,136.400 172.841,136.400 173.684 C 136.400 173.980,136.760 174.530,137.200 174.907 C 137.640 175.284,138.000 175.960,138.000 176.410 C 138.000 176.860,138.301 177.687,138.669 178.249 C 139.083 178.882,139.460 180.661,139.659 182.935 C 139.836 184.951,140.157 187.950,140.373 189.600 C 140.588 191.250,140.773 202.006,140.782 213.501 C 140.802 236.823,140.919 235.793,137.956 238.499 L 136.685 239.660 131.348 239.530 L 126.011 239.400 124.617 238.000 C 122.395 235.770,122.002 231.721,121.993 211.030 C 121.985 193.448,121.666 187.609,120.657 186.600 C 120.332 186.274,119.950 185.481,119.808 184.838 C 119.667 184.194,119.292 183.567,118.976 183.446 C 118.659 183.324,118.400 183.011,118.400 182.748 C 118.400 182.158,116.133 180.096,115.135 179.779 C 114.731 179.651,114.400 179.386,114.400 179.191 C 114.400 178.996,113.725 178.728,112.900 178.596 C 112.075 178.464,110.809 178.096,110.086 177.778 C 108.394 177.033,106.076 177.042,104.262 177.800 C 103.472 178.130,102.325 178.403,101.713 178.406 C 101.101 178.409,100.150 178.671,99.600 178.989 C 99.050 179.306,98.174 179.757,97.653 179.991 C 94.801 181.271,92.014 184.235,90.913 187.158 C 90.632 187.905,90.195 188.765,89.942 189.070 C 89.616 189.463,89.401 196.040,89.201 211.712 C 88.887 236.428,88.893 236.372,86.110 238.500 C 82.335 241.387,72.163 239.542,71.369 235.826 C 71.225 235.152,70.903 234.347,70.654 234.039 C 69.697 232.855,69.825 169.140,70.789 167.025 C 71.235 166.045,71.600 165.130,71.600 164.991 C 71.600 163.060,75.902 161.771,78.254 162.998 C 78.884 163.326,80.030 163.602,80.800 163.610 C 83.549 163.639,88.000 166.698,88.000 168.558 C 88.000 169.724,90.793 168.787,91.720 167.310 C 91.896 167.029,92.282 166.800,92.577 166.800 C 92.873 166.800,93.216 166.536,93.340 166.213 C 93.464 165.890,94.158 165.353,94.883 165.021 C 95.607 164.688,96.470 164.254,96.800 164.055 C 98.535 163.013,101.226 162.000,102.264 162.000 C 102.911 162.000,103.657 161.783,103.922 161.518 C 105.088 160.352,116.441 160.215,118.180 161.346 M192.169 162.233 C 194.513 164.644,194.479 164.260,194.326 186.800 L 194.200 205.400 193.257 206.657 C 190.428 210.426,184.629 211.195,181.063 208.273 C 180.038 207.433,179.200 206.482,179.200 206.159 C 179.200 205.836,178.885 205.091,178.500 204.503 C 177.859 203.525,177.800 201.881,177.800 184.959 C 177.800 167.925,177.855 166.424,178.500 165.710 C 178.885 165.285,179.200 164.567,179.200 164.115 C 179.200 163.663,179.921 162.642,180.801 161.847 L 182.402 160.400 186.395 160.400 L 190.388 160.400 192.169 162.233 M238.624 161.387 C 239.051 161.710,239.641 161.980,239.936 161.987 C 240.612 162.003,242.800 164.042,242.800 164.656 C 242.800 164.908,243.060 165.214,243.378 165.336 C 243.696 165.458,244.079 166.242,244.229 167.079 C 244.379 167.916,244.724 168.870,244.997 169.200 C 245.270 169.530,245.601 170.764,245.733 171.942 C 245.864 173.121,246.174 174.328,246.422 174.626 C 246.669 174.924,247.025 176.395,247.213 177.895 C 247.402 179.396,247.835 181.158,248.175 181.812 C 248.516 182.465,248.796 183.758,248.798 184.685 C 248.799 185.612,249.160 187.284,249.600 188.400 C 250.040 189.516,250.401 191.188,250.402 192.115 C 250.404 193.042,250.688 194.340,251.034 195.000 C 251.381 195.660,251.812 197.370,251.992 198.800 C 252.173 200.230,252.601 202.120,252.943 203.000 C 253.285 203.880,253.573 205.377,253.582 206.326 C 253.592 207.276,253.817 208.446,254.081 208.926 C 254.346 209.407,254.763 210.780,255.008 211.977 L 255.454 214.154 256.292 212.377 C 256.753 211.400,257.254 209.970,257.404 209.200 C 257.555 208.430,257.904 207.440,258.181 207.000 C 258.457 206.560,258.808 205.360,258.961 204.333 C 259.114 203.306,259.478 202.268,259.769 202.026 C 260.060 201.784,260.417 200.734,260.563 199.693 C 260.708 198.652,261.090 197.451,261.413 197.024 C 261.736 196.596,262.000 195.780,262.000 195.208 C 262.000 194.637,262.360 193.463,262.800 192.600 C 263.240 191.737,263.606 190.574,263.614 190.015 C 263.621 189.457,263.975 188.280,264.400 187.400 C 264.825 186.520,265.179 185.298,265.186 184.684 C 265.194 184.070,265.560 182.862,266.000 182.000 C 266.440 181.138,266.800 180.078,266.800 179.645 C 266.800 179.211,267.025 178.619,267.300 178.329 C 267.575 178.038,268.319 177.035,268.954 176.100 C 269.589 175.165,270.335 174.400,270.612 174.400 C 270.888 174.400,271.214 174.140,271.336 173.822 C 271.458 173.504,272.242 173.121,273.079 172.970 C 273.916 172.819,274.853 172.494,275.161 172.248 C 275.887 171.669,280.507 171.666,281.239 172.244 C 281.547 172.488,282.364 172.794,283.053 172.924 C 284.274 173.155,288.000 176.149,288.000 176.898 C 288.000 177.105,288.360 177.731,288.800 178.291 C 289.240 178.850,289.600 179.740,289.600 180.268 C 289.600 180.796,289.869 181.639,290.198 182.140 C 290.526 182.642,290.915 183.940,291.061 185.026 C 291.207 186.112,291.559 187.360,291.843 187.800 C 292.127 188.240,292.487 189.410,292.642 190.400 C 292.798 191.390,293.150 192.560,293.424 193.000 C 293.699 193.440,294.050 194.610,294.205 195.600 C 294.360 196.590,294.714 197.670,294.990 198.000 C 295.267 198.330,295.612 199.378,295.756 200.328 C 295.900 201.279,296.263 202.449,296.562 202.928 C 296.861 203.408,297.223 204.588,297.366 205.551 C 297.509 206.514,297.890 207.679,298.213 208.140 C 298.536 208.601,298.800 209.471,298.800 210.073 C 298.800 211.390,300.373 213.082,300.870 212.301 C 301.045 212.025,301.191 211.074,301.194 210.186 C 301.197 209.299,301.560 207.548,302.000 206.296 C 302.440 205.044,302.801 203.340,302.802 202.510 C 302.804 201.679,303.065 200.502,303.383 199.892 C 303.701 199.283,304.136 197.518,304.351 195.969 C 304.565 194.420,304.920 192.937,305.140 192.673 C 305.359 192.408,305.666 191.024,305.823 189.596 C 305.979 188.168,306.330 186.550,306.603 186.000 C 306.876 185.450,307.227 183.740,307.383 182.200 C 307.539 180.660,307.896 179.040,308.176 178.600 C 308.457 178.160,308.814 176.602,308.971 175.139 C 309.127 173.675,309.507 172.145,309.815 171.739 C 310.123 171.332,310.383 170.370,310.393 169.600 C 310.403 168.830,310.671 167.750,310.989 167.200 C 311.306 166.650,311.741 165.815,311.956 165.345 C 313.521 161.915,321.348 159.169,323.200 161.400 C 323.474 161.730,324.091 162.000,324.571 162.000 C 327.873 162.000,330.971 167.529,329.379 170.582 C 329.040 171.232,328.659 172.582,328.533 173.582 C 328.407 174.582,328.071 175.775,327.787 176.233 C 327.502 176.692,327.144 177.952,326.991 179.033 C 326.838 180.115,326.491 181.360,326.220 181.800 C 325.948 182.240,325.607 183.488,325.461 184.574 C 325.315 185.660,324.954 186.920,324.659 187.374 C 324.364 187.828,323.996 189.165,323.842 190.344 C 323.687 191.523,323.321 192.873,323.028 193.344 C 322.735 193.815,322.386 195.067,322.252 196.127 C 322.118 197.186,321.736 198.441,321.404 198.916 C 321.072 199.390,320.800 200.420,320.800 201.204 C 320.800 201.989,320.440 203.337,320.000 204.200 C 319.560 205.063,319.200 206.409,319.200 207.191 C 319.200 207.972,318.840 209.284,318.400 210.104 C 317.960 210.925,317.600 212.208,317.600 212.955 C 317.600 213.702,317.244 215.097,316.809 216.056 C 316.374 217.015,316.013 218.340,316.006 219.000 C 316.000 219.660,315.725 220.718,315.395 221.350 C 315.065 221.983,314.632 223.423,314.431 224.550 C 314.231 225.678,313.790 227.320,313.451 228.200 C 313.112 229.080,312.827 230.372,312.818 231.071 C 312.808 231.771,312.552 232.591,312.249 232.894 C 311.946 233.197,311.569 234.032,311.411 234.750 C 311.253 235.467,310.878 236.149,310.578 236.264 C 310.277 236.379,309.921 236.817,309.788 237.237 C 309.655 237.657,309.371 238.000,309.157 238.000 C 308.943 238.000,308.263 238.373,307.645 238.830 C 306.091 239.979,294.678 239.872,293.823 238.700 C 293.542 238.315,293.113 238.000,292.870 238.000 C 292.627 238.000,292.216 237.595,291.956 237.100 C 291.696 236.605,291.254 236.064,290.973 235.898 C 290.692 235.731,290.335 235.014,290.179 234.303 C 290.023 233.593,289.670 232.649,289.395 232.206 C 289.120 231.763,288.779 230.622,288.638 229.672 C 288.497 228.721,288.137 227.551,287.838 227.072 C 287.539 226.592,287.178 225.417,287.036 224.460 C 286.894 223.504,286.513 222.456,286.189 222.132 C 285.865 221.808,285.600 221.058,285.600 220.466 C 285.600 219.873,285.240 218.716,284.800 217.896 C 284.360 217.075,284.000 215.995,284.000 215.496 C 284.000 214.996,283.640 213.916,283.200 213.096 C 282.760 212.275,282.400 211.247,282.400 210.811 C 282.400 210.376,282.041 209.430,281.601 208.710 C 281.162 207.989,280.802 206.927,280.801 206.349 C 280.801 205.771,280.535 205.078,280.211 204.809 C 279.886 204.540,279.504 203.663,279.360 202.860 C 279.216 202.057,278.867 201.130,278.583 200.800 C 278.300 200.470,277.898 199.570,277.690 198.800 L 277.311 197.400 277.005 199.000 C 276.836 199.880,276.467 200.870,276.185 201.200 C 275.902 201.530,275.546 202.649,275.392 203.687 C 275.239 204.725,274.863 205.782,274.557 206.036 C 274.250 206.290,274.000 206.959,274.000 207.523 C 274.000 208.086,273.658 209.279,273.240 210.174 C 272.822 211.068,272.368 212.457,272.230 213.260 C 272.092 214.063,271.714 214.940,271.389 215.209 C 271.065 215.478,270.799 216.261,270.799 216.949 C 270.798 217.637,270.438 218.789,269.999 219.510 C 269.559 220.230,269.200 221.223,269.200 221.716 C 269.200 222.209,268.840 223.284,268.400 224.104 C 267.960 224.925,267.600 226.048,267.600 226.600 C 267.600 227.152,267.240 228.275,266.800 229.096 C 266.360 229.916,265.999 231.041,265.997 231.594 C 265.996 232.147,265.637 233.140,265.200 233.800 C 264.763 234.460,264.404 235.239,264.403 235.531 C 264.399 236.247,261.214 239.181,260.149 239.448 C 257.481 240.119,248.200 239.398,246.789 238.410 C 245.008 237.163,243.584 235.039,243.307 233.213 C 243.188 232.436,242.858 231.529,242.573 231.198 C 242.287 230.867,241.924 229.607,241.766 228.398 C 241.607 227.189,241.252 225.840,240.977 225.400 C 240.701 224.960,240.347 223.614,240.188 222.410 C 240.030 221.205,239.672 219.855,239.393 219.410 C 239.115 218.964,238.762 217.715,238.609 216.633 C 238.456 215.552,238.098 214.292,237.813 213.833 C 237.528 213.375,237.192 212.052,237.066 210.893 C 236.939 209.735,236.558 208.390,236.218 207.904 C 235.878 207.419,235.594 206.387,235.586 205.611 C 235.579 204.835,235.225 203.480,234.800 202.600 C 234.375 201.720,234.015 200.460,234.000 199.800 C 233.985 199.140,233.625 197.880,233.200 197.000 C 232.775 196.120,232.421 194.814,232.414 194.099 C 232.406 193.383,232.040 192.125,231.600 191.304 C 231.160 190.484,230.800 189.174,230.800 188.395 C 230.800 187.616,230.528 186.590,230.196 186.116 C 229.864 185.641,229.482 184.386,229.348 183.327 C 229.214 182.267,228.846 180.987,228.531 180.482 C 228.216 179.977,227.853 178.627,227.725 177.482 C 227.598 176.337,227.202 175.066,226.846 174.658 C 226.333 174.069,226.200 172.984,226.200 169.372 L 226.200 164.828 227.600 163.620 C 228.370 162.956,229.450 162.308,230.000 162.181 C 230.550 162.054,231.540 161.703,232.200 161.401 C 233.834 160.653,237.642 160.645,238.624 161.387 M213.522 172.439 C 215.511 173.328,218.062 175.779,219.092 177.791 C 219.433 178.456,219.826 179.090,219.965 179.200 C 220.397 179.540,222.400 183.644,222.400 184.188 C 222.400 184.471,222.665 184.922,222.989 185.191 C 223.314 185.460,223.684 186.337,223.813 187.140 C 223.942 187.943,224.312 189.086,224.635 189.681 C 226.474 193.066,226.454 209.426,224.608 212.244 C 224.273 212.754,224.000 213.481,224.000 213.860 C 224.000 214.480,223.432 215.912,222.042 218.800 C 220.920 221.132,220.247 222.219,219.740 222.520 C 219.443 222.696,219.200 223.072,219.200 223.357 C 219.200 224.504,211.889 231.986,209.575 233.206 C 209.039 233.488,208.510 233.845,208.400 233.998 C 208.187 234.294,206.452 235.266,204.800 236.014 C 204.250 236.263,203.134 236.811,202.321 237.233 C 201.507 237.655,200.422 238.000,199.910 238.000 C 199.397 238.000,198.573 238.284,198.078 238.630 C 195.850 240.191,177.396 240.207,175.020 238.650 C 174.475 238.292,173.506 238.000,172.868 238.000 C 172.230 238.000,171.250 237.640,170.691 237.200 C 170.131 236.760,169.321 236.400,168.891 236.400 C 168.460 236.400,167.650 236.040,167.091 235.600 C 166.531 235.160,165.815 234.800,165.499 234.800 C 165.183 234.800,164.598 234.440,164.200 234.000 C 163.802 233.560,163.243 233.200,162.958 233.200 C 162.673 233.200,162.296 232.971,162.120 232.690 C 161.944 232.410,161.326 231.880,160.748 231.512 C 159.270 230.574,154.454 225.599,154.176 224.725 C 154.050 224.326,153.781 224.000,153.578 224.000 C 153.376 224.000,152.957 223.392,152.646 222.649 C 152.336 221.906,151.883 221.175,151.641 221.025 C 151.398 220.875,151.200 220.477,151.200 220.139 C 151.200 219.802,150.840 219.069,150.400 218.509 C 149.960 217.950,149.600 217.156,149.600 216.745 C 149.600 216.333,149.240 215.325,148.800 214.504 C 148.360 213.684,148.000 212.328,148.000 211.493 C 148.000 210.658,147.730 209.328,147.400 208.538 C 146.644 206.729,146.534 194.444,147.262 193.084 C 147.516 192.610,147.852 190.907,148.010 189.300 C 148.186 187.505,148.547 186.100,148.948 185.658 C 149.307 185.261,149.600 184.478,149.600 183.917 C 149.600 183.357,149.863 182.680,150.185 182.413 C 150.506 182.146,150.883 181.567,151.023 181.126 C 151.857 178.499,156.572 173.306,158.468 172.926 C 159.100 172.800,159.714 172.540,159.832 172.348 C 159.950 172.157,160.836 172.000,161.800 172.000 C 162.764 172.000,163.650 172.157,163.768 172.348 C 163.886 172.540,164.529 172.806,165.195 172.939 C 169.721 173.844,172.536 179.685,170.000 182.909 C 169.560 183.469,169.200 184.185,169.200 184.501 C 169.200 184.817,168.840 185.402,168.400 185.800 C 167.960 186.198,167.599 186.811,167.597 187.162 C 167.596 187.513,167.237 188.340,166.800 189.000 C 166.363 189.660,166.003 190.650,166.000 191.200 C 165.997 191.750,165.682 192.740,165.300 193.400 C 164.276 195.165,164.276 206.035,165.300 207.800 C 165.682 208.460,165.996 209.381,165.998 209.846 C 165.999 210.311,166.360 211.150,166.800 211.709 C 167.240 212.269,167.600 212.825,167.600 212.945 C 167.600 214.063,173.219 219.995,174.280 219.998 C 174.544 219.999,174.904 220.238,175.080 220.529 C 175.509 221.237,178.682 222.725,180.410 223.027 C 181.174 223.161,182.479 223.525,183.308 223.835 C 185.098 224.506,187.342 224.566,188.448 223.974 C 188.886 223.740,190.357 223.369,191.717 223.150 C 193.077 222.931,194.462 222.514,194.795 222.223 C 195.128 221.933,195.847 221.558,196.392 221.391 C 199.354 220.485,205.169 214.542,205.836 211.740 C 205.985 211.113,206.347 210.323,206.639 209.985 C 208.256 208.113,208.213 192.156,206.586 190.529 C 206.264 190.207,206.000 189.620,206.000 189.225 C 206.000 188.831,205.665 188.079,205.255 187.554 C 204.845 187.029,204.388 186.212,204.240 185.737 C 204.091 185.262,203.706 184.773,203.385 184.650 C 203.063 184.526,202.800 184.192,202.800 183.907 C 202.800 183.621,202.440 182.716,202.000 181.896 C 200.464 179.030,203.547 173.339,206.718 173.186 C 206.873 173.179,207.720 172.825,208.600 172.400 C 210.646 171.412,211.233 171.417,213.522 172.439 " stroke="none" fill="#d02229" fill-rule="evenodd"></path><path id="path3" d="M106.302 160.744 C 105.258 160.905,104.187 161.253,103.922 161.518 C 103.657 161.783,102.911 162.000,102.264 162.000 C 101.226 162.000,98.535 163.013,96.800 164.055 C 96.470 164.254,95.607 164.688,94.883 165.021 C 94.158 165.353,93.464 165.890,93.340 166.213 C 93.216 166.536,92.873 166.800,92.577 166.800 C 92.282 166.800,91.896 167.029,91.720 167.310 C 90.793 168.787,88.000 169.724,88.000 168.558 C 88.000 166.698,83.549 163.639,80.800 163.610 C 80.030 163.602,78.884 163.326,78.254 162.998 C 75.902 161.771,71.600 163.060,71.600 164.991 C 71.600 165.130,71.235 166.045,70.789 167.025 C 69.825 169.140,69.697 232.855,70.654 234.039 C 70.903 234.347,71.225 235.152,71.369 235.826 C 72.163 239.542,82.335 241.387,86.110 238.500 C 88.893 236.372,88.887 236.428,89.201 211.712 C 89.401 196.040,89.616 189.463,89.942 189.070 C 90.195 188.765,90.632 187.905,90.913 187.158 C 92.014 184.235,94.801 181.271,97.653 179.991 C 98.174 179.757,99.050 179.306,99.600 178.989 C 100.150 178.671,101.101 178.409,101.713 178.406 C 102.325 178.403,103.472 178.130,104.262 177.800 C 106.076 177.042,108.394 177.033,110.086 177.778 C 110.809 178.096,112.075 178.464,112.900 178.596 C 113.725 178.728,114.400 178.996,114.400 179.191 C 114.400 179.386,114.731 179.651,115.135 179.779 C 116.133 180.096,118.400 182.158,118.400 182.748 C 118.400 183.011,118.659 183.324,118.976 183.446 C 119.292 183.567,119.667 184.194,119.808 184.838 C 119.950 185.481,120.332 186.274,120.657 186.600 C 121.666 187.609,121.985 193.448,121.993 211.030 C 122.002 231.721,122.395 235.770,124.617 238.000 L 126.011 239.400 131.348 239.530 L 136.685 239.660 137.956 238.499 C 140.919 235.793,140.802 236.823,140.782 213.501 C 140.773 202.006,140.588 191.250,140.373 189.600 C 140.157 187.950,139.836 184.951,139.659 182.935 C 139.460 180.661,139.083 178.882,138.669 178.249 C 138.301 177.687,138.000 176.860,138.000 176.410 C 138.000 175.960,137.640 175.284,137.200 174.907 C 136.760 174.530,136.400 173.980,136.400 173.684 C 136.400 173.388,135.597 172.161,134.616 170.957 C 132.650 168.543,128.759 165.200,127.916 165.200 C 127.620 165.200,127.070 164.840,126.693 164.400 C 126.316 163.960,125.615 163.600,125.135 163.600 C 124.656 163.600,123.941 163.309,123.548 162.953 C 123.154 162.597,121.970 162.209,120.916 162.092 C 119.862 161.975,118.631 161.639,118.180 161.346 C 117.209 160.714,109.146 160.306,106.302 160.744 M180.801 161.847 C 179.921 162.642,179.200 163.663,179.200 164.115 C 179.200 164.567,178.885 165.285,178.500 165.710 C 177.855 166.424,177.800 167.925,177.800 184.959 C 177.800 201.881,177.859 203.525,178.500 204.503 C 178.885 205.091,179.200 205.836,179.200 206.159 C 179.200 206.482,180.038 207.433,181.063 208.273 C 184.629 211.195,190.428 210.426,193.257 206.657 L 194.200 205.400 194.326 186.800 C 194.479 164.260,194.513 164.644,192.169 162.233 L 190.388 160.400 186.395 160.400 L 182.402 160.400 180.801 161.847 M190.845 161.796 C 191.421 162.232,192.309 163.311,192.821 164.195 L 193.751 165.800 193.746 185.000 C 193.742 203.815,193.724 204.233,192.888 205.850 C 189.937 211.557,180.741 210.134,179.171 203.728 C 178.353 200.393,178.344 170.152,179.160 166.476 C 180.281 161.421,186.872 158.781,190.845 161.796 M232.200 161.401 C 231.540 161.703,230.550 162.054,230.000 162.181 C 229.450 162.308,228.370 162.956,227.600 163.620 L 226.200 164.828 226.200 169.372 C 226.200 172.984,226.333 174.069,226.846 174.658 C 227.202 175.066,227.598 176.337,227.725 177.482 C 227.853 178.627,228.216 179.977,228.531 180.482 C 228.846 180.987,229.214 182.267,229.348 183.327 C 229.482 184.386,229.864 185.641,230.196 186.116 C 230.528 186.590,230.800 187.616,230.800 188.395 C 230.800 189.174,231.160 190.484,231.600 191.304 C 232.040 192.125,232.406 193.383,232.414 194.099 C 232.421 194.814,232.775 196.120,233.200 197.000 C 233.625 197.880,233.985 199.140,234.000 199.800 C 234.015 200.460,234.375 201.720,234.800 202.600 C 235.225 203.480,235.579 204.835,235.586 205.611 C 235.594 206.387,235.878 207.419,236.218 207.904 C 236.558 208.390,236.939 209.735,237.066 210.893 C 237.192 212.052,237.528 213.375,237.813 213.833 C 238.098 214.292,238.456 215.552,238.609 216.633 C 238.762 217.715,239.115 218.964,239.393 219.410 C 239.672 219.855,240.030 221.205,240.188 222.410 C 240.347 223.614,240.701 224.960,240.977 225.400 C 241.252 225.840,241.607 227.189,241.766 228.398 C 241.924 229.607,242.287 230.867,242.573 231.198 C 242.858 231.529,243.188 232.436,243.307 233.213 C 243.584 235.039,245.008 237.163,246.789 238.410 C 248.200 239.398,257.481 240.119,260.149 239.448 C 261.214 239.181,264.399 236.247,264.403 235.531 C 264.404 235.239,264.763 234.460,265.200 233.800 C 265.637 233.140,265.996 232.147,265.997 231.594 C 265.999 231.041,266.360 229.916,266.800 229.096 C 267.240 228.275,267.600 227.152,267.600 226.600 C 267.600 226.048,267.960 224.925,268.400 224.104 C 268.840 223.284,269.200 222.209,269.200 221.716 C 269.200 221.223,269.559 220.230,269.999 219.510 C 270.438 218.789,270.798 217.637,270.799 216.949 C 270.799 216.261,271.065 215.478,271.389 215.209 C 271.714 214.940,272.092 214.063,272.230 213.260 C 272.368 212.457,272.822 211.068,273.240 210.174 C 273.658 209.279,274.000 208.086,274.000 207.523 C 274.000 206.959,274.250 206.290,274.557 206.036 C 274.863 205.782,275.239 204.725,275.392 203.687 C 275.546 202.649,275.902 201.530,276.185 201.200 C 276.467 200.870,276.836 199.880,277.005 199.000 L 277.311 197.400 277.690 198.800 C 277.898 199.570,278.300 200.470,278.583 200.800 C 278.867 201.130,279.216 202.057,279.360 202.860 C 279.504 203.663,279.886 204.540,280.211 204.809 C 280.535 205.078,280.801 205.771,280.801 206.349 C 280.802 206.927,281.162 207.989,281.601 208.710 C 282.041 209.430,282.400 210.376,282.400 210.811 C 282.400 211.247,282.760 212.275,283.200 213.096 C 283.640 213.916,284.000 214.996,284.000 215.496 C 284.000 215.995,284.360 217.075,284.800 217.896 C 285.240 218.716,285.600 219.873,285.600 220.466 C 285.600 221.058,285.865 221.808,286.189 222.132 C 286.513 222.456,286.894 223.504,287.036 224.460 C 287.178 225.417,287.539 226.592,287.838 227.072 C 288.137 227.551,288.497 228.721,288.638 229.672 C 288.779 230.622,289.120 231.763,289.395 232.206 C 289.670 232.649,290.023 233.593,290.179 234.303 C 290.335 235.014,290.692 235.731,290.973 235.898 C 291.254 236.064,291.696 236.605,291.956 237.100 C 292.216 237.595,292.627 238.000,292.870 238.000 C 293.113 238.000,293.542 238.315,293.823 238.700 C 294.678 239.872,306.091 239.979,307.645 238.830 C 308.263 238.373,308.943 238.000,309.157 238.000 C 309.371 238.000,309.655 237.657,309.788 237.237 C 309.921 236.817,310.277 236.379,310.578 236.264 C 310.878 236.149,311.253 235.467,311.411 234.750 C 311.569 234.032,311.946 233.197,312.249 232.894 C 312.552 232.591,312.808 231.771,312.818 231.071 C 312.827 230.372,313.112 229.080,313.451 228.200 C 313.790 227.320,314.231 225.678,314.431 224.550 C 314.632 223.423,315.065 221.983,315.395 221.350 C 315.725 220.718,316.000 219.660,316.006 219.000 C 316.013 218.340,316.374 217.015,316.809 216.056 C 317.244 215.097,317.600 213.702,317.600 212.955 C 317.600 212.208,317.960 210.925,318.400 210.104 C 318.840 209.284,319.200 207.972,319.200 207.191 C 319.200 206.409,319.560 205.063,320.000 204.200 C 320.440 203.337,320.800 201.989,320.800 201.204 C 320.800 200.420,321.072 199.390,321.404 198.916 C 321.736 198.441,322.118 197.186,322.252 196.127 C 322.386 195.067,322.735 193.815,323.028 193.344 C 323.321 192.873,323.687 191.523,323.842 190.344 C 323.996 189.165,324.364 187.828,324.659 187.374 C 324.954 186.920,325.315 185.660,325.461 184.574 C 325.607 183.488,325.948 182.240,326.220 181.800 C 326.491 181.360,326.838 180.115,326.991 179.033 C 327.144 177.952,327.502 176.692,327.787 176.233 C 328.071 175.775,328.407 174.582,328.533 173.582 C 328.659 172.582,329.040 171.232,329.379 170.582 C 330.971 167.529,327.873 162.000,324.571 162.000 C 324.091 162.000,323.474 161.730,323.200 161.400 C 321.348 159.169,313.521 161.915,311.956 165.345 C 311.741 165.815,311.306 166.650,310.989 167.200 C 310.671 167.750,310.403 168.830,310.393 169.600 C 310.383 170.370,310.123 171.332,309.815 171.739 C 309.507 172.145,309.127 173.675,308.971 175.139 C 308.814 176.602,308.457 178.160,308.176 178.600 C 307.896 179.040,307.539 180.660,307.383 182.200 C 307.227 183.740,306.876 185.450,306.603 186.000 C 306.330 186.550,305.979 188.168,305.823 189.596 C 305.666 191.024,305.359 192.408,305.140 192.673 C 304.920 192.937,304.565 194.420,304.351 195.969 C 304.136 197.518,303.701 199.283,303.383 199.892 C 303.065 200.502,302.804 201.679,302.802 202.510 C 302.801 203.340,302.440 205.044,302.000 206.296 C 301.560 207.548,301.197 209.299,301.194 210.186 C 301.191 211.074,301.045 212.025,300.870 212.301 C 300.373 213.082,298.800 211.390,298.800 210.073 C 298.800 209.471,298.536 208.601,298.213 208.140 C 297.890 207.679,297.509 206.514,297.366 205.551 C 297.223 204.588,296.861 203.408,296.562 202.928 C 296.263 202.449,295.900 201.279,295.756 200.328 C 295.612 199.378,295.267 198.330,294.990 198.000 C 294.714 197.670,294.360 196.590,294.205 195.600 C 294.050 194.610,293.699 193.440,293.424 193.000 C 293.150 192.560,292.798 191.390,292.642 190.400 C 292.487 189.410,292.127 188.240,291.843 187.800 C 291.559 187.360,291.207 186.112,291.061 185.026 C 290.915 183.940,290.526 182.642,290.198 182.140 C 289.869 181.639,289.600 180.796,289.600 180.268 C 289.600 179.740,289.240 178.850,288.800 178.291 C 288.360 177.731,288.000 177.105,288.000 176.898 C 288.000 176.149,284.274 173.155,283.053 172.924 C 282.364 172.794,281.547 172.488,281.239 172.244 C 280.507 171.666,275.887 171.669,275.161 172.248 C 274.853 172.494,273.916 172.819,273.079 172.970 C 272.242 173.121,271.458 173.504,271.336 173.822 C 271.214 174.140,270.888 174.400,270.612 174.400 C 270.335 174.400,269.589 175.165,268.954 176.100 C 268.319 177.035,267.575 178.038,267.300 178.329 C 267.025 178.619,266.800 179.211,266.800 179.645 C 266.800 180.078,266.440 181.138,266.000 182.000 C 265.560 182.862,265.194 184.070,265.186 184.684 C 265.179 185.298,264.825 186.520,264.400 187.400 C 263.975 188.280,263.621 189.457,263.614 190.015 C 263.606 190.574,263.240 191.737,262.800 192.600 C 262.360 193.463,262.000 194.637,262.000 195.208 C 262.000 195.780,261.736 196.596,261.413 197.024 C 261.090 197.451,260.708 198.652,260.563 199.693 C 260.417 200.734,260.060 201.784,259.769 202.026 C 259.478 202.268,259.114 203.306,258.961 204.333 C 258.808 205.360,258.457 206.560,258.181 207.000 C 257.904 207.440,257.555 208.430,257.404 209.200 C 257.254 209.970,256.753 211.400,256.292 212.377 L 255.454 214.154 255.008 211.977 C 254.763 210.780,254.346 209.407,254.081 208.926 C 253.817 208.446,253.592 207.276,253.582 206.326 C 253.573 205.377,253.285 203.880,252.943 203.000 C 252.601 202.120,252.173 200.230,251.992 198.800 C 251.812 197.370,251.381 195.660,251.034 195.000 C 250.688 194.340,250.404 193.042,250.402 192.115 C 250.401 191.188,250.040 189.516,249.600 188.400 C 249.160 187.284,248.799 185.612,248.798 184.685 C 248.796 183.758,248.516 182.465,248.175 181.812 C 247.835 181.158,247.402 179.396,247.213 177.895 C 247.025 176.395,246.669 174.924,246.422 174.626 C 246.174 174.328,245.864 173.121,245.733 171.942 C 245.601 170.764,245.270 169.530,244.997 169.200 C 244.724 168.870,244.379 167.916,244.229 167.079 C 244.079 166.242,243.696 165.458,243.378 165.336 C 243.060 165.214,242.800 164.908,242.800 164.656 C 242.800 164.042,240.612 162.003,239.936 161.987 C 239.641 161.980,239.051 161.710,238.624 161.387 C 237.642 160.645,233.834 160.653,232.200 161.401 M116.200 161.807 C 117.740 162.133,119.333 162.400,119.739 162.400 C 121.110 162.400,127.155 165.311,129.800 167.245 C 133.619 170.037,135.495 172.660,138.205 179.000 C 140.143 183.535,141.192 230.615,139.457 235.237 C 137.591 240.208,127.675 240.866,124.225 236.247 C 123.423 235.173,123.394 234.557,123.181 213.671 C 122.923 188.484,122.742 187.153,118.873 182.072 C 114.851 176.790,102.797 175.020,98.000 179.007 C 97.670 179.281,97.034 179.617,96.586 179.752 C 95.218 180.167,91.231 184.480,90.254 186.600 C 88.806 189.742,88.720 190.965,88.412 213.000 C 88.037 239.769,88.292 239.000,79.769 239.000 C 70.464 239.000,70.572 239.521,70.935 196.400 C 71.181 167.058,71.224 166.380,72.925 164.500 C 74.106 163.194,80.170 163.493,83.058 165.000 C 83.686 165.327,84.391 165.596,84.625 165.598 C 85.267 165.601,87.094 167.654,87.565 168.900 C 88.109 170.342,89.419 170.341,91.014 168.898 C 94.451 165.791,99.741 163.108,104.273 162.173 C 105.993 161.819,107.475 161.455,107.567 161.364 C 107.963 160.973,113.637 161.264,116.200 161.807 M238.217 162.106 C 240.582 162.829,243.563 165.687,243.618 167.284 C 243.627 167.568,243.910 168.520,244.246 169.400 C 244.872 171.038,245.360 172.985,246.782 179.532 C 247.228 181.585,247.688 183.418,247.804 183.607 C 247.921 183.795,248.269 185.266,248.578 186.875 C 248.887 188.484,249.347 190.700,249.601 191.800 C 250.734 196.721,251.581 200.476,252.352 204.000 C 254.017 211.608,254.946 214.915,255.466 215.089 C 256.069 215.290,258.129 210.242,259.234 205.858 C 259.448 205.010,259.864 203.840,260.158 203.258 C 260.452 202.676,260.814 201.533,260.961 200.717 C 261.109 199.901,261.492 198.731,261.812 198.117 C 262.133 197.503,262.396 196.701,262.398 196.336 C 262.399 195.970,262.736 194.710,263.148 193.536 C 263.559 192.361,264.277 190.140,264.744 188.600 C 268.426 176.446,269.878 174.218,274.806 173.161 C 281.863 171.648,287.533 174.788,289.195 181.131 C 290.205 184.985,291.960 190.864,292.857 193.400 C 293.091 194.060,293.511 195.500,293.792 196.600 C 294.073 197.700,294.492 199.050,294.725 199.600 C 294.957 200.150,295.622 202.220,296.203 204.200 C 296.783 206.180,297.515 208.391,297.829 209.114 C 298.143 209.836,298.400 210.747,298.400 211.139 C 298.400 211.530,298.935 212.363,299.588 212.989 C 301.052 214.391,301.105 214.269,302.985 205.200 C 303.586 202.300,304.613 197.833,305.238 195.400 C 305.463 194.520,305.899 192.492,306.205 190.893 C 306.511 189.295,306.870 187.811,307.002 187.596 C 307.135 187.382,307.496 185.810,307.805 184.103 C 308.574 179.862,309.947 173.610,310.201 173.199 C 310.315 173.014,310.588 171.918,310.807 170.765 C 312.189 163.475,316.522 160.417,323.017 162.147 C 329.483 163.869,329.981 166.049,326.595 177.800 C 326.024 179.780,325.328 182.390,325.048 183.600 C 324.768 184.810,324.327 186.193,324.069 186.674 C 323.811 187.154,323.603 187.874,323.606 188.274 C 323.609 188.673,323.228 190.260,322.759 191.800 C 321.859 194.757,321.016 197.744,319.600 203.000 C 319.126 204.760,318.389 207.370,317.963 208.800 C 317.537 210.230,317.191 211.670,317.194 212.000 C 317.198 212.330,316.851 213.680,316.423 215.000 C 315.384 218.213,313.689 224.337,312.604 228.800 C 310.516 237.393,308.500 239.200,301.000 239.200 C 294.030 239.200,291.834 237.569,289.800 230.881 C 289.218 228.966,288.485 226.809,288.171 226.086 C 287.857 225.364,287.600 224.497,287.600 224.161 C 287.600 223.824,287.262 222.705,286.849 221.674 C 286.437 220.643,285.544 218.090,284.867 216.000 C 283.232 210.959,282.484 208.859,281.782 207.340 C 281.462 206.646,281.194 205.836,281.186 205.540 C 281.179 205.243,280.825 204.280,280.400 203.400 C 279.975 202.520,279.621 201.592,279.614 201.337 C 279.585 200.360,277.459 196.781,277.113 197.127 C 276.766 197.474,274.526 203.576,273.416 207.200 C 272.572 209.954,271.566 212.912,271.170 213.800 C 270.974 214.240,270.201 216.490,269.451 218.800 C 268.701 221.110,267.911 223.450,267.697 224.000 C 267.482 224.550,266.893 226.350,266.387 228.000 C 264.458 234.290,263.760 235.718,261.791 237.400 L 259.919 239.000 254.459 239.000 C 245.957 239.000,244.686 237.743,242.180 226.857 C 241.858 225.459,241.477 224.125,241.334 223.894 C 241.191 223.662,240.841 222.467,240.555 221.237 C 239.712 217.608,238.829 214.285,238.368 213.000 C 238.130 212.340,237.694 210.810,237.399 209.600 C 236.716 206.806,236.107 204.524,235.104 201.000 C 233.531 195.475,232.762 192.764,231.987 190.004 C 231.213 187.246,230.335 184.134,228.771 178.600 C 228.336 177.060,227.705 174.940,227.370 173.890 C 226.565 171.369,226.234 168.408,226.563 166.659 C 227.200 163.260,233.692 160.724,238.217 162.106 M208.600 172.400 C 207.720 172.825,206.873 173.179,206.718 173.186 C 203.547 173.339,200.464 179.030,202.000 181.896 C 202.440 182.716,202.800 183.621,202.800 183.907 C 202.800 184.192,203.063 184.526,203.385 184.650 C 203.706 184.773,204.091 185.262,204.240 185.737 C 204.388 186.212,204.845 187.029,205.255 187.554 C 205.665 188.079,206.000 188.831,206.000 189.225 C 206.000 189.620,206.264 190.207,206.586 190.529 C 208.213 192.156,208.256 208.113,206.639 209.985 C 206.347 210.323,205.985 211.113,205.836 211.740 C 205.169 214.542,199.354 220.485,196.392 221.391 C 195.847 221.558,195.128 221.933,194.795 222.223 C 194.462 222.514,193.077 222.931,191.717 223.150 C 190.357 223.369,188.886 223.740,188.448 223.974 C 187.342 224.566,185.098 224.506,183.308 223.835 C 182.479 223.525,181.174 223.161,180.410 223.027 C 178.682 222.725,175.509 221.237,175.080 220.529 C 174.904 220.238,174.544 219.999,174.280 219.998 C 173.219 219.995,167.600 214.063,167.600 212.945 C 167.600 212.825,167.240 212.269,166.800 211.709 C 166.360 211.150,165.999 210.311,165.998 209.846 C 165.996 209.381,165.682 208.460,165.300 207.800 C 164.276 206.035,164.276 195.165,165.300 193.400 C 165.682 192.740,165.997 191.750,166.000 191.200 C 166.003 190.650,166.363 189.660,166.800 189.000 C 167.237 188.340,167.596 187.513,167.597 187.162 C 167.599 186.811,167.960 186.198,168.400 185.800 C 168.840 185.402,169.200 184.817,169.200 184.501 C 169.200 184.185,169.560 183.469,170.000 182.909 C 172.536 179.685,169.721 173.844,165.195 172.939 C 164.529 172.806,163.886 172.540,163.768 172.348 C 163.650 172.157,162.764 172.000,161.800 172.000 C 160.836 172.000,159.950 172.157,159.832 172.348 C 159.714 172.540,159.100 172.800,158.468 172.926 C 156.572 173.306,151.857 178.499,151.023 181.126 C 150.883 181.567,150.506 182.146,150.185 182.413 C 149.863 182.680,149.600 183.357,149.600 183.917 C 149.600 184.478,149.307 185.261,148.948 185.658 C 148.547 186.100,148.186 187.505,148.010 189.300 C 147.852 190.907,147.516 192.610,147.262 193.084 C 146.534 194.444,146.644 206.729,147.400 208.538 C 147.730 209.328,148.000 210.658,148.000 211.493 C 148.000 212.328,148.360 213.684,148.800 214.504 C 149.240 215.325,149.600 216.333,149.600 216.745 C 149.600 217.156,149.960 217.950,150.400 218.509 C 150.840 219.069,151.200 219.802,151.200 220.139 C 151.200 220.477,151.398 220.875,151.641 221.025 C 151.883 221.175,152.336 221.906,152.646 222.649 C 152.957 223.392,153.376 224.000,153.578 224.000 C 153.781 224.000,154.050 224.326,154.176 224.725 C 154.454 225.599,159.270 230.574,160.748 231.512 C 161.326 231.880,161.944 232.410,162.120 232.690 C 162.296 232.971,162.673 233.200,162.958 233.200 C 163.243 233.200,163.802 233.560,164.200 234.000 C 164.598 234.440,165.183 234.800,165.499 234.800 C 165.815 234.800,166.531 235.160,167.091 235.600 C 167.650 236.040,168.460 236.400,168.891 236.400 C 169.321 236.400,170.131 236.760,170.691 237.200 C 171.250 237.640,172.230 238.000,172.868 238.000 C 173.506 238.000,174.475 238.292,175.020 238.650 C 177.396 240.207,195.850 240.191,198.078 238.630 C 198.573 238.284,199.397 238.000,199.910 238.000 C 200.422 238.000,201.507 237.655,202.321 237.233 C 203.134 236.811,204.250 236.263,204.800 236.014 C 206.452 235.266,208.187 234.294,208.400 233.998 C 208.510 233.845,209.039 233.488,209.575 233.206 C 211.889 231.986,219.200 224.504,219.200 223.357 C 219.200 223.072,219.443 222.696,219.740 222.520 C 220.247 222.219,220.920 221.132,222.042 218.800 C 223.432 215.912,224.000 214.480,224.000 213.860 C 224.000 213.481,224.273 212.754,224.608 212.244 C 226.454 209.426,226.474 193.066,224.635 189.681 C 224.312 189.086,223.942 187.943,223.813 187.140 C 223.684 186.337,223.314 185.460,222.989 185.191 C 222.665 184.922,222.400 184.471,222.400 184.188 C 222.400 183.644,220.397 179.540,219.965 179.200 C 219.826 179.090,219.433 178.456,219.092 177.791 C 216.750 173.217,211.982 170.767,208.600 172.400 M166.287 174.096 C 170.355 176.104,171.323 178.957,169.238 182.800 C 167.321 186.335,165.600 189.932,165.600 190.403 C 165.600 190.643,165.314 191.392,164.965 192.067 C 163.608 194.692,163.469 206.195,164.763 208.714 C 164.957 209.091,165.706 210.623,166.426 212.117 C 169.868 219.252,178.446 224.800,186.037 224.800 C 201.789 224.800,212.324 209.685,208.061 193.200 C 207.356 190.472,206.561 188.415,205.588 186.800 C 201.846 180.588,201.611 179.798,202.845 177.555 C 205.320 173.057,212.176 171.423,215.600 174.515 C 217.843 176.542,222.721 185.114,223.414 188.250 C 223.554 188.882,223.927 190.088,224.242 190.928 C 225.654 194.688,225.630 207.515,224.205 210.927 C 223.872 211.723,223.600 212.675,223.600 213.043 C 223.600 214.067,220.576 220.447,219.234 222.254 C 218.885 222.723,218.330 223.530,218.000 224.046 C 214.534 229.468,205.349 235.914,198.400 237.803 C 193.721 239.074,191.699 239.273,185.005 239.121 C 178.029 238.963,177.884 238.937,171.600 236.725 C 164.137 234.099,155.086 226.780,152.794 221.517 C 152.574 221.013,151.878 219.692,151.247 218.582 C 150.616 217.472,149.966 215.942,149.804 215.182 C 149.641 214.422,149.332 213.582,149.117 213.315 C 148.902 213.048,148.479 210.978,148.176 208.715 C 145.205 186.509,154.693 168.372,166.287 174.096 " stroke="none" fill="#e06e72" fill-rule="evenodd"></path><path id="path4" d="M183.111 161.109 C 181.229 161.910,179.717 163.965,179.160 166.476 C 178.344 170.152,178.353 200.393,179.171 203.728 C 180.741 210.134,189.937 211.557,192.888 205.850 C 193.724 204.233,193.742 203.815,193.746 185.000 L 193.751 165.800 192.821 164.195 C 191.149 161.307,186.281 159.761,183.111 161.109 M107.567 161.364 C 107.475 161.455,105.993 161.819,104.273 162.173 C 99.741 163.108,94.451 165.791,91.014 168.898 C 89.419 170.341,88.109 170.342,87.565 168.900 C 87.094 167.654,85.267 165.601,84.625 165.598 C 84.391 165.596,83.686 165.327,83.058 165.000 C 80.170 163.493,74.106 163.194,72.925 164.500 C 71.224 166.380,71.181 167.058,70.935 196.400 C 70.572 239.521,70.464 239.000,79.769 239.000 C 88.292 239.000,88.037 239.769,88.412 213.000 C 88.720 190.965,88.806 189.742,90.254 186.600 C 91.231 184.480,95.218 180.167,96.586 179.752 C 97.034 179.617,97.670 179.281,98.000 179.007 C 102.797 175.020,114.851 176.790,118.873 182.072 C 122.742 187.153,122.923 188.484,123.181 213.671 C 123.425 237.546,123.237 235.997,126.154 238.175 C 127.921 239.494,135.668 239.399,137.484 238.037 C 140.302 235.922,141.123 223.785,140.015 200.600 C 139.041 180.217,139.120 180.804,136.675 175.600 C 133.883 169.655,124.575 162.400,119.739 162.400 C 119.333 162.400,117.740 162.133,116.200 161.807 C 113.637 161.264,107.963 160.973,107.567 161.364 M189.973 162.175 C 190.352 162.519,190.830 162.800,191.034 162.800 C 193.410 162.800,194.533 200.458,192.300 205.259 C 191.737 206.470,191.069 207.285,190.516 207.436 C 190.030 207.570,189.423 207.931,189.167 208.239 C 187.933 209.727,183.270 208.578,180.891 206.201 L 179.800 205.110 179.662 188.655 C 179.478 166.628,179.595 165.153,181.683 163.167 C 182.563 162.330,183.669 161.559,184.142 161.454 C 185.725 161.103,189.273 161.542,189.973 162.175 M232.337 162.178 C 226.744 163.404,225.191 167.065,227.370 173.890 C 227.705 174.940,228.336 177.060,228.771 178.600 C 230.335 184.134,231.213 187.246,231.987 190.004 C 232.762 192.764,233.531 195.475,235.104 201.000 C 236.107 204.524,236.716 206.806,237.399 209.600 C 237.694 210.810,238.130 212.340,238.368 213.000 C 238.829 214.285,239.712 217.608,240.555 221.237 C 240.841 222.467,241.191 223.662,241.334 223.894 C 241.477 224.125,241.858 225.459,242.180 226.857 C 244.686 237.743,245.957 239.000,254.459 239.000 L 259.919 239.000 261.791 237.400 C 263.760 235.718,264.458 234.290,266.387 228.000 C 266.893 226.350,267.482 224.550,267.697 224.000 C 267.911 223.450,268.701 221.110,269.451 218.800 C 270.201 216.490,270.974 214.240,271.170 213.800 C 271.566 212.912,272.572 209.954,273.416 207.200 C 274.526 203.576,276.766 197.474,277.113 197.127 C 277.459 196.781,279.585 200.360,279.614 201.337 C 279.621 201.592,279.975 202.520,280.400 203.400 C 280.825 204.280,281.179 205.243,281.186 205.540 C 281.194 205.836,281.462 206.646,281.782 207.340 C 282.484 208.859,283.232 210.959,284.867 216.000 C 285.544 218.090,286.437 220.643,286.849 221.674 C 287.262 222.705,287.600 223.824,287.600 224.161 C 287.600 224.497,287.857 225.364,288.171 226.086 C 288.485 226.809,289.218 228.966,289.800 230.881 C 291.834 237.569,294.030 239.200,301.000 239.200 C 308.500 239.200,310.516 237.393,312.604 228.800 C 313.689 224.337,315.384 218.213,316.423 215.000 C 316.851 213.680,317.198 212.330,317.194 212.000 C 317.191 211.670,317.537 210.230,317.963 208.800 C 318.389 207.370,319.126 204.760,319.600 203.000 C 321.016 197.744,321.859 194.757,322.759 191.800 C 323.228 190.260,323.609 188.673,323.606 188.274 C 323.603 187.874,323.811 187.154,324.069 186.674 C 324.327 186.193,324.768 184.810,325.048 183.600 C 325.328 182.390,326.024 179.780,326.595 177.800 C 329.981 166.049,329.483 163.869,323.017 162.147 C 316.522 160.417,312.189 163.475,310.807 170.765 C 310.588 171.918,310.315 173.014,310.201 173.199 C 309.947 173.610,308.574 179.862,307.805 184.103 C 307.496 185.810,307.135 187.382,307.002 187.596 C 306.870 187.811,306.511 189.295,306.205 190.893 C 305.899 192.492,305.463 194.520,305.238 195.400 C 304.613 197.833,303.586 202.300,302.985 205.200 C 301.105 214.269,301.052 214.391,299.588 212.989 C 298.935 212.363,298.400 211.530,298.400 211.139 C 298.400 210.747,298.143 209.836,297.829 209.114 C 297.515 208.391,296.783 206.180,296.203 204.200 C 295.622 202.220,294.957 200.150,294.725 199.600 C 294.492 199.050,294.073 197.700,293.792 196.600 C 293.511 195.500,293.091 194.060,292.857 193.400 C 291.960 190.864,290.205 184.985,289.195 181.131 C 287.533 174.788,281.863 171.648,274.806 173.161 C 269.878 174.218,268.426 176.446,264.744 188.600 C 264.277 190.140,263.559 192.361,263.148 193.536 C 262.736 194.710,262.399 195.970,262.398 196.336 C 262.396 196.701,262.133 197.503,261.812 198.117 C 261.492 198.731,261.109 199.901,260.961 200.717 C 260.814 201.533,260.452 202.676,260.158 203.258 C 259.864 203.840,259.448 205.010,259.234 205.858 C 258.129 210.242,256.069 215.290,255.466 215.089 C 254.946 214.915,254.017 211.608,252.352 204.000 C 251.581 200.476,250.734 196.721,249.601 191.800 C 249.347 190.700,248.887 188.484,248.578 186.875 C 248.269 185.266,247.921 183.795,247.804 183.607 C 247.688 183.418,247.228 181.585,246.782 179.532 C 245.360 172.985,244.872 171.038,244.246 169.400 C 243.910 168.520,243.627 167.568,243.618 167.284 C 243.608 167.000,243.195 166.195,242.700 165.495 C 240.246 162.023,237.319 161.086,232.337 162.178 M121.025 163.611 C 121.977 164.045,123.104 164.400,123.529 164.400 C 123.954 164.400,124.520 164.663,124.787 164.985 C 125.054 165.306,125.633 165.683,126.074 165.823 C 128.157 166.485,130.201 168.267,135.030 173.634 C 135.343 173.982,135.601 174.522,135.603 174.834 C 135.604 175.145,135.963 175.940,136.400 176.600 C 136.837 177.260,137.196 178.214,137.197 178.720 C 137.199 179.226,137.504 180.216,137.877 180.920 C 139.030 183.102,139.711 232.855,138.628 235.800 C 137.936 237.680,135.685 238.572,131.590 238.586 C 127.562 238.601,127.462 238.565,125.215 236.271 L 124.110 235.142 123.920 212.801 C 123.751 192.841,123.660 190.351,123.066 189.444 C 122.699 188.885,122.397 188.017,122.394 187.514 C 122.391 187.011,122.129 186.150,121.811 185.600 C 121.494 185.050,121.039 184.162,120.799 183.627 C 120.147 182.168,115.707 178.040,114.476 177.748 C 113.884 177.607,113.066 177.202,112.658 176.846 C 111.579 175.906,102.611 175.907,101.177 176.848 C 100.633 177.204,99.618 177.620,98.922 177.773 C 98.225 177.926,97.441 178.310,97.179 178.626 C 96.917 178.942,96.473 179.200,96.193 179.200 C 95.341 179.200,90.658 184.143,89.722 186.029 C 87.861 189.784,87.646 192.439,87.433 214.294 C 87.313 226.722,87.078 235.081,86.836 235.532 C 84.965 239.029,77.752 239.930,74.296 237.099 C 71.842 235.090,71.932 236.644,72.077 198.532 L 72.200 166.464 73.170 165.432 C 74.333 164.194,78.904 163.938,80.933 164.996 C 81.557 165.321,82.780 165.779,83.651 166.014 C 84.697 166.295,85.387 166.773,85.682 167.420 C 85.928 167.959,86.262 168.400,86.425 168.400 C 86.588 168.400,86.910 168.940,87.140 169.600 C 87.761 171.382,89.376 171.240,91.632 169.206 C 92.604 168.329,93.603 167.609,93.851 167.606 C 94.099 167.603,94.511 167.348,94.767 167.039 C 95.023 166.731,96.260 165.993,97.516 165.399 C 98.772 164.805,100.383 164.040,101.095 163.699 C 104.242 162.193,117.780 162.133,121.025 163.611 M325.674 164.073 C 328.128 165.614,328.834 170.894,326.974 173.800 C 326.693 174.240,326.332 175.500,326.172 176.600 C 326.013 177.700,325.653 178.960,325.372 179.400 C 325.092 179.840,324.732 181.100,324.572 182.200 C 324.413 183.300,324.061 184.560,323.789 185.000 C 323.518 185.440,323.193 186.618,323.067 187.618 C 322.941 188.618,322.560 189.968,322.221 190.618 C 321.882 191.268,321.598 192.340,321.589 193.000 C 321.580 193.660,321.225 194.920,320.800 195.800 C 320.375 196.680,320.017 197.940,320.005 198.600 C 319.992 199.260,319.626 200.585,319.191 201.544 C 318.756 202.503,318.394 203.853,318.386 204.544 C 318.379 205.235,318.025 206.520,317.600 207.400 C 317.175 208.280,316.821 209.565,316.814 210.256 C 316.806 210.947,316.444 212.297,316.009 213.256 C 315.574 214.215,315.214 215.635,315.209 216.411 C 315.204 217.187,314.936 218.199,314.614 218.659 C 314.291 219.119,313.856 220.465,313.647 221.648 C 313.438 222.832,312.990 224.520,312.651 225.400 C 312.312 226.280,312.027 227.504,312.018 228.120 C 312.008 228.736,311.752 229.726,311.448 230.320 C 311.145 230.914,310.767 231.999,310.610 232.730 C 310.165 234.794,308.770 236.602,306.816 237.646 C 304.574 238.845,297.053 239.074,295.742 237.983 C 295.334 237.643,294.550 237.135,294.000 236.852 C 292.701 236.186,291.305 233.993,290.973 232.099 C 290.829 231.275,290.487 230.240,290.214 229.800 C 289.941 229.360,289.592 228.160,289.439 227.133 C 289.286 226.106,288.922 225.068,288.631 224.826 C 288.340 224.584,287.983 223.534,287.837 222.493 C 287.692 221.452,287.310 220.251,286.987 219.824 C 286.664 219.396,286.400 218.584,286.400 218.018 C 286.400 217.451,286.040 216.316,285.600 215.496 C 285.160 214.675,284.800 213.685,284.800 213.296 C 284.800 212.906,284.440 211.916,284.000 211.096 C 283.560 210.275,283.199 209.197,283.197 208.701 C 283.196 208.206,282.837 207.260,282.400 206.600 C 281.963 205.940,281.604 205.084,281.603 204.699 C 281.601 204.313,281.240 203.325,280.800 202.504 C 280.360 201.684,279.988 200.739,279.973 200.406 C 279.937 199.576,277.868 195.916,277.398 195.852 C 276.837 195.775,274.924 199.564,274.634 201.328 C 274.495 202.169,274.136 203.249,273.836 203.728 C 273.535 204.208,273.167 205.301,273.016 206.157 C 272.865 207.014,272.485 207.972,272.171 208.286 C 271.857 208.600,271.600 209.342,271.600 209.934 C 271.600 210.527,271.240 211.684,270.800 212.504 C 270.360 213.325,270.000 214.405,270.000 214.904 C 270.000 215.404,269.640 216.484,269.200 217.304 C 268.760 218.125,268.400 219.158,268.400 219.600 C 268.400 220.042,268.040 221.075,267.600 221.896 C 267.160 222.716,266.800 223.796,266.800 224.296 C 266.800 224.795,266.440 225.875,266.000 226.696 C 265.560 227.516,265.200 228.648,265.200 229.209 C 265.200 229.771,264.840 230.937,264.400 231.800 C 263.960 232.663,263.600 233.620,263.600 233.927 C 263.600 234.793,261.720 236.819,260.082 237.718 C 256.142 239.879,245.600 237.946,245.600 235.062 C 245.600 234.842,245.331 234.366,245.002 234.002 C 244.673 233.639,244.292 232.455,244.154 231.371 C 244.017 230.287,243.671 229.025,243.387 228.567 C 243.102 228.108,242.740 226.848,242.583 225.767 C 242.425 224.685,242.073 223.350,241.800 222.800 C 241.527 222.250,241.176 220.900,241.021 219.800 C 240.865 218.700,240.509 217.440,240.230 217.000 C 239.951 216.560,239.595 215.226,239.439 214.036 C 239.283 212.845,238.895 211.500,238.578 211.047 C 238.260 210.593,237.992 209.677,237.982 209.011 C 237.973 208.345,237.688 207.080,237.349 206.200 C 237.010 205.320,236.563 203.642,236.356 202.470 C 236.149 201.299,235.736 199.949,235.438 199.470 C 235.140 198.992,234.786 197.733,234.652 196.673 C 234.518 195.614,234.136 194.359,233.804 193.884 C 233.472 193.410,233.194 192.387,233.186 191.611 C 233.179 190.835,232.825 189.480,232.400 188.600 C 231.975 187.720,231.615 186.460,231.600 185.800 C 231.585 185.140,231.225 183.880,230.800 183.000 C 230.375 182.120,230.015 180.860,230.000 180.200 C 229.985 179.540,229.625 178.280,229.200 177.400 C 228.775 176.520,228.420 175.260,228.411 174.600 C 228.402 173.940,228.110 172.860,227.762 172.200 C 225.789 168.457,227.909 163.709,231.891 162.958 C 234.425 162.480,239.627 162.948,240.180 163.705 C 240.459 164.087,240.893 164.400,241.144 164.400 C 241.395 164.400,241.600 164.646,241.600 164.946 C 241.600 165.246,241.937 165.921,242.349 166.446 C 242.761 166.971,243.234 168.206,243.399 169.191 C 243.565 170.176,243.929 171.346,244.208 171.791 C 244.487 172.236,244.839 173.680,244.990 175.000 C 245.141 176.320,245.492 177.760,245.769 178.200 C 246.047 178.640,246.390 180.130,246.532 181.510 C 246.674 182.891,247.037 184.511,247.339 185.110 C 247.641 185.710,247.997 187.293,248.130 188.628 C 248.264 189.963,248.648 191.583,248.984 192.228 C 249.320 192.873,249.604 194.120,249.615 195.000 C 249.626 195.880,249.906 197.320,250.238 198.200 C 250.569 199.080,251.009 201.039,251.216 202.554 C 251.423 204.069,251.778 205.532,252.006 205.807 C 252.233 206.081,252.581 207.452,252.779 208.853 C 253.111 211.203,254.181 214.706,254.933 215.901 C 255.327 216.526,256.800 215.843,256.800 215.035 C 256.800 214.740,257.054 214.287,257.365 214.029 C 257.676 213.771,258.052 212.678,258.200 211.600 C 258.348 210.522,258.704 209.445,258.991 209.207 C 259.278 208.969,259.638 207.940,259.791 206.920 C 259.944 205.901,260.303 204.692,260.590 204.233 C 260.876 203.775,261.235 202.689,261.388 201.820 C 261.541 200.952,261.921 199.877,262.233 199.431 C 262.545 198.986,262.800 198.121,262.800 197.510 C 262.800 196.898,263.160 195.725,263.600 194.904 C 264.040 194.084,264.406 192.959,264.414 192.406 C 264.421 191.853,264.775 190.680,265.200 189.800 C 265.625 188.920,265.985 187.750,266.000 187.200 C 266.015 186.650,266.375 185.480,266.800 184.600 C 267.225 183.720,267.579 182.488,267.586 181.863 C 267.594 181.238,267.960 180.269,268.400 179.709 C 268.840 179.150,269.200 178.455,269.200 178.164 C 269.200 177.874,269.622 177.223,270.138 176.718 C 275.207 171.758,284.467 172.611,287.015 178.273 C 287.330 178.973,287.760 179.652,287.971 179.782 C 288.181 179.912,288.474 180.869,288.620 181.909 C 288.767 182.949,289.147 184.213,289.464 184.718 C 289.782 185.223,290.149 186.542,290.280 187.649 C 290.411 188.756,290.736 189.879,291.001 190.144 C 291.266 190.409,291.615 191.520,291.777 192.613 C 291.939 193.706,292.301 194.870,292.582 195.200 C 292.864 195.530,293.217 196.610,293.367 197.600 C 293.517 198.590,293.873 199.760,294.158 200.200 C 294.442 200.640,294.793 201.750,294.937 202.666 C 295.081 203.583,295.452 204.843,295.761 205.466 C 296.070 206.090,296.507 207.320,296.731 208.200 C 298.345 214.542,302.000 217.388,302.000 212.304 C 302.000 211.675,302.285 210.609,302.634 209.935 C 302.982 209.261,303.367 207.695,303.489 206.455 C 303.611 205.215,303.958 203.710,304.260 203.110 C 304.563 202.511,304.926 200.891,305.068 199.510 C 305.210 198.130,305.556 196.640,305.836 196.200 C 306.117 195.760,306.473 194.230,306.627 192.800 C 306.781 191.370,307.132 189.750,307.407 189.200 C 307.682 188.650,308.039 187.030,308.200 185.600 C 308.361 184.170,308.717 182.550,308.991 182.000 C 309.264 181.450,309.603 179.848,309.744 178.441 C 309.885 177.033,310.192 175.651,310.426 175.368 C 310.661 175.086,311.022 173.655,311.230 172.190 C 311.438 170.724,311.876 169.142,312.204 168.673 C 312.532 168.205,312.800 167.498,312.800 167.102 C 312.800 163.082,321.017 161.148,325.674 164.073 M159.754 173.164 C 154.445 174.496,149.079 183.818,148.041 193.514 C 147.292 200.507,147.906 211.811,149.117 213.315 C 149.332 213.582,149.641 214.422,149.804 215.182 C 149.966 215.942,150.616 217.472,151.247 218.582 C 151.878 219.692,152.574 221.013,152.794 221.517 C 155.086 226.780,164.137 234.099,171.600 236.725 C 177.884 238.937,178.029 238.963,185.005 239.121 C 195.742 239.365,201.267 237.866,209.238 232.548 C 211.750 230.872,216.717 226.052,218.000 224.046 C 218.330 223.530,218.885 222.723,219.234 222.254 C 220.576 220.447,223.600 214.067,223.600 213.043 C 223.600 212.675,223.872 211.723,224.205 210.927 C 225.630 207.515,225.654 194.688,224.242 190.928 C 223.927 190.088,223.554 188.882,223.414 188.250 C 222.721 185.114,217.843 176.542,215.600 174.515 C 212.176 171.423,205.320 173.057,202.845 177.555 C 201.611 179.798,201.846 180.588,205.588 186.800 C 208.164 191.077,209.675 198.791,208.838 203.400 C 207.814 209.042,207.479 210.215,206.161 212.768 C 197.904 228.775,174.274 228.388,166.426 212.117 C 165.706 210.623,164.957 209.091,164.763 208.714 C 163.469 206.195,163.608 194.692,164.965 192.067 C 165.314 191.392,165.600 190.643,165.600 190.403 C 165.600 189.932,167.321 186.335,169.238 182.800 C 172.249 177.249,166.551 171.460,159.754 173.164 M165.530 174.517 C 165.898 174.841,166.572 175.218,167.028 175.357 C 169.951 176.244,170.294 179.283,167.958 183.600 C 166.305 186.655,165.200 189.031,165.200 189.532 C 165.200 189.865,164.924 190.442,164.587 190.815 C 162.673 192.930,162.652 207.341,164.559 210.063 C 164.912 210.566,165.200 211.270,165.200 211.628 C 165.200 211.985,165.560 212.693,166.000 213.200 C 166.440 213.707,166.800 214.331,166.800 214.586 C 166.800 215.730,173.232 221.576,175.394 222.398 C 175.947 222.608,176.400 222.956,176.400 223.172 C 176.400 223.387,177.075 223.685,177.900 223.833 C 178.725 223.980,179.715 224.376,180.100 224.712 C 181.130 225.612,190.528 225.615,192.210 224.715 C 192.864 224.365,194.165 223.874,195.100 223.623 C 196.035 223.373,196.800 222.995,196.800 222.784 C 196.800 222.573,197.062 222.400,197.382 222.400 C 199.169 222.400,204.595 217.338,206.193 214.180 C 206.804 212.971,207.450 211.893,207.629 211.782 C 207.808 211.672,208.079 210.749,208.231 209.732 C 208.384 208.715,208.753 207.414,209.052 206.841 C 209.822 205.366,209.811 195.014,209.038 193.533 C 208.732 192.946,208.359 191.741,208.209 190.856 C 208.060 189.970,207.682 189.034,207.369 188.774 C 207.056 188.514,206.800 187.964,206.800 187.551 C 206.800 187.138,206.440 186.440,206.000 186.000 C 205.560 185.560,205.200 185.044,205.200 184.854 C 205.200 184.664,204.798 183.997,204.306 183.372 C 203.058 181.785,203.011 177.776,204.228 176.600 C 208.722 172.255,213.759 172.554,217.014 177.360 C 218.774 179.957,219.212 180.711,220.409 183.200 C 221.097 184.630,221.916 186.310,222.230 186.934 C 222.544 187.557,222.916 188.817,223.056 189.734 C 223.197 190.650,223.594 191.940,223.940 192.600 C 224.756 194.158,224.878 207.942,224.085 208.898 C 223.814 209.224,223.399 210.550,223.162 211.845 C 222.924 213.140,222.496 214.470,222.209 214.800 C 221.923 215.130,221.565 215.983,221.414 216.695 C 221.262 217.408,220.970 218.095,220.763 218.223 C 220.557 218.350,220.124 219.027,219.802 219.727 C 217.530 224.663,211.157 231.082,205.800 233.832 C 205.140 234.171,204.150 234.705,203.600 235.018 C 203.050 235.332,202.330 235.592,202.000 235.597 C 201.670 235.601,200.860 235.963,200.200 236.400 C 199.540 236.837,198.419 237.196,197.708 237.197 C 196.998 237.199,195.648 237.515,194.708 237.900 C 192.595 238.766,179.738 238.945,178.748 238.123 C 178.431 237.860,177.053 237.465,175.685 237.245 C 174.318 237.024,172.799 236.564,172.310 236.222 C 171.822 235.880,171.036 235.600,170.565 235.600 C 170.094 235.600,169.250 235.240,168.691 234.800 C 168.131 234.360,167.485 234.000,167.255 234.000 C 167.024 234.000,166.153 233.547,165.318 232.993 C 164.483 232.439,163.462 231.764,163.049 231.493 C 161.743 230.637,160.397 229.462,158.359 227.400 C 155.426 224.433,155.200 224.170,155.200 223.728 C 155.200 223.506,154.840 222.998,154.400 222.600 C 153.960 222.202,153.600 221.632,153.600 221.334 C 153.600 221.036,153.240 220.484,152.800 220.107 C 152.360 219.730,152.000 219.145,152.000 218.805 C 152.000 218.466,151.640 217.516,151.200 216.696 C 150.760 215.875,150.399 214.887,150.398 214.501 C 150.396 214.116,150.106 213.260,149.753 212.600 C 148.220 209.735,148.145 191.897,149.651 188.522 C 150.063 187.599,150.400 186.478,150.400 186.031 C 150.400 185.584,150.968 184.179,151.663 182.909 C 152.357 181.639,153.127 180.222,153.374 179.760 C 153.621 179.298,154.088 178.642,154.411 178.302 C 154.735 177.962,155.448 177.125,155.996 176.442 C 156.543 175.759,157.199 175.200,157.453 175.200 C 157.707 175.200,158.013 174.944,158.133 174.631 C 158.569 173.495,164.264 173.407,165.530 174.517 " stroke="none" fill="#eca6a9" fill-rule="evenodd"></path></g></svg>