<?xml version="1.0" encoding="utf-8"?>
<!-- Generator: Adobe Illustrator 21.0.0, SVG Export Plug-In . SVG Version: 6.00 Build 0)  -->
<svg version="1.1" id="Layer_1" xmlns="http://www.w3.org/2000/svg" xmlns:xlink="http://www.w3.org/1999/xlink" x="0px" y="0px"
	 viewBox="0 0 1002 276.3" style="enable-background:new 0 0 1002 276.3;" xml:space="preserve">
<style type="text/css">
	.st0{fill:#4B4B4B;}
	.st1{fill:#C73A63;}
	.st2{fill:#4A4A4A;}
</style>
<g>
	<path class="st0" d="M366.6,109.3h20.2l11.6,54.8l11.9-54.8H431l-22.1,76.1h-20.5L376.5,130l-12.1,55.4h-20.7l-21.4-76.1h21.4
		l11.9,54.6L366.6,109.3z"/>
	<path class="st0" d="M487.8,110.9c5.3,2.4,9.7,6.1,13.1,11.3c3.1,4.5,5.1,9.8,6.1,15.7c0.5,3.5,0.8,8.5,0.7,15.1h-55.4
		c0.3,7.6,3,13,8,16.1c3,1.9,6.7,2.9,11,2.9c4.5,0,8.2-1.2,11-3.5c1.5-1.3,2.9-3,4.1-5.2h20.3c-0.5,4.5-3,9.1-7.4,13.7
		c-6.8,7.4-16.4,11.1-28.6,11.1c-10.1,0-19.1-3.1-26.8-9.4s-11.6-16.4-11.6-30.5c0-13.2,3.5-23.3,10.5-30.3c7-7,16.1-10.5,27.2-10.5
		C476.5,107.3,482.5,108.5,487.8,110.9z M458,128.1c-2.8,2.9-4.6,6.8-5.3,11.8H487c-0.4-5.3-2.1-9.3-5.3-12
		c-3.2-2.7-7.1-4.1-11.8-4.1C464.8,123.7,460.9,125.2,458,128.1z"/>
	<path class="st0" d="M582.6,118.5c5.7,7.2,8.5,16.5,8.5,27.9c0,11.8-2.8,21.6-8.4,29.4c-5.6,7.8-13.4,11.7-23.5,11.7
		c-6.3,0-11.4-1.3-15.2-3.8c-2.3-1.5-4.8-4.1-7.4-7.8v9.6h-19.6V82.7h19.9v36.6c2.5-3.5,5.3-6.2,8.4-8.1c3.6-2.3,8.2-3.5,13.8-3.5
		C569,107.7,576.9,111.3,582.6,118.5z M566,164.8c2.9-4.1,4.3-9.6,4.3-16.3c0-5.4-0.7-9.9-2.1-13.4c-2.7-6.7-7.6-10.1-14.8-10.1
		c-7.3,0-12.3,3.3-15,9.8c-1.4,3.5-2.1,8-2.1,13.5c0,6.5,1.5,11.9,4.4,16.2c2.9,4.3,7.3,6.4,13.3,6.4C559.1,171,563.1,169,566,164.8
		z"/>
	<path class="st0" d="M657.3,109.8c3.8,1.6,7,4.1,9.4,7.5c2.1,2.8,3.4,5.8,3.8,8.8c0.5,3,0.7,7.9,0.7,14.7v44.7h-20.3v-46.3
		c0-4.1-0.7-7.4-2.1-9.9c-1.8-3.5-5.2-5.3-10.3-5.3c-5.2,0-9.2,1.8-11.9,5.3c-2.7,3.5-4.1,8.5-4.1,15.1v41.2h-19.9V82.9h19.9v36.3
		c2.9-4.4,6.2-7.5,10-9.2c3.8-1.7,7.7-2.6,11.9-2.6C649.2,107.3,653.5,108.1,657.3,109.8z"/>
	<path class="st0" d="M750.4,176.1c-6.4,7.9-16.2,11.9-29.2,11.9c-13.1,0-22.8-4-29.2-11.9c-6.4-7.9-9.6-17.5-9.6-28.6
		c0-11,3.2-20.5,9.6-28.5c6.4-8,16.2-12.1,29.2-12.1c13.1,0,22.8,4,29.2,12.1c6.4,8,9.6,17.6,9.6,28.5
		C760,158.7,756.8,168.2,750.4,176.1z M734.4,165.1c3.1-4.1,4.7-10,4.7-17.6c0-7.6-1.6-13.5-4.7-17.6c-3.1-4.1-7.6-6.2-13.4-6.2
		c-5.8,0-10.3,2.1-13.4,6.2s-4.7,10-4.7,17.6c0,7.6,1.6,13.5,4.7,17.6s7.6,6.2,13.4,6.2C726.9,171.3,731.3,169.3,734.4,165.1z"/>
	<path class="st0" d="M835.3,176.1c-6.4,7.9-16.2,11.9-29.2,11.9c-13.1,0-22.8-4-29.2-11.9c-6.4-7.9-9.6-17.5-9.6-28.6
		c0-11,3.2-20.5,9.6-28.5c6.4-8,16.2-12.1,29.2-12.1c13.1,0,22.8,4,29.2,12.1c6.4,8,9.6,17.6,9.6,28.5
		C844.9,158.7,841.7,168.2,835.3,176.1z M819.4,165.1c3.1-4.1,4.7-10,4.7-17.6c0-7.6-1.6-13.5-4.7-17.6c-3.1-4.1-7.6-6.2-13.4-6.2
		c-5.8,0-10.3,2.1-13.4,6.2s-4.7,10-4.7,17.6c0,7.6,1.6,13.5,4.7,17.6s7.6,6.2,13.4,6.2C811.8,171.3,816.3,169.3,819.4,165.1z"/>
	<path class="st0" d="M856.3,82.9h19.5v55.5l25.1-28.7h24.7L898.4,138l28.3,47.4h-24.2l-18.4-32.5l-8.2,8.6v23.9h-19.5V82.9z"/>
	<path class="st0" d="M947.2,161.1c0.4,3.5,1.3,6,2.7,7.5c2.5,2.7,7.1,4,13.7,4c3.9,0,7-0.6,9.4-1.7c2.3-1.2,3.5-2.9,3.5-5.2
		c0-2.2-0.9-3.9-2.8-5.1c-1.9-1.2-8.8-3.2-20.8-6c-8.6-2.1-14.7-4.8-18.3-8c-3.5-3.2-5.3-7.7-5.3-13.7c0-7,2.8-13.1,8.3-18.1
		c5.5-5,13.3-7.6,23.3-7.6c9.5,0,17.3,1.9,23.3,5.7c6,3.8,9.4,10.3,10.3,19.6h-19.9c-0.3-2.6-1-4.6-2.2-6.1c-2.2-2.7-5.9-4-11.2-4
		c-4.3,0-7.4,0.7-9.3,2c-1.8,1.4-2.8,2.9-2.8,4.7c0,2.3,1,3.9,2.9,5c2,1.1,8.9,2.9,20.8,5.5c7.9,1.9,13.9,4.7,17.8,8.4
		c3.9,3.8,5.9,8.6,5.9,14.3c0,7.5-2.8,13.7-8.4,18.5c-5.6,4.8-14.3,7.2-26,7.2c-12,0-20.8-2.5-26.5-7.6c-5.7-5-8.6-11.5-8.6-19.3
		H947.2z"/>
</g>
<g>
	<path class="st1" d="M139.1,115.8c-12.3,20.8-24.2,40.8-36.2,60.8c-3.1,5.1-4.6,9.3-2.2,15.8c6.8,18-2.8,35.5-20.9,40.2
		c-17.1,4.5-33.8-6.8-37.2-25.1c-3-16.2,9.6-32.1,27.4-34.6c1.5-0.2,3-0.2,5.5-0.4l27.2-45.6c-17.1-17-27.3-36.9-25-61.5
		C79.3,48,86.2,33,98.7,20.7c24-23.6,60.5-27.4,88.7-9.3c27.1,17.4,39.5,51.3,28.9,80.3c-8-2.2-16-4.3-24.8-6.7
		c3.3-16.1,0.9-30.6-10-43c-7.2-8.2-16.4-12.5-26.9-14.1c-21-3.2-41.7,10.3-47.8,31C99.8,82.2,110.3,101.4,139.1,115.8L139.1,115.8z
		"/>
	<path class="st0" d="M174.3,91.3c8.7,15.3,17.5,30.9,26.3,46.3c44.2-13.7,77.6,10.8,89.5,37c14.5,31.7,4.6,69.2-23.8,88.7
		c-29.1,20.1-66,16.6-91.8-9.1c6.6-5.5,13.2-11,20.3-16.9c25.5,16.5,47.8,15.7,64.3-3.8c14.1-16.7,13.8-41.6-0.7-57.9
		c-16.8-18.8-39.2-19.4-66.4-1.3c-11.3-20-22.7-39.8-33.6-59.9c-3.7-6.8-7.7-10.7-16-12.1c-13.8-2.4-22.8-14.3-23.3-27.6
		c-0.5-13.2,7.2-25.1,19.4-29.7c12-4.6,26.1-0.9,34.2,9.3c6.6,8.3,8.7,17.7,5.2,28C176.9,85.1,175.7,87.9,174.3,91.3L174.3,91.3z"/>
	<path class="st2" d="M195.1,216.7h-53.3c-5.1,21-16.1,37.9-35.1,48.7c-14.8,8.4-30.7,11.2-47.6,8.5c-31.2-5-56.7-33.1-58.9-64.7
		c-2.5-35.8,22.1-67.7,54.9-74.8c2.3,8.2,4.6,16.5,6.8,24.7c-30.1,15.4-40.5,34.7-32.1,58.9c7.4,21.3,28.5,33,51.4,28.5
		c23.4-4.6,35.1-24,33.7-55.2c22.1,0,44.3-0.2,66.5,0.1c8.6,0.1,15.3-0.8,21.8-8.4c10.7-12.5,30.5-11.4,42,0.4
		c11.8,12.1,11.2,31.6-1.3,43.2c-12.1,11.2-31.1,10.6-42.4-1.5C199.2,222.7,197.4,219.7,195.1,216.7L195.1,216.7z"/>
</g>
</svg>
