<?xml version="1.0" encoding="UTF-8"?>
<svg width="90px" height="84px" viewBox="0 0 90 84" version="1.1" xmlns="http://www.w3.org/2000/svg" xmlns:xlink="http://www.w3.org/1999/xlink">
    <!-- Generator: Sketch 45 (43475) - http://www.bohemiancoding.com/sketch -->
    <title>nodes</title>
    <desc>Created with Sketch.</desc>
    <defs></defs>
    <g id="Page-1" stroke="none" stroke-width="1" fill="none" fill-rule="evenodd">
        <g id="nodes" fill-rule="nonzero">
            <path d="M24.2,28.2 L24.2,0.7 L65.8,0.7 L65.8,28.2 L24.2,28.2 Z M29.4,23.1 L60.6,23.1 L60.6,5.8 L29.4,5.8 L29.4,23.1 Z" id="Combined-Shape" fill="#B4B8BB"></path>
            <polygon id="Stroke-2" fill="#B4B8BB" points="51.9 35.1 51.9 31.7 38.1 31.7 38.1 35.1"></polygon>
            <polygon id="Stroke-3" fill="#B4B8BB" points="46.7 28.2 43.3 28.2 43.3 33.4 46.7 33.4"></polygon>
            <path d="M0,76.4 L0,57.5 L27.7,57.5 L27.7,76.4 L0,76.4 Z M3.5,73 L24.2,73 L24.2,60.9 L3.5,60.9 L3.5,73 Z" id="Combined-Shape" fill="#B4B8BB"></path>
            <polygon id="Stroke-7" fill="#B4B8BB" points="20.8 83.3 20.8 79.9 6.9 79.9 6.9 83.3"></polygon>
            <polygon id="Stroke-9" fill="#B4B8BB" points="15.6 76.4 12.1 76.4 12.1 81.6 15.6 81.6"></polygon>
            <path d="M31.2,76.4 L31.2,57.5 L58.8,57.5 L58.8,76.4 L31.2,76.4 Z M34.6,73 L55.4,73 L55.4,60.9 L34.6,60.9 L34.6,73 Z" id="Combined-Shape" fill="#5AAADE"></path>
            <polygon id="Stroke-14" fill="#5AAADE" points="51.9 83.3 51.9 79.9 38.1 79.9 38.1 83.3"></polygon>
            <polygon id="Stroke-16" fill="#5AAADE" points="46.7 76.4 43.3 76.4 43.3 81.6 46.7 81.6"></polygon>
            <path d="M62.3,76.4 L62.3,57.5 L90,57.5 L90,76.4 L62.3,76.4 Z M65.8,73 L86.5,73 L86.5,60.9 L65.8,60.9 L65.8,73 Z" id="Combined-Shape" fill="#B4B8BB"></path>
            <polygon id="Stroke-21" fill="#B4B8BB" points="83.1 83.3 83.1 79.9 69.2 79.9 69.2 83.3"></polygon>
            <polygon id="Stroke-23" fill="#B4B8BB" points="77.9 76.4 74.4 76.4 74.4 81.6 77.9 81.6"></polygon>
            <polygon id="Stroke-27" fill="#B4B8BB" points="77.9 45.4 77.9 43.7 76.2 43.7 13.8 43.7 12.1 43.7 12.1 45.4 12.1 54.1 15.6 54.1 15.6 45.4 13.8 47.2 76.2 47.2 74.4 45.4 74.4 54.1 77.9 54.1"></polygon>
            <polygon id="Stroke-28" fill="#B4B8BB" points="43.3 54.1 46.7 54.1 46.7 38.6 43.3 38.6"></polygon>
        </g>
    </g>
</svg>