<?xml version="1.0" encoding="UTF-8"?>
<svg width="64px" height="90px" viewBox="0 0 64 90" version="1.1" xmlns="http://www.w3.org/2000/svg" xmlns:xlink="http://www.w3.org/1999/xlink">
    <!-- Generator: Sketch 45 (43475) - http://www.bohemiancoding.com/sketch -->
    <title>profiles</title>
    <desc>Created with Sketch.</desc>
    <defs></defs>
    <g id="Page-1" stroke="none" stroke-width="1" fill="none" fill-rule="evenodd">
        <g id="profiles" fill-rule="nonzero">
            <polygon id="Fill-1" fill="#5AAADE" points="62.1 16.9 47.1 16.9 47.1 1.9"></polygon>
            <path d="M1.9,0 L0,0 L0,1.9 L0,88.1 L0,90 L1.9,90 L62.1,90 L64,90 L64,88.1 L64,16.9 L64,16.1 L63.4,15.6 L48.3,0.6 L47.7,0.1 L46.9,0.1 L1.9,0.1 L1.9,0 Z M45.7,3.2 L60.8,18.2 L60.2,16.9 L60.2,88.1 L62.1,86.2 L1.9,86.2 L3.8,88.1 L3.8,1.9 L1.9,3.8 L47.1,3.8 L45.7,3.2 Z" id="Stroke-2" fill="#B4B8BB"></path>
            <path d="M37.6,48.8 C32.4,48.8 28.2,44.6 28.2,39.4 C28.2,34.2 32.4,30 37.6,30 C42.8,30 47,34.2 47,39.4 C47.1,44.6 42.8,48.8 37.6,48.8 Z M37.6,26.3 C30.3,26.3 24.4,32.2 24.4,39.4 C24.4,46.6 30.3,52.5 37.6,52.5 C44.9,52.5 50.8,46.6 50.8,39.4 C50.8,32.1 44.9,26.3 37.6,26.3 Z" id="Stroke-6" fill="#B4B8BB"></path>
            <polygon id="Fill-4" fill="#5AAADE" points="15.1 61.9 37.6 61.9 37.6 39.4 15.1 39.4"></polygon>
        </g>
    </g>
</svg>