<?xml version="1.0" encoding="UTF-8"?>
<svg width="89px" height="89px" viewBox="0 0 89 89" version="1.1" xmlns="http://www.w3.org/2000/svg" xmlns:xlink="http://www.w3.org/1999/xlink">
    <!-- Generator: Sketch 45 (43475) - http://www.bohemiancoding.com/sketch -->
    <title>radial</title>
    <desc>Created with Sketch.</desc>
    <defs></defs>
    <g id="Page-1" stroke="none" stroke-width="1" fill="none" fill-rule="evenodd">
        <g id="radial" transform="translate(-1.000000, -1.000000)" fill-rule="nonzero">
            <path d="M83.5036813,45.2759341 C83.5036813,66.3542308 66.3542308,83.5036813 45.2759341,83.5036813 C24.1976374,83.5036813 7.05065934,66.3542308 7.05065934,45.2759341 C7.05065934,24.1976374 24.1976374,7.05065934 45.2759341,7.05065934 C66.3542308,7.05065934 83.5036813,24.1976374 83.5036813,45.2759341 M45.2759341,0.988021978 C20.8572527,0.988021978 0.988021978,20.8572527 0.988021978,45.2759341 C0.988021978,69.6970879 20.8572527,89.5638462 45.2759341,89.5638462 C69.6970879,89.5638462 89.5638462,69.6970879 89.5638462,45.2759341 C89.5638462,20.8572527 69.6970879,0.988021978 45.2759341,0.988021978" id="Fill-1" fill="#B4B8BB"></path>
            <path d="M45.4945055,70.4769231 C31.6978022,70.4769231 20.5120879,59.2912088 20.5120879,45.4945055 C20.5120879,31.6978022 31.6978022,20.5120879 45.4945055,20.5120879 C59.2912088,20.5120879 70.4769231,31.6978022 70.4769231,45.4945055 C70.4769231,59.2912088 59.2912088,70.4769231 45.4945055,70.4769231 M45.4945055,14.5879121 C28.4266484,14.5879121 14.5879121,28.4266484 14.5879121,45.4945055 C14.5879121,62.5623626 28.4266484,76.4010989 45.4945055,76.4010989 C62.5623626,76.4010989 76.4010989,62.5623626 76.4010989,45.4945055 C76.4010989,28.4266484 62.5623626,14.5879121 45.4945055,14.5879121" id="Fill-12" fill="#5AAADE"></path>
        </g>
    </g>
</svg>