<svg width="13" height="12" viewBox="0 0 13 12" fill="none" xmlns="http://www.w3.org/2000/svg">
<path fill-rule="evenodd" clip-rule="evenodd" d="M9.36766 7.54739H8.83173L8.64177 7.36213C9.3066 6.57995 9.70686 5.56448 9.70686 4.45982C9.70686 1.99663 7.73272 0 5.29728 0C2.86183 0 0.887695 1.99663 0.887695 4.45982C0.887695 6.92301 2.86183 8.91929 5.29728 8.91929C6.3895 8.91929 7.39352 8.51482 8.1669 7.84208L8.35006 8.03454V8.57657L11.742 12L12.7529 10.9777L9.36766 7.54739ZM5.29724 7.54747C3.60803 7.54747 2.24445 6.16835 2.24445 4.4599C2.24445 2.75145 3.60803 1.37233 5.29724 1.37233C6.98644 1.37233 8.35002 2.75145 8.35002 4.4599C8.35002 6.16835 6.98644 7.54747 5.29724 7.54747Z" fill="black"/>
</svg>
