<?xml version="1.0" encoding="UTF-8"?>
<svg width="83px" height="89px" viewBox="0 0 83 89" version="1.1" xmlns="http://www.w3.org/2000/svg" xmlns:xlink="http://www.w3.org/1999/xlink">
    <!-- Generator: Sketch 45 (43475) - http://www.bohemiancoding.com/sketch -->
    <title>services</title>
    <desc>Created with Sketch.</desc>
    <defs></defs>
    <g id="Page-1" stroke="none" stroke-width="1" fill="none" fill-rule="evenodd">
        <g id="services" fill-rule="nonzero">
            <polygon id="Fill-1" fill="#5AAADE" points="74.6931818 88.0425532 79.2272728 88.0425532 79.2272728 80.3829788 74.6931818 80.3829788"></polygon>
            <polygon id="Fill-2" fill="#5AAADE" points="67.534091 88.0425532 72.0681818 88.0425532 72.0681818 80.3829788 67.534091 80.3829788"></polygon>
            <path d="M75.6481088,18.0292545 L75.6481088,17.5505311 L75.6481088,17.0718077 L75.6232906,17.0718077 C75.3674724,8.12159494 68.0480178,0.91393536 59.061927,0.91393536 C50.077745,0.91393536 42.7563814,8.12159494 42.5024724,17.0718077 L42.4776542,17.0718077 L42.4776542,17.5505311 L42.4776542,18.0292545 L42.4776542,70.9281906 L42.4776542,71.406914 C42.4776542,78.0707438 37.0711088,83.4956374 30.4274724,83.4956374 C23.7819269,83.4956374 18.3753815,78.0707438 18.3753815,71.406914 L18.3753815,70.9281906 L18.3753815,38.9149992 C17.6327451,39.0203184 16.8786542,39.0930842 16.1092905,39.0930842 L14.3185633,39.0930842 L14.3185633,37.298829 C14.3185633,33.1875524 15.8591996,29.4477652 18.3753815,26.5984034 L18.3753815,0.91393536 L13.8412905,0.91393536 L13.8412905,12.2367013 C16.3574724,15.086063 17.8981087,18.8258503 17.8981087,22.9371268 L17.8981087,24.7313822 L16.1092905,24.7313822 C15.3361087,24.7313822 14.5839269,24.6586162 13.8412905,24.553297 L13.8412905,40.9601056 C16.3574724,43.8094672 17.8981087,47.5492546 17.8981087,51.6586162 L17.8981087,53.4547864 L16.1092905,53.4547864 C15.3361087,53.4547864 14.5839269,53.3820204 13.8412905,53.2767014 L13.8412905,70.9281906 L13.8412905,71.406914 L13.8412905,71.8856374 L13.8661087,71.8856374 C14.1200178,80.8358502 21.4413815,88.0435098 30.4274724,88.0435098 C39.4116542,88.0435098 46.7311088,80.8358502 46.986927,71.8856374 L47.011745,71.8856374 L47.011745,71.406914 L47.011745,70.9281906 L47.011745,18.0292545 L47.011745,17.5505311 C47.011745,10.8867013 52.4182906,5.4637226 59.061927,5.4637226 C65.7074724,5.4637226 71.1140178,10.8867013 71.1140178,17.5505311 L71.1140178,18.0292545 L71.1140178,66.0203184 L75.6481088,66.0203184 L75.6481088,18.0292545 Z" id="Fill-3" fill="#5AAADE"></path>
            <path d="M68.0113636,76.7925524 L78.75,76.7925524 L78.75,69.6117014 L68.0113636,69.6117014 L68.0113636,76.7925524 Z M80.5407272,66.0212758 L75.6477272,66.0212758 L71.1136364,66.0212758 L66.2225454,66.0212758 L64.4318182,66.0212758 L64.4318182,67.8155312 L64.4318182,78.5887226 L64.4318182,80.382978 L66.2225454,80.382978 L67.534091,80.382978 L72.0681818,80.382978 L74.6931818,80.382978 L79.2272728,80.382978 L80.5407272,80.382978 L82.3295454,80.382978 L82.3295454,78.5887226 L82.3295454,67.8155312 L82.3295454,66.0212758 L80.5407272,66.0212758 Z" id="Fill-12" fill="#B4B8BB"></path>
            <path d="M13.8412909,49.6211694 C8.63901818,48.6656374 4.57074546,44.5237226 3.74601818,39.261595 C8.6581091,40.033297 12.5736545,43.6677652 13.8412909,48.403297 C13.9558364,48.8303184 14.0818364,49.2535098 14.1505636,49.6958502 C14.0436545,49.6786162 13.9462909,49.6422332 13.8412909,49.6211694 M16.1073818,53.4547864 L17.8981091,53.4547864 L17.8981091,51.6586162 C17.8981091,47.5492546 16.3574727,43.8094672 13.8412909,40.9601056 C10.8917455,37.6186162 6.59438182,35.5026588 1.79110909,35.5026588 L0.000381818182,35.5026588 L0.000381818182,37.296914 C0.000381818182,45.452446 6.01592728,52.1698928 13.8412909,53.2767014 C14.5839273,53.3820204 15.3361091,53.4547864 16.1073818,53.4547864" id="Fill-14" fill="#B4B8BB"></path>
            <path d="M18.3753818,34.0421694 C19.6430182,29.3047226 23.5585636,25.6721694 28.4687454,24.9004672 C27.6459272,30.162595 23.5757454,34.3045098 18.3753818,35.2600418 C18.2703818,35.2791906 18.1711091,35.3174886 18.0642,35.3347226 C18.1348364,34.8904672 18.2608364,34.4691906 18.3753818,34.0421694 M14.3185636,37.2974886 L14.3185636,39.0936588 L16.1092909,39.0936588 C16.8786545,39.0936588 17.6327455,39.0208928 18.3753818,38.9155736 C26.2007454,37.8087652 32.216291,31.0913184 32.216291,22.9357864 L32.216291,21.1415312 L30.4255636,21.1415312 C25.622291,21.1415312 21.3249272,23.2574886 18.3753818,26.597063 C15.8592,29.4483396 14.3185636,33.1881268 14.3185636,37.2974886" id="Fill-15" fill="#B4B8BB"></path>
            <path d="M13.8412909,20.8977652 C8.63901818,19.9422332 4.57074546,15.8003183 3.74601818,10.5381907 C8.6581091,11.3098928 12.5736545,14.9443609 13.8412909,19.6798928 C13.9558364,20.106914 14.0818364,20.5301056 14.1505636,20.972446 C14.0436545,20.955212 13.9462909,20.918829 13.8412909,20.8977652 M16.1073818,24.7313822 L17.8981091,24.7313822 L17.8981091,22.935212 C17.8981091,18.8258503 16.3574727,15.086063 13.8412909,12.2367013 C10.8917455,8.89521196 6.59438182,6.77925452 1.79110909,6.77925452 L0.000381818182,6.77925452 L0.000381818182,8.57350982 C0.000381818182,16.7290417 6.01592728,23.4464886 13.8412909,24.553297 C14.5839273,24.6586162 15.3361091,24.7313822 16.1073818,24.7313822" id="Fill-16" fill="#B4B8BB"></path>
        </g>
    </g>
</svg>