<?xml version="1.0" encoding="UTF-8" standalone="no"?>
<svg width="23px" height="23px" viewBox="0 0 23 23" version="1.1" xmlns="http://www.w3.org/2000/svg" xmlns:xlink="http://www.w3.org/1999/xlink">
    <!-- Generator: sketchtool 3.8.3 (29802) - http://www.bohemiancoding.com/sketch -->
    <title>31C21358-2B2C-471E-BD15-03BC6DBC30D7</title>
    <desc>Created with sketchtool.</desc>
    <defs>
        <rect id="path-1" x="0" y="0" width="22.7555192" height="22.7555192" rx="4"></rect>
        <mask id="mask-2" maskContentUnits="userSpaceOnUse" maskUnits="objectBoundingBox" x="0" y="0" width="22.7555192" height="22.7555192" fill="white">
            <use xlink:href="#path-1"></use>
        </mask>
    </defs>
    <g id="Exploration" stroke="none" stroke-width="1" fill="none" fill-rule="evenodd">
        <g id="WELCOME" transform="translate(-512.000000, -406.000000)">
            <text id="WORKFLOW-CHANGES-*" font-family="HelveticaNeue, Helvetica Neue" font-size="11" font-weight="normal" line-spacing="31">
                <tspan x="538.84141" y="377.516762" fill="#6E8492">WORKFLOW CHANGES </tspan>
                <tspan x="662.50341" y="377.516762" font-size="16" fill="#6E8492">*</tspan>
                <tspan x="668.13541" y="377.516762" font-size="12" fill="#6E8492"></tspan>
                <tspan x="512.21341" y="405.360878" font-size="28" fill="#9012FE">    5</tspan>
                <tspan x="576.03541" y="408.516762" font-size="10" fill="#6E8492">   </tspan>
                <tspan x="582.47341" y="408.516762" font-size="12" fill="#4A90E2">view trend </tspan>
                <tspan x="652.762713" y="408.516762" font-family="FontAwesome" font-size="12" fill="#4A90E2"> </tspan>
            </text>
            <g id="Group-6" transform="translate(512.000000, 406.000000)">
                <use id="Rectangle-296" stroke="#931AFE" mask="url(#mask-2)" stroke-width="2" fill="#931AFE" xlink:href="#path-1"></use>
                <polygon id="W" fill="#FFFFFF" points="15.3782857 15.976 17.792 7 15.856 7 14.3851429 13.1851429 14.36 13.1851429 12.8262857 7 10.9782857 7 9.41942857 13.1097143 9.39428571 13.1097143 7.97371429 7 6 7 8.376 15.976 10.3748571 15.976 11.8708571 9.86628571 11.896 9.86628571 13.4171429 15.976"></polygon>
            </g>
        </g>
    </g>
</svg>